<svg xmlns="http://www.w3.org/2000/svg" width="60" height="60">
  <defs>
    <pattern id="p" width="30" height="30" patternUnits="userSpaceOnUse">
      <!-- Hearts pattern -->
      <path d="M15 22 C15 22, 7 16, 7 11 C7 8, 9 6, 11.5 6 C13 6, 14.5 7, 15 8.5 C15.5 7, 17 6, 18.5 6 C21 6, 23 8, 23 11 C23 16, 15 22, 15 22Z"
            fill="#ff8fab" opacity="0.6"/>
      <path d="M5 5 C5 5, 1 2.5, 1 1 C1 0, 2 0, 2.5 0.5 C3 0, 4 0, 4 1 C4 2.5, 5 5, 5 5Z" transform="translate(0,0)" fill="#ff8fab" opacity="0.3"/>
      <path d="M5 5 C5 5, 1 2.5, 1 1 C1 0, 2 0, 2.5 0.5 C3 0, 4 0, 4 1 C4 2.5, 5 5, 5 5Z" transform="translate(25,15)" fill="#ffc8dd" opacity="0.3"/>
    </pattern>
  </defs>
  <rect width="60" height="60" fill="url(#p)"/>
</svg>
