<svg xmlns="http://www.w3.org/2000/svg" viewBox="0 0 180 387">
  <defs>
    <linearGradient id="gf-bg" x1="0" y1="0" x2="1" y2="1">
      <stop offset="0%" stop-color="#e8f5e9"/>
      <stop offset="100%" stop-color="#c8e6c9"/>
    </linearGradient>
    <filter id="gf-glow">
      <feGaussianBlur stdDeviation="1.5" result="blur"/>
      <feMerge><feMergeNode in="blur"/><feMergeNode in="SourceGraphic"/></feMerge>
    </filter>
  </defs>
  <path fill-rule="evenodd" fill="url(#gf-bg)" d="
    M 0 0 H 180 V 387 H 0 Z
    M 12 12 V 129 H 168 V 12 Z
    M 12 135 V 252 H 168 V 135 Z
    M 12 258 V 375 H 168 V 258 Z
  "/>
  <rect x="0" y="0" width="180" height="1.5" fill="#388e3c" opacity="0.5"/>
  <rect x="0" y="385.5" width="180" height="1.5" fill="#388e3c" opacity="0.5"/>
  <rect x="0" y="0" width="1.5" height="387" fill="#388e3c" opacity="0.5"/>
  <rect x="178.5" y="0" width="1.5" height="387" fill="#388e3c" opacity="0.5"/>

  <!-- BIG flower top-left (petal radius 16px) -->
  <g transform="translate(8, 8)">
    <ellipse cx="0" cy="-16" rx="9" ry="14" fill="#f06292" opacity="0.7"/>
    <ellipse cx="0" cy="-16" rx="9" ry="14" fill="#e91e63" opacity="0.6" transform="rotate(72)"/>
    <ellipse cx="0" cy="-16" rx="9" ry="14" fill="#f48fb1" opacity="0.7" transform="rotate(144)"/>
    <ellipse cx="0" cy="-16" rx="9" ry="14" fill="#e91e63" opacity="0.6" transform="rotate(216)"/>
    <ellipse cx="0" cy="-16" rx="9" ry="14" fill="#f06292" opacity="0.7" transform="rotate(288)"/>
    <circle cx="0" cy="0" r="6" fill="#fff9c4"/>
    <circle cx="0" cy="0" r="3" fill="#f9a825"/>
  </g>
  <!-- BIG flower top-right -->
  <g transform="translate(172, 8)">
    <ellipse cx="0" cy="-14" rx="8" ry="12" fill="#ab47bc" opacity="0.7"/>
    <ellipse cx="0" cy="-14" rx="8" ry="12" fill="#9c27b0" opacity="0.6" transform="rotate(72)"/>
    <ellipse cx="0" cy="-14" rx="8" ry="12" fill="#ce93d8" opacity="0.7" transform="rotate(144)"/>
    <ellipse cx="0" cy="-14" rx="8" ry="12" fill="#9c27b0" opacity="0.6" transform="rotate(216)"/>
    <ellipse cx="0" cy="-14" rx="8" ry="12" fill="#ab47bc" opacity="0.7" transform="rotate(288)"/>
    <circle cx="0" cy="0" r="5.5" fill="#fff9c4"/>
    <circle cx="0" cy="0" r="2.5" fill="#f9a825"/>
  </g>

  <!-- BIG leaf branch left between photo1-2 -->
  <g transform="translate(7, 131)" filter="url(#gf-glow)">
    <!-- Vertical stem -->
    <line x1="0" y1="-20" x2="0" y2="20" stroke="#388e3c" stroke-width="2.5" stroke-linecap="round"/>
    <!-- Left leaves -->
    <ellipse cx="-9" cy="-12" rx="9" ry="5" fill="#66bb6a" opacity="0.8" transform="rotate(-40 -9 -12)"/>
    <ellipse cx="-9" cy="0" rx="8" ry="4.5" fill="#4caf50" opacity="0.8" transform="rotate(-35 -9 0)"/>
    <ellipse cx="-8" cy="12" rx="7" ry="4" fill="#66bb6a" opacity="0.8" transform="rotate(-30 -8 12)"/>
    <!-- Right leaves -->
    <ellipse cx="9" cy="-8" rx="9" ry="5" fill="#4caf50" opacity="0.8" transform="rotate(40 9 -8)"/>
    <ellipse cx="9" cy="4" rx="8" ry="4.5" fill="#66bb6a" opacity="0.8" transform="rotate(35 9 4)"/>
    <ellipse cx="8" cy="15" rx="7" ry="4" fill="#4caf50" opacity="0.8" transform="rotate(30 8 15)"/>
  </g>
  <!-- BIG leaf branch right between photo1-2 -->
  <g transform="translate(173, 131)" filter="url(#gf-glow)">
    <line x1="0" y1="-20" x2="0" y2="20" stroke="#388e3c" stroke-width="2.5" stroke-linecap="round"/>
    <ellipse cx="-9" cy="-12" rx="9" ry="5" fill="#66bb6a" opacity="0.8" transform="rotate(-40 -9 -12)"/>
    <ellipse cx="-9" cy="0" rx="8" ry="4.5" fill="#4caf50" opacity="0.8" transform="rotate(-35 -9 0)"/>
    <ellipse cx="-8" cy="12" rx="7" ry="4" fill="#66bb6a" opacity="0.8" transform="rotate(-30 -8 12)"/>
    <ellipse cx="9" cy="-8" rx="9" ry="5" fill="#4caf50" opacity="0.8" transform="rotate(40 9 -8)"/>
    <ellipse cx="9" cy="4" rx="8" ry="4.5" fill="#66bb6a" opacity="0.8" transform="rotate(35 9 4)"/>
    <ellipse cx="8" cy="15" rx="7" ry="4" fill="#4caf50" opacity="0.8" transform="rotate(30 8 15)"/>
  </g>

  <!-- BIG flower left between photo2-3 -->
  <g transform="translate(7, 254)">
    <ellipse cx="0" cy="-14" rx="8" ry="12" fill="#ffca28" opacity="0.75"/>
    <ellipse cx="0" cy="-14" rx="8" ry="12" fill="#ffa000" opacity="0.65" transform="rotate(60)"/>
    <ellipse cx="0" cy="-14" rx="8" ry="12" fill="#ffca28" opacity="0.75" transform="rotate(120)"/>
    <ellipse cx="0" cy="-14" rx="8" ry="12" fill="#ffa000" opacity="0.65" transform="rotate(180)"/>
    <ellipse cx="0" cy="-14" rx="8" ry="12" fill="#ffca28" opacity="0.75" transform="rotate(240)"/>
    <ellipse cx="0" cy="-14" rx="8" ry="12" fill="#ffa000" opacity="0.65" transform="rotate(300)"/>
    <circle cx="0" cy="0" r="5.5" fill="#fff9c4"/>
    <circle cx="0" cy="0" r="2.5" fill="#f57f17"/>
  </g>
  <!-- BIG flower right between photo2-3 -->
  <g transform="translate(173, 254)">
    <ellipse cx="0" cy="-14" rx="8" ry="12" fill="#ef5350" opacity="0.75"/>
    <ellipse cx="0" cy="-14" rx="8" ry="12" fill="#c62828" opacity="0.65" transform="rotate(72)"/>
    <ellipse cx="0" cy="-14" rx="8" ry="12" fill="#ef5350" opacity="0.75" transform="rotate(144)"/>
    <ellipse cx="0" cy="-14" rx="8" ry="12" fill="#c62828" opacity="0.65" transform="rotate(216)"/>
    <ellipse cx="0" cy="-14" rx="8" ry="12" fill="#ef5350" opacity="0.75" transform="rotate(288)"/>
    <circle cx="0" cy="0" r="5.5" fill="#fff9c4"/>
    <circle cx="0" cy="0" r="2.5" fill="#f57f17"/>
  </g>

  <!-- Big flower bottom-left -->
  <g transform="translate(8, 379)">
    <ellipse cx="0" cy="-12" rx="7" ry="10" fill="#66bb6a" opacity="0.8"/>
    <ellipse cx="0" cy="-12" rx="7" ry="10" fill="#4caf50" opacity="0.7" transform="rotate(72)"/>
    <ellipse cx="0" cy="-12" rx="7" ry="10" fill="#66bb6a" opacity="0.8" transform="rotate(144)"/>
    <ellipse cx="0" cy="-12" rx="7" ry="10" fill="#4caf50" opacity="0.7" transform="rotate(216)"/>
    <ellipse cx="0" cy="-12" rx="7" ry="10" fill="#66bb6a" opacity="0.8" transform="rotate(288)"/>
    <circle cx="0" cy="0" r="5" fill="#fff9c4"/>
    <circle cx="0" cy="0" r="2.5" fill="#f57f17"/>
  </g>
  <!-- Big flower bottom-right -->
  <g transform="translate(172, 379)">
    <ellipse cx="0" cy="-12" rx="7" ry="10" fill="#ab47bc" opacity="0.8" transform="rotate(20)"/>
    <ellipse cx="0" cy="-12" rx="7" ry="10" fill="#9c27b0" opacity="0.7" transform="rotate(92)"/>
    <ellipse cx="0" cy="-12" rx="7" ry="10" fill="#ab47bc" opacity="0.8" transform="rotate(164)"/>
    <ellipse cx="0" cy="-12" rx="7" ry="10" fill="#9c27b0" opacity="0.7" transform="rotate(236)"/>
    <ellipse cx="0" cy="-12" rx="7" ry="10" fill="#ab47bc" opacity="0.8" transform="rotate(308)"/>
    <circle cx="0" cy="0" r="5" fill="#fff9c4"/>
    <circle cx="0" cy="0" r="2.5" fill="#f57f17"/>
  </g>

  <!-- Mid-strip leaf sprites -->
  <g transform="translate(7, 70)">
    <ellipse cx="0" cy="-10" rx="6" ry="9" fill="#81c784" opacity="0.7" transform="rotate(-30)"/>
    <ellipse cx="0" cy="-10" rx="6" ry="9" fill="#4caf50" opacity="0.7" transform="rotate(30)"/>
    <circle cx="0" cy="0" r="3" fill="#388e3c"/>
  </g>
  <g transform="translate(173, 193)">
    <ellipse cx="0" cy="-10" rx="6" ry="9" fill="#81c784" opacity="0.7" transform="rotate(-30)"/>
    <ellipse cx="0" cy="-10" rx="6" ry="9" fill="#4caf50" opacity="0.7" transform="rotate(30)"/>
    <circle cx="0" cy="0" r="3" fill="#388e3c"/>
  </g>
  <g transform="translate(7, 316)">
    <ellipse cx="0" cy="-10" rx="6" ry="9" fill="#f06292" opacity="0.7" transform="rotate(-30)"/>
    <ellipse cx="0" cy="-10" rx="6" ry="9" fill="#e91e63" opacity="0.7" transform="rotate(30)"/>
    <circle cx="0" cy="0" r="3" fill="#c62828"/>
  </g>
  <g transform="translate(173, 316)">
    <ellipse cx="0" cy="-10" rx="6" ry="9" fill="#ffca28" opacity="0.7" transform="rotate(-30)"/>
    <ellipse cx="0" cy="-10" rx="6" ry="9" fill="#ffa000" opacity="0.7" transform="rotate(30)"/>
    <circle cx="0" cy="0" r="3" fill="#f57f17"/>
  </g>
</svg>
