<svg xmlns="http://www.w3.org/2000/svg" viewBox="0 0 180 387">
<defs>
  <linearGradient id="kw-bg" x1="0" y1="0" x2="1" y2="1">
    <stop offset="0%" stop-color="#fff0f5"/>
    <stop offset="100%" stop-color="#ffe4f0"/>
  </linearGradient>
  <filter id="kw-glow">
    <feGaussianBlur stdDeviation="2" result="blur"/>
    <feMerge><feMergeNode in="blur"/><feMergeNode in="SourceGraphic"/></feMerge>
  </filter>
</defs>
<path fill-rule="evenodd" fill="url(#kw-bg)" d="
  M 0 0 H 180 V 387 H 0 Z
  M 12 12 V 129 H 168 V 12 Z
  M 12 135 V 252 H 168 V 135 Z
  M 12 258 V 375 H 168 V 258 Z
"/>
<rect x="0" y="0" width="180" height="2" fill="#ff9ec8" opacity="0.8"/>
<rect x="0" y="385" width="180" height="2" fill="#ff9ec8" opacity="0.8"/>
<rect x="0" y="0" width="2" height="387" fill="#ff9ec8" opacity="0.8"/>
<rect x="178" y="0" width="2" height="387" fill="#ff9ec8" opacity="0.8"/>

<!-- TOP: Big kawaii heart cluster -->
<g transform="translate(90, 7)">
  <path d="M 0 4 C -2 1,-6 -1,-6 -4 C -6 -7,-3 -9,0 -6 C 3 -9,6 -7,6 -4 C 6 -1,2 1,0 4 Z" fill="#ff6fa6" filter="url(#kw-glow)" transform="scale(2.5)"/>
  <path d="M 0 4 C -2 1,-6 -1,-6 -4 C -6 -7,-3 -9,0 -6 C 3 -9,6 -7,6 -4 C 6 -1,2 1,0 4 Z" fill="#ffb3d1" transform="translate(-22,-2) scale(1.8) rotate(-15)"/>
  <path d="M 0 4 C -2 1,-6 -1,-6 -4 C -6 -7,-3 -9,0 -6 C 3 -9,6 -7,6 -4 C 6 -1,2 1,0 4 Z" fill="#ffb3d1" transform="translate(22,-2) scale(1.8) rotate(15)"/>
</g>

<path d="M 20 7 L 21.5 4 L 23 7 L 20 5.5 L 23 4 Z" fill="#ff9ec8" opacity="0.8" transform="scale(1.5) translate(-7,-1)"/>
<path d="M 155 7 L 158 3 L 161 7 L 155 5.5 L 161 4 Z" fill="#ff9ec8" opacity="0.7"/>
<circle cx="38" cy="8" r="3.5" fill="#ffc0dc" opacity="0.7"/>
<circle cx="142" cy="7" r="3" fill="#ffc0dc" opacity="0.7"/>
<circle cx="15" cy="5" r="2.5" fill="#ffaecf"/>
<circle cx="165" cy="5" r="2.5" fill="#ffaecf"/>

<path d="M 7 70 L 9 63 L 11 70 L 4 66 L 13 66 Z" fill="#ff6fa6" filter="url(#kw-glow)"/>
<g transform="translate(7, 131)">
  <ellipse cx="-8" cy="0" rx="8" ry="5" fill="#ff9ec8" opacity="0.8" transform="rotate(-20 -8 0)"/>
  <ellipse cx="8" cy="0" rx="8" ry="5" fill="#ff9ec8" opacity="0.8" transform="rotate(20 8 0)"/>
  <circle cx="0" cy="0" r="3.5" fill="#ff6fa6"/>
  <circle cx="0" cy="0" r="1.5" fill="white" opacity="0.6"/>
</g>
<path d="M 7 254 L 9 247 L 11 254 L 4 250 L 13 250 Z" fill="#ff6fa6" filter="url(#kw-glow)"/>
<path d="M 173 70 L 175 63 L 177 70 L 170 66 L 179 66 Z" fill="#ff6fa6" filter="url(#kw-glow)"/>
<g transform="translate(173, 131)">
  <ellipse cx="-8" cy="0" rx="8" ry="5" fill="#ff9ec8" opacity="0.8" transform="rotate(-20 -8 0)"/>
  <ellipse cx="8" cy="0" rx="8" ry="5" fill="#ff9ec8" opacity="0.8" transform="rotate(20 8 0)"/>
  <circle cx="0" cy="0" r="3.5" fill="#ff6fa6"/>
  <circle cx="0" cy="0" r="1.5" fill="white" opacity="0.6"/>
</g>
<path d="M 173 254 L 175 247 L 177 254 L 170 250 L 179 250 Z" fill="#ff6fa6" filter="url(#kw-glow)"/>
<path d="M 173 192 L 176 182 L 179 192 L 169 187 L 180 187 Z" fill="#ffb3d1" filter="url(#kw-glow)"/>
<path d="M 7 192 L 10 182 L 13 192 L 3 187 L 14 187 Z" fill="#ffb3d1" filter="url(#kw-glow)"/>

<!-- BOTTOM: Big bow + hearts -->
<g transform="translate(90, 380)">
  <ellipse cx="-12" cy="0" rx="11" ry="6" fill="#ff9ec8" opacity="0.85" transform="rotate(-20 -12 0)"/>
  <ellipse cx="12" cy="0" rx="11" ry="6" fill="#ff9ec8" opacity="0.85" transform="rotate(20 12 0)"/>
  <circle cx="0" cy="0" r="5" fill="#ff6fa6"/>
  <circle cx="0" cy="0" r="2.5" fill="white" opacity="0.6"/>
</g>
<path d="M 0 6 C -3 1,-9 -2,-9 -6 C -9 -10,-4.5 -13,0 -9 C 4.5 -13,9 -10,9 -6 C 9 -2,3 1,0 6 Z" fill="#ff9ec8" transform="translate(10,378) scale(1.2)"/>
<path d="M 0 6 C -3 1,-9 -2,-9 -6 C -9 -10,-4.5 -13,0 -9 C 4.5 -13,9 -10,9 -6 C 9 -2,3 1,0 6 Z" fill="#ff9ec8" transform="translate(170,378) scale(1.2)"/>
</svg>
