<svg width="172" height="366" viewBox="0 0 172 366" fill="none" xmlns="http://www.w3.org/2000/svg">
<path d="M17.1116 112.744H19.0436C19.3556 112.744 19.6196 112.852 19.8356 113.068C20.0596 113.284 20.1716 113.552 20.1716 113.872C20.1716 114.032 20.1396 114.18 20.0756 114.316C20.0196 114.452 19.9396 114.572 19.8356 114.676C19.7396 114.772 19.6196 114.852 19.4756 114.916C19.3396 114.972 19.1956 115 19.0436 115H15.9356C15.6316 114.984 15.3756 114.872 15.1676 114.664C14.9596 114.448 14.8556 114.184 14.8556 113.872V108.652C14.8476 108.508 14.8276 108.364 14.7956 108.22C14.7636 108.076 14.7516 107.948 14.7596 107.836C14.7756 107.716 14.8316 107.62 14.9276 107.548C15.0236 107.476 15.2036 107.44 15.4676 107.44H15.9836C16.1356 107.44 16.2796 107.472 16.4156 107.536C16.5596 107.592 16.6796 107.672 16.7756 107.776C16.8796 107.872 16.9596 107.992 17.0156 108.136C17.0796 108.272 17.1116 108.416 17.1116 108.568V112.744ZM20.0428 111.22C20.0428 110.7 20.1388 110.212 20.3308 109.756C20.5308 109.292 20.8028 108.892 21.1468 108.556C21.4908 108.212 21.8908 107.94 22.3468 107.74C22.8108 107.54 23.3028 107.44 23.8228 107.44C24.3428 107.44 24.8308 107.54 25.2868 107.74C25.7508 107.94 26.1508 108.212 26.4868 108.556C26.8308 108.892 27.1028 109.292 27.3028 109.756C27.5028 110.212 27.6028 110.7 27.6028 111.22C27.6028 111.74 27.5028 112.232 27.3028 112.696C27.1028 113.152 26.8308 113.552 26.4868 113.896C26.1508 114.24 25.7508 114.512 25.2868 114.712C24.8308 114.904 24.3428 115 23.8228 115C23.3028 115 22.8108 114.904 22.3468 114.712C21.8908 114.512 21.4908 114.24 21.1468 113.896C20.8028 113.552 20.5308 113.152 20.3308 112.696C20.1388 112.232 20.0428 111.74 20.0428 111.22ZM22.2988 111.22C22.2988 111.428 22.3388 111.628 22.4188 111.82C22.4988 112.012 22.6068 112.18 22.7428 112.324C22.8788 112.468 23.0388 112.584 23.2228 112.672C23.4148 112.752 23.6148 112.792 23.8228 112.792C24.0308 112.792 24.2268 112.752 24.4108 112.672C24.5948 112.584 24.7548 112.468 24.8908 112.324C25.0348 112.18 25.1468 112.012 25.2268 111.82C25.3068 111.628 25.3468 111.428 25.3468 111.22C25.3468 111.012 25.3068 110.816 25.2268 110.632C25.1468 110.44 25.0348 110.276 24.8908 110.14C24.7548 109.996 24.5948 109.884 24.4108 109.804C24.2268 109.716 24.0308 109.672 23.8228 109.672C23.6148 109.672 23.4148 109.716 23.2228 109.804C23.0388 109.884 22.8788 109.996 22.7428 110.14C22.6068 110.284 22.4988 110.452 22.4188 110.644C22.3388 110.836 22.2988 111.036 22.2988 111.244V111.22ZM30.7602 110.848L31.8402 108.16C31.9602 107.856 32.1602 107.648 32.4402 107.536C32.7202 107.416 33.0082 107.412 33.3042 107.524C33.6002 107.644 33.8082 107.844 33.9282 108.124C34.0562 108.404 34.0602 108.692 33.9402 108.988L31.8162 114.292C31.7682 114.412 31.6882 114.532 31.5762 114.652C31.4722 114.772 31.3402 114.864 31.1802 114.928C31.0362 114.984 30.8882 115.008 30.7362 115C30.5922 115 30.4522 114.972 30.3162 114.916C30.1882 114.86 30.0682 114.78 29.9562 114.676C29.8522 114.564 29.7722 114.436 29.7162 114.292L27.5922 108.988C27.4802 108.692 27.4842 108.404 27.6042 108.124C27.7242 107.844 27.9322 107.644 28.2282 107.524C28.5242 107.412 28.8122 107.416 29.0922 107.536C29.3722 107.648 29.5722 107.856 29.6922 108.16L30.7602 110.848ZM38.9626 107.44C39.2746 107.44 39.5386 107.548 39.7546 107.764C39.9786 107.98 40.0906 108.248 40.0906 108.568C40.0906 108.728 40.0586 108.876 39.9946 109.012C39.9386 109.148 39.8586 109.268 39.7546 109.372C39.6586 109.468 39.5386 109.548 39.3946 109.612C39.2586 109.668 39.1146 109.696 38.9626 109.696H37.3066V110.092H38.1706C38.4826 110.092 38.7466 110.2 38.9626 110.416C39.1866 110.632 39.2986 110.9 39.2986 111.22C39.2986 111.38 39.2666 111.528 39.2026 111.664C39.1466 111.8 39.0666 111.92 38.9626 112.024C38.8666 112.12 38.7466 112.2 38.6026 112.264C38.4666 112.32 38.3226 112.348 38.1706 112.348H37.3066V112.744H38.9626C39.2746 112.744 39.5386 112.852 39.7546 113.068C39.9786 113.284 40.0906 113.552 40.0906 113.872C40.0906 114.032 40.0586 114.18 39.9946 114.316C39.9386 114.452 39.8586 114.572 39.7546 114.676C39.6586 114.772 39.5386 114.852 39.3946 114.916C39.2586 114.972 39.1146 115 38.9626 115H36.1786C35.8586 115 35.5906 114.892 35.3746 114.676C35.1586 114.46 35.0506 114.192 35.0506 113.872V108.652C35.0426 108.508 35.0226 108.364 34.9906 108.22C34.9586 108.076 34.9466 107.948 34.9546 107.836C34.9706 107.716 35.0266 107.62 35.1226 107.548C35.2186 107.476 35.3986 107.44 35.6626 107.44H38.9626Z" fill="#FF8CD5"/>
<path d="M149.406 232.756L151.254 230.788C151.358 230.676 151.478 230.592 151.614 230.536C151.758 230.48 151.902 230.452 152.046 230.452C152.19 230.452 152.33 230.48 152.466 230.536C152.61 230.592 152.738 230.676 152.85 230.788C153.074 231.012 153.186 231.28 153.186 231.592C153.186 231.896 153.074 232.16 152.85 232.384L150.546 234.652L150.522 236.872C150.514 237.192 150.406 237.46 150.198 237.676C149.99 237.892 149.73 238 149.418 238C149.098 238 148.834 237.892 148.626 237.676C148.426 237.46 148.322 237.192 148.314 236.872L148.29 234.664L145.974 232.384C145.75 232.16 145.638 231.896 145.638 231.592C145.638 231.28 145.75 231.012 145.974 230.788C146.198 230.564 146.462 230.456 146.766 230.464C147.078 230.464 147.346 230.572 147.57 230.788L149.406 232.756ZM152.763 234.22C152.763 233.7 152.859 233.212 153.051 232.756C153.251 232.292 153.523 231.892 153.867 231.556C154.211 231.212 154.611 230.94 155.067 230.74C155.531 230.54 156.023 230.44 156.543 230.44C157.063 230.44 157.551 230.54 158.007 230.74C158.471 230.94 158.871 231.212 159.207 231.556C159.551 231.892 159.823 232.292 160.023 232.756C160.223 233.212 160.323 233.7 160.323 234.22C160.323 234.74 160.223 235.232 160.023 235.696C159.823 236.152 159.551 236.552 159.207 236.896C158.871 237.24 158.471 237.512 158.007 237.712C157.551 237.904 157.063 238 156.543 238C156.023 238 155.531 237.904 155.067 237.712C154.611 237.512 154.211 237.24 153.867 236.896C153.523 236.552 153.251 236.152 153.051 235.696C152.859 235.232 152.763 234.74 152.763 234.22ZM155.019 234.22C155.019 234.428 155.059 234.628 155.139 234.82C155.219 235.012 155.327 235.18 155.463 235.324C155.599 235.468 155.759 235.584 155.943 235.672C156.135 235.752 156.335 235.792 156.543 235.792C156.751 235.792 156.947 235.752 157.131 235.672C157.315 235.584 157.475 235.468 157.611 235.324C157.755 235.18 157.867 235.012 157.947 234.82C158.027 234.628 158.067 234.428 158.067 234.22C158.067 234.012 158.027 233.816 157.947 233.632C157.867 233.44 157.755 233.276 157.611 233.14C157.475 232.996 157.315 232.884 157.131 232.804C156.947 232.716 156.751 232.672 156.543 232.672C156.335 232.672 156.135 232.716 155.943 232.804C155.759 232.884 155.599 232.996 155.463 233.14C155.327 233.284 155.219 233.452 155.139 233.644C155.059 233.836 155.019 234.036 155.019 234.244V234.22ZM161.279 231.652C161.271 231.508 161.251 231.364 161.219 231.22C161.187 231.076 161.175 230.948 161.183 230.836C161.199 230.716 161.255 230.62 161.351 230.548C161.447 230.476 161.627 230.44 161.891 230.44H162.407C162.711 230.44 162.971 230.548 163.187 230.764C163.403 230.972 163.519 231.24 163.535 231.568V235.084C163.535 235.268 163.599 235.424 163.727 235.552C163.855 235.68 164.011 235.744 164.195 235.744C164.363 235.744 164.515 235.68 164.651 235.552C164.787 235.424 164.855 235.268 164.855 235.084V231.652C164.847 231.508 164.827 231.364 164.795 231.22C164.763 231.076 164.751 230.948 164.759 230.836C164.775 230.716 164.831 230.62 164.927 230.548C165.023 230.476 165.203 230.44 165.467 230.44H165.983C166.127 230.44 166.267 230.468 166.403 230.524C166.539 230.58 166.659 230.66 166.763 230.764C166.867 230.86 166.951 230.98 167.015 231.124C167.079 231.26 167.111 231.408 167.111 231.568V235.084C167.103 235.484 167.019 235.86 166.859 236.212C166.707 236.564 166.499 236.872 166.235 237.136C165.971 237.4 165.663 237.612 165.311 237.772C164.959 237.924 164.587 238 164.195 238C163.795 238 163.415 237.924 163.055 237.772C162.703 237.62 162.395 237.412 162.131 237.148C161.867 236.884 161.659 236.576 161.507 236.224C161.355 235.864 161.279 235.484 161.279 235.084V231.652Z" fill="#FF8CD5"/>
<path d="M14.1394 0.85528C13.0909 1.01461 12.1295 1.53125 11.418 2.3178C10.4623 1.85786 9.37712 1.74216 8.34594 1.99027C5.44918 2.55777 4.3413 4.57957 4.85205 7.18665C5.63708 11.1938 9.89509 13.2442 13.0269 14.231C13.264 14.3061 13.5161 14.3204 13.7601 14.2726C14.0041 14.2248 14.2321 14.1164 14.4233 13.9574C16.9699 11.8582 20.1209 8.35635 19.3358 4.34917C18.8251 1.74209 17.0362 0.287784 14.1394 0.85528Z" fill="#FF52A1" stroke="#231F20" stroke-width="0.5" stroke-miterlimit="10"/>
<path d="M14.6392 2.30361C16.2324 1.8141 16.9796 2.61638 17.3416 3.22417" stroke="white" stroke-width="0.5" stroke-miterlimit="10" stroke-linecap="round"/>
<path d="M22.4748 11.3343C21.721 11.4489 21.0298 11.8203 20.5184 12.3857C19.8313 12.0551 19.0511 11.9719 18.3098 12.1503C16.2273 12.5582 15.4309 14.0117 15.798 15.886C16.3624 18.7667 19.4235 20.2407 21.675 20.9502C21.8454 21.0041 22.0266 21.0144 22.202 20.9801C22.3775 20.9457 22.5414 20.8678 22.6789 20.7535C24.5096 19.2443 26.7748 16.7269 26.2105 13.8461C25.8433 11.9719 24.5573 10.9263 22.4748 11.3343Z" fill="#FF52A1" stroke="#231F20" stroke-width="0.5" stroke-miterlimit="10"/>
<path d="M22.8341 12.3756C23.9794 12.0237 24.5166 12.6005 24.7769 13.0374" stroke="white" stroke-width="0.5" stroke-miterlimit="10" stroke-linecap="round"/>
<path d="M167.002 112.619C166.946 112.603 166.881 112.571 166.883 112.518C166.885 112.478 166.925 112.45 166.961 112.428C167.009 112.4 167.057 112.372 167.106 112.345C167.194 112.296 167.284 112.249 167.376 112.205C166.867 111.298 165.862 110.675 164.74 110.495L164.739 110.495C164.328 110.429 163.9 110.423 163.476 110.484C162.12 110.68 160.97 111.505 160.043 112.481C160.46 111.377 160.655 110.184 160.331 109.037C160.263 108.795 160.172 108.562 160.062 108.34C159.469 107.147 158.314 106.274 157.075 106.162C157.085 106.316 157.071 106.471 157.032 106.619C157.018 106.673 156.987 106.736 156.932 106.736C156.891 106.736 156.86 106.699 156.836 106.665C156.805 106.62 156.774 106.576 156.744 106.53C156.686 106.442 156.63 106.352 156.578 106.26C156.523 106.298 156.472 106.342 156.422 106.388C155.761 106.991 155.261 107.796 154.971 108.683C154.785 109.251 154.686 109.854 154.686 110.459C154.685 111.222 154.843 111.982 155.131 112.679C153.964 111.82 152.575 111.148 151.096 111.22H151.096C151.088 111.22 151.081 111.221 151.074 111.221C149.433 111.309 147.94 112.354 147.499 113.742C147.687 113.784 147.867 113.863 148.023 113.976C148.068 114.008 148.115 114.059 148.096 114.11C148.081 114.149 148.035 114.165 147.995 114.175C147.943 114.188 147.89 114.201 147.837 114.212C147.727 114.236 147.616 114.257 147.505 114.274C147.529 114.325 147.559 114.376 147.589 114.425C148.102 115.262 148.895 115.965 149.827 116.441C150.3 116.683 150.808 116.866 151.333 116.978C152.385 117.203 153.492 117.143 154.484 116.829C153.485 117.318 152.611 118.109 152.029 119.083C151.713 119.611 151.486 120.189 151.352 120.785L151.352 120.785C151.138 121.734 151.162 122.726 151.442 123.626C151.457 123.672 151.472 123.717 151.489 123.762C151.666 123.642 151.866 123.556 152.076 123.512C152.138 123.5 152.218 123.499 152.246 123.555C152.267 123.598 152.245 123.648 152.223 123.69C152.193 123.745 152.163 123.799 152.131 123.853C152.066 123.966 151.997 124.076 151.924 124.184C153.266 124.83 155.028 124.548 156.232 123.529L156.232 123.529C156.282 123.487 156.33 123.444 156.378 123.4C157.481 122.371 157.917 120.857 158.046 119.376C158.349 120.637 158.913 121.857 159.946 122.665C160.086 122.775 160.232 122.874 160.384 122.963C161.569 123.662 163.069 123.743 164.188 123.127C164.065 122.975 163.969 122.8 163.909 122.614C163.89 122.555 163.88 122.476 163.932 122.443C163.972 122.417 164.024 122.434 164.067 122.451C164.124 122.474 164.18 122.498 164.237 122.523C164.369 122.581 164.5 122.645 164.628 122.714C164.654 122.645 164.671 122.571 164.685 122.498C164.867 121.588 164.782 120.607 164.466 119.691L164.466 119.691C164.279 119.149 164.011 118.631 163.669 118.164C163.186 117.505 162.562 116.955 161.865 116.554C162.702 116.565 163.558 116.399 164.343 116.059C164.836 115.846 165.297 115.564 165.71 115.231C166.494 114.599 167.105 113.781 167.43 112.892C167.456 112.821 167.48 112.749 167.493 112.677C167.327 112.683 167.16 112.663 167.002 112.619Z" fill="#F7BFCA"/>
<path d="M165.372 112.979C164.86 112.011 163.608 111.451 162.389 111.628C160.989 111.83 159.88 112.916 159.09 113.973C159.299 114.131 159.46 114.354 159.551 114.6C160.197 114.327 160.916 114.191 161.612 114.065L159.606 114.794C159.625 114.886 159.635 114.979 159.633 115.073C159.633 115.073 159.633 115.073 159.633 115.073C159.633 115.079 159.633 115.086 159.633 115.092C159.633 115.094 159.633 115.095 159.633 115.097C159.633 115.102 159.632 115.107 159.632 115.112C159.632 115.118 159.632 115.125 159.631 115.132L159.631 115.134C159.631 115.14 159.63 115.146 159.63 115.153L159.63 115.154L159.629 115.155L162.819 114.944C161.765 115.197 160.666 115.449 159.603 115.33L159.6 115.345C159.595 115.373 159.589 115.4 159.584 115.428C159.584 115.432 159.583 115.436 159.582 115.44C159.572 115.499 159.565 115.558 159.568 115.618C159.57 115.644 159.573 115.67 159.577 115.696C159.579 115.704 159.58 115.713 159.582 115.722L159.585 115.737C159.589 115.754 159.593 115.77 159.597 115.787L159.598 115.793C159.6 115.801 159.602 115.809 159.604 115.816C159.606 115.825 159.608 115.834 159.611 115.843L159.614 115.856C159.616 115.863 159.618 115.871 159.62 115.879C159.621 115.884 159.622 115.89 159.623 115.895L159.626 115.908L159.629 115.922C159.645 115.928 159.66 115.935 159.675 115.941C159.737 115.966 159.8 115.99 159.863 116.011C159.789 115.995 159.714 115.981 159.638 115.969C159.642 115.993 159.645 116.017 159.647 116.041C159.65 116.095 159.645 116.148 159.634 116.199C159.632 116.208 159.63 116.217 159.627 116.227C159.615 116.272 159.597 116.317 159.575 116.36C159.571 116.368 159.566 116.377 159.562 116.385C159.557 116.394 159.552 116.402 159.547 116.41C159.542 116.419 159.537 116.427 159.532 116.435C159.526 116.443 159.521 116.451 159.515 116.459C159.509 116.467 159.504 116.475 159.498 116.483C159.492 116.491 159.486 116.499 159.48 116.507C159.473 116.514 159.467 116.522 159.461 116.53C159.457 116.533 159.454 116.537 159.451 116.541C159.444 116.549 159.438 116.556 159.431 116.563C159.428 116.567 159.424 116.571 159.421 116.574C159.41 116.585 159.4 116.596 159.389 116.606C159.384 116.611 159.379 116.616 159.374 116.62C159.373 116.622 159.371 116.624 159.369 116.625C159.366 116.629 159.363 116.632 159.359 116.635C159.357 116.636 159.356 116.638 159.354 116.64C159.35 116.643 159.347 116.646 159.344 116.649C159.342 116.65 159.34 116.652 159.338 116.653C159.335 116.657 159.331 116.66 159.327 116.663C159.326 116.664 159.324 116.665 159.323 116.667C159.319 116.67 159.314 116.674 159.31 116.677C159.309 116.678 159.308 116.679 159.307 116.68C159.291 116.693 159.274 116.707 159.257 116.719C159.257 116.719 159.257 116.719 159.256 116.72C159.794 117.246 160.205 117.916 160.597 118.567L159.095 116.825C159.094 116.825 159.093 116.826 159.092 116.827C159.088 116.829 159.085 116.831 159.081 116.833C159.079 116.834 159.077 116.835 159.075 116.836C159.071 116.839 159.067 116.841 159.063 116.843C159.062 116.844 159.06 116.845 159.059 116.845C159.055 116.848 159.05 116.85 159.046 116.853C159.044 116.854 159.043 116.854 159.042 116.855C159.037 116.858 159.033 116.86 159.029 116.862C159.027 116.863 159.026 116.864 159.025 116.864C159.02 116.867 159.016 116.869 159.011 116.872C159.01 116.872 159.008 116.873 159.007 116.874C159.003 116.876 158.998 116.879 158.994 116.881L158.99 116.883C158.985 116.886 158.981 116.888 158.976 116.89C158.975 116.891 158.974 116.892 158.972 116.892C158.968 116.895 158.964 116.897 158.96 116.899C158.958 116.9 158.956 116.901 158.954 116.902C158.95 116.904 158.946 116.906 158.942 116.908C158.941 116.909 158.939 116.91 158.937 116.911C158.933 116.913 158.929 116.915 158.925 116.917C158.923 116.918 158.921 116.919 158.919 116.92C158.916 116.922 158.913 116.923 158.91 116.925C158.906 116.927 158.903 116.928 158.9 116.93C158.898 116.931 158.896 116.932 158.893 116.933C158.89 116.935 158.886 116.937 158.882 116.939C158.88 116.94 158.878 116.941 158.876 116.942C158.873 116.944 158.869 116.946 158.866 116.947C158.857 116.952 158.847 116.957 158.838 116.962C158.832 116.965 158.826 116.968 158.82 116.971C158.819 116.971 158.818 116.972 158.816 116.973L160.204 120.007C159.575 119.085 158.93 118.117 158.679 117.044C158.679 117.044 158.679 117.044 158.679 117.044C158.673 117.047 158.668 117.05 158.663 117.053C158.662 117.053 158.661 117.054 158.66 117.054C158.655 117.057 158.651 117.059 158.646 117.062C158.644 117.062 158.643 117.063 158.642 117.064C158.637 117.066 158.633 117.069 158.629 117.071C158.627 117.072 158.625 117.073 158.624 117.074C158.618 117.077 158.612 117.081 158.606 117.084C158.589 117.094 158.571 117.104 158.554 117.115C158.537 117.125 158.519 117.136 158.502 117.146C158.491 117.154 158.48 117.161 158.469 117.169C158.457 117.177 158.445 117.185 158.433 117.194C158.425 117.2 158.417 117.205 158.409 117.211L158.397 117.22C158.39 117.226 158.382 117.232 158.374 117.238C158.363 117.247 158.351 117.257 158.34 117.266C158.329 117.276 158.318 117.286 158.306 117.296C158.301 117.301 158.295 117.306 158.29 117.312L158.281 117.319C158.276 117.324 158.27 117.33 158.265 117.335L158.253 117.346C158.246 117.353 158.239 117.359 158.233 117.365C158.213 117.384 158.193 117.402 158.172 117.42L158.161 117.43L158.151 117.438C158.13 117.456 158.108 117.473 158.085 117.489C158.078 117.493 158.072 117.497 158.066 117.501C158.038 117.518 158.009 117.533 157.979 117.546C158.122 118.837 158.526 120.272 159.603 121.115C160.575 121.875 161.969 122.002 162.932 121.399C162.99 121.363 163.048 121.323 163.091 121.268C163.152 121.19 163.178 121.088 163.198 120.988C163.417 119.89 163.125 118.654 162.426 117.701C161.891 116.969 161.125 116.414 160.293 116.132C161.181 116.327 162.173 116.235 163.047 115.856C164.13 115.386 165.012 114.484 165.388 113.454C165.422 113.36 165.453 113.261 165.441 113.167C165.433 113.1 165.404 113.038 165.372 112.979Z" fill="#F192AD"/>
<path d="M161.865 116.554C162.562 116.955 163.186 117.506 163.669 118.164C164.01 118.631 164.279 119.149 164.466 119.691C164.546 119.677 164.626 119.659 164.705 119.639C164.695 119.581 164.684 119.523 164.673 119.465C164.617 119.187 164.544 118.913 164.454 118.644C164.37 118.391 164.258 118.149 164.171 117.897C164.044 117.53 163.953 117.088 164.174 116.737C164.433 116.328 164.962 116.236 165.378 116.064C165.614 115.967 165.849 115.835 166.002 115.626C166.009 115.617 166.016 115.607 166.022 115.598C165.938 115.498 165.853 115.399 165.768 115.299C165.749 115.277 165.729 115.254 165.71 115.231C165.297 115.564 164.835 115.846 164.343 116.059C163.558 116.399 162.701 116.565 161.865 116.554Z" fill="#DC638E"/>
<path d="M166.796 116.505L166.022 115.598C166.016 115.607 166.009 115.617 166.002 115.626C165.849 115.835 165.614 115.967 165.378 116.064C164.962 116.237 164.433 116.328 164.174 116.738C163.953 117.088 164.044 117.53 164.171 117.897C164.258 118.149 164.37 118.391 164.454 118.644C164.544 118.913 164.617 119.187 164.673 119.465C164.684 119.523 164.695 119.58 164.705 119.638C165.075 119.543 165.424 119.385 165.724 119.183C166.255 118.825 166.656 118.346 166.995 117.841C167.338 117.329 167.233 117.018 166.796 116.505Z" fill="#EF82A4"/>
<path d="M151.271 117.974C151.153 117.788 150.967 117.663 150.778 117.558C150.555 117.434 150.313 117.334 150.106 117.184C149.919 117.05 149.778 116.863 149.696 116.65C149.416 117.096 149.135 117.543 148.855 117.989C148.497 118.559 148.437 118.883 148.851 119.34C149.259 119.791 149.725 120.207 150.303 120.484C150.51 120.584 150.727 120.661 150.96 120.716C150.94 120.404 150.986 120.092 151.077 119.794C151.186 119.441 151.35 119.103 151.405 118.735C151.444 118.482 151.411 118.193 151.271 117.974Z" fill="#EF82A4"/>
<path d="M150.106 117.184C150.313 117.334 150.555 117.434 150.778 117.558C150.967 117.663 151.153 117.788 151.271 117.974C151.411 118.193 151.444 118.482 151.405 118.735C151.35 119.103 151.186 119.441 151.077 119.794C150.985 120.092 150.94 120.404 150.96 120.716C151.088 120.746 151.219 120.769 151.352 120.785C151.486 120.189 151.713 119.611 152.029 119.083C152.611 118.109 153.485 117.318 154.484 116.829C153.492 117.143 152.385 117.203 151.333 116.978C150.808 116.866 150.3 116.683 149.827 116.441C149.784 116.511 149.74 116.58 149.696 116.65C149.778 116.863 149.919 117.05 150.106 117.184Z" fill="#DC638E"/>
<path d="M157.817 117.589C157.809 117.59 157.802 117.591 157.794 117.591C157.786 117.592 157.779 117.593 157.771 117.593C157.756 117.594 157.74 117.594 157.725 117.594L157.713 117.593C157.698 117.593 157.683 117.591 157.668 117.59C157.659 117.589 157.65 117.588 157.641 117.586C157.632 117.585 157.623 117.583 157.614 117.582L157.606 117.58C157.591 117.577 157.576 117.573 157.562 117.57L157.553 117.567C157.547 117.566 157.541 117.564 157.535 117.562C157.527 117.56 157.518 117.557 157.509 117.554C157.498 117.55 157.487 117.546 157.475 117.542C157.469 117.54 157.464 117.538 157.458 117.536C157.359 117.497 157.263 117.444 157.17 117.392C157.135 117.373 157.1 117.353 157.065 117.334C156.776 118.11 156.243 118.801 155.723 119.46L156.922 117.253C156.844 117.21 156.767 117.167 156.689 117.124L154.237 119.602C154.902 118.653 155.605 117.67 156.574 117.059C156.484 117.009 156.394 116.958 156.304 116.908C156.28 116.895 156.256 116.881 156.232 116.867C156.208 116.853 156.184 116.839 156.161 116.825C156.144 116.814 156.127 116.804 156.11 116.793C156.087 116.777 156.064 116.762 156.042 116.745C156.032 116.738 156.023 116.731 156.014 116.724C156.007 116.719 156 116.713 155.994 116.708C155.979 116.696 155.965 116.684 155.951 116.671L155.942 116.663C155.928 116.65 155.914 116.637 155.901 116.623L155.894 116.614C155.868 116.586 155.845 116.557 155.825 116.525C154.785 116.82 153.84 117.544 153.267 118.502C152.646 119.541 152.477 120.837 152.823 121.948C152.854 122.049 152.892 122.152 152.963 122.227C153.013 122.28 153.078 122.316 153.143 122.349C154.207 122.888 155.639 122.64 156.566 121.776C157.693 120.725 157.901 119.008 157.861 117.582C157.853 117.583 157.846 117.585 157.838 117.586C157.831 117.587 157.824 117.588 157.817 117.589Z" fill="#F192AD"/>
<path d="M155.728 116.051C155.728 115.967 155.727 115.883 155.711 115.801C155.702 115.751 155.687 115.702 155.67 115.654C155.664 115.638 155.659 115.623 155.653 115.608C155.648 115.595 155.643 115.581 155.638 115.568C155.636 115.563 155.635 115.559 155.633 115.555C155.609 115.492 155.586 115.428 155.572 115.362C154.778 115.273 154.002 114.955 153.257 114.641L155.561 115.179L155.562 115.174L155.563 115.165L155.564 115.16L155.565 115.148L155.566 115.141L155.568 115.131L155.569 115.125L155.571 115.116L155.572 115.109L155.574 115.101L155.575 115.095L155.577 115.087L155.579 115.08L155.581 115.072L155.583 115.066L155.586 115.056L155.587 115.051L155.592 115.037L155.593 115.034L155.596 115.022L155.598 115.016L155.602 115.008L155.604 115.001L155.607 114.993L155.609 114.987L155.613 114.978L155.615 114.972L155.619 114.964L155.622 114.958L155.626 114.949L155.628 114.943L155.635 114.929L155.636 114.926L155.642 114.915L155.644 114.909L155.649 114.9L155.652 114.894L155.654 114.89L152.726 113.246C153.789 113.625 154.894 114.031 155.732 114.765L155.734 114.761L155.74 114.754L155.745 114.747L155.75 114.74L155.755 114.733L155.762 114.723L155.769 114.715L155.775 114.707L155.78 114.701L155.786 114.693L155.792 114.686L155.797 114.68L155.803 114.673L155.808 114.667L155.814 114.66L155.819 114.653L155.825 114.646L155.831 114.64L155.837 114.633L155.842 114.628L155.855 114.614L155.86 114.608L155.868 114.6L155.872 114.596L155.879 114.588L155.884 114.582L155.892 114.575L155.897 114.57L155.904 114.562L155.909 114.557L155.917 114.55L155.921 114.546C155.931 114.535 155.942 114.525 155.954 114.515L155.954 114.514L155.964 114.505L155.968 114.502L155.977 114.493L155.981 114.49L155.99 114.481L155.994 114.478L156.004 114.47L156.008 114.466L156.017 114.458L156.019 114.456C156.036 114.442 156.052 114.429 156.069 114.415L156.072 114.413L156.082 114.405L156.086 114.402L156.097 114.393L156.099 114.391L156.111 114.382L156.112 114.381C156.119 114.376 156.126 114.371 156.133 114.366C156.146 114.356 156.16 114.346 156.174 114.336C156.18 114.332 156.187 114.327 156.194 114.322L156.196 114.321L156.209 114.312L156.21 114.311C156.216 114.307 156.222 114.303 156.228 114.299C156.229 114.298 156.231 114.297 156.232 114.296C156.237 114.293 156.242 114.29 156.247 114.287C156.248 114.286 156.249 114.285 156.25 114.285C156.256 114.281 156.262 114.277 156.268 114.273C156.269 114.272 156.27 114.272 156.272 114.271C156.277 114.268 156.282 114.264 156.287 114.261C156.288 114.26 156.289 114.26 156.291 114.259C156.303 114.251 156.315 114.244 156.328 114.236C156.329 114.236 156.33 114.235 156.331 114.234C156.337 114.231 156.343 114.227 156.349 114.224C156.349 114.224 156.349 114.224 156.35 114.224C156.356 114.22 156.362 114.216 156.369 114.212C156.37 114.212 156.37 114.212 156.371 114.211C156.377 114.208 156.383 114.204 156.389 114.201C156.39 114.201 156.39 114.201 156.39 114.2C156.404 114.193 156.417 114.186 156.43 114.179C156.43 114.179 156.431 114.179 156.432 114.178C156.665 114.056 156.903 113.984 157.088 113.991C157.156 113.994 157.224 114 157.293 114.005C157.021 113.282 156.941 112.476 156.87 111.697L157.487 114.017C157.586 114.02 157.682 114.016 157.776 113.995L157.852 110.573C158.017 111.691 158.178 112.859 157.923 113.945C158.028 113.895 158.12 113.818 158.229 113.775C158.404 113.706 158.604 113.733 158.781 113.8C158.888 113.84 158.988 113.896 159.079 113.964C159.634 112.91 160.027 111.663 159.693 110.482C159.36 109.301 158.314 108.381 157.185 108.298C157.116 108.293 157.046 108.291 156.979 108.31C156.884 108.337 156.803 108.404 156.728 108.472C155.905 109.223 155.412 110.386 155.411 111.56C155.411 112.272 155.592 112.981 155.916 113.601C154.946 112.791 153.719 112.077 152.398 112.148C151.138 112.216 149.993 113.027 149.674 114.1C149.655 114.166 149.638 114.233 149.643 114.301C149.651 114.399 149.701 114.491 149.755 114.578C150.341 115.535 151.411 116.262 152.594 116.515C153.668 116.745 154.818 116.582 155.728 116.086C155.728 116.081 155.728 116.076 155.728 116.07C155.728 116.064 155.728 116.057 155.728 116.051Z" fill="#F192AD"/>
<path d="M158.084 117.489C158.108 117.473 158.13 117.456 158.151 117.438L158.161 117.43L158.172 117.42C158.193 117.402 158.213 117.384 158.233 117.365C158.239 117.359 158.246 117.353 158.253 117.346L158.265 117.335C158.27 117.33 158.276 117.324 158.281 117.319L158.29 117.311C158.295 117.306 158.301 117.301 158.306 117.296C158.318 117.286 158.329 117.276 158.34 117.266C158.351 117.257 158.363 117.247 158.374 117.238C158.382 117.232 158.39 117.226 158.397 117.22L158.409 117.211C158.417 117.205 158.425 117.199 158.433 117.194C158.445 117.185 158.457 117.177 158.469 117.169C158.48 117.161 158.491 117.154 158.502 117.146C158.519 117.136 158.536 117.125 158.554 117.114C158.571 117.104 158.588 117.094 158.606 117.084C158.612 117.081 158.618 117.077 158.623 117.074C158.625 117.073 158.627 117.072 158.629 117.071C158.633 117.069 158.637 117.066 158.642 117.064C158.643 117.063 158.644 117.062 158.646 117.062C158.651 117.059 158.655 117.056 158.66 117.054C158.661 117.053 158.662 117.053 158.663 117.052C158.668 117.05 158.673 117.047 158.679 117.044C158.679 117.044 158.679 117.044 158.679 117.044C158.724 117.019 158.77 116.996 158.816 116.972C158.817 116.972 158.819 116.971 158.82 116.97C158.826 116.967 158.832 116.964 158.838 116.962C158.847 116.957 158.857 116.952 158.866 116.947C158.869 116.945 158.873 116.944 158.876 116.942C158.878 116.941 158.88 116.94 158.882 116.939C158.886 116.937 158.89 116.935 158.893 116.933C158.895 116.932 158.898 116.931 158.9 116.93C158.903 116.928 158.906 116.927 158.91 116.925C158.913 116.923 158.916 116.922 158.919 116.92C158.921 116.919 158.923 116.918 158.925 116.917C158.929 116.915 158.933 116.913 158.937 116.911C158.939 116.91 158.941 116.909 158.942 116.908C158.946 116.906 158.95 116.904 158.954 116.902C158.956 116.901 158.958 116.9 158.96 116.899C158.964 116.897 158.968 116.894 158.972 116.892C158.974 116.892 158.975 116.891 158.976 116.89C158.981 116.888 158.985 116.885 158.99 116.883L158.994 116.881C158.998 116.879 159.003 116.876 159.007 116.874C159.008 116.873 159.01 116.872 159.011 116.871C159.016 116.869 159.02 116.867 159.025 116.864C159.026 116.864 159.027 116.863 159.029 116.862C159.033 116.86 159.037 116.857 159.041 116.855C159.043 116.854 159.044 116.854 159.046 116.853C159.05 116.85 159.055 116.848 159.059 116.845C159.06 116.845 159.062 116.844 159.063 116.843C159.067 116.841 159.071 116.839 159.075 116.836C159.077 116.835 159.079 116.834 159.081 116.833C159.084 116.831 159.088 116.829 159.092 116.827C159.112 116.815 159.132 116.803 159.152 116.79C159.188 116.768 159.223 116.745 159.257 116.719C159.274 116.706 159.291 116.693 159.307 116.68C159.308 116.679 159.309 116.678 159.31 116.677C159.314 116.674 159.319 116.67 159.323 116.667C159.324 116.665 159.326 116.664 159.327 116.663C159.331 116.66 159.335 116.656 159.338 116.653C159.34 116.652 159.342 116.65 159.344 116.649C159.347 116.646 159.35 116.643 159.354 116.639C159.356 116.638 159.357 116.636 159.359 116.635C159.363 116.632 159.366 116.628 159.369 116.625C159.371 116.624 159.373 116.622 159.374 116.62C159.379 116.616 159.384 116.611 159.389 116.606C159.4 116.596 159.41 116.585 159.421 116.574C159.424 116.571 159.428 116.567 159.431 116.563C159.438 116.556 159.444 116.548 159.451 116.541C159.454 116.537 159.457 116.533 159.461 116.53C159.467 116.522 159.473 116.514 159.48 116.507C159.486 116.499 159.492 116.491 159.498 116.483C159.504 116.475 159.509 116.467 159.515 116.459C159.521 116.451 159.526 116.443 159.532 116.435C159.537 116.427 159.542 116.419 159.547 116.41C159.552 116.402 159.557 116.394 159.562 116.385C159.566 116.377 159.571 116.368 159.575 116.36C159.597 116.317 159.615 116.272 159.627 116.226C159.63 116.217 159.632 116.208 159.634 116.199C159.645 116.148 159.65 116.095 159.647 116.041C159.645 116.017 159.642 115.993 159.638 115.969C159.637 115.957 159.634 115.946 159.632 115.935L159.629 115.922L159.626 115.908L159.623 115.895C159.622 115.89 159.621 115.884 159.62 115.879C159.618 115.871 159.616 115.863 159.614 115.856L159.611 115.842C159.608 115.834 159.606 115.825 159.604 115.816C159.602 115.809 159.6 115.801 159.598 115.793L159.597 115.787C159.593 115.77 159.589 115.754 159.585 115.737L159.582 115.722C159.58 115.713 159.579 115.704 159.577 115.696C159.573 115.67 159.57 115.644 159.568 115.618C159.565 115.558 159.572 115.499 159.582 115.44C159.583 115.436 159.584 115.432 159.584 115.428C159.589 115.4 159.595 115.373 159.6 115.345L159.603 115.33C159.609 115.299 159.615 115.269 159.619 115.239C159.624 115.211 159.627 115.182 159.629 115.154L159.63 115.153C159.63 115.146 159.631 115.14 159.631 115.133L159.631 115.132C159.631 115.125 159.632 115.118 159.632 115.112C159.632 115.107 159.633 115.102 159.633 115.097C159.633 115.095 159.633 115.094 159.633 115.092C159.633 115.085 159.633 115.079 159.633 115.073C159.633 115.073 159.633 115.073 159.633 115.073C159.639 114.672 159.447 114.274 159.14 114.015C159.174 114.063 159.205 114.114 159.219 114.169C159.234 114.228 159.22 114.285 159.198 114.34C159.162 114.428 159.128 114.514 159.106 114.606C159.063 114.789 159.069 114.967 159.122 115.147C159.151 115.242 159.187 115.335 159.223 115.427C159.254 115.506 159.287 115.583 159.306 115.666C159.33 115.777 159.332 115.894 159.281 115.999C159.186 116.193 158.95 116.28 158.769 116.373C158.66 116.429 158.551 116.489 158.457 116.57C158.398 116.62 158.349 116.681 158.294 116.735C158.226 116.803 158.151 116.866 158.068 116.914C157.926 116.997 157.762 117.03 157.602 116.984C157.42 116.933 157.264 116.8 157.146 116.655C157.105 116.605 157.067 116.553 157.016 116.512C156.948 116.456 156.864 116.421 156.781 116.394C156.633 116.347 156.473 116.32 156.354 116.211C156.226 116.095 156.174 115.927 156.194 115.758C156.216 115.576 156.292 115.405 156.349 115.231C156.377 115.146 156.403 115.059 156.411 114.969C156.419 114.889 156.421 114.81 156.432 114.73C156.452 114.588 156.492 114.446 156.562 114.32C156.633 114.192 156.734 114.093 156.851 114.017C156.718 114.048 156.574 114.103 156.431 114.178C156.431 114.178 156.43 114.179 156.43 114.179C156.417 114.186 156.404 114.193 156.39 114.2C156.39 114.201 156.389 114.201 156.389 114.201C156.383 114.204 156.377 114.208 156.371 114.211C156.37 114.211 156.37 114.212 156.369 114.212C156.362 114.216 156.356 114.22 156.349 114.223C156.349 114.223 156.349 114.224 156.349 114.224C156.343 114.227 156.337 114.231 156.331 114.234C156.33 114.235 156.329 114.236 156.328 114.236C156.315 114.244 156.303 114.251 156.291 114.259C156.289 114.26 156.288 114.26 156.287 114.261C156.282 114.264 156.277 114.267 156.271 114.271C156.27 114.271 156.269 114.272 156.268 114.273C156.262 114.277 156.256 114.281 156.25 114.284C156.249 114.285 156.248 114.286 156.247 114.286C156.242 114.29 156.237 114.293 156.232 114.296C156.231 114.297 156.229 114.298 156.228 114.299C156.222 114.303 156.216 114.307 156.21 114.311L156.209 114.312L156.196 114.321L156.194 114.322C156.187 114.327 156.18 114.331 156.174 114.336C156.16 114.346 156.146 114.356 156.132 114.366C156.126 114.371 156.119 114.376 156.112 114.381L156.111 114.382L156.099 114.391L156.097 114.393L156.086 114.402L156.082 114.405L156.071 114.413L156.069 114.415C156.052 114.429 156.036 114.442 156.019 114.456L156.017 114.458L156.008 114.466L156.004 114.47L155.994 114.478L155.99 114.481L155.981 114.489L155.977 114.493L155.968 114.501L155.964 114.505L155.954 114.514L155.954 114.514C155.942 114.525 155.931 114.535 155.921 114.546L155.917 114.549L155.909 114.557L155.904 114.562L155.896 114.57L155.892 114.575L155.884 114.582L155.879 114.588L155.872 114.595L155.867 114.6L155.86 114.608L155.855 114.613L155.842 114.628L155.837 114.633L155.831 114.64L155.825 114.646L155.819 114.653L155.814 114.66L155.808 114.667L155.803 114.673L155.796 114.68L155.791 114.686L155.786 114.693L155.78 114.7L155.775 114.707L155.769 114.715L155.762 114.723L155.755 114.733L155.75 114.74L155.744 114.747L155.739 114.754L155.734 114.761C155.704 114.803 155.677 114.846 155.654 114.89L155.652 114.894L155.649 114.9L155.644 114.909L155.641 114.915L155.636 114.926L155.634 114.929L155.628 114.943L155.625 114.948L155.621 114.957L155.619 114.964L155.615 114.972L155.613 114.978L155.609 114.987L155.607 114.993L155.604 115.001L155.601 115.007L155.598 115.016L155.596 115.022L155.593 115.033L155.591 115.037L155.587 115.051L155.585 115.056L155.583 115.065L155.581 115.072L155.579 115.08L155.577 115.087L155.575 115.095L155.574 115.101L155.572 115.109L155.571 115.116L155.569 115.124L155.568 115.131L155.566 115.141L155.565 115.147L155.563 115.159L155.563 115.165L155.562 115.174C155.555 115.237 155.558 115.3 155.571 115.362C155.586 115.428 155.609 115.491 155.633 115.555C155.635 115.559 155.636 115.563 155.638 115.567C155.643 115.581 155.648 115.594 155.653 115.608C155.659 115.623 155.664 115.638 155.67 115.653C155.686 115.702 155.701 115.75 155.711 115.801C155.727 115.882 155.728 115.967 155.728 116.051C155.728 116.057 155.728 116.064 155.728 116.07C155.728 116.075 155.728 116.081 155.728 116.086L155.728 116.089L155.728 116.099L155.728 116.109C155.728 116.115 155.728 116.122 155.729 116.128C155.729 116.141 155.729 116.154 155.729 116.167L155.73 116.177C155.73 116.183 155.73 116.189 155.731 116.195L155.731 116.205C155.731 116.211 155.732 116.218 155.732 116.224L155.733 116.234C155.734 116.24 155.734 116.246 155.735 116.253L155.735 116.256C155.736 116.264 155.737 116.273 155.738 116.281C155.739 116.287 155.74 116.294 155.741 116.3C155.743 116.312 155.745 116.325 155.748 116.337C155.75 116.346 155.752 116.356 155.754 116.365C155.755 116.368 155.756 116.371 155.757 116.374L155.761 116.388C155.763 116.395 155.766 116.403 155.768 116.411C155.775 116.429 155.782 116.447 155.791 116.464C155.801 116.485 155.812 116.505 155.825 116.525C155.845 116.556 155.868 116.586 155.894 116.614L155.901 116.622C155.914 116.636 155.928 116.65 155.942 116.663L155.951 116.671C155.965 116.684 155.979 116.696 155.993 116.708C156 116.713 156.007 116.718 156.013 116.724C156.023 116.731 156.032 116.738 156.042 116.745C156.064 116.761 156.087 116.777 156.11 116.792C156.127 116.803 156.144 116.814 156.161 116.824C156.184 116.839 156.208 116.853 156.232 116.867C156.256 116.881 156.28 116.895 156.304 116.908L157.17 117.392C157.263 117.444 157.359 117.497 157.458 117.535C157.464 117.538 157.469 117.54 157.475 117.542C157.486 117.546 157.498 117.55 157.509 117.554C157.518 117.557 157.527 117.559 157.535 117.562C157.541 117.564 157.547 117.565 157.553 117.567L157.562 117.569C157.576 117.573 157.591 117.577 157.605 117.58L157.614 117.581C157.623 117.583 157.632 117.585 157.641 117.586C157.65 117.587 157.659 117.589 157.668 117.59C157.683 117.591 157.698 117.592 157.713 117.593L157.725 117.593C157.74 117.594 157.756 117.594 157.771 117.593C157.779 117.592 157.786 117.592 157.794 117.591C157.802 117.59 157.809 117.59 157.817 117.589C157.824 117.588 157.831 117.587 157.838 117.586C157.846 117.584 157.853 117.583 157.861 117.582L157.876 117.578C157.882 117.577 157.888 117.575 157.894 117.574C157.923 117.567 157.951 117.557 157.979 117.546C158.009 117.533 158.038 117.518 158.065 117.501C158.072 117.497 158.078 117.493 158.084 117.489Z" fill="#4C0D33"/>
<path d="M155.754 116.365C155.752 116.356 155.75 116.347 155.748 116.337C155.745 116.325 155.743 116.313 155.741 116.3C155.74 116.294 155.739 116.288 155.738 116.281C155.737 116.273 155.736 116.264 155.735 116.256C155.585 116.35 155.428 116.437 155.267 116.516C155.427 116.466 155.589 116.424 155.753 116.389L155.761 116.388L155.757 116.374C155.756 116.371 155.755 116.368 155.754 116.365Z" fill="#DC638E"/>
<path d="M164.638 109.208C164.462 108.592 164.131 108.062 163.755 107.584C163.374 107.099 163.046 107.103 162.423 107.36C161.898 107.576 161.372 107.793 160.846 108.01C160.913 108.099 160.966 108.199 161.007 108.301C161.159 108.676 161.192 109.085 161.277 109.477C161.323 109.691 161.397 109.914 161.576 110.054C161.733 110.177 161.937 110.204 162.131 110.19C162.375 110.174 162.612 110.104 162.85 110.05C163.153 109.981 163.457 109.911 163.765 109.868C164.061 109.827 164.363 109.811 164.66 109.851C164.691 109.855 164.722 109.861 164.753 109.866C164.737 109.64 164.698 109.418 164.638 109.208Z" fill="#EF82A4"/>
<path d="M160.043 112.481C160.97 111.505 162.12 110.68 163.476 110.484C163.9 110.423 164.328 110.429 164.739 110.495C164.764 110.285 164.768 110.074 164.753 109.866C164.722 109.861 164.691 109.855 164.66 109.851C164.363 109.812 164.061 109.827 163.765 109.869C163.457 109.911 163.153 109.981 162.85 110.05C162.612 110.104 162.375 110.174 162.131 110.191C161.937 110.204 161.733 110.178 161.576 110.055C161.397 109.914 161.323 109.691 161.277 109.477C161.192 109.085 161.159 108.677 161.007 108.302C160.966 108.199 160.913 108.099 160.846 108.01C160.68 108.079 160.513 108.147 160.346 108.216C160.253 108.255 160.157 108.296 160.062 108.34C160.172 108.562 160.263 108.796 160.331 109.037C160.655 110.184 160.46 111.377 160.043 112.481Z" fill="#DC638E"/>
<path d="M153.333 108.057C152.704 107.817 152.375 107.822 152.008 108.316C151.644 108.805 151.327 109.343 151.168 109.964C151.155 110.015 151.143 110.069 151.132 110.121C151.133 110.122 151.135 110.122 151.135 110.122C151.293 110.15 151.448 110.195 151.599 110.249C152.025 110.402 152.421 110.625 152.846 110.78C153.05 110.855 153.268 110.925 153.487 110.936C153.65 110.944 153.814 110.908 153.94 110.801C154.063 110.697 154.133 110.543 154.179 110.393C154.248 110.173 154.276 109.942 154.294 109.713C154.326 109.3 154.32 108.876 154.441 108.48C154.072 108.339 153.702 108.198 153.333 108.057Z" fill="#EF82A4"/>
<path d="M154.179 110.393C154.133 110.543 154.063 110.697 153.94 110.801C153.814 110.908 153.65 110.944 153.487 110.936C153.268 110.924 153.05 110.855 152.846 110.78C152.421 110.625 152.025 110.402 151.599 110.249C151.447 110.195 151.291 110.15 151.132 110.121C151.061 110.472 151.045 110.848 151.096 111.22C152.575 111.147 153.964 111.82 155.131 112.679C154.843 111.982 154.686 111.222 154.686 110.459C154.686 109.854 154.785 109.251 154.971 108.682L154.441 108.48C154.32 108.876 154.326 109.3 154.294 109.713C154.276 109.942 154.248 110.173 154.179 110.393Z" fill="#DC638E"/>
<path d="M160.146 123.431L160.136 123.429C159.943 123.393 159.762 123.317 159.597 123.211C159.423 123.099 159.271 122.957 159.132 122.804C159.058 122.723 158.987 122.638 158.919 122.552C158.844 122.457 158.775 122.359 158.683 122.278C158.54 122.153 158.355 122.071 158.163 122.112C157.956 122.157 157.804 122.328 157.702 122.503C157.489 122.864 157.306 123.246 157.055 123.584C156.95 123.727 156.829 123.86 156.693 123.974C156.767 124.033 156.844 124.089 156.921 124.14C157.456 124.493 158.052 124.68 158.649 124.798C159.254 124.918 159.501 124.7 159.806 124.1" fill="#EF82A4"/>
<path d="M158.046 119.376C157.917 120.857 157.481 122.371 156.378 123.4C156.33 123.444 156.282 123.487 156.232 123.529C156.373 123.694 156.528 123.843 156.693 123.974C156.829 123.86 156.95 123.727 157.055 123.584C157.306 123.246 157.489 122.864 157.702 122.503C157.804 122.328 157.956 122.157 158.163 122.112C158.355 122.071 158.54 122.153 158.683 122.278C158.775 122.359 158.844 122.457 158.919 122.552C158.987 122.638 159.058 122.723 159.132 122.804C159.271 122.957 159.423 123.099 159.597 123.211C159.762 123.317 159.943 123.393 160.136 123.429L160.146 123.431C160.225 123.275 160.305 123.119 160.384 122.963C160.232 122.874 160.086 122.775 159.946 122.665C158.913 121.857 158.349 120.637 158.046 119.376Z" fill="#DC638E"/>
<path d="M155.562 115.174L155.561 115.179L153.257 114.641C154.002 114.955 154.778 115.273 155.572 115.362V115.362C155.558 115.3 155.555 115.237 155.562 115.174Z" fill="#61043B"/>
<path d="M152.726 113.246L155.654 114.89C155.677 114.846 155.704 114.803 155.734 114.761L155.732 114.765C154.894 114.031 153.789 113.625 152.726 113.246Z" fill="#61043B"/>
<path d="M155.748 116.337C155.75 116.347 155.752 116.356 155.755 116.366C155.752 116.356 155.75 116.347 155.748 116.337Z" fill="#61043B"/>
<path d="M156.574 117.059C155.605 117.67 154.902 118.653 154.237 119.602L156.689 117.124L156.574 117.059Z" fill="#61043B"/>
<path d="M156.922 117.253L155.723 119.46C156.243 118.801 156.776 118.11 157.065 117.334L156.922 117.253Z" fill="#61043B"/>
<path d="M159.61 114.816C159.609 114.809 159.608 114.802 159.606 114.794L161.612 114.065C160.916 114.191 160.197 114.327 159.551 114.6C159.548 114.593 159.545 114.585 159.542 114.578C159.541 114.578 159.541 114.578 159.541 114.578C159.571 114.656 159.594 114.735 159.61 114.816C159.61 114.816 159.61 114.816 159.61 114.816Z" fill="#61043B"/>
<path d="M159.306 115.666C159.287 115.583 159.254 115.506 159.223 115.427C159.187 115.335 159.151 115.242 159.122 115.147C159.069 114.967 159.063 114.789 159.106 114.606C159.128 114.514 159.163 114.428 159.198 114.34C159.22 114.285 159.234 114.228 159.219 114.169C159.205 114.114 159.174 114.063 159.14 114.015C159.116 113.993 159.117 113.993 159.09 113.973L159.079 113.964C158.988 113.896 158.888 113.84 158.781 113.8C158.604 113.733 158.404 113.706 158.229 113.775C158.12 113.818 158.028 113.895 157.923 113.945C158.178 112.859 158.017 111.691 157.852 110.573L157.775 113.995C157.682 114.016 157.586 114.02 157.487 114.017L156.87 111.697C156.941 112.476 157.021 113.282 157.293 114.005C157.224 114 157.156 113.994 157.088 113.991C157.016 113.988 156.936 113.998 156.851 114.018C156.734 114.093 156.633 114.192 156.562 114.32C156.492 114.446 156.452 114.588 156.432 114.73C156.421 114.81 156.419 114.89 156.411 114.969C156.403 115.059 156.377 115.146 156.349 115.232C156.292 115.405 156.216 115.576 156.194 115.758C156.174 115.927 156.226 116.095 156.354 116.212C156.473 116.32 156.633 116.347 156.781 116.394C156.864 116.421 156.948 116.456 157.016 116.512C157.067 116.553 157.105 116.605 157.146 116.656C157.264 116.8 157.42 116.933 157.602 116.985C157.762 117.03 157.926 116.997 158.068 116.914C158.151 116.866 158.226 116.803 158.294 116.736C158.349 116.681 158.398 116.621 158.457 116.57C158.551 116.49 158.66 116.429 158.769 116.373C158.95 116.28 159.186 116.194 159.281 115.999C159.332 115.894 159.33 115.777 159.306 115.666Z" fill="#61043B"/>
<path d="M159.603 115.33C160.666 115.449 161.765 115.197 162.819 114.944L159.629 115.155L159.63 115.154C159.627 115.183 159.624 115.211 159.62 115.239C159.615 115.269 159.609 115.3 159.603 115.33Z" fill="#61043B"/>
<path d="M160.204 120.007L158.816 116.972C158.77 116.996 158.724 117.019 158.679 117.044C158.93 118.117 159.575 119.085 160.204 120.007Z" fill="#61043B"/>
<path d="M159.257 116.719L159.152 116.79C159.133 116.803 159.115 116.813 159.095 116.825L160.597 118.567C160.205 117.916 159.794 117.246 159.257 116.719Z" fill="#61043B"/>
<path d="M157.02 114.862C157.006 114.838 157.022 114.808 157.025 114.779C157.027 114.748 157.008 114.715 156.979 114.702C156.924 114.677 156.784 114.743 156.833 114.818C156.842 114.833 156.859 114.843 156.865 114.859C156.873 114.88 156.861 114.903 156.859 114.925C156.854 114.969 156.892 115.01 156.935 115.016C156.978 115.022 157.023 114.998 157.048 114.962C157.06 114.944 157.068 114.918 157.057 114.899C157.048 114.884 157.029 114.877 157.02 114.862Z" fill="#4C0D33"/>
<path d="M157.902 114.486C157.887 114.462 157.904 114.432 157.906 114.404C157.909 114.372 157.89 114.339 157.861 114.326C157.805 114.301 157.666 114.367 157.715 114.443C157.724 114.457 157.74 114.467 157.746 114.483C157.754 114.504 157.742 114.527 157.74 114.549C157.736 114.593 157.773 114.634 157.817 114.64C157.86 114.647 157.904 114.622 157.929 114.586C157.942 114.568 157.95 114.542 157.938 114.523C157.929 114.508 157.911 114.501 157.902 114.486Z" fill="#4C0D33"/>
<path d="M156.792 115.578C156.788 115.592 156.79 115.607 156.783 115.62C156.774 115.637 156.753 115.641 156.737 115.652C156.706 115.672 156.7 115.719 156.719 115.75C156.738 115.782 156.777 115.798 156.814 115.794C156.833 115.793 156.854 115.784 156.86 115.766C156.865 115.753 156.86 115.737 156.864 115.723C156.872 115.7 156.901 115.695 156.921 115.682C156.942 115.666 156.953 115.636 156.946 115.61C156.933 115.561 156.815 115.506 156.792 115.578Z" fill="#4C0D33"/>
<path d="M157.781 115.276C157.8 115.275 157.821 115.266 157.827 115.248C157.832 115.234 157.827 115.219 157.832 115.205C157.84 115.182 157.868 115.177 157.888 115.163C157.91 115.148 157.921 115.118 157.914 115.092C157.9 115.043 157.782 114.988 157.76 115.06C157.755 115.074 157.758 115.089 157.751 115.102C157.741 115.119 157.72 115.123 157.704 115.134C157.674 115.154 157.667 115.201 157.686 115.232C157.705 115.264 157.745 115.28 157.781 115.276Z" fill="#4C0D33"/>
<path d="M158.724 114.583C158.711 114.533 158.592 114.478 158.57 114.55C158.566 114.564 158.568 114.58 158.561 114.592C158.551 114.609 158.53 114.613 158.514 114.624C158.484 114.644 158.477 114.691 158.496 114.722C158.515 114.754 158.555 114.77 158.591 114.767C158.61 114.765 158.631 114.757 158.638 114.739C158.642 114.725 158.637 114.709 158.642 114.695C158.65 114.673 158.679 114.667 158.698 114.654C158.72 114.638 158.731 114.609 158.724 114.583Z" fill="#4C0D33"/>
<path d="M157.509 115.758C157.505 115.772 157.507 115.788 157.5 115.801C157.49 115.817 157.469 115.821 157.453 115.832C157.423 115.853 157.416 115.899 157.435 115.931C157.454 115.962 157.494 115.978 157.531 115.975C157.55 115.973 157.57 115.965 157.577 115.947C157.581 115.933 157.576 115.917 157.581 115.903C157.589 115.881 157.618 115.876 157.637 115.862C157.659 115.847 157.67 115.817 157.663 115.791C157.65 115.741 157.532 115.686 157.509 115.758Z" fill="#4C0D33"/>
<path d="M158.751 115.241C158.747 115.254 158.749 115.27 158.742 115.283C158.733 115.299 158.711 115.304 158.696 115.314C158.665 115.335 158.658 115.381 158.677 115.413C158.696 115.445 158.736 115.461 158.773 115.457C158.792 115.456 158.813 115.447 158.819 115.429C158.824 115.415 158.818 115.4 158.823 115.386C158.831 115.363 158.86 115.358 158.879 115.344C158.901 115.329 158.912 115.299 158.905 115.273C158.892 115.224 158.774 115.169 158.751 115.241Z" fill="#4C0D33"/>
<path d="M158.376 115.933C158.371 115.947 158.374 115.962 158.367 115.975C158.357 115.992 158.336 115.996 158.32 116.007C158.289 116.027 158.283 116.074 158.302 116.105C158.321 116.137 158.36 116.153 158.397 116.149C158.416 116.148 158.437 116.139 158.443 116.121C158.448 116.108 158.443 116.092 158.448 116.078C158.456 116.055 158.484 116.05 158.504 116.036C158.526 116.021 158.537 115.991 158.53 115.965C158.516 115.916 158.398 115.861 158.376 115.933Z" fill="#4C0D33"/>
<path d="M157.768 116.463C157.764 116.477 157.766 116.493 157.759 116.505C157.75 116.522 157.728 116.526 157.713 116.537C157.682 116.557 157.675 116.604 157.694 116.635C157.714 116.667 157.753 116.683 157.79 116.68C157.809 116.678 157.83 116.67 157.836 116.652C157.841 116.638 157.835 116.622 157.84 116.608C157.848 116.586 157.877 116.58 157.896 116.567C157.918 116.551 157.929 116.522 157.922 116.496C157.909 116.446 157.791 116.391 157.768 116.463Z" fill="#4C0D33"/>
<path d="M23.0015 195.619C22.9462 195.603 22.8814 195.571 22.8835 195.518C22.885 195.478 22.925 195.45 22.9613 195.428C23.009 195.4 23.0572 195.372 23.1058 195.345C23.1942 195.296 23.2843 195.249 23.3758 195.205C22.8673 194.298 21.8618 193.675 20.7398 193.495L20.7393 193.495C20.3276 193.429 19.9004 193.423 19.4762 193.484C18.1197 193.68 16.9704 194.505 16.0433 195.481C16.4604 194.377 16.6552 193.184 16.3313 192.037C16.2631 191.795 16.1722 191.562 16.0619 191.34C15.4693 190.147 14.3138 189.274 13.0748 189.162C13.0851 189.316 13.0709 189.471 13.0317 189.619C13.0177 189.673 12.9872 189.736 12.9321 189.736C12.8907 189.736 12.8599 189.699 12.836 189.665C12.8047 189.62 12.7741 189.576 12.7442 189.53C12.6859 189.442 12.6305 189.352 12.578 189.26C12.5233 189.298 12.4719 189.342 12.4223 189.388C11.7612 189.991 11.2613 190.796 10.9714 191.683C10.7855 192.251 10.686 192.854 10.6858 193.459C10.6855 194.222 10.8428 194.982 11.1312 195.679C9.96426 194.82 8.57529 194.148 7.09574 194.22H7.09568C7.08845 194.22 7.0812 194.221 7.07397 194.221C5.43327 194.309 3.94024 195.354 3.49921 196.742C3.68715 196.784 3.86673 196.863 4.02295 196.976C4.06766 197.008 4.1155 197.059 4.09577 197.11C4.08093 197.149 4.03543 197.165 3.9953 197.175C3.9427 197.188 3.8899 197.201 3.83689 197.212C3.72692 197.236 3.61612 197.257 3.50476 197.274C3.52941 197.325 3.55895 197.376 3.58919 197.425C4.10219 198.262 4.8955 198.965 5.82721 199.441C6.29978 199.683 6.80796 199.866 7.33321 199.978C8.38503 200.203 9.49229 200.143 10.484 199.829C9.48548 200.318 8.61078 201.109 8.02857 202.083C7.71287 202.611 7.48571 203.189 7.35183 203.785L7.35164 203.785C7.13835 204.734 7.16213 205.726 7.44238 206.626C7.45657 206.672 7.47165 206.717 7.48909 206.762C7.66596 206.642 7.86637 206.556 8.07586 206.512C8.13775 206.5 8.21801 206.499 8.2462 206.555C8.26739 206.598 8.24513 206.648 8.22264 206.69C8.19315 206.745 8.16276 206.799 8.13151 206.853C8.06607 206.966 7.99674 207.076 7.92374 207.184C9.26557 207.83 11.0276 207.548 12.2321 206.529L12.2325 206.529C12.2818 206.487 12.3303 206.444 12.3778 206.4C13.4815 205.371 13.9169 203.857 14.0463 202.376C14.3494 203.637 14.913 204.857 15.946 205.665C16.0858 205.775 16.2322 205.874 16.3837 205.963C17.5691 206.662 19.0694 206.743 20.1879 206.127C20.0648 205.975 19.9693 205.8 19.9088 205.614C19.8896 205.555 19.8801 205.476 19.9324 205.443C19.9718 205.417 20.0236 205.434 20.067 205.451C20.1239 205.474 20.1804 205.498 20.2365 205.523C20.3694 205.581 20.5001 205.645 20.628 205.714C20.6538 205.645 20.6706 205.571 20.6853 205.498C20.8667 204.588 20.782 203.607 20.4656 202.691L20.4656 202.691C20.2786 202.149 20.0105 201.631 19.6685 201.164C19.1862 200.505 18.5619 199.955 17.865 199.554C18.7015 199.565 19.558 199.399 20.3426 199.059C20.8355 198.846 21.2968 198.564 21.71 198.231C22.4943 197.599 23.1053 196.781 23.4298 195.892C23.4555 195.821 23.4797 195.749 23.4928 195.677C23.3271 195.683 23.1603 195.663 23.0015 195.619Z" fill="#F7BFCA"/>
<path d="M21.3723 195.979C20.8603 195.011 19.6078 194.451 18.3894 194.628C16.9891 194.83 15.8798 195.916 15.0905 196.973C15.2989 197.131 15.4599 197.354 15.5507 197.6C16.1974 197.327 16.9159 197.191 17.6125 197.065L15.6063 197.794C15.6254 197.886 15.6347 197.979 15.6334 198.073C15.6334 198.073 15.6334 198.073 15.6334 198.073C15.6333 198.079 15.6331 198.086 15.6329 198.092C15.6329 198.094 15.6328 198.095 15.6328 198.097C15.6326 198.102 15.6324 198.107 15.6322 198.112C15.6319 198.118 15.6315 198.125 15.6311 198.132L15.631 198.134C15.6306 198.14 15.6301 198.146 15.6296 198.153L15.6295 198.154L15.6294 198.155L18.8191 197.944C17.7655 198.197 16.6657 198.449 15.6032 198.33L15.6001 198.345C15.5946 198.373 15.5892 198.4 15.5843 198.428C15.5836 198.432 15.5829 198.436 15.5822 198.44C15.5722 198.499 15.5655 198.558 15.5685 198.618C15.5698 198.644 15.573 198.67 15.5774 198.696C15.5788 198.704 15.5804 198.713 15.5821 198.722L15.5853 198.737C15.5888 198.754 15.5927 198.77 15.5967 198.787L15.5983 198.793C15.6001 198.801 15.6021 198.809 15.604 198.816C15.6062 198.825 15.6084 198.834 15.6106 198.843L15.6139 198.856C15.6158 198.863 15.6177 198.871 15.6196 198.879C15.6209 198.884 15.6222 198.89 15.6235 198.895L15.6265 198.908L15.6295 198.922C15.6446 198.928 15.6596 198.935 15.6748 198.941C15.7368 198.966 15.7998 198.99 15.8635 199.011C15.7887 198.995 15.7137 198.981 15.6385 198.969C15.6425 198.993 15.6455 199.017 15.6469 199.041C15.65 199.095 15.6453 199.148 15.634 199.199C15.632 199.208 15.6297 199.217 15.6272 199.227C15.6149 199.272 15.5973 199.317 15.5754 199.36C15.571 199.368 15.5665 199.377 15.5618 199.385C15.5571 199.394 15.5522 199.402 15.5472 199.41C15.5421 199.419 15.5369 199.427 15.5316 199.435C15.5262 199.443 15.5207 199.451 15.5151 199.459C15.5095 199.467 15.5037 199.475 15.4978 199.483C15.4919 199.491 15.4858 199.499 15.4796 199.507C15.4735 199.514 15.4671 199.522 15.4607 199.53C15.4575 199.533 15.4543 199.537 15.451 199.541C15.4444 199.549 15.4378 199.556 15.431 199.563C15.4276 199.567 15.4242 199.571 15.4207 199.574C15.4104 199.585 15.3999 199.596 15.3891 199.606C15.3843 199.611 15.3794 199.616 15.3745 199.62C15.3727 199.622 15.3709 199.624 15.3691 199.625C15.3659 199.629 15.3626 199.632 15.3593 199.635C15.3575 199.636 15.3556 199.638 15.3538 199.64C15.3504 199.643 15.347 199.646 15.3436 199.649C15.3419 199.65 15.3401 199.652 15.3384 199.653C15.3347 199.657 15.331 199.66 15.3273 199.663C15.3259 199.664 15.3244 199.665 15.3229 199.667C15.3187 199.67 15.3144 199.674 15.3101 199.677C15.3091 199.678 15.3081 199.679 15.3071 199.68C15.2906 199.693 15.2738 199.707 15.2568 199.719C15.2567 199.719 15.2566 199.719 15.2565 199.72C15.7936 200.246 16.2053 200.916 16.5974 201.567L15.0953 199.825C15.0941 199.825 15.093 199.826 15.0918 199.827C15.0882 199.829 15.0845 199.831 15.0809 199.833C15.0789 199.834 15.077 199.835 15.0751 199.836C15.0711 199.839 15.067 199.841 15.0629 199.843C15.0617 199.844 15.0604 199.845 15.0591 199.845C15.0547 199.848 15.0502 199.85 15.0457 199.853C15.0443 199.854 15.043 199.854 15.0415 199.855C15.0372 199.858 15.0329 199.86 15.0286 199.862C15.0273 199.863 15.0259 199.864 15.0246 199.864C15.0203 199.867 15.0159 199.869 15.0115 199.872C15.01 199.872 15.0084 199.873 15.0069 199.874C15.0026 199.876 14.9983 199.879 14.994 199.881L14.9899 199.883C14.9854 199.886 14.9809 199.888 14.9764 199.89C14.9751 199.891 14.9738 199.892 14.9725 199.892C14.9684 199.895 14.9643 199.897 14.9602 199.899C14.9582 199.9 14.9562 199.901 14.9542 199.902C14.9502 199.904 14.9462 199.906 14.9423 199.908C14.9406 199.909 14.939 199.91 14.9373 199.911C14.9332 199.913 14.929 199.915 14.9249 199.917C14.923 199.918 14.921 199.919 14.9191 199.92C14.916 199.922 14.9128 199.923 14.9097 199.925C14.9065 199.927 14.9032 199.928 14.9 199.93C14.8978 199.931 14.8955 199.932 14.8933 199.933C14.8896 199.935 14.886 199.937 14.8823 199.939C14.8802 199.94 14.8781 199.941 14.876 199.942C14.8727 199.944 14.8694 199.946 14.8662 199.947C14.8567 199.952 14.8472 199.957 14.8378 199.962C14.8319 199.965 14.8261 199.968 14.8202 199.971C14.8188 199.971 14.8175 199.972 14.8162 199.973L16.2041 203.007C15.5754 202.085 14.9297 201.117 14.679 200.044C14.679 200.044 14.6789 200.044 14.6789 200.044C14.6734 200.047 14.668 200.05 14.6626 200.053C14.6617 200.053 14.6608 200.054 14.6599 200.054C14.6552 200.057 14.6506 200.059 14.6459 200.062C14.6445 200.062 14.643 200.063 14.6416 200.064C14.6374 200.066 14.6332 200.069 14.629 200.071C14.6272 200.072 14.6254 200.073 14.6236 200.074C14.6177 200.077 14.6119 200.081 14.6061 200.084C14.5885 200.094 14.5711 200.104 14.5538 200.115C14.5365 200.125 14.5194 200.136 14.5025 200.146C14.4912 200.154 14.48 200.161 14.4688 200.169C14.4567 200.177 14.4447 200.185 14.4328 200.194C14.4248 200.2 14.417 200.205 14.4091 200.211L14.3974 200.22C14.3897 200.226 14.3819 200.232 14.3743 200.238C14.3628 200.247 14.3515 200.257 14.3403 200.266C14.3288 200.276 14.3176 200.286 14.3064 200.296C14.3008 200.301 14.2952 200.306 14.2897 200.312L14.2814 200.319C14.2759 200.324 14.2704 200.33 14.2649 200.335L14.2526 200.346C14.246 200.353 14.2393 200.359 14.2327 200.365C14.2128 200.384 14.1927 200.402 14.1722 200.42L14.1609 200.43L14.1515 200.438C14.1299 200.456 14.1078 200.473 14.0845 200.489C14.0783 200.493 14.072 200.497 14.0656 200.501C14.0379 200.518 14.0088 200.533 13.9787 200.546C14.1216 201.837 14.5257 203.272 15.6033 204.115C16.5755 204.875 17.9687 205.002 18.9317 204.399C18.9905 204.363 19.0485 204.323 19.0913 204.268C19.1522 204.19 19.1776 204.088 19.1976 203.988C19.4166 202.89 19.1246 201.654 18.4265 200.701C17.8909 199.969 17.1246 199.414 16.2926 199.132C17.1811 199.327 18.1727 199.235 19.0466 198.856C20.1299 198.386 21.0121 197.484 21.3879 196.454C21.4223 196.36 21.4529 196.261 21.441 196.167C21.4326 196.1 21.4035 196.038 21.3723 195.979Z" fill="#F192AD"/>
<path d="M17.865 199.554C18.5618 199.955 19.1862 200.506 19.6685 201.164C20.0105 201.631 20.2785 202.149 20.4656 202.691C20.5462 202.677 20.6261 202.659 20.7049 202.639C20.6948 202.581 20.6844 202.523 20.6727 202.465C20.6169 202.187 20.5443 201.913 20.4544 201.644C20.3697 201.391 20.258 201.149 20.1708 200.897C20.0439 200.53 19.953 200.088 20.1743 199.737C20.4328 199.328 20.9624 199.236 21.3782 199.064C21.6137 198.967 21.8488 198.835 22.0025 198.626C22.0094 198.617 22.0157 198.607 22.0224 198.598C21.9377 198.498 21.853 198.399 21.7682 198.299C21.7488 198.277 21.7294 198.254 21.71 198.231C21.2968 198.564 20.8355 198.846 20.3426 199.059C19.558 199.399 18.7015 199.565 17.865 199.554Z" fill="#DC638E"/>
<path d="M22.7959 199.505L22.0224 198.598C22.0157 198.607 22.0094 198.617 22.0025 198.626C21.8488 198.835 21.6137 198.967 21.3782 199.064C20.9624 199.237 20.4328 199.328 20.1743 199.738C19.953 200.088 20.0439 200.53 20.1708 200.897C20.258 201.149 20.3697 201.391 20.4544 201.644C20.5443 201.913 20.6169 202.187 20.6727 202.465C20.6843 202.523 20.6947 202.58 20.7048 202.638C21.075 202.543 21.4236 202.385 21.7238 202.183C22.2552 201.825 22.6565 201.346 22.9952 200.841C23.3382 200.329 23.2325 200.018 22.7959 199.505Z" fill="#EF82A4"/>
<path d="M7.2712 200.974C7.15267 200.788 6.96703 200.663 6.77783 200.558C6.55489 200.434 6.31349 200.334 6.10572 200.184C5.91901 200.05 5.77813 199.863 5.6963 199.65C5.4159 200.096 5.1355 200.543 4.85512 200.989C4.49708 201.559 4.43752 201.883 4.85084 202.34C5.25909 202.791 5.72538 203.207 6.30289 203.484C6.51032 203.584 6.72677 203.661 6.96017 203.716C6.93959 203.404 6.98552 203.092 7.07729 202.794C7.18607 202.441 7.34977 202.103 7.40536 201.735C7.44362 201.482 7.41112 201.193 7.2712 200.974Z" fill="#EF82A4"/>
<path d="M6.10572 200.184C6.3135 200.334 6.5549 200.434 6.77783 200.558C6.96703 200.663 7.15267 200.788 7.2712 200.974C7.41113 201.193 7.44363 201.482 7.40537 201.735C7.34977 202.103 7.18607 202.441 7.07729 202.794C6.98553 203.092 6.93959 203.404 6.96017 203.716C7.08832 203.746 7.21927 203.769 7.35182 203.785C7.48572 203.189 7.71287 202.611 8.02856 202.083C8.61077 201.109 9.48548 200.318 10.484 199.829C9.49228 200.143 8.38502 200.203 7.33321 199.978C6.80795 199.866 6.29977 199.683 5.8272 199.441C5.78357 199.511 5.73995 199.58 5.69632 199.65C5.77812 199.863 5.919 200.05 6.10572 200.184Z" fill="#DC638E"/>
<path d="M13.8171 200.589C13.8095 200.59 13.8018 200.591 13.7941 200.591C13.7865 200.592 13.7788 200.593 13.7711 200.593C13.7557 200.594 13.7403 200.594 13.7249 200.594L13.7134 200.593C13.6982 200.593 13.6831 200.591 13.6681 200.59C13.6591 200.589 13.6501 200.588 13.6411 200.586C13.6322 200.585 13.6233 200.583 13.6144 200.582L13.6056 200.58C13.5908 200.577 13.5762 200.573 13.5616 200.57L13.5529 200.567C13.547 200.566 13.5412 200.564 13.5355 200.562C13.5268 200.56 13.5181 200.557 13.5095 200.554C13.498 200.55 13.4866 200.546 13.4752 200.542C13.4695 200.54 13.4638 200.538 13.4581 200.536C13.3589 200.497 13.2634 200.444 13.1704 200.392C13.1354 200.373 13.1005 200.353 13.0655 200.334C12.7759 201.11 12.2427 201.801 11.7234 202.46L12.9219 200.253C12.8444 200.21 12.7669 200.167 12.6895 200.124L10.2374 202.602C10.9015 201.653 11.6054 200.67 12.5736 200.059C12.4838 200.009 12.3939 199.958 12.3041 199.908C12.2803 199.895 12.2563 199.881 12.2323 199.867C12.2083 199.853 12.1843 199.839 12.1606 199.825C12.1437 199.814 12.1269 199.804 12.1102 199.793C12.087 199.777 12.0641 199.762 12.0418 199.745C12.0323 199.738 12.0229 199.731 12.0136 199.724C12.0068 199.719 12.0001 199.713 11.9935 199.708C11.9789 199.696 11.9646 199.684 11.9508 199.671L11.9423 199.663C11.9281 199.65 11.9145 199.637 11.9014 199.623L11.8936 199.614C11.8682 199.586 11.845 199.557 11.8248 199.525C10.7852 199.82 9.83965 200.544 9.2671 201.502C8.64588 202.541 8.47658 203.837 8.82254 204.948C8.85413 205.049 8.89154 205.152 8.96314 205.227C9.01348 205.28 9.07804 205.316 9.14295 205.349C10.2073 205.888 11.6391 205.64 12.5656 204.776C13.6927 203.725 13.9009 202.008 13.8608 200.582C13.8533 200.583 13.8457 200.585 13.8382 200.586C13.8312 200.587 13.8242 200.588 13.8171 200.589Z" fill="#F192AD"/>
<path d="M11.7281 199.051C11.7278 198.967 11.7267 198.883 11.7111 198.801C11.7015 198.751 11.6866 198.702 11.6696 198.654C11.6643 198.638 11.6588 198.623 11.6532 198.608C11.6482 198.595 11.6431 198.581 11.638 198.568C11.6364 198.563 11.6348 198.559 11.6332 198.555C11.6094 198.492 11.5862 198.428 11.5716 198.362C10.7783 198.273 10.0024 197.955 9.25743 197.641L11.5614 198.179L11.5618 198.174L11.5628 198.165L11.5636 198.16L11.5653 198.148L11.5663 198.141L11.568 198.131L11.5692 198.125L11.5708 198.116L11.5722 198.109L11.5739 198.101L11.5755 198.095L11.5774 198.087L11.579 198.08L11.5813 198.072L11.5829 198.066L11.5856 198.056L11.5871 198.051L11.5916 198.037L11.5926 198.034L11.5964 198.022L11.5984 198.016L11.6015 198.008L11.6039 198.001L11.607 197.993L11.6095 197.987L11.6128 197.978L11.6154 197.972L11.6189 197.964L11.6215 197.958L11.6256 197.949L11.628 197.943L11.6345 197.929L11.6362 197.926L11.6415 197.915L11.6443 197.909L11.6488 197.9L11.652 197.894L11.6543 197.89L8.72649 196.246C9.78919 196.625 10.8936 197.031 11.7318 197.765L11.7344 197.761L11.7396 197.754L11.7445 197.747L11.7497 197.74L11.7546 197.733L11.7624 197.723L11.769 197.715L11.7751 197.707L11.78 197.701L11.7858 197.693L11.7915 197.686L11.7965 197.68L11.8026 197.673L11.8079 197.667L11.8138 197.66L11.8192 197.653L11.8253 197.646L11.8308 197.64L11.8369 197.633L11.8418 197.628L11.8549 197.614L11.8599 197.608L11.8675 197.6L11.8717 197.596L11.8792 197.588L11.8845 197.582L11.8916 197.575L11.8965 197.57L11.9043 197.562L11.909 197.557L11.9169 197.55L11.9206 197.546C11.9315 197.535 11.9425 197.525 11.9537 197.515L11.9543 197.514L11.9642 197.505L11.9677 197.502L11.9768 197.493L11.9811 197.49L11.9902 197.481L11.9944 197.478L12.0036 197.47L12.0078 197.466L12.0175 197.458L12.0194 197.456C12.0356 197.442 12.0521 197.429 12.0688 197.415L12.0715 197.413L12.0821 197.405L12.0857 197.402L12.0967 197.393L12.0992 197.391L12.1111 197.382L12.1123 197.381C12.119 197.376 12.1257 197.371 12.1325 197.366C12.1461 197.356 12.1598 197.346 12.1736 197.336C12.1805 197.332 12.1874 197.327 12.1943 197.322L12.1959 197.321L12.2089 197.312L12.21 197.311C12.2159 197.307 12.2217 197.303 12.2276 197.299C12.2292 197.298 12.2307 197.297 12.2322 197.296C12.2372 197.293 12.2421 197.29 12.2471 197.287C12.2481 197.286 12.2492 197.285 12.2502 197.285C12.2562 197.281 12.2622 197.277 12.2682 197.273C12.2693 197.272 12.2704 197.272 12.2715 197.271C12.2766 197.268 12.2818 197.264 12.2869 197.261C12.2882 197.26 12.2894 197.26 12.2907 197.259C12.3029 197.251 12.3152 197.244 12.3276 197.236C12.3288 197.236 12.3299 197.235 12.3311 197.234C12.3371 197.231 12.3431 197.227 12.3491 197.224C12.3493 197.224 12.3494 197.224 12.3496 197.224C12.356 197.22 12.3624 197.216 12.3689 197.212C12.3697 197.212 12.3705 197.212 12.3712 197.211C12.3772 197.208 12.3831 197.204 12.3891 197.201C12.3896 197.201 12.39 197.201 12.3905 197.2C12.4036 197.193 12.4167 197.186 12.4298 197.179C12.4304 197.179 12.431 197.179 12.4315 197.178C12.665 197.056 12.9035 196.984 13.0884 196.991C13.1559 196.994 13.2243 197 13.2928 197.005C13.0212 196.282 12.9407 195.476 12.8697 194.697L13.4874 197.017C13.5856 197.02 13.6824 197.016 13.7755 196.995L13.8516 193.573C14.0173 194.691 14.1781 195.859 13.9227 196.945C14.0282 196.895 14.12 196.818 14.2286 196.775C14.4038 196.706 14.6044 196.733 14.7807 196.8C14.8879 196.84 14.988 196.896 15.0793 196.964C15.6343 195.91 16.0268 194.663 15.693 193.482C15.3596 192.301 14.3142 191.381 13.1849 191.298C13.116 191.293 13.0458 191.291 12.979 191.31C12.8841 191.337 12.8035 191.404 12.7283 191.472C11.9053 192.223 11.4117 193.386 11.4113 194.56C11.4111 195.272 11.5919 195.981 11.9161 196.601C10.9462 195.791 9.71924 195.077 8.39776 195.148C7.13778 195.216 5.9926 196.027 5.67435 197.1C5.65494 197.166 5.63819 197.233 5.6433 197.301C5.65058 197.399 5.70129 197.491 5.75485 197.578C6.34128 198.535 7.41062 199.262 8.59436 199.515C9.66825 199.745 10.8183 199.582 11.7283 199.086C11.7283 199.081 11.7282 199.076 11.7282 199.07C11.7282 199.064 11.7281 199.057 11.7281 199.051Z" fill="#F192AD"/>
<path d="M14.0845 200.489C14.1077 200.473 14.1299 200.456 14.1515 200.438L14.1608 200.43L14.1722 200.42C14.1927 200.402 14.2127 200.384 14.2327 200.365C14.2393 200.359 14.2459 200.353 14.2526 200.346L14.2648 200.335C14.2703 200.33 14.2758 200.324 14.2814 200.319L14.2897 200.311C14.2952 200.306 14.3008 200.301 14.3064 200.296C14.3175 200.286 14.3288 200.276 14.3403 200.266C14.3515 200.257 14.3628 200.247 14.3743 200.238C14.3819 200.232 14.3896 200.226 14.3974 200.22L14.4091 200.211C14.4169 200.205 14.4248 200.199 14.4327 200.194C14.4446 200.185 14.4567 200.177 14.4688 200.169C14.4799 200.161 14.4911 200.154 14.5024 200.146C14.5194 200.136 14.5365 200.125 14.5538 200.114C14.571 200.104 14.5885 200.094 14.6061 200.084C14.6119 200.081 14.6177 200.077 14.6235 200.074C14.6253 200.073 14.6271 200.072 14.6289 200.071C14.6331 200.069 14.6374 200.066 14.6416 200.064C14.643 200.063 14.6444 200.062 14.6459 200.062C14.6505 200.059 14.6552 200.056 14.6599 200.054C14.6608 200.053 14.6617 200.053 14.6625 200.052C14.668 200.05 14.6734 200.047 14.6788 200.044C14.6789 200.044 14.6789 200.044 14.679 200.044C14.7243 200.019 14.7702 199.996 14.8161 199.972C14.8175 199.972 14.8188 199.971 14.8202 199.97C14.826 199.967 14.8319 199.964 14.8377 199.962C14.8472 199.957 14.8566 199.952 14.8661 199.947C14.8694 199.945 14.8727 199.944 14.8759 199.942C14.878 199.941 14.8802 199.94 14.8823 199.939C14.8859 199.937 14.8896 199.935 14.8933 199.933C14.8955 199.932 14.8977 199.931 14.8999 199.93C14.9032 199.928 14.9064 199.927 14.9097 199.925C14.9128 199.923 14.9159 199.922 14.9191 199.92C14.921 199.919 14.9229 199.918 14.9249 199.917C14.929 199.915 14.9331 199.913 14.9373 199.911C14.9389 199.91 14.9406 199.909 14.9422 199.908C14.9462 199.906 14.9502 199.904 14.9541 199.902C14.9562 199.901 14.9581 199.9 14.9601 199.899C14.9642 199.897 14.9683 199.894 14.9724 199.892C14.9738 199.892 14.9751 199.891 14.9764 199.89C14.9809 199.888 14.9854 199.885 14.9899 199.883L14.9939 199.881C14.9982 199.879 15.0025 199.876 15.0068 199.874C15.0084 199.873 15.0099 199.872 15.0115 199.871C15.0158 199.869 15.0202 199.867 15.0246 199.864C15.0259 199.864 15.0272 199.863 15.0286 199.862C15.0329 199.86 15.0372 199.857 15.0415 199.855C15.0429 199.854 15.0443 199.854 15.0457 199.853C15.0502 199.85 15.0546 199.848 15.0591 199.845C15.0604 199.845 15.0616 199.844 15.0629 199.843C15.067 199.841 15.071 199.839 15.0751 199.836C15.077 199.835 15.0789 199.834 15.0808 199.833C15.0845 199.831 15.0882 199.829 15.0918 199.827C15.1122 199.815 15.1324 199.803 15.1524 199.79C15.1878 199.768 15.2227 199.745 15.2567 199.719C15.2738 199.706 15.2906 199.693 15.3071 199.68C15.3081 199.679 15.3091 199.678 15.3101 199.677C15.3144 199.674 15.3187 199.67 15.3229 199.667C15.3244 199.665 15.3258 199.664 15.3273 199.663C15.331 199.66 15.3347 199.656 15.3383 199.653C15.3401 199.652 15.3418 199.65 15.3436 199.649C15.347 199.646 15.3504 199.643 15.3538 199.639C15.3556 199.638 15.3574 199.636 15.3592 199.635C15.3625 199.632 15.3658 199.628 15.3691 199.625C15.3709 199.624 15.3727 199.622 15.3744 199.62C15.3793 199.616 15.3842 199.611 15.3891 199.606C15.3998 199.596 15.4104 199.585 15.4207 199.574C15.4242 199.571 15.4276 199.567 15.431 199.563C15.4377 199.556 15.4444 199.548 15.4509 199.541C15.4542 199.537 15.4575 199.533 15.4607 199.53C15.4671 199.522 15.4734 199.514 15.4796 199.507C15.4858 199.499 15.4918 199.491 15.4977 199.483C15.5037 199.475 15.5094 199.467 15.5151 199.459C15.5207 199.451 15.5262 199.443 15.5315 199.435C15.5369 199.427 15.5421 199.419 15.5471 199.41C15.5522 199.402 15.557 199.394 15.5617 199.385C15.5665 199.377 15.571 199.368 15.5754 199.36C15.5973 199.317 15.6148 199.272 15.6272 199.226C15.6297 199.217 15.6319 199.208 15.634 199.199C15.6452 199.148 15.6499 199.095 15.6468 199.041C15.6455 199.017 15.6425 198.993 15.6385 198.969C15.6366 198.957 15.6345 198.946 15.6321 198.935L15.6295 198.922L15.6265 198.908L15.6234 198.895C15.6222 198.89 15.6209 198.884 15.6195 198.879C15.6177 198.871 15.6158 198.863 15.6139 198.856L15.6106 198.842C15.6084 198.834 15.6062 198.825 15.604 198.816C15.602 198.809 15.6001 198.801 15.5982 198.793L15.5967 198.787C15.5926 198.77 15.5888 198.754 15.5853 198.737L15.5821 198.722C15.5804 198.713 15.5788 198.704 15.5773 198.696C15.573 198.67 15.5697 198.644 15.5684 198.618C15.5654 198.558 15.5722 198.499 15.5822 198.44C15.5829 198.436 15.5836 198.432 15.5843 198.428C15.5891 198.4 15.5946 198.373 15.6001 198.345L15.6031 198.33C15.6091 198.299 15.6148 198.269 15.6195 198.239C15.6239 198.211 15.6272 198.182 15.6295 198.154L15.6296 198.153C15.6301 198.146 15.6306 198.14 15.631 198.133L15.6311 198.132C15.6315 198.125 15.6319 198.118 15.6322 198.112C15.6324 198.107 15.6326 198.102 15.6327 198.097C15.6328 198.095 15.6329 198.094 15.6329 198.092C15.6331 198.085 15.6333 198.079 15.6334 198.073C15.6334 198.073 15.6334 198.073 15.6334 198.073C15.6388 197.672 15.447 197.274 15.1405 197.015C15.1742 197.063 15.2049 197.114 15.219 197.169C15.2345 197.228 15.22 197.285 15.1977 197.34C15.1625 197.428 15.1278 197.514 15.1061 197.606C15.0632 197.789 15.0688 197.967 15.1224 198.147C15.1508 198.242 15.187 198.335 15.2232 198.427C15.2541 198.506 15.2873 198.583 15.3058 198.666C15.3305 198.777 15.332 198.894 15.2812 198.999C15.1864 199.193 14.9501 199.28 14.7693 199.373C14.6597 199.429 14.5507 199.489 14.4568 199.57C14.3978 199.62 14.3492 199.681 14.2942 199.735C14.226 199.803 14.151 199.866 14.0678 199.914C13.9262 199.997 13.762 200.03 13.6022 199.984C13.4203 199.933 13.2637 199.8 13.1462 199.655C13.1052 199.605 13.067 199.553 13.0162 199.512C12.9475 199.456 12.8645 199.421 12.781 199.394C12.6327 199.347 12.4729 199.32 12.3538 199.211C12.2257 199.095 12.1737 198.927 12.1941 198.758C12.2162 198.576 12.292 198.405 12.3489 198.231C12.3768 198.146 12.4026 198.059 12.4114 197.969C12.4193 197.889 12.4207 197.81 12.432 197.73C12.4523 197.588 12.4918 197.446 12.562 197.32C12.6335 197.192 12.734 197.093 12.8511 197.017C12.7182 197.048 12.5739 197.103 12.4315 197.178C12.4309 197.178 12.4304 197.179 12.4298 197.179C12.4166 197.186 12.4035 197.193 12.3904 197.2C12.39 197.201 12.3895 197.201 12.3891 197.201C12.3831 197.204 12.3772 197.208 12.3712 197.211C12.3704 197.211 12.3697 197.212 12.3689 197.212C12.3624 197.216 12.356 197.22 12.3495 197.223C12.3494 197.223 12.3492 197.224 12.3491 197.224C12.3431 197.227 12.3371 197.231 12.3311 197.234C12.3299 197.235 12.3287 197.236 12.3275 197.236C12.3152 197.244 12.3029 197.251 12.2906 197.259C12.2894 197.26 12.2881 197.26 12.2869 197.261C12.2817 197.264 12.2766 197.267 12.2715 197.271C12.2704 197.271 12.2693 197.272 12.2681 197.273C12.2621 197.277 12.2561 197.281 12.2502 197.284C12.2491 197.285 12.2481 197.286 12.2471 197.286C12.2421 197.29 12.2371 197.293 12.2322 197.296C12.2307 197.297 12.2291 197.298 12.2276 197.299C12.2217 197.303 12.2158 197.307 12.2099 197.311L12.2089 197.312L12.1959 197.321L12.1943 197.322C12.1873 197.327 12.1804 197.331 12.1735 197.336C12.1597 197.346 12.146 197.356 12.1325 197.366C12.1257 197.371 12.1189 197.376 12.1122 197.381L12.1111 197.382L12.0992 197.391L12.0966 197.393L12.0857 197.402L12.082 197.405L12.0715 197.413L12.0688 197.415C12.052 197.429 12.0356 197.442 12.0193 197.456L12.0175 197.458L12.0077 197.466L12.0036 197.47L11.9944 197.478L11.9902 197.481L11.981 197.489L11.9768 197.493L11.9677 197.501L11.9642 197.505L11.9543 197.514L11.9536 197.514C11.9425 197.525 11.9314 197.535 11.9206 197.546L11.9169 197.549L11.9089 197.557L11.9042 197.562L11.8965 197.57L11.8915 197.575L11.8844 197.582L11.8791 197.588L11.8717 197.595L11.8675 197.6L11.8599 197.608L11.8548 197.613L11.8418 197.628L11.8369 197.633L11.8308 197.64L11.8252 197.646L11.8192 197.653L11.8138 197.66L11.8078 197.667L11.8026 197.673L11.7965 197.68L11.7915 197.686L11.7858 197.693L11.78 197.7L11.775 197.707L11.7689 197.715L11.7623 197.723L11.7546 197.733L11.7496 197.74L11.7445 197.747L11.7395 197.754L11.7344 197.761C11.7043 197.803 11.6774 197.846 11.6543 197.89L11.6519 197.894L11.6488 197.9L11.6443 197.909L11.6415 197.915L11.6361 197.926L11.6345 197.929L11.6279 197.943L11.6255 197.948L11.6215 197.957L11.6189 197.964L11.6153 197.972L11.6128 197.978L11.6094 197.987L11.6069 197.993L11.6038 198.001L11.6015 198.007L11.5984 198.016L11.5964 198.022L11.5926 198.033L11.5915 198.037L11.5871 198.051L11.5855 198.056L11.5829 198.065L11.5812 198.072L11.579 198.08L11.5774 198.087L11.5754 198.095L11.5739 198.101L11.5722 198.109L11.5708 198.116L11.5691 198.124L11.568 198.131L11.5662 198.141L11.5652 198.147L11.5635 198.159L11.5628 198.165L11.5617 198.174C11.5549 198.237 11.5577 198.3 11.5715 198.362C11.5862 198.428 11.6094 198.491 11.6332 198.555C11.6348 198.559 11.6363 198.563 11.6379 198.567C11.643 198.581 11.6481 198.594 11.6531 198.608C11.6588 198.623 11.6643 198.638 11.6696 198.653C11.6865 198.702 11.7015 198.75 11.7111 198.801C11.7267 198.882 11.7277 198.967 11.7281 199.051C11.7281 199.057 11.7281 199.064 11.7281 199.07C11.7281 199.075 11.7282 199.081 11.7282 199.086L11.7282 199.089L11.7283 199.099L11.7284 199.109C11.7284 199.115 11.7285 199.122 11.7286 199.128C11.7288 199.141 11.7291 199.154 11.7295 199.167L11.7298 199.177C11.7301 199.183 11.7303 199.189 11.7306 199.195L11.7312 199.205C11.7315 199.211 11.7319 199.218 11.7324 199.224L11.7331 199.234C11.7337 199.24 11.7342 199.246 11.7349 199.253L11.7352 199.256C11.736 199.264 11.737 199.273 11.7382 199.281C11.739 199.287 11.7399 199.294 11.7409 199.3C11.7429 199.312 11.7452 199.325 11.7478 199.337C11.7498 199.346 11.752 199.356 11.7544 199.365C11.7552 199.368 11.756 199.371 11.7569 199.374L11.7608 199.388C11.7632 199.395 11.7657 199.403 11.7685 199.411C11.775 199.429 11.7824 199.447 11.7907 199.464C11.8009 199.485 11.8122 199.505 11.8247 199.525C11.845 199.556 11.8681 199.586 11.8936 199.614L11.9013 199.622C11.9144 199.636 11.9281 199.65 11.9422 199.663L11.9508 199.671C11.9646 199.684 11.9788 199.696 11.9935 199.708C12.0001 199.713 12.0068 199.718 12.0135 199.724C12.0228 199.731 12.0322 199.738 12.0418 199.745C12.064 199.761 12.0869 199.777 12.1102 199.792C12.1268 199.803 12.1436 199.814 12.1606 199.824C12.1843 199.839 12.2083 199.853 12.2322 199.867C12.2562 199.881 12.2802 199.895 12.304 199.908L13.1703 200.392C13.2634 200.444 13.3588 200.497 13.458 200.535C13.4637 200.538 13.4694 200.54 13.4751 200.542C13.4865 200.546 13.4979 200.55 13.5094 200.554C13.5181 200.557 13.5267 200.559 13.5354 200.562C13.5412 200.564 13.547 200.565 13.5528 200.567L13.5615 200.569C13.5761 200.573 13.5908 200.577 13.6055 200.58L13.6144 200.581C13.6232 200.583 13.6321 200.585 13.6411 200.586C13.65 200.587 13.659 200.589 13.668 200.59C13.683 200.591 13.6981 200.592 13.7133 200.593L13.7249 200.593C13.7403 200.594 13.7557 200.594 13.7711 200.593C13.7787 200.592 13.7864 200.592 13.7941 200.591C13.8018 200.59 13.8094 200.59 13.8171 200.589C13.8241 200.588 13.8311 200.587 13.8381 200.586C13.8457 200.584 13.8533 200.583 13.8608 200.582L13.876 200.578C13.8821 200.577 13.8881 200.575 13.8941 200.574C13.9229 200.567 13.9512 200.557 13.9786 200.546C14.0087 200.533 14.0378 200.518 14.0655 200.501C14.0719 200.497 14.0782 200.493 14.0845 200.489Z" fill="#4C0D33"/>
<path d="M11.7545 199.365C11.7521 199.356 11.7499 199.347 11.7479 199.337C11.7452 199.325 11.7429 199.313 11.741 199.3C11.74 199.294 11.7391 199.288 11.7382 199.281C11.7371 199.273 11.7361 199.264 11.7352 199.256C11.5848 199.35 11.4283 199.437 11.2668 199.516C11.4272 199.466 11.5894 199.424 11.753 199.389L11.7609 199.388L11.757 199.374C11.7561 199.371 11.7553 199.368 11.7545 199.365Z" fill="#DC638E"/>
<path d="M20.6378 192.208C20.4621 191.592 20.1309 191.062 19.7549 190.584C19.3743 190.099 19.0456 190.103 18.4233 190.36C17.8976 190.576 17.3719 190.793 16.8463 191.01C16.913 191.099 16.9656 191.199 17.0072 191.301C17.1586 191.676 17.1925 192.085 17.2772 192.477C17.3234 192.691 17.3966 192.914 17.5759 193.054C17.7333 193.177 17.9369 193.204 18.1309 193.19C18.3753 193.174 18.6122 193.104 18.8499 193.05C19.1531 192.981 19.4569 192.911 19.7652 192.868C20.0609 192.827 20.363 192.811 20.6597 192.851C20.6907 192.855 20.7225 192.861 20.7531 192.866C20.7366 192.64 20.6976 192.418 20.6378 192.208Z" fill="#EF82A4"/>
<path d="M16.0433 195.481C16.9704 194.505 18.1197 193.68 19.4762 193.484C19.9004 193.423 20.3277 193.429 20.7393 193.495C20.7644 193.285 20.7684 193.074 20.7531 192.866C20.7221 192.861 20.691 192.855 20.6597 192.851C20.363 192.812 20.0609 192.827 19.7652 192.869C19.4569 192.911 19.1531 192.981 18.8499 193.05C18.6122 193.104 18.3753 193.174 18.1309 193.191C17.9369 193.204 17.7333 193.178 17.5759 193.055C17.3966 192.914 17.3234 192.691 17.2771 192.477C17.1925 192.085 17.1586 191.677 17.0072 191.302C16.9656 191.199 16.913 191.099 16.8463 191.01C16.6797 191.079 16.513 191.147 16.3464 191.216C16.253 191.255 16.1572 191.296 16.0619 191.34C16.1723 191.562 16.2631 191.796 16.3313 192.037C16.6552 193.184 16.4604 194.377 16.0433 195.481Z" fill="#DC638E"/>
<path d="M9.33283 191.057C8.70389 190.817 8.3752 190.822 8.00758 191.316C7.64445 191.805 7.32742 192.343 7.16818 192.964C7.15503 193.015 7.14288 193.069 7.13219 193.121C7.13302 193.122 7.13518 193.122 7.13518 193.122C7.29305 193.15 7.448 193.195 7.59888 193.249C8.02455 193.402 8.42105 193.625 8.84581 193.78C9.05 193.855 9.26845 193.925 9.48702 193.936C9.65002 193.944 9.8137 193.908 9.9402 193.801C10.0626 193.697 10.1325 193.543 10.1794 193.393C10.2478 193.173 10.2758 192.942 10.2937 192.713C10.3261 192.3 10.3203 191.876 10.4409 191.48C10.0715 191.339 9.70219 191.198 9.33283 191.057Z" fill="#EF82A4"/>
<path d="M10.1794 193.393C10.1325 193.543 10.0626 193.697 9.94021 193.801C9.8137 193.908 9.65002 193.944 9.48702 193.936C9.26846 193.924 9.05002 193.855 8.84581 193.78C8.42106 193.625 8.02456 193.402 7.59889 193.249C7.44704 193.195 7.29111 193.15 7.13221 193.121C7.06081 193.472 7.04514 193.848 7.09577 194.22C8.57531 194.147 9.96429 194.82 11.1312 195.679C10.8429 194.982 10.6855 194.222 10.6858 193.459C10.686 192.854 10.7855 192.251 10.9714 191.682L10.4409 191.48C10.3203 191.876 10.3261 192.3 10.2937 192.713C10.2758 192.942 10.2478 193.173 10.1794 193.393Z" fill="#DC638E"/>
<path d="M16.1462 206.431L16.1356 206.429C15.9431 206.393 15.7615 206.317 15.5971 206.211C15.4234 206.099 15.2709 205.957 15.1319 205.804C15.0577 205.723 14.9873 205.638 14.9192 205.552C14.8443 205.457 14.775 205.359 14.6833 205.278C14.5402 205.153 14.3548 205.071 14.1625 205.112C13.9558 205.157 13.8043 205.328 13.7016 205.503C13.489 205.864 13.3058 206.246 13.0554 206.584C12.95 206.727 12.8288 206.86 12.6928 206.974C12.7672 207.033 12.8437 207.089 12.9214 207.14C13.456 207.493 14.0524 207.68 14.6495 207.798C15.254 207.918 15.5007 207.7 15.8057 207.1" fill="#EF82A4"/>
<path d="M14.0462 202.376C13.9169 203.857 13.4815 205.371 12.3777 206.4C12.3303 206.444 12.2818 206.487 12.2324 206.529C12.3729 206.694 12.5282 206.843 12.6929 206.974C12.8292 206.86 12.9497 206.727 13.0554 206.584C13.3058 206.246 13.489 205.864 13.7016 205.503C13.8043 205.328 13.9558 205.157 14.1625 205.112C14.3548 205.071 14.5402 205.153 14.6833 205.278C14.775 205.359 14.8443 205.457 14.9192 205.552C14.9873 205.638 15.0578 205.723 15.1319 205.804C15.2709 205.957 15.4234 206.099 15.5971 206.211C15.7615 206.317 15.9431 206.393 16.1356 206.429L16.1462 206.431C16.2254 206.275 16.3045 206.119 16.3837 205.963C16.2322 205.874 16.0858 205.775 15.946 205.665C14.913 204.857 14.3494 203.637 14.0462 202.376Z" fill="#DC638E"/>
<path d="M11.5618 198.174L11.5613 198.179L9.25742 197.641C10.0024 197.955 10.7783 198.273 11.5715 198.362V198.362C11.5577 198.3 11.555 198.237 11.5618 198.174Z" fill="#61043B"/>
<path d="M8.72649 196.246L11.6543 197.89C11.6775 197.846 11.7044 197.803 11.7344 197.761L11.7318 197.765C10.8936 197.031 9.78919 196.625 8.72649 196.246Z" fill="#61043B"/>
<path d="M11.7479 199.337C11.7499 199.347 11.7521 199.356 11.7546 199.366C11.7521 199.356 11.7499 199.347 11.7479 199.337Z" fill="#61043B"/>
<path d="M12.5736 200.059C11.6054 200.67 10.9015 201.653 10.2374 202.602L12.6895 200.124L12.5736 200.059Z" fill="#61043B"/>
<path d="M12.9219 200.253L11.7234 202.46C12.2427 201.801 12.7759 201.11 13.0655 200.334L12.9219 200.253Z" fill="#61043B"/>
<path d="M15.6103 197.816C15.609 197.809 15.6079 197.802 15.6063 197.794L17.6125 197.065C16.9159 197.191 16.1974 197.327 15.5507 197.6C15.5479 197.593 15.5447 197.585 15.5416 197.578C15.5414 197.578 15.5413 197.578 15.5411 197.578C15.5712 197.656 15.5943 197.735 15.6099 197.816C15.61 197.816 15.6102 197.816 15.6103 197.816Z" fill="#61043B"/>
<path d="M15.3058 198.666C15.2873 198.583 15.2541 198.506 15.2232 198.427C15.1871 198.335 15.1508 198.242 15.1224 198.147C15.0688 197.967 15.0632 197.789 15.1061 197.606C15.1278 197.514 15.1625 197.428 15.1977 197.34C15.22 197.285 15.2345 197.228 15.219 197.169C15.2049 197.114 15.1742 197.063 15.1405 197.015C15.1158 196.993 15.1171 196.993 15.0905 196.973L15.0793 196.964C14.988 196.896 14.8878 196.84 14.7807 196.8C14.6043 196.733 14.4038 196.706 14.2285 196.775C14.12 196.818 14.0282 196.895 13.9226 196.945C14.1781 195.859 14.0172 194.691 13.8516 193.573L13.7755 196.995C13.6824 197.016 13.5856 197.02 13.4874 197.017L12.8697 194.697C12.9407 195.476 13.0212 196.282 13.2928 197.005C13.2243 197 13.1559 196.994 13.0884 196.991C13.0161 196.988 12.9356 196.998 12.8505 197.018C12.7337 197.093 12.6333 197.192 12.562 197.32C12.4918 197.446 12.4523 197.588 12.432 197.73C12.4207 197.81 12.4193 197.89 12.4114 197.969C12.4026 198.059 12.3768 198.146 12.3489 198.232C12.292 198.405 12.2162 198.576 12.1941 198.758C12.1737 198.927 12.2257 199.095 12.3538 199.212C12.4729 199.32 12.6327 199.347 12.781 199.394C12.8645 199.421 12.9475 199.456 13.0162 199.512C13.067 199.553 13.1052 199.605 13.1462 199.656C13.2637 199.8 13.4203 199.933 13.6022 199.985C13.762 200.03 13.9262 199.997 14.0678 199.914C14.151 199.866 14.2259 199.803 14.2942 199.736C14.3492 199.681 14.3978 199.621 14.4568 199.57C14.5507 199.49 14.6597 199.429 14.7693 199.373C14.95 199.28 15.1863 199.194 15.2812 198.999C15.332 198.894 15.3305 198.777 15.3058 198.666Z" fill="#61043B"/>
<path d="M15.6032 198.33C16.6657 198.449 17.7655 198.197 18.8192 197.944L15.6294 198.155L15.6295 198.154C15.6272 198.183 15.6239 198.211 15.6195 198.239C15.6148 198.269 15.6091 198.3 15.6032 198.33Z" fill="#61043B"/>
<path d="M16.204 203.007L14.8162 199.972C14.7702 199.996 14.7243 200.019 14.679 200.044C14.9297 201.117 15.5754 202.085 16.204 203.007Z" fill="#61043B"/>
<path d="M15.2565 199.719L15.1524 199.79C15.1329 199.803 15.1152 199.813 15.0953 199.825L16.5974 201.567C16.2053 200.916 15.7936 200.246 15.2565 199.719Z" fill="#61043B"/>
<path d="M13.0202 197.862C13.0057 197.838 13.0225 197.808 13.0246 197.779C13.0271 197.748 13.008 197.715 12.9791 197.702C12.9239 197.677 12.784 197.743 12.8329 197.818C12.8423 197.833 12.8586 197.843 12.8648 197.859C12.8728 197.88 12.8608 197.903 12.8586 197.925C12.8542 197.969 12.8918 198.01 12.9351 198.016C12.9784 198.022 13.0228 197.998 13.0475 197.962C13.0603 197.944 13.0684 197.918 13.0566 197.899C13.0476 197.884 13.0291 197.877 13.0202 197.862Z" fill="#4C0D33"/>
<path d="M13.9019 197.486C13.8873 197.462 13.9041 197.432 13.9063 197.404C13.9087 197.372 13.8897 197.339 13.8607 197.326C13.8055 197.301 13.6657 197.367 13.7146 197.443C13.724 197.457 13.7403 197.467 13.7464 197.483C13.7545 197.504 13.7425 197.527 13.7402 197.549C13.7359 197.593 13.7734 197.634 13.8168 197.64C13.8601 197.647 13.9044 197.622 13.9292 197.586C13.942 197.568 13.9501 197.542 13.9383 197.523C13.9293 197.508 13.9108 197.501 13.9019 197.486Z" fill="#4C0D33"/>
<path d="M12.7924 198.578C12.7881 198.592 12.7904 198.607 12.7833 198.62C12.7739 198.637 12.7526 198.641 12.7369 198.652C12.7062 198.672 12.6996 198.719 12.7187 198.75C12.7378 198.782 12.7772 198.798 12.814 198.794C12.833 198.793 12.8539 198.784 12.8601 198.766C12.8649 198.753 12.8596 198.737 12.8645 198.723C12.8724 198.7 12.9011 198.695 12.9205 198.682C12.9425 198.666 12.9533 198.636 12.9463 198.61C12.9331 198.561 12.8149 198.506 12.7924 198.578Z" fill="#4C0D33"/>
<path d="M13.7813 198.276C13.8003 198.275 13.8212 198.266 13.8274 198.248C13.8322 198.234 13.8269 198.219 13.8318 198.205C13.8398 198.182 13.8684 198.177 13.8879 198.163C13.9098 198.148 13.9206 198.118 13.9137 198.092C13.9005 198.043 13.7823 197.988 13.7597 198.06C13.7554 198.074 13.7578 198.089 13.7506 198.102C13.7413 198.119 13.72 198.123 13.7043 198.134C13.6736 198.154 13.6669 198.201 13.686 198.232C13.7051 198.264 13.7446 198.28 13.7813 198.276Z" fill="#4C0D33"/>
<path d="M14.7238 197.583C14.7106 197.533 14.5924 197.478 14.5699 197.55C14.5655 197.564 14.5679 197.58 14.5607 197.592C14.5514 197.609 14.5301 197.613 14.5144 197.624C14.4837 197.644 14.477 197.691 14.4961 197.722C14.5152 197.754 14.5547 197.77 14.5915 197.767C14.6104 197.765 14.6313 197.757 14.6375 197.739C14.6423 197.725 14.637 197.709 14.6419 197.695C14.6499 197.673 14.6785 197.667 14.698 197.654C14.72 197.638 14.7307 197.609 14.7238 197.583Z" fill="#4C0D33"/>
<path d="M13.509 198.758C13.5046 198.772 13.507 198.788 13.4999 198.801C13.4905 198.817 13.4692 198.821 13.4535 198.832C13.4228 198.853 13.4162 198.899 13.4353 198.931C13.4544 198.962 13.4938 198.978 13.5306 198.975C13.5495 198.973 13.5704 198.965 13.5767 198.947C13.5814 198.933 13.5761 198.917 13.581 198.903C13.589 198.881 13.6177 198.876 13.6371 198.862C13.6591 198.847 13.6698 198.817 13.6629 198.791C13.6497 198.741 13.5315 198.686 13.509 198.758Z" fill="#4C0D33"/>
<path d="M14.7511 198.241C14.7467 198.254 14.7491 198.27 14.7419 198.283C14.7326 198.299 14.7113 198.304 14.6956 198.314C14.6649 198.335 14.6582 198.381 14.6774 198.413C14.6965 198.445 14.7359 198.461 14.7727 198.457C14.7916 198.456 14.8125 198.447 14.8187 198.429C14.8235 198.415 14.8182 198.4 14.8231 198.386C14.8311 198.363 14.8597 198.358 14.8792 198.344C14.9011 198.329 14.9119 198.299 14.905 198.273C14.8918 198.224 14.7736 198.169 14.7511 198.241Z" fill="#4C0D33"/>
<path d="M14.3756 198.933C14.3713 198.947 14.3737 198.962 14.3665 198.975C14.3572 198.992 14.3359 198.996 14.3201 199.007C14.2895 199.027 14.2828 199.074 14.3019 199.105C14.321 199.137 14.3605 199.153 14.3972 199.149C14.4162 199.148 14.4371 199.139 14.4433 199.121C14.4481 199.108 14.4428 199.092 14.4477 199.078C14.4556 199.055 14.4843 199.05 14.5038 199.036C14.5257 199.021 14.5365 198.991 14.5296 198.965C14.5164 198.916 14.3982 198.861 14.3756 198.933Z" fill="#4C0D33"/>
<path d="M13.7682 199.463C13.7639 199.477 13.7663 199.493 13.7591 199.505C13.7498 199.522 13.7285 199.526 13.7127 199.537C13.6821 199.557 13.6754 199.604 13.6945 199.635C13.7136 199.667 13.7531 199.683 13.7898 199.68C13.8088 199.678 13.8297 199.67 13.8359 199.652C13.8407 199.638 13.8354 199.622 13.8403 199.608C13.8483 199.586 13.8769 199.58 13.8964 199.567C13.9183 199.551 13.9291 199.522 13.9222 199.496C13.909 199.446 13.7908 199.391 13.7682 199.463Z" fill="#4C0D33"/>
<g filter="url(#filter0_f_210_1531)">
<circle cx="9.95402" cy="268.046" r="2.8046" fill="white"/>
</g>
<g filter="url(#filter1_f_210_1531)">
<circle cx="9.95402" cy="268.046" r="2.8046" fill="white"/>
</g>
<path d="M10 260L10.5657 267.434L18 268L10.5657 268.566L10 276L9.43431 268.566L2 268L9.43431 267.434L10 260Z" fill="white"/>
<g filter="url(#filter2_f_210_1531)">
<path d="M10 260L10.5657 267.434L18 268L10.5657 268.566L10 276L9.43431 268.566L2 268L9.43431 267.434L10 260Z" fill="white"/>
</g>
<g filter="url(#filter3_f_210_1531)">
<circle cx="5.96551" cy="258.034" r="2.10345" fill="white"/>
</g>
<g filter="url(#filter4_f_210_1531)">
<circle cx="5.96551" cy="258.034" r="2.10345" fill="white"/>
</g>
<path d="M6 252L6.42426 257.576L12 258L6.42426 258.424L6 264L5.57574 258.424L0 258L5.57574 257.576L6 252Z" fill="white"/>
<g filter="url(#filter5_f_210_1531)">
<path d="M6 252L6.42426 257.576L12 258L6.42426 258.424L6 264L5.57574 258.424L0 258L5.57574 257.576L6 252Z" fill="white"/>
</g>
<path d="M161.168 343.279C159.599 343.518 158.161 344.291 157.097 345.467C155.667 344.779 154.044 344.606 152.501 344.977C148.168 345.826 146.511 348.851 147.275 352.751C148.449 358.745 154.819 361.813 159.504 363.289C159.858 363.401 160.235 363.422 160.6 363.351C160.965 363.279 161.307 363.117 161.593 362.88C165.402 359.739 170.116 354.501 168.942 348.506C168.177 344.606 165.501 342.431 161.168 343.279Z" fill="#FF52A1" stroke="#231F20" stroke-width="0.5" stroke-miterlimit="10"/>
<path d="M161.916 345.446C164.299 344.714 165.417 345.914 165.958 346.823" stroke="white" stroke-width="0.5" stroke-miterlimit="10" stroke-linecap="round"/>
<defs>
<filter id="filter0_f_210_1531" x="2.14941" y="260.241" width="15.6092" height="15.6091" filterUnits="userSpaceOnUse" color-interpolation-filters="sRGB">
<feFlood flood-opacity="0" result="BackgroundImageFix"/>
<feBlend mode="normal" in="SourceGraphic" in2="BackgroundImageFix" result="shape"/>
<feGaussianBlur stdDeviation="2.5" result="effect1_foregroundBlur_210_1531"/>
</filter>
<filter id="filter1_f_210_1531" x="-12.8506" y="245.241" width="45.6092" height="45.6091" filterUnits="userSpaceOnUse" color-interpolation-filters="sRGB">
<feFlood flood-opacity="0" result="BackgroundImageFix"/>
<feBlend mode="normal" in="SourceGraphic" in2="BackgroundImageFix" result="shape"/>
<feGaussianBlur stdDeviation="10" result="effect1_foregroundBlur_210_1531"/>
</filter>
<filter id="filter2_f_210_1531" x="-23" y="235" width="66" height="66" filterUnits="userSpaceOnUse" color-interpolation-filters="sRGB">
<feFlood flood-opacity="0" result="BackgroundImageFix"/>
<feBlend mode="normal" in="SourceGraphic" in2="BackgroundImageFix" result="shape"/>
<feGaussianBlur stdDeviation="12.5" result="effect1_foregroundBlur_210_1531"/>
</filter>
<filter id="filter3_f_210_1531" x="-1.13794" y="250.931" width="14.2069" height="14.2068" filterUnits="userSpaceOnUse" color-interpolation-filters="sRGB">
<feFlood flood-opacity="0" result="BackgroundImageFix"/>
<feBlend mode="normal" in="SourceGraphic" in2="BackgroundImageFix" result="shape"/>
<feGaussianBlur stdDeviation="2.5" result="effect1_foregroundBlur_210_1531"/>
</filter>
<filter id="filter4_f_210_1531" x="-16.1379" y="235.931" width="44.2069" height="44.2068" filterUnits="userSpaceOnUse" color-interpolation-filters="sRGB">
<feFlood flood-opacity="0" result="BackgroundImageFix"/>
<feBlend mode="normal" in="SourceGraphic" in2="BackgroundImageFix" result="shape"/>
<feGaussianBlur stdDeviation="10" result="effect1_foregroundBlur_210_1531"/>
</filter>
<filter id="filter5_f_210_1531" x="-25" y="227" width="62" height="62" filterUnits="userSpaceOnUse" color-interpolation-filters="sRGB">
<feFlood flood-opacity="0" result="BackgroundImageFix"/>
<feBlend mode="normal" in="SourceGraphic" in2="BackgroundImageFix" result="shape"/>
<feGaussianBlur stdDeviation="12.5" result="effect1_foregroundBlur_210_1531"/>
</filter>
</defs>
</svg>
