<svg xmlns="http://www.w3.org/2000/svg" viewBox="0 0 60 60">
  <defs>
    <linearGradient id="i" x1="0" y1="0" x2="1" y2="1">
      <stop offset="0%" stop-color="#0a0f1e"/>
      <stop offset="100%" stop-color="#121824"/>
    </linearGradient>
    <filter id="g"><feGaussianBlur stdDeviation="2.5" result="b"/><feMerge><feMergeNode in="b"/><feMergeNode in="SourceGraphic"/></feMerge></filter>
  </defs>
  <rect width="60" height="60" rx="8" fill="url(#i)"/>
  <rect x="0" y="0" width="60" height="60" rx="8" fill="none" stroke="#c9a84c" stroke-width="2"/>
  <!-- Big gold star center -->
  <g transform="translate(30,30)" filter="url(#g)">
    <path d="M0-20 5-5 20 0 5 5 0 20-5 5-20 0-5-5Z" fill="#ffd700" opacity="0.9"/>
    <circle cx="0" cy="0" r="6" fill="#0a0f1e"/>
    <circle cx="0" cy="0" r="3" fill="#ffd700"/>
  </g>
  <!-- Gold corner stars -->
  <g transform="translate(10,10)" filter="url(#g)">
    <path d="M0-8 2-2 8 0 2 2 0 8-2 2-8 0-2-2Z" fill="#c9a84c" opacity="0.9"/>
  </g>
  <g transform="translate(50,10)" filter="url(#g)">
    <path d="M0-8 2-2 8 0 2 2 0 8-2 2-8 0-2-2Z" fill="#c9a84c" opacity="0.9"/>
  </g>
  <g transform="translate(10,50)" filter="url(#g)">
    <path d="M0-8 2-2 8 0 2 2 0 8-2 2-8 0-2-2Z" fill="#c9a84c" opacity="0.9"/>
  </g>
  <g transform="translate(50,50)" filter="url(#g)">
    <path d="M0-8 2-2 8 0 2 2 0 8-2 2-8 0-2-2Z" fill="#c9a84c" opacity="0.9"/>
  </g>
  <!-- Grid lines -->
  <rect x="28.5" y="0" width="3" height="60" fill="#c9a84c" opacity="0.25"/>
  <rect x="0" y="28.5" width="60" height="3" fill="#c9a84c" opacity="0.25"/>
</svg>
