<svg xmlns="http://www.w3.org/2000/svg" viewBox="0 0 300 125">
  <defs>
    <linearGradient id="fn-bg" x1="0" y1="0" x2="1" y2="0">
      <stop offset="0%" stop-color="#111111"/>
      <stop offset="100%" stop-color="#1a1a1a"/>
    </linearGradient>
  </defs>
  <!-- Frame base -->
  <path fill-rule="evenodd" fill="url(#fn-bg)" d="
    M 0 0 H 300 V 125 H 0 Z
    M 16 7 V 118 H 146 V 7 Z
    M 154 7 V 118 H 284 V 7 Z
  "/>
  <!-- Sprocket holes top row -->
  <rect x="1" y="10" width="9" height="7" rx="1" fill="#333" stroke="#555" stroke-width="0.5"/>
  <rect x="1" y="22" width="9" height="7" rx="1" fill="#333" stroke="#555" stroke-width="0.5"/>
  <rect x="1" y="34" width="9" height="7" rx="1" fill="#333" stroke="#555" stroke-width="0.5"/>
  <rect x="1" y="46" width="9" height="7" rx="1" fill="#333" stroke="#555" stroke-width="0.5"/>
  <rect x="1" y="58" width="9" height="7" rx="1" fill="#333" stroke="#555" stroke-width="0.5"/>
  <rect x="1" y="70" width="9" height="7" rx="1" fill="#333" stroke="#555" stroke-width="0.5"/>
  <rect x="1" y="82" width="9" height="7" rx="1" fill="#333" stroke="#555" stroke-width="0.5"/>
  <rect x="1" y="94" width="9" height="7" rx="1" fill="#333" stroke="#555" stroke-width="0.5"/>
  <rect x="1" y="106" width="9" height="7" rx="1" fill="#333" stroke="#555" stroke-width="0.5"/>
  <!-- Right sprocket holes -->
  <rect x="290" y="10" width="9" height="7" rx="1" fill="#333" stroke="#555" stroke-width="0.5"/>
  <rect x="290" y="22" width="9" height="7" rx="1" fill="#333" stroke="#555" stroke-width="0.5"/>
  <rect x="290" y="34" width="9" height="7" rx="1" fill="#333" stroke="#555" stroke-width="0.5"/>
  <rect x="290" y="46" width="9" height="7" rx="1" fill="#333" stroke="#555" stroke-width="0.5"/>
  <rect x="290" y="58" width="9" height="7" rx="1" fill="#333" stroke="#555" stroke-width="0.5"/>
  <rect x="290" y="70" width="9" height="7" rx="1" fill="#333" stroke="#555" stroke-width="0.5"/>
  <rect x="290" y="82" width="9" height="7" rx="1" fill="#333" stroke="#555" stroke-width="0.5"/>
  <rect x="290" y="94" width="9" height="7" rx="1" fill="#333" stroke="#555" stroke-width="0.5"/>
  <rect x="290" y="106" width="9" height="7" rx="1" fill="#333" stroke="#555" stroke-width="0.5"/>
  <!-- Frame number labels -->
  <text x="12" y="5.5" font-size="4" fill="#888" font-family="monospace">01</text>
  <text x="77" y="5.5" font-size="4" fill="#888" font-family="monospace">02</text>
  <text x="224" y="5.5" font-size="4" fill="#888" font-family="monospace">03</text>
  <!-- Top and bottom film borders -->
  <rect x="0" y="0" width="300" height="6" fill="#1a1a1a"/>
  <rect x="0" y="119" width="300" height="6" fill="#1a1a1a"/>
  <!-- Divider -->
  <rect x="148" y="6" width="6" height="113" fill="#1a1a1a"/>
  <!-- Frame borders -->
  <rect x="0" y="0" width="300" height="0.5" fill="#555"/>
  <rect x="0" y="124.5" width="300" height="0.5" fill="#555"/>
</svg>
