<svg width="35" height="35" viewBox="0 0 35 35" fill="none" xmlns="http://www.w3.org/2000/svg">
<path d="M4.375 6.56688C4.37501 6.1657 4.48535 5.77224 4.69395 5.42956C4.90254 5.08687 5.20136 4.80815 5.55771 4.62388C5.91407 4.4396 6.31423 4.35687 6.71445 4.38474C7.11466 4.41261 7.4995 4.54999 7.82688 4.78188L23.1394 15.6384C23.4238 15.8396 23.6561 16.1057 23.8169 16.4148C23.9777 16.7238 24.0624 17.0668 24.0639 17.4151C24.0654 17.7635 23.9837 18.1072 23.8255 18.4176C23.6674 18.728 23.4374 18.9961 23.1547 19.1997L7.84219 30.2181C7.51552 30.4538 7.13014 30.5946 6.72852 30.6252C6.32691 30.6557 5.92465 30.5748 5.56608 30.3914C5.20751 30.2079 4.90656 29.929 4.6964 29.5854C4.48623 29.2418 4.37501 28.8468 4.375 28.4441V6.56688ZM30.625 5.46875C30.625 5.17867 30.5098 4.90047 30.3046 4.69535C30.0995 4.49023 29.8213 4.375 29.5312 4.375C29.2412 4.375 28.963 4.49023 28.7579 4.69535C28.5527 4.90047 28.4375 5.17867 28.4375 5.46875V29.5312C28.4375 29.8213 28.5527 30.0995 28.7579 30.3046C28.963 30.5098 29.2412 30.625 29.5312 30.625C29.8213 30.625 30.0995 30.5098 30.3046 30.3046C30.5098 30.0995 30.625 29.8213 30.625 29.5312V5.46875Z" fill="white"/>
</svg>
