<svg width="35" height="35" viewBox="0 0 35 35" fill="none" xmlns="http://www.w3.org/2000/svg">
<path d="M30.625 6.56688C30.625 6.1657 30.5146 5.77224 30.3061 5.42956C30.0975 5.08687 29.7986 4.80815 29.4423 4.62388C29.0859 4.4396 28.6858 4.35687 28.2856 4.38474C27.8853 4.41261 27.5005 4.54999 27.1731 4.78188L11.8606 15.6384C11.5762 15.8396 11.3439 16.1057 11.1831 16.4148C11.0223 16.7238 10.9376 17.0668 10.9361 17.4151C10.9346 17.7635 11.0163 18.1072 11.1745 18.4176C11.3326 18.728 11.5626 18.9961 11.8453 19.1997L27.1578 30.2181C27.4845 30.4538 27.8699 30.5946 28.2715 30.6252C28.6731 30.6557 29.0754 30.5748 29.4339 30.3914C29.7925 30.2079 30.0934 29.929 30.3036 29.5854C30.5138 29.2418 30.625 28.8468 30.625 28.4441V6.56688ZM4.375 5.46875C4.375 5.17867 4.49023 4.90047 4.69535 4.69535C4.90047 4.49023 5.17867 4.375 5.46875 4.375C5.75883 4.375 6.03703 4.49023 6.24215 4.69535C6.44727 4.90047 6.5625 5.17867 6.5625 5.46875V29.5312C6.5625 29.8213 6.44727 30.0995 6.24215 30.3046C6.03703 30.5098 5.75883 30.625 5.46875 30.625C5.17867 30.625 4.90047 30.5098 4.69535 30.3046C4.49023 30.0995 4.375 29.8213 4.375 29.5312V5.46875Z" fill="white"/>
</svg>
