<svg xmlns="http://www.w3.org/2000/svg" viewBox="0 0 60 60">
  <defs>
    <linearGradient id="i" x1="0" y1="0" x2="1" y2="1">
      <stop offset="0%" stop-color="#e8f5e9"/>
      <stop offset="100%" stop-color="#c8e6c9"/>
    </linearGradient>
    <filter id="g"><feGaussianBlur stdDeviation="1.5" result="b"/><feMerge><feMergeNode in="b"/><feMergeNode in="SourceGraphic"/></feMerge></filter>
  </defs>
  <rect width="60" height="60" rx="8" fill="url(#i)"/>
  <rect x="0" y="0" width="60" height="60" rx="8" fill="none" stroke="#388e3c" stroke-width="1.5" opacity="0.5"/>
  <!-- Big pink flower center -->
  <g transform="translate(28,28)">
    <ellipse cx="0" cy="-15" rx="8.5" ry="13" fill="#f06292" opacity="0.75"/>
    <ellipse cx="0" cy="-15" rx="8.5" ry="13" fill="#e91e63" opacity="0.65" transform="rotate(72)"/>
    <ellipse cx="0" cy="-15" rx="8.5" ry="13" fill="#f48fb1" opacity="0.75" transform="rotate(144)"/>
    <ellipse cx="0" cy="-15" rx="8.5" ry="13" fill="#e91e63" opacity="0.65" transform="rotate(216)"/>
    <ellipse cx="0" cy="-15" rx="8.5" ry="13" fill="#f06292" opacity="0.75" transform="rotate(288)"/>
    <circle cx="0" cy="0" r="6" fill="#fff9c4"/>
    <circle cx="0" cy="0" r="3" fill="#f9a825"/>
  </g>
  <!-- Leaf accents -->
  <ellipse cx="10" cy="50" rx="9" ry="5" fill="#66bb6a" opacity="0.7" transform="rotate(-30 10 50)"/>
  <ellipse cx="50" cy="10" rx="9" ry="5" fill="#4caf50" opacity="0.7" transform="rotate(50 50 10)"/>
  <ellipse cx="50" cy="50" rx="8" ry="4.5" fill="#388e3c" opacity="0.6" transform="rotate(-50 50 50)"/>
</svg>
