<svg xmlns="http://www.w3.org/2000/svg" viewBox="0 0 60 60">
  <defs>
    <linearGradient id="i" x1="0" y1="0" x2="1" y2="1">
      <stop offset="0%" stop-color="#fff0f5"/>
      <stop offset="100%" stop-color="#ffe4f0"/>
    </linearGradient>
    <filter id="g"><feGaussianBlur stdDeviation="2" result="b"/><feMerge><feMergeNode in="b"/><feMergeNode in="SourceGraphic"/></feMerge></filter>
  </defs>
  <rect width="60" height="60" rx="8" fill="url(#i)"/>
  <rect x="0" y="0" width="60" height="60" rx="8" fill="none" stroke="#ff9ec8" stroke-width="2"/>
  <!-- Big heart center -->
  <g transform="translate(30,28)" filter="url(#g)">
    <path d="M 0 14 C -3 8,-18 4,-18 -6 C -18 -16,-9 -22,0 -14 C 9 -22,18 -16,18 -6 C 18 4,3 8,0 14 Z" fill="#ff6fa6"/>
    <path d="M 0 8 C -2 4,-10 2,-10 -3 C -10 -8,-5 -11,0 -7 C 5 -11,10 -8,10 -3 C 10 2,2 4,0 8 Z" fill="#ff9ec8" opacity="0.7"/>
  </g>
  <!-- Bow top -->
  <g transform="translate(30,10)">
    <ellipse cx="-9" cy="0" rx="9" ry="5.5" fill="#ff9ec8" opacity="0.8" transform="rotate(-20 -9 0)"/>
    <ellipse cx="9" cy="0" rx="9" ry="5.5" fill="#ff9ec8" opacity="0.8" transform="rotate(20 9 0)"/>
    <circle cx="0" cy="0" r="4" fill="#ff6fa6"/>
    <circle cx="0" cy="0" r="2" fill="white" opacity="0.6"/>
  </g>
  <!-- Small hearts scattered -->
  <path d="M 0 3 C -1 1,-4 0,-4 -2 C -4 -4,-2 -5,0 -3 C 2 -5,4 -4,4 -2 C 4 0,1 1,0 3 Z" fill="#ffb3d1" opacity="0.7" transform="translate(8,48)"/>
  <path d="M 0 3 C -1 1,-4 0,-4 -2 C -4 -4,-2 -5,0 -3 C 2 -5,4 -4,4 -2 C 4 0,1 1,0 3 Z" fill="#ffb3d1" opacity="0.7" transform="translate(52,48)"/>
</svg>
