<svg xmlns="http://www.w3.org/2000/svg" viewBox="0 0 60 60">
  <defs>
    <linearGradient id="i" x1="0" y1="0" x2="1" y2="1">
      <stop offset="0%" stop-color="#fce4ec"/>
      <stop offset="100%" stop-color="#e8eaf6"/>
    </linearGradient>
    <filter id="g"><feGaussianBlur stdDeviation="2" result="b"/><feMerge><feMergeNode in="b"/><feMergeNode in="SourceGraphic"/></feMerge></filter>
  </defs>
  <rect width="60" height="60" rx="8" fill="url(#i)"/>
  <rect x="0" y="0" width="60" height="60" rx="8" fill="none" stroke="#ec407a" stroke-width="1.5" opacity="0.5"/>
  <!-- Big pink heart center -->
  <g transform="translate(30,30)" filter="url(#g)">
    <path d="M 0 16 C -4 8,-20 4,-20 -7 C -20 -18,-10 -24,0 -14 C 10 -24,20 -18,20 -7 C 20 4,4 8,0 16 Z" fill="#ec407a" opacity="0.9"/>
    <path d="M 0 8 C -2 4,-10 2,-10 -3 C -10 -9,-5 -12,0 -7 C 5 -12,10 -9,10 -3 C 10 2,2 4,0 8 Z" fill="#f8bbd0" opacity="0.75"/>
  </g>
  <!-- Pink dots corner -->
  <circle cx="10" cy="10" r="5" fill="#f06292" opacity="0.6"/>
  <circle cx="50" cy="10" r="5" fill="#f06292" opacity="0.6"/>
  <circle cx="10" cy="50" r="5" fill="#f06292" opacity="0.6"/>
  <circle cx="50" cy="50" r="5" fill="#f06292" opacity="0.6"/>
</svg>
