<svg width="385" height="70" viewBox="0 0 385 70" fill="none" xmlns="http://www.w3.org/2000/svg">
<g filter="url(#filter0_n_124_17)">
<path d="M36.384 0.86396C37.472 0.86396 38.016 3.71196 38.016 9.40796C38.016 15.04 37.472 17.856 36.384 17.856H18.816V28.8H30.528C31.616 28.8 32.16 31.296 32.16 36.288C32.16 41.216 31.648 43.68 30.624 43.68H18.816V66.816C18.816 67.712 17.6 68.288 15.168 68.544C12.8 68.864 10.816 69.024 9.21599 69.024L4.70399 68.832C1.56799 68.448 -7.15256e-06 67.808 -7.15256e-06 66.912V3.35996C-7.15256e-06 2.33596 0.191993 1.66396 0.575993 1.34396C1.02399 1.02396 1.66399 0.86396 2.49599 0.86396H36.384ZM262.694 65.952C262.694 67.296 259.686 67.968 253.67 67.968C247.654 67.968 244.39 67.488 243.878 66.528L227.846 36.576V66.432C227.846 67.584 224.87 68.16 218.918 68.16C213.03 68.16 210.086 67.584 210.086 66.432V2.20796C210.086 1.24796 212.614 0.767962 217.67 0.767962C219.654 0.767962 221.958 0.959961 224.582 1.34396C227.27 1.66396 228.902 2.30396 229.478 3.26396L244.838 32.832V2.68796C244.838 1.47196 247.814 0.86396 253.766 0.86396C259.718 0.86396 262.694 1.47196 262.694 2.68796V65.952Z" fill="#FE8D29"/>
<path d="M68.8972 66.72C68.8972 67.744 65.8572 68.256 59.7772 68.256C53.6332 68.256 50.5612 67.776 50.5612 66.816V4.22396C50.5612 1.98396 51.7452 0.86396 54.1132 0.86396H72.4492C89.2812 0.86396 97.6972 7.42396 97.6972 20.544C97.6972 24.512 96.9292 28.128 95.3932 31.392C93.8572 34.592 91.6812 37.152 88.8652 39.072L100.961 59.232C100.449 60.768 98.7852 62.528 95.9692 64.512C92.1292 67.264 88.9612 68.64 86.4652 68.64C83.9692 68.64 82.1132 67.744 80.8972 65.952L71.8732 44.928H68.8972V66.72ZM68.8972 17.856V32.256H69.3772C75.4572 32.256 78.4972 29.728 78.4972 24.672C78.4972 22.368 77.8892 20.672 76.6732 19.584C75.5212 18.432 73.6012 17.856 70.9132 17.856H68.8972ZM277.136 63.648V6.04796C277.136 4.44796 277.52 3.19996 278.288 2.30396C279.12 1.34396 280.176 0.86396 281.456 0.86396H297.488C307.664 0.86396 315.376 3.42396 320.624 8.54396C325.936 13.664 328.592 21.728 328.592 32.736C328.592 56.288 318.544 68.064 298.448 68.064H282.032C278.768 68.064 277.136 66.592 277.136 63.648ZM295.568 19.104V47.808C295.568 49.152 295.664 50.016 295.856 50.4C296.048 50.72 296.624 50.88 297.584 50.88C301.104 50.88 303.76 49.568 305.552 46.944C307.408 44.32 308.336 39.968 308.336 33.888C308.336 27.744 307.376 23.744 305.456 21.888C303.6 20.032 300.624 19.104 296.528 19.104H295.568Z" fill="#FF7355"/>
<path d="M118.322 51.552V17.376H111.506C110.418 17.376 109.65 16 109.202 13.248C109.01 11.904 108.914 10.528 108.914 9.11996C108.914 7.71196 109.01 6.33596 109.202 4.99196C109.65 2.23996 110.418 0.86396 111.506 0.86396H143.762C144.85 0.86396 145.586 2.23996 145.97 4.99196C146.226 6.33596 146.354 7.71196 146.354 9.11996C146.354 10.528 146.226 11.904 145.97 13.248C145.586 16 144.85 17.376 143.762 17.376H137.33V51.552H144.05C145.138 51.552 145.906 52.928 146.354 55.68C146.61 57.024 146.738 58.4 146.738 59.808C146.738 61.216 146.61 62.592 146.354 63.936C145.906 66.688 145.138 68.064 144.05 68.064H111.698C110.61 68.064 109.874 66.688 109.49 63.936C109.234 62.592 109.106 61.216 109.106 59.808C109.106 58.4 109.234 57.024 109.49 55.68C109.874 52.928 110.61 51.552 111.698 51.552H118.322ZM343.588 44.64C344.804 45.6 346.884 46.912 349.828 48.576C352.836 50.24 355.684 51.072 358.372 51.072C361.124 51.072 362.5 50.016 362.5 47.904C362.5 46.944 362.116 46.112 361.348 45.408C360.58 44.64 359.172 43.776 357.124 42.816C355.076 41.856 353.54 41.12 352.516 40.608C351.492 40.032 350.116 39.136 348.388 37.92C346.724 36.64 345.444 35.328 344.548 33.984C341.988 30.336 340.708 25.696 340.708 20.064C340.708 14.432 342.788 9.69596 346.948 5.85596C351.172 1.95196 356.676 -4.00543e-05 363.46 -4.00543e-05C368.068 -4.00543e-05 372.324 0.511961 376.228 1.53596C380.132 2.49596 382.148 3.77596 382.276 5.37596C382.276 5.56796 382.276 5.75996 382.276 5.95196C382.276 8.19196 381.572 11.04 380.164 14.496C378.756 17.888 377.764 19.776 377.188 20.16C373.092 18.048 369.412 16.992 366.148 16.992C362.948 16.992 361.348 18.144 361.348 20.448C361.348 21.856 362.532 23.104 364.9 24.192C365.412 24.448 366.148 24.8 367.108 25.248C368.068 25.696 369.156 26.24 370.372 26.88C371.652 27.456 372.996 28.224 374.404 29.184C375.876 30.08 377.444 31.296 379.108 32.832C382.5 36.032 384.196 40.256 384.196 45.504C384.196 52.352 382.308 57.952 378.532 62.304C374.756 66.656 368.932 68.896 361.06 69.024C357.22 69.024 353.732 68.704 350.596 68.064C347.524 67.424 344.836 66.176 342.532 64.32C340.228 62.464 339.076 60.224 339.076 57.6C339.076 54.976 339.556 52.384 340.516 49.824C341.476 47.2 342.5 45.472 343.588 44.64Z" fill="#457736"/>
<path d="M189.142 27.552C190.358 27.552 190.966 29.792 190.966 34.272C190.966 35.616 190.806 37.216 190.486 39.072C190.23 40.864 189.718 41.76 188.95 41.76H176.758V51.36H194.422C195.51 51.36 196.246 52.768 196.63 55.584C196.822 56.8 196.918 58.112 196.918 59.52C196.918 60.864 196.726 62.624 196.342 64.8C195.958 66.976 195.318 68.064 194.422 68.064H161.59C159.158 68.064 157.942 67.072 157.942 65.088V3.35996C157.942 1.69596 158.678 0.86396 160.15 0.86396H194.518C195.862 0.86396 196.534 3.71196 196.534 9.40796C196.534 15.04 195.862 17.856 194.518 17.856H176.758V27.552H189.142Z" fill="#FDB66C"/>
</g>
<defs>
<filter id="filter0_n_124_17" x="0" y="0" width="384.196" height="69.0239" filterUnits="userSpaceOnUse" color-interpolation-filters="sRGB">
<feFlood flood-opacity="0" result="BackgroundImageFix"/>
<feBlend mode="normal" in="SourceGraphic" in2="BackgroundImageFix" result="shape"/>
<feTurbulence type="fractalNoise" baseFrequency="0.3333333432674408 0.3333333432674408" stitchTiles="stitch" numOctaves="3" result="noise" seed="4569" />
<feColorMatrix in="noise" type="luminanceToAlpha" result="alphaNoise" />
<feComponentTransfer in="alphaNoise" result="coloredNoise1">
<feFuncA type="discrete" tableValues="0 0 0 0 0 0 0 0 0 0 0 0 0 0 0 0 0 0 0 0 0 1 1 1 1 1 1 1 1 0 0 0 0 0 0 0 0 0 0 0 0 0 0 0 0 0 0 0 0 0 0 0 0 0 0 0 0 0 0 0 0 0 0 0 0 0 0 0 0 0 0 0 0 0 0 0 0 0 0 0 0 0 0 0 0 0 0 0 0 0 0 0 0 0 0 0 0 0 0 0 "/>
</feComponentTransfer>
<feComposite operator="in" in2="shape" in="coloredNoise1" result="noise1Clipped" />
<feFlood flood-color="#FBE6B6" result="color1Flood" />
<feComposite operator="in" in2="noise1Clipped" in="color1Flood" result="color1" />
<feMerge result="effect1_noise_124_17">
<feMergeNode in="shape" />
<feMergeNode in="color1" />
</feMerge>
</filter>
</defs>
</svg>
