<svg width="600" height="1800" viewBox="0 0 600 1800" fill="none" xmlns="http://www.w3.org/2000/svg">
<rect x="-3" y="10" width="10" height="1800" fill="#F0CE5E" fill-opacity="0.5"/>
<rect x="589" y="10" width="10" height="1800" fill="#F0CE5E" fill-opacity="0.5"/>
<rect x="515" y="10" width="10" height="1800" fill="#F0CE5E" fill-opacity="0.5"/>
<rect x="293" y="10" width="10" height="1800" fill="#F0CE5E" fill-opacity="0.5"/>
<rect x="219" y="10" width="10" height="1800" fill="#F0CE5E" fill-opacity="0.5"/>
<rect x="441" y="10" width="10" height="1800" fill="#F0CE5E" fill-opacity="0.5"/>
<rect x="367" y="10" width="10" height="1800" fill="#F0CE5E" fill-opacity="0.5"/>
<rect x="145" y="10" width="10" height="1800" fill="#F0CE5E" fill-opacity="0.5"/>
<rect x="71" y="10" width="10" height="1800" fill="#F0CE5E" fill-opacity="0.5"/>
<rect x="-316" y="10" width="10" height="1238" transform="rotate(-90 -316 10)" fill="#F0CE5E" fill-opacity="0.5"/>
<rect x="-316" y="1800" width="10" height="1238" transform="rotate(-90 -316 1800)" fill="#F0CE5E" fill-opacity="0.5"/>
<rect x="-319" y="1709" width="10" height="1238" transform="rotate(-90 -319 1709)" fill="#F0CE5E" fill-opacity="0.5"/>
<rect x="-322" y="1618" width="10" height="1238" transform="rotate(-90 -322 1618)" fill="#F0CE5E" fill-opacity="0.5"/>
<rect x="-322" y="1532" width="10" height="1238" transform="rotate(-90 -322 1532)" fill="#F0CE5E" fill-opacity="0.5"/>
<rect x="-322" y="1446" width="10" height="1238" transform="rotate(-90 -322 1446)" fill="#F0CE5E" fill-opacity="0.5"/>
<rect x="-322" y="1360" width="10" height="1238" transform="rotate(-90 -322 1360)" fill="#F0CE5E" fill-opacity="0.5"/>
<rect x="-322" y="1274" width="10" height="1238" transform="rotate(-90 -322 1274)" fill="#F0CE5E" fill-opacity="0.5"/>
<rect x="-322" y="1188" width="10" height="1238" transform="rotate(-90 -322 1188)" fill="#F0CE5E" fill-opacity="0.5"/>
<rect x="-322" y="1102" width="10" height="1238" transform="rotate(-90 -322 1102)" fill="#F0CE5E" fill-opacity="0.5"/>
<rect x="-322" y="1016" width="10" height="1238" transform="rotate(-90 -322 1016)" fill="#F0CE5E" fill-opacity="0.5"/>
<rect x="-322" y="930" width="10" height="1238" transform="rotate(-90 -322 930)" fill="#F0CE5E" fill-opacity="0.5"/>
<rect x="-322" y="844" width="10" height="1238" transform="rotate(-90 -322 844)" fill="#F0CE5E" fill-opacity="0.5"/>
<rect x="-322" y="758" width="10" height="1238" transform="rotate(-90 -322 758)" fill="#F0CE5E" fill-opacity="0.5"/>
<rect x="-322" y="672" width="10" height="1238" transform="rotate(-90 -322 672)" fill="#F0CE5E" fill-opacity="0.5"/>
<rect x="-322" y="586" width="10" height="1238" transform="rotate(-90 -322 586)" fill="#F0CE5E" fill-opacity="0.5"/>
<rect x="-322" y="500" width="10" height="1238" transform="rotate(-90 -322 500)" fill="#F0CE5E" fill-opacity="0.5"/>
<rect x="-322" y="414" width="10" height="1238" transform="rotate(-90 -322 414)" fill="#F0CE5E" fill-opacity="0.5"/>
<rect x="-322" y="328" width="10" height="1238" transform="rotate(-90 -322 328)" fill="#F0CE5E" fill-opacity="0.5"/>
<rect x="-322" y="242" width="10" height="1238" transform="rotate(-90 -322 242)" fill="#F0CE5E" fill-opacity="0.5"/>
<rect x="-322" y="156" width="10" height="1238" transform="rotate(-90 -322 156)" fill="#F0CE5E" fill-opacity="0.5"/>
<rect x="-316" y="80" width="10" height="1238" transform="rotate(-90 -316 80)" fill="#F0CE5E" fill-opacity="0.5"/>
</svg>
