<svg xmlns="http://www.w3.org/2000/svg" viewBox="0 0 60 60">
  <defs>
    <linearGradient id="i" x1="0" y1="0" x2="1" y2="1">
      <stop offset="0%" stop-color="#0d1b2a"/>
      <stop offset="100%" stop-color="#1b2838"/>
    </linearGradient>
    <filter id="g"><feGaussianBlur stdDeviation="2" result="b"/><feMerge><feMergeNode in="b"/><feMergeNode in="SourceGraphic"/></feMerge></filter>
  </defs>
  <rect width="60" height="60" rx="8" fill="url(#i)"/>
  <rect x="0" y="0" width="60" height="60" rx="8" fill="none" stroke="#c9a84c" stroke-width="2"/>
  <g transform="translate(30,30)" filter="url(#g)">
    <path d="M0-20 5-5 20 0 5 5 0 20 -5 5 -20 0 -5-5Z" fill="#ffd700" opacity="0.95"/>
    <circle cx="0" cy="0" r="5" fill="#0d1b2a"/>
    <circle cx="0" cy="0" r="2.5" fill="#ffd700"/>
  </g>
  <g transform="translate(10,10)" filter="url(#g)">
    <path d="M0-8 2-2 8 0 2 2 0 8-2 2-8 0-2-2Z" fill="#ffd700" opacity="0.8"/>
  </g>
  <g transform="translate(50,10)" filter="url(#g)">
    <path d="M0-8 2-2 8 0 2 2 0 8-2 2-8 0-2-2Z" fill="#ffd700" opacity="0.8"/>
  </g>
  <g transform="translate(10,50)" filter="url(#g)">
    <path d="M0-8 2-2 8 0 2 2 0 8-2 2-8 0-2-2Z" fill="#ffd700" opacity="0.8"/>
  </g>
  <g transform="translate(50,50)" filter="url(#g)">
    <path d="M0-8 2-2 8 0 2 2 0 8-2 2-8 0-2-2Z" fill="#ffd700" opacity="0.8"/>
  </g>
</svg>
