<svg xmlns="http://www.w3.org/2000/svg" viewBox="0 0 60 60">
  <defs>
    <linearGradient id="i" x1="0" y1="0" x2="1" y2="1">
      <stop offset="0%" stop-color="#ff7043"/>
      <stop offset="100%" stop-color="#ffab40"/>
    </linearGradient>
    <filter id="g"><feGaussianBlur stdDeviation="2" result="b"/><feMerge><feMergeNode in="b"/><feMergeNode in="SourceGraphic"/></feMerge></filter>
  </defs>
  <rect width="60" height="60" rx="8" fill="url(#i)"/>
  <rect x="0" y="0" width="60" height="60" rx="8" fill="none" stroke="white" stroke-width="1.5" opacity="0.5"/>
  <!-- Big sun center -->
  <g transform="translate(30,30)" filter="url(#g)">
    <circle cx="0" cy="0" r="16" fill="#ffe082" opacity="0.85"/>
    <circle cx="0" cy="0" r="10" fill="#ffca28"/>
    <line x1="0" y1="-20" x2="0" y2="-24" stroke="#ffe082" stroke-width="2.5" stroke-linecap="round"/>
    <line x1="0" y1="20" x2="0" y2="24" stroke="#ffe082" stroke-width="2.5" stroke-linecap="round"/>
    <line x1="-20" y1="0" x2="-24" y2="0" stroke="#ffe082" stroke-width="2.5" stroke-linecap="round"/>
    <line x1="20" y1="0" x2="24" y2="0" stroke="#ffe082" stroke-width="2.5" stroke-linecap="round"/>
    <line x1="-14" y1="-14" x2="-17" y2="-17" stroke="#ffe082" stroke-width="2" stroke-linecap="round"/>
    <line x1="14" y1="14" x2="17" y2="17" stroke="#ffe082" stroke-width="2" stroke-linecap="round"/>
    <line x1="-14" y1="14" x2="-17" y2="17" stroke="#ffe082" stroke-width="2" stroke-linecap="round"/>
    <line x1="14" y1="-14" x2="17" y2="-17" stroke="#ffe082" stroke-width="2" stroke-linecap="round"/>
  </g>
  <!-- Wave bottom decoration -->
  <path d="M 5 52 Q 15 47,25 52 Q 35 57,45 52 Q 55 47,60 52" fill="none" stroke="white" stroke-width="1.8" stroke-linecap="round" opacity="0.6"/>
</svg>
