<svg width="20" height="20" viewBox="0 0 20 20" fill="none" xmlns="http://www.w3.org/2000/svg">
<path d="M3.63714 4.86461V15.1354H0V4.86461H3.63714ZM5.45571 15.7983L12.73 20V0L5.45571 4.20168V15.7983ZM18.714 6.05976L18.1666 5.31373L16.7154 6.43978L17.2628 7.18487C17.8592 7.99569 18.1817 8.98418 18.1814 10.0003C18.1811 11.0164 17.8579 12.0047 17.261 12.8151L16.7127 13.5593L18.163 14.6853L18.7113 13.9412C19.547 12.8066 19.9995 11.4231 20 10.0005C20.0005 8.57789 19.549 7.19398 18.714 6.05882" fill="white"/>
<path d="M16.1752 8.02891L15.6269 7.28381L14.1757 8.40893L14.724 9.15403C14.903 9.39721 14.9999 9.69373 14.9999 9.99857C14.9999 10.3034 14.903 10.5999 14.724 10.8431L14.1748 11.5873L15.6251 12.7143L16.1734 11.9692C16.5911 11.402 16.8173 10.7104 16.8177 9.99935C16.818 9.28826 16.5924 8.59646 16.1752 8.02891Z" fill="white"/>
</svg>
