<svg width="274" height="75" viewBox="0 0 274 75" fill="none" xmlns="http://www.w3.org/2000/svg">
<path d="M19.4243 35.3018H16.5V39.6982H19.4243V35.3018ZM25.1869 40.9854H22.2626V34.0146H25.1869V40.9854ZM30.8528 44.5909H27.9285V30.4091H30.8528V44.5909ZM36.2389 47.3731H33.3146V27.7566H36.2389V47.3684V47.3731ZM42.0052 42.5826H39.0809V32.4174H42.0052V42.5826ZM47.8629 50.2745H44.9386V24.2905H47.8721V50.2745H47.8629ZM53.6274 54H50.7031V21H53.6274V54ZM59.2933 48.9054H56.3689V26.0945H59.2933V48.9055V48.9054ZM65.1546 42.4275H62.2303V32.8126H65.1546V42.4275ZM70.8203 40.1355H67.896V34.856H70.8203V40.1442V40.1355ZM76.4862 42.96H73.5619V32.0363H76.4862V42.9635V42.96ZM82.0606 48.2479H79.1363V26.127H82.0605V48.2517L82.0606 48.2479ZM87.7263 44.8684H84.802V29.9416H87.7263V44.8722V44.8684ZM93.5 40.9854H90.5757V34.0146H93.5V40.9854Z" fill="white"/>
<path d="M101.424 34.9022H98.5V40.0978H101.424V34.9022ZM107.187 41.6191H104.263V33.3809H107.187V41.6191ZM112.853 45.8802H109.928V29.1198H112.853V45.8802ZM118.239 49.1683H115.315V25.9851H118.239V49.1627V49.1683ZM124.005 43.5068H121.081V31.4932H124.005V43.5068ZM129.863 52.5971H126.939V21.8888H129.872V52.5971H129.863ZM135.627 57H132.703V18H135.627V57ZM141.293 50.9791H138.369V24.0208H141.293V50.9792V50.9791ZM147.155 43.3235H144.23V31.9604H147.155V43.3235ZM152.82 40.6147H149.896V34.3753H152.82V40.6249V40.6147ZM158.486 43.9527H155.562V31.0429H158.486V43.9569V43.9527ZM164.061 50.2021H161.136V24.0592H164.06V50.2066L164.061 50.2021ZM169.726 46.2081H166.802V28.5673H169.726V46.2126V46.2081ZM175.5 41.6191H172.576V33.3809H175.5V41.6191Z" fill="white"/>
<path d="M254.576 34.1028H257.5V40.8972H254.576V34.1028ZM248.813 42.8865H251.737V32.1135H248.813V42.8865ZM243.147 48.4587H246.072V26.5413H243.147V48.4587ZM237.761 52.7585H240.685V22.4421H237.761V52.7512V52.7585ZM231.995 45.355H234.919V29.645H231.995V45.355ZM226.137 57.2423H229.061V17.0854H226.128V57.2423H226.137ZM220.373 63H223.297V12H220.373V63ZM214.707 55.1265H217.631V19.8734H214.707V55.1266V55.1265ZM208.845 45.1153H211.77V30.2559H208.845V45.1153ZM203.18 41.573H206.104V33.4139H203.18V41.5865V41.573ZM197.514 45.9381H200.438V29.0561H197.514V45.9436V45.9381ZM191.939 54.1104H194.864V19.9235H191.94V54.1163L191.939 54.1104ZM186.274 48.8876H189.198V25.8188H186.274V48.8933V48.8876ZM180.5 42.8865H183.424V32.1135H180.5V42.8865Z" fill="white"/>
</svg>
