<svg width="98" height="98" viewBox="0 0 98 98" fill="none" xmlns="http://www.w3.org/2000/svg">
<ellipse cx="49" cy="48.4024" rx="37.0488" ry="37.6463" fill="black"/>
<path d="M49 0C22.05 0 0 22.05 0 49C0 75.95 22.05 98 49 98C75.95 98 98 75.95 98 49C98 22.05 76.195 0 49 0ZM67.375 71.785C55.86 64.68 41.405 63.21 24.255 67.13C22.54 67.62 21.07 66.395 20.58 64.925C20.09 63.21 21.315 61.74 22.785 61.25C41.405 57.085 57.575 58.8 70.315 66.64C72.03 67.375 72.275 69.335 71.54 70.805C70.56 72.275 68.845 72.765 67.375 71.785ZM72.275 58.555C59.045 50.47 38.955 48.02 23.52 52.92C21.56 53.41 19.355 52.43 18.865 50.47C18.375 48.51 19.355 46.305 21.315 45.815C39.2 40.425 61.25 43.12 76.44 52.43C77.91 53.165 78.645 55.615 77.42 57.33C76.195 59.045 73.99 59.78 72.275 58.555ZM21.0651 37.975C18.6151 38.71 16.1651 37.24 15.4301 35.035C14.6951 32.585 16.1651 30.135 18.3701 29.4C35.7651 24.255 64.4301 25.235 82.5601 36.015C84.7651 37.24 85.5001 40.18 84.2751 42.385C83.0501 44.1 80.1101 44.835 77.9051 43.61C62.2251 34.3 36.0101 33.32 21.0651 37.975Z" fill="#C9A786"/>
</svg>
