<svg width="70" height="70" viewBox="0 0 70 70" fill="none" xmlns="http://www.w3.org/2000/svg">
<ellipse cx="35" cy="34.5732" rx="26.4634" ry="26.8902" fill="black"/>
<path d="M35 0C15.75 0 0 15.75 0 35C0 54.25 15.75 70 35 70C54.25 70 70 54.25 70 35C70 15.75 54.425 0 35 0ZM48.125 51.275C39.9 46.2 29.575 45.15 17.325 47.95C16.1 48.3 15.05 47.425 14.7 46.375C14.35 45.15 15.225 44.1 16.275 43.75C29.575 40.775 41.125 42 50.225 47.6C51.45 48.125 51.625 49.525 51.1 50.575C50.4 51.625 49.175 51.975 48.125 51.275ZM51.625 41.825C42.175 36.05 27.825 34.3 16.8 37.8C15.4 38.15 13.825 37.45 13.475 36.05C13.125 34.65 13.825 33.075 15.225 32.725C28 28.875 43.75 30.8 54.6 37.45C55.65 37.975 56.175 39.725 55.3 40.95C54.425 42.175 52.85 42.7 51.625 41.825ZM15.0465 27.125C13.2965 27.65 11.5465 26.6 11.0215 25.025C10.4965 23.275 11.5465 21.525 13.1215 21C25.5465 17.325 46.0215 18.025 58.9715 25.725C60.5465 26.6 61.0715 28.7 60.1965 30.275C59.3215 31.5 57.2215 32.025 55.6465 31.15C44.4465 24.5 25.7215 23.8 15.0465 27.125Z" fill="white"/>
</svg>
