<svg width="162" height="152" viewBox="0 0 162 152" fill="none" xmlns="http://www.w3.org/2000/svg">
<g filter="url(#filter0_d_134_11)">
<path d="M8.65371 108.182C6.69423 107.362 5.33003 106.013 4.56113 104.135C3.79223 102.256 3.81351 100.341 4.62498 98.3891C5.43645 96.437 6.78557 95.0774 8.67234 94.3103C10.5591 93.5432 12.4776 93.5677 14.4279 94.3838L97.4177 129.112C99.3771 129.932 100.744 131.282 101.517 133.162C102.291 135.043 102.267 136.957 101.446 138.905C100.626 140.853 99.2756 142.215 97.3962 142.991C95.5167 143.766 93.5991 143.74 91.6435 142.91L8.65371 108.182ZM23.5996 86.0607C20.2569 84.6619 17.7472 82.328 16.0703 79.059C14.3934 75.7899 13.9622 72.3665 14.7767 68.7887L26.1939 22.0843C25.9633 21.9878 25.6926 21.9096 25.3818 21.8498C25.0709 21.79 24.7988 21.7086 24.5656 21.6056C21.684 20.3998 19.6564 18.3703 18.4827 15.5172C17.309 12.6641 17.3223 9.79689 18.5225 6.91566C19.7228 4.03442 21.7545 2.0146 24.6177 0.856186C27.481 -0.302231 30.3507 -0.285051 33.2269 0.907723C36.1031 2.1005 38.1321 4.13324 39.3139 7.00594C40.4956 9.87863 40.481 12.7425 39.27 15.5977C38.9332 16.4026 38.5328 17.1133 38.0689 17.73C37.605 18.3466 37.1398 18.8951 36.6733 19.3755L54.2433 38.0782L88.1975 17.6275C87.3145 16.1771 86.7824 14.5356 86.6011 12.7031C86.4198 10.8706 86.69 9.09197 87.4118 7.36714C88.6147 4.49244 90.6474 2.47031 93.5099 1.30077C96.3723 0.131228 99.2411 0.150707 102.116 1.35921C104.991 2.56771 107.02 4.60045 108.203 7.45742C109.386 10.3144 109.371 13.1783 108.159 16.0491C107.437 17.774 106.36 19.215 104.928 20.3722C103.496 21.5294 101.953 22.3027 100.3 22.692L109.57 61.2302L135.224 60.615C135.234 59.9436 135.295 59.2262 135.409 58.463C135.522 57.6998 135.75 56.9166 136.091 56.1137C137.294 53.239 139.327 51.2168 142.19 50.0473C145.052 48.8777 147.921 48.8972 150.796 50.1057C153.671 51.3142 155.7 53.347 156.883 56.2039C158.066 59.0609 158.051 61.9248 156.839 64.7957C155.627 67.6665 153.596 69.6896 150.748 70.8649C147.899 72.0402 145.028 72.0198 142.135 70.8036C141.904 70.7071 141.657 70.5715 141.395 70.3967C141.132 70.2219 140.884 70.083 140.651 69.98L115.402 110.896C113.43 113.99 110.692 116.087 107.186 117.187C103.681 118.288 100.254 118.138 96.9072 116.737L23.5996 86.0607Z" fill="#D199DC" fill-opacity="0.2" shape-rendering="crispEdges"/>
</g>
<defs>
<filter id="filter0_d_134_11" x="0" y="0" width="161.759" height="151.553" filterUnits="userSpaceOnUse" color-interpolation-filters="sRGB">
<feFlood flood-opacity="0" result="BackgroundImageFix"/>
<feColorMatrix in="SourceAlpha" type="matrix" values="0 0 0 0 0 0 0 0 0 0 0 0 0 0 0 0 0 0 127 0" result="hardAlpha"/>
<feOffset dy="4"/>
<feGaussianBlur stdDeviation="2"/>
<feComposite in2="hardAlpha" operator="out"/>
<feColorMatrix type="matrix" values="0 0 0 0 0 0 0 0 0 0 0 0 0 0 0 0 0 0 0.25 0"/>
<feBlend mode="normal" in2="BackgroundImageFix" result="effect1_dropShadow_134_11"/>
<feBlend mode="normal" in="BackgroundImageFix" in2="effect1_dropShadow_134_11" result="BackgroundImageFix"/>
<feBlend mode="normal" in="SourceGraphic" in2="BackgroundImageFix" result="shape"/>
</filter>
</defs>
</svg>
