<svg width="437" height="412" viewBox="0 0 437 412" fill="none" xmlns="http://www.w3.org/2000/svg">
<mask id="path-1-inside-1_133_68" fill="white">
<path d="M271.725 1.82139C336.223 -9.55122 397.728 33.5151 409.101 98.0127C413.875 125.09 409.054 151.639 397.081 174.174C416.039 191.255 429.65 214.554 434.425 241.631C445.797 306.129 402.731 367.634 338.233 379.007C303.748 385.087 270.119 375.604 244.55 355.604C227.363 383.143 199.006 403.556 164.521 409.637C100.023 421.009 38.5179 377.943 27.1451 313.446C22.3707 286.368 27.1922 259.819 39.165 237.284C20.207 220.204 6.59581 196.904 1.82134 169.827C-9.55117 105.329 33.515 43.8244 98.0127 32.4516C132.498 26.3709 166.127 35.8547 191.696 55.8547C208.883 28.3157 237.24 7.90211 271.725 1.82139Z"/>
</mask>
<path d="M271.725 1.82139L263.043 -47.419L263.043 -47.419L271.725 1.82139ZM409.101 98.0127L458.341 89.3303L458.341 89.3302L409.101 98.0127ZM397.081 174.174L352.926 150.714L334.609 185.189L363.613 211.321L397.081 174.174ZM434.425 241.631L483.665 232.949L483.665 232.949L434.425 241.631ZM338.233 379.007L346.916 428.247L346.916 428.247L338.233 379.007ZM244.55 355.604L275.355 316.221L231.566 281.969L202.133 329.132L244.55 355.604ZM164.521 409.637L173.203 458.877L173.203 458.877L164.521 409.637ZM27.1451 313.446L-22.0952 322.128L-22.0952 322.128L27.1451 313.446ZM39.165 237.284L83.3197 260.744L101.637 226.269L72.6332 200.138L39.165 237.284ZM1.82134 169.827L-47.4191 178.509L-47.419 178.509L1.82134 169.827ZM98.0127 32.4516L89.3303 -16.7887L89.3302 -16.7887L98.0127 32.4516ZM191.696 55.8547L160.891 95.2378L204.68 129.49L234.113 82.3266L191.696 55.8547ZM271.725 1.82139L280.408 51.0618C317.711 44.4843 353.283 69.3921 359.861 106.695L409.101 98.0127L458.341 89.3302C442.173 -2.36197 354.736 -63.5867 263.043 -47.419L271.725 1.82139ZM409.101 98.0127L359.861 106.695C362.631 122.405 359.854 137.675 352.926 150.714L397.081 174.174L441.236 197.634C458.254 165.604 465.12 127.775 458.341 89.3303L409.101 98.0127ZM397.081 174.174L363.613 211.321C374.582 221.204 382.414 234.603 385.184 250.314L434.425 241.631L483.665 232.949C476.886 194.504 457.496 161.305 430.549 137.027L397.081 174.174ZM434.425 241.631L385.184 250.314C391.762 287.617 366.854 323.189 329.551 329.766L338.233 379.007L346.916 428.247C438.608 412.079 499.833 324.641 483.665 232.949L434.425 241.631ZM338.233 379.007L329.551 329.766C309.611 333.282 290.228 327.854 275.355 316.221L244.55 355.604L213.744 394.987C250.009 423.353 297.884 436.893 346.916 428.247L338.233 379.007ZM244.55 355.604L202.133 329.132C192.135 345.151 175.778 356.881 155.838 360.396L164.521 409.637L173.203 458.877C222.235 450.232 262.591 421.134 286.967 382.075L244.55 355.604ZM164.521 409.637L155.838 360.396C118.535 366.974 82.9631 342.066 76.3855 304.763L27.1451 313.446L-22.0952 322.128C-5.92733 413.821 81.5106 475.045 173.203 458.877L164.521 409.637ZM27.1451 313.446L76.3855 304.763C73.6154 289.053 76.3921 273.783 83.3197 260.744L39.165 237.284L-4.98975 213.825C-22.0076 245.855 -28.874 283.683 -22.0952 322.128L27.1451 313.446ZM39.165 237.284L72.6332 200.138C61.6638 190.254 53.8319 176.855 51.0617 161.145L1.82134 169.827L-47.419 178.509C-40.6402 216.954 -21.2497 250.153 5.69677 274.431L39.165 237.284ZM1.82134 169.827L51.0618 161.145C44.4843 123.842 69.3922 88.2696 106.695 81.692L98.0127 32.4516L89.3302 -16.7887C-2.36226 -0.620806 -63.5866 86.8171 -47.4191 178.509L1.82134 169.827ZM98.0127 32.4516L106.695 81.692C126.635 78.1762 146.018 83.604 160.891 95.2378L191.696 55.8547L222.501 16.4715C186.237 -11.8947 138.362 -25.4343 89.3303 -16.7887L98.0127 32.4516ZM191.696 55.8547L234.113 82.3266C244.111 66.3076 260.468 54.5776 280.408 51.0618L271.725 1.82139L263.043 -47.419C214.011 -38.7734 173.655 -9.67617 149.279 29.3827L191.696 55.8547Z" fill="#DFE670" mask="url(#path-1-inside-1_133_68)"/>
</svg>
