<svg width="45" height="45" viewBox="0 0 45 45" fill="none" xmlns="http://www.w3.org/2000/svg">
<g clip-path="url(#clip0_75_2)">
<path d="M0 14.8026C0 12.7612 0.770422 10.8033 2.14178 9.35977C3.51314 7.91623 5.3731 7.10526 7.3125 7.10526H11.25L14.247 2.37316C14.7093 1.64321 15.3356 1.04468 16.0703 0.630692C16.8051 0.216704 17.6256 6.37317e-05 18.459 0H26.541C27.3744 6.37317e-05 28.1949 0.216704 28.9297 0.630692C29.6644 1.04468 30.2907 1.64321 30.753 2.37316L33.75 7.10526H37.6875C38.6478 7.10526 39.5987 7.30436 40.4859 7.69119C41.3731 8.07802 42.1792 8.645 42.8582 9.35977C43.5373 10.0745 44.0759 10.9231 44.4434 11.857C44.8109 12.7909 45 13.7918 45 14.8026V37.3026C45 38.3135 44.8109 39.3144 44.4434 40.2483C44.0759 41.1822 43.5373 42.0307 42.8582 42.7455C42.1792 43.4603 41.3731 44.0273 40.4859 44.4141C39.5987 44.8009 38.6478 45 37.6875 45H7.3125C5.3731 45 3.51314 44.189 2.14178 42.7455C0.770422 41.302 0 39.3441 0 37.3026V14.8026Z" fill="url(#paint0_radial_75_2)"/>
<path d="M0 14.8026C0 12.7612 0.770422 10.8033 2.14178 9.35977C3.51314 7.91623 5.3731 7.10526 7.3125 7.10526H11.25L14.247 2.37316C14.7093 1.64321 15.3356 1.04468 16.0703 0.630692C16.8051 0.216704 17.6256 6.37317e-05 18.459 0H26.541C27.3744 6.37317e-05 28.1949 0.216704 28.9297 0.630692C29.6644 1.04468 30.2907 1.64321 30.753 2.37316L33.75 7.10526H37.6875C38.6478 7.10526 39.5987 7.30436 40.4859 7.69119C41.3731 8.07802 42.1792 8.645 42.8582 9.35977C43.5373 10.0745 44.0759 10.9231 44.4434 11.857C44.8109 12.7909 45 13.7918 45 14.8026V37.3026C45 38.3135 44.8109 39.3144 44.4434 40.2483C44.0759 41.1822 43.5373 42.0307 42.8582 42.7455C42.1792 43.4603 41.3731 44.0273 40.4859 44.4141C39.5987 44.8009 38.6478 45 37.6875 45H7.3125C5.3731 45 3.51314 44.189 2.14178 42.7455C0.770422 41.302 0 39.3441 0 37.3026V14.8026Z" fill="url(#paint1_radial_75_2)" fill-opacity="0.5"/>
<path fill-rule="evenodd" clip-rule="evenodd" d="M22.5 35.5263C25.1853 35.5263 27.7607 34.4034 29.6595 32.4047C31.5583 30.406 32.625 27.6951 32.625 24.8684C32.625 22.0418 31.5583 19.3309 29.6595 17.3322C27.7607 15.3334 25.1853 14.2105 22.5 14.2105C19.8147 14.2105 17.2394 15.3334 15.3405 17.3322C13.4417 19.3309 12.375 22.0418 12.375 24.8684C12.375 27.6951 13.4417 30.406 15.3405 32.4047C17.2394 34.4034 19.8147 35.5263 22.5 35.5263Z" fill="url(#paint2_linear_75_2)"/>
<path d="M29.25 24.8684C29.25 26.7529 28.5388 28.5601 27.273 29.8926C26.0071 31.2251 24.2902 31.9737 22.5 31.9737C20.7098 31.9737 18.9929 31.2251 17.727 29.8926C16.4612 28.5601 15.75 26.7529 15.75 24.8684C15.75 22.984 16.4612 21.1767 17.727 19.8442C18.9929 18.5117 20.7098 17.7632 22.5 17.7632C24.2902 17.7632 26.0071 18.5117 27.273 19.8442C28.5388 21.1767 29.25 22.984 29.25 24.8684Z" fill="url(#paint3_radial_75_2)"/>
<path d="M37.125 18.9474C38.0201 18.9474 38.8785 18.5731 39.5115 17.9068C40.1444 17.2406 40.5 16.337 40.5 15.3947C40.5 14.4525 40.1444 13.5489 39.5115 12.8826C38.8785 12.2164 38.0201 11.8421 37.125 11.8421C36.2299 11.8421 35.3715 12.2164 34.7385 12.8826C34.1056 13.5489 33.75 14.4525 33.75 15.3947C33.75 16.337 34.1056 17.2406 34.7385 17.9068C35.3715 18.5731 36.2299 18.9474 37.125 18.9474Z" fill="url(#paint4_linear_75_2)"/>
</g>
<defs>
<radialGradient id="paint0_radial_75_2" cx="0" cy="0" r="1" gradientTransform="matrix(50.6247 46.5002 -91.9012 110.862 -7.03176 3.00064)" gradientUnits="userSpaceOnUse">
<stop stop-color="#F08AF4"/>
<stop offset="0.535" stop-color="#9C6CFE"/>
<stop offset="1" stop-color="#4E44DB"/>
</radialGradient>
<radialGradient id="paint1_radial_75_2" cx="0" cy="0" r="1" gradientTransform="matrix(1.125 16.3637 -16.185 1.23293 28.125 28.6342)" gradientUnits="userSpaceOnUse">
<stop stop-color="#312A9A"/>
<stop offset="1" stop-color="#312A9A" stop-opacity="0"/>
</radialGradient>
<linearGradient id="paint2_linear_75_2" x1="16.1843" y1="14.2105" x2="27.2235" y2="39.119" gradientUnits="userSpaceOnUse">
<stop stop-color="white"/>
<stop offset="1" stop-color="#DECBFF"/>
</linearGradient>
<radialGradient id="paint3_radial_75_2" cx="0" cy="0" r="1" gradientTransform="matrix(12.375 15.3947 -14.625 13.0263 13.5 14.2105)" gradientUnits="userSpaceOnUse">
<stop offset="0.243" stop-color="#3BD5FF"/>
<stop offset="1" stop-color="#2052CB"/>
</radialGradient>
<linearGradient id="paint4_linear_75_2" x1="33.75" y1="13.6184" x2="40.7455" y2="18.6027" gradientUnits="userSpaceOnUse">
<stop stop-color="#F08AF4"/>
<stop offset="1" stop-color="#F462AB"/>
</linearGradient>
<clipPath id="clip0_75_2">
<rect width="45" height="45" fill="white"/>
</clipPath>
</defs>
</svg>
