<svg width="597" height="1526" viewBox="0 0 597 1526" fill="none" xmlns="http://www.w3.org/2000/svg">
<g clip-path="url(#clip0_156_93)">
<mask id="mask0_156_93" style="mask-type:luminance" maskUnits="userSpaceOnUse" x="0" y="1" width="595" height="1519">
<path d="M0.631592 1.57826H594.342V1519.84H0.631592V1.57826Z" fill="white"/>
</mask>
<g mask="url(#mask0_156_93)">
<path d="M549.808 -160.756C603.811 -123.359 582.954 -134.662 585.797 -73.9305C586.04 -68.7781 586.487 -63.647 587.066 -58.6433C591.922 -15.6198 607.32 22.7043 604.007 68.3677C602.989 82.664 601.963 96.9037 601 111.151C597.358 164.111 594.24 216.547 591.977 268.785C589.604 321.703 588.116 374.416 587.865 427.277C587.536 488.631 588.86 550.133 592.415 612.329C594.483 648.686 597.326 685.283 601 722.213C603.012 742.306 604.555 762.349 605.66 782.293C608.612 834.984 608.644 887.194 606.709 939.213C604.782 992.124 600.859 1044.89 596.003 1097.87C590.951 1153.13 584.912 1208.65 579.03 1264.85C578.372 1271.02 577.926 1277.17 577.707 1283.27C575.2 1341.82 588.523 1397.57 586.51 1455.78C586.51 1456.2 586.51 1456.61 586.487 1457.02C584.388 1512.6 573.791 1556.57 587.92 1610.58C588.805 1613.99 589.792 1617.48 590.896 1620.99C560.68 1616.34 530.11 1620.39 500.309 1615.24C497.325 1614.74 494.678 1613.97 492.218 1613C483.916 1609.81 478.285 1604.61 472.301 1600.48C463.553 1594.4 454.084 1590.64 434.55 1598.71C409.55 1558.74 378.589 1543.16 349.751 1508.5C321.218 1534.46 320.365 1583.22 291.581 1598.46C291.033 1598.78 290.454 1599.08 289.898 1599.33C267.357 1609.89 197.815 1588.22 171.718 1583.72C139.786 1578.21 150.132 1569.6 114.512 1572.29L113.352 1572.36C82.3056 1574.83 70.9646 1589.19 45.2516 1598.93C36.8633 1602.09 29.2426 1605.45 21.8804 1608.69C1.90046 1617.48 -16.3094 1625.42 -42.696 1626.49C-43.9335 1618.9 -44.1528 1611.5 -43.628 1604.18C-42.2495 1582.94 -34.6367 1562.4 -26.6635 1540.57C-13.8031 1505.16 -11.2106 1479.71 -12.5029 1446.62C-12.918 1436.63 -13.6934 1425.93 -14.6333 1414.05C-18.4084 1366.29 -16.0117 1320.45 -14.1085 1275.01C-11.6492 1216.39 -9.96529 1158.48 -23.374 1098.04C-23.8987 1095.58 -24.5096 1093.07 -25.0892 1090.61C-38.2238 1036.24 -38.3569 984.905 -35.1301 933.983C-31.8249 881.794 -24.9482 830.002 -24.7055 775.718C-24.6741 767.657 -24.7838 759.539 -25.0892 751.322C-26.9063 701.519 -24.8934 652.663 -21.5804 604.112C-17.586 545.448 -11.704 487.258 -8.39102 428.494C-5.88472 383.453 -4.91353 338.031 -7.48249 291.822C-7.95242 283.301 -8.7513 274.865 -9.80081 266.45C-16.5913 212.018 -33.8926 159.454 -41.482 105.121C-42.0302 101.065 -42.5863 96.9816 -43.0249 92.8979C-49.04 38.3383 -40.9259 -14.4237 -30.6109 -66.8602C-27.0159 -85.0632 -23.1312 -103.238 -19.5127 -121.413C6.53711 -53.859 52.9193 -109.438 89.2606 -114.116C90.4746 -114.272 91.6886 -114.392 92.9026 -114.42C115.005 -115.064 167.606 -87.2784 180.38 -65.841C190.977 -72.5645 213.158 -72.9821 223.7 -79.1111C228.313 -72.8335 231.728 -66.0887 234.407 -59.0184C248.371 -22.1381 241.362 23.4545 268.516 55.7982C270.944 53.1088 273.207 50.3203 275.33 47.4044C299.531 14.1407 304.747 -33.1222 320.858 -67.9288C334.439 -97.3354 355.797 -117.853 402.845 -113.649C412.416 -112.8 430.853 -106.423 447.575 -102.141C458.172 -99.4516 468.08 -97.5619 474.62 -98.4607C489.493 -100.499 509.856 -121.887 527.072 -139.644C535.852 -148.555 543.793 -156.602 549.808 -160.756Z" fill="#E9DAEF"/>
</g>
<mask id="mask1_156_93" style="mask-type:luminance" maskUnits="userSpaceOnUse" x="0" y="1436" width="115" height="84">
<path d="M0.631592 1436.77H114.919V1519.84H0.631592V1436.77Z" fill="white"/>
</mask>
<g mask="url(#mask1_156_93)">
<path d="M109.099 1437.7C108.716 1442.19 108.52 1446.67 108.387 1451.23C107.416 1490.51 115.365 1531.92 114.511 1572.31L113.352 1572.39C82.3056 1574.86 70.9646 1589.22 45.2515 1598.95C36.8633 1602.12 29.2425 1605.48 21.8803 1608.71H16.8834C-5.16422 1608.74 -23.656 1604.01 -43.6281 1604.21C-42.2496 1582.97 -34.6367 1562.43 -26.6635 1540.59C-13.8031 1505.19 -11.2107 1479.74 -12.503 1446.64C4.38321 1446.82 21.4887 1448.04 38.602 1447.36C58.6054 1446.59 84.9294 1449.71 102.951 1441.21C105.183 1440.27 107.228 1439.05 109.099 1437.7Z" fill="#D6B5E2"/>
</g>
<path d="M5.92616 1099.66C35.4221 1099.66 72.1237 1107.61 99.3641 1099.81C101.322 1124.92 97.3747 1148.82 99.9436 1174.04C101.541 1189.51 102.92 1205.71 102.951 1221.35C102.975 1236.81 95.307 1255.96 99.5834 1270.35C74.4969 1279.99 41.4451 1276.13 14.2048 1276.13C6.56056 1276.13 -3.45679 1275.53 -14.1086 1275.06C-11.6493 1216.45 -9.96533 1158.53 -23.374 1098.1C-10.9052 1098.77 0.380976 1099.66 5.92616 1099.66Z" fill="#D6B5E2"/>
<path d="M102.45 766.857C102.066 771.337 101.87 775.817 101.737 780.375C100.437 832.592 114.927 888.518 103.531 940.784C86.1198 936.396 81.1777 933.24 61.8871 935.752C44.5858 938.017 27.7231 937.89 10.2339 937.89C-6.19023 937.918 -20.6171 935.278 -35.1301 934.032C-31.8249 881.844 -24.9483 830.051 -24.7055 775.768C-6.01792 775.718 12.9908 777.268 31.9525 776.539C51.9559 775.768 78.2798 778.882 96.3017 770.396C98.5338 769.398 100.578 768.202 102.45 766.857Z" fill="#D6B5E2"/>
<path d="M-21.5256 604.162C-17.5312 545.497 -11.6493 487.307 -8.33624 428.543C-5.25037 428.692 -2.62659 428.82 -0.692039 428.82C28.8039 428.82 65.5055 436.76 92.7693 428.968C94.6961 454.065 90.7486 477.972 93.3176 503.196C94.9154 518.66 96.3017 534.867 96.3252 550.501C96.3565 565.965 88.681 585.117 92.9573 599.505C67.8787 609.145 34.8191 605.28 7.58657 605.28C-0.253437 605.28 -10.5997 604.686 -21.5256 604.162Z" fill="#D6B5E2"/>
<path d="M95.8317 95.9837C95.4401 100.464 95.2521 104.951 95.1111 109.501C93.8188 161.747 108.301 217.644 96.9047 269.911C79.4938 265.523 74.5517 262.366 55.2689 264.907C37.9676 267.143 21.1049 266.995 3.6078 266.995C-0.997524 266.995 -5.43837 266.818 -9.80089 266.471C-16.5914 212.039 -33.8927 159.475 -41.4821 105.149C-40.597 105.071 -39.7433 105.05 -38.8818 105.022C-17.8054 104.377 3.74878 106.494 25.2951 105.673C45.3063 104.901 71.6538 108.008 89.7069 99.5224C91.9078 98.5244 93.9285 97.3567 95.8317 95.9837Z" fill="#D6B5E2"/>
<mask id="mask2_156_93" style="mask-type:luminance" maskUnits="userSpaceOnUse" x="287" y="1436" width="189" height="84">
<path d="M287.352 1436.77H475.826V1519.84H287.352V1436.77Z" fill="white"/>
</mask>
<g mask="url(#mask2_156_93)">
<path d="M469.294 1436.98C468.902 1441.49 468.714 1445.97 468.573 1450.53C467.359 1499.28 479.945 1551.27 472.301 1600.48C463.553 1594.4 454.084 1590.64 434.55 1598.71C409.55 1558.74 378.589 1543.16 349.751 1508.49C321.218 1534.46 320.365 1583.22 291.581 1598.46C291.581 1574.63 291.581 1552.67 295.388 1529.68C299.782 1502.96 286.31 1475.16 289.819 1448.41C289.874 1447.99 289.929 1447.54 289.984 1447.12C290.313 1447.16 290.673 1447.24 290.978 1447.26C305.186 1449.85 320.004 1446.52 334.604 1446.05C355.688 1445.4 377.234 1447.54 398.788 1446.72C418.792 1445.95 445.147 1449.03 463.192 1440.54C465.346 1439.55 467.39 1438.35 469.294 1436.98Z" fill="#D6B5E2"/>
</g>
<path d="M103.061 1450.46C115.866 1452.79 124.999 1451.18 136.943 1451.3C151.847 1451.48 168.013 1456.53 184.046 1457.25C221.491 1458.94 255.514 1453.64 291.284 1448.18C287.775 1438.45 292.991 1431.7 292.881 1422.37C292.772 1414.02 289.545 1406.9 288.934 1398.51C287.83 1383 290.234 1366.91 289.514 1351.08C288.441 1327.67 279.222 1297.67 285.488 1275.63C251.99 1281.58 233.333 1288.96 198.566 1280.81C177.866 1275.96 144.423 1266.17 123.863 1275.66C107.666 1283.15 110.071 1289.23 110.564 1305.16C111.198 1325.38 108.802 1345.4 108.692 1365.62C108.52 1394.75 102.035 1423.04 103.029 1452.15V1450.46H103.061Z" fill="#D6B5E2"/>
<path d="M288.848 1277.27C308.554 1270.3 351.74 1275.43 374.422 1275.43C401.655 1275.43 434.714 1279.29 459.77 1269.63C455.524 1255.26 463.192 1236.12 463.137 1220.65C463.106 1204.99 461.728 1188.8 460.13 1173.35C457.537 1148.12 461.485 1124.22 459.55 1099.12C432.286 1106.91 395.616 1098.97 366.089 1098.97C351.685 1098.97 298.427 1092.77 287.971 1100.96C275.909 1110.4 286.835 1172.42 286.835 1189.28C286.835 1221 276.434 1251.01 286.812 1280.96L288.848 1277.27Z" fill="#D6B5E2"/>
<path d="M107.063 1107.81C93.764 1084.58 110.619 1051.43 109.24 1026.14C108.442 1011.59 111.003 996.582 109.295 982.116C107.697 968.443 100.053 955.201 100.876 941.131C132.087 947.855 163.212 933.806 196.436 938.413C225.415 942.426 264.545 940.982 291.252 931.322C277.977 961.174 286.921 987.247 285.707 1017.38C285.042 1034.18 279.88 1048.28 283.303 1065.55C285.981 1079 294.37 1091.97 294.009 1105.57C279.387 1107.26 268.845 1096.48 254.747 1096.23C241.667 1096.01 225.689 1101.71 211.999 1102.06C178.422 1102.91 136.778 1100.49 104.878 1107.78H107.063V1107.81Z" fill="#D6B5E2"/>
<path d="M284.963 930.373C284.963 905.475 284.799 882.693 288.738 858.814C293.21 831.672 279.222 803.384 283.358 776.221C297.902 779.129 313.049 775.619 327.977 775.173C349.062 774.529 370.639 776.645 392.162 775.817C414.57 774.975 444.896 778.931 462.644 766.107C457.921 822.132 476.107 883.238 463.717 940.034C446.33 935.625 441.395 932.518 422.073 935.03C404.772 937.267 387.886 937.146 370.42 937.146C340.203 937.168 316.668 928.279 286.812 935.455L284.963 930.373Z" fill="#D6B5E2"/>
<path d="M96.4348 779.604C109.24 781.946 118.373 780.326 130.325 780.453C145.221 780.623 161.395 785.683 177.427 786.405C214.873 788.096 248.896 782.796 284.658 777.339C281.157 767.6 286.365 760.856 286.255 751.521C286.146 743.176 282.919 736.056 282.308 727.663C281.212 712.149 283.608 696.069 282.888 680.23C281.815 656.825 272.596 626.824 278.862 604.785C245.364 610.737 226.707 618.104 191.94 609.965C171.248 605.11 137.804 595.322 117.245 604.806C101.048 612.301 103.445 618.381 103.946 634.319C104.58 654.532 102.176 674.554 102.066 694.774C101.902 723.904 95.4166 752.193 96.4113 781.295V779.604H96.4348Z" fill="#D6B5E2"/>
<path d="M282.23 606.427C301.928 599.456 345.114 604.587 367.796 604.587C395.037 604.587 428.096 608.444 453.151 598.783C448.898 584.416 456.566 565.272 456.511 549.808C456.488 534.145 455.109 517.959 453.504 502.495C450.911 477.271 454.859 453.371 452.924 428.267C425.66 436.067 388.99 428.119 359.463 428.119C345.059 428.119 291.801 421.919 281.345 430.115C269.291 439.549 280.217 501.575 280.217 518.434C280.217 550.154 269.808 580.155 280.185 610.114L282.23 606.427Z" fill="#D6B5E2"/>
<path d="M100.437 436.959C87.138 413.73 104.001 380.587 102.614 355.292C101.815 340.748 104.384 325.737 102.669 311.264C101.071 297.597 93.4272 284.349 94.2574 270.279C125.469 277.002 156.562 262.961 189.818 267.568C218.789 271.574 257.919 270.13 284.626 260.469C271.359 290.329 280.295 316.395 279.081 346.524C278.423 363.332 273.262 377.423 276.685 394.706C279.355 408.154 287.751 421.126 287.391 434.722C272.761 436.414 262.226 425.635 248.121 425.38C235.041 425.16 219.063 430.858 205.38 431.212C171.796 432.054 130.16 429.64 98.2596 436.937H100.437V436.959Z" fill="#D6B5E2"/>
<path d="M278.337 259.528C278.337 234.623 278.173 211.841 282.12 187.962C286.592 160.82 272.596 132.538 276.739 105.368C291.284 108.284 306.431 104.774 321.359 104.328C342.444 103.677 364.021 105.793 385.544 104.972C407.952 104.13 438.278 108.086 456.018 95.2618C451.303 151.286 469.481 212.393 457.091 269.189C439.711 264.78 434.769 261.666 415.455 264.185C398.154 266.422 381.268 266.301 363.794 266.301C333.585 266.322 310.042 257.433 280.186 264.603L278.337 259.528Z" fill="#D6B5E2"/>
<mask id="mask3_156_93" style="mask-type:luminance" maskUnits="userSpaceOnUse" x="88" y="1" width="194" height="115">
<path d="M88.8533 1.57826H281.337V115.956H88.8533V1.57826Z" fill="white"/>
</mask>
<g mask="url(#mask3_156_93)">
<path d="M185.291 -60.9081C204.965 -56.3007 219.478 -56.6758 234.461 -58.9406C248.426 -22.0673 241.416 23.5253 268.57 55.869C270.998 53.1796 273.262 50.3911 275.384 47.4823C275.384 50.5892 275.471 53.6821 275.69 56.7678C276.269 65.1616 279.496 72.2532 279.606 80.6186C279.716 89.6848 274.836 96.2597 277.734 105.524C277.812 105.821 277.899 106.14 278.032 106.444C277.538 106.515 277.068 106.593 276.575 106.663C241.33 112.021 207.754 117.152 170.801 115.503C154.769 114.781 138.603 109.728 123.699 109.579C113.462 109.48 105.324 110.627 95.1425 109.501C93.4272 109.332 91.665 109.056 89.8401 108.73V110.429C89.7304 106.763 89.7069 103.132 89.7853 99.5224C90.3413 74.2207 95.3069 49.3932 95.4714 23.9004C95.5811 3.65902 97.9777 -16.3417 97.3433 -36.5831C96.8499 -52.5143 94.4219 -58.5655 110.619 -66.0604C131.147 -75.5512 164.622 -65.7632 185.291 -60.9081Z" fill="#D6B5E2"/>
</g>
<path d="M558.753 1280.09C565.621 1281.68 571.856 1282.7 577.707 1283.25C575.2 1341.79 588.523 1397.54 586.51 1455.76C572.741 1456.83 558.753 1457.2 544.263 1456.56C528.231 1455.81 512.065 1450.75 497.16 1450.58C486.924 1450.48 478.786 1451.64 468.604 1450.53C466.889 1450.3 465.127 1450.08 463.302 1449.73V1451.43C463.192 1447.77 463.169 1444.13 463.247 1440.52C463.803 1415.22 468.769 1390.4 468.933 1364.93C469.043 1344.68 471.44 1324.66 470.805 1304.44C470.312 1288.48 467.915 1282.45 484.081 1274.94C504.609 1265.45 538.052 1275.23 558.753 1280.09Z" fill="#D6B5E2"/>
<path d="M465.072 1107.11C465.73 1106.96 466.364 1106.81 467.03 1106.69C467.108 1106.81 467.163 1106.99 467.273 1107.11H465.072Z" fill="#D6B5E2"/>
<mask id="mask4_156_93" style="mask-type:luminance" maskUnits="userSpaceOnUse" x="459" y="936" width="136" height="172">
<path d="M459.785 936.708H594.342V1107.02H459.785V936.708Z" fill="white"/>
</mask>
<g mask="url(#mask4_156_93)">
<path d="M556.599 937.72C571.613 939.786 589.384 940.409 606.709 939.185C604.782 992.102 600.858 1044.86 596.002 1097.85C587.943 1099.39 579.719 1101.21 572.193 1101.38C539.297 1102.21 498.648 1099.91 467.03 1106.69C454.17 1083.51 470.836 1050.59 469.458 1025.44C468.659 1010.9 471.197 995.882 469.513 981.415C467.884 967.749 460.239 954.528 461.07 940.43C492.273 947.154 523.375 933.133 556.599 937.72Z" fill="#D6B5E2"/>
</g>
<mask id="mask5_156_93" style="mask-type:luminance" maskUnits="userSpaceOnUse" x="455" y="599" width="140" height="188">
<path d="M455.775 599.71H594.342V786.327H455.775V599.71Z" fill="white"/>
</mask>
<g mask="url(#mask5_156_93)">
<path d="M552.103 609.244C567.854 612.952 580.33 613.448 592.392 612.329C594.459 648.686 597.303 685.283 600.968 722.213C602.981 742.306 604.532 762.349 605.636 782.293C583.479 785.06 561.204 786.801 537.614 785.733C521.558 784.982 505.384 779.957 490.479 779.752C480.243 779.653 472.105 780.828 461.923 779.703C460.208 779.483 458.446 779.257 456.621 778.91V780.602C456.511 776.964 456.488 773.333 456.566 769.724C457.122 744.422 462.088 719.573 462.252 694.102C462.362 673.853 464.766 653.838 464.132 633.618C463.631 617.659 461.234 611.629 477.4 604.112C497.959 594.579 531.434 604.388 552.103 609.244Z" fill="#D6B5E2"/>
</g>
<path d="M458.446 436.237C459.112 436.117 459.715 435.94 460.38 435.812C460.459 435.94 460.514 436.117 460.623 436.237H458.446Z" fill="#D6B5E2"/>
<path d="M549.949 266.867C562.645 268.637 577.237 269.337 591.945 268.785C589.572 321.703 588.084 374.415 587.834 427.277C580.276 428.742 572.576 430.334 565.543 430.511C532.648 431.332 491.976 429.046 460.381 435.812C447.52 412.633 464.187 379.716 462.809 354.57C462.01 340.048 464.547 325.008 462.863 310.542C461.234 296.876 453.59 283.655 454.42 269.557C485.624 276.28 516.725 262.288 549.949 266.867Z" fill="#D6B5E2"/>
<mask id="mask6_156_93" style="mask-type:luminance" maskUnits="userSpaceOnUse" x="449" y="1" width="146" height="115">
<path d="M449.76 1.57826H594.342V115.956H449.76V1.57826Z" fill="white"/>
</mask>
<g mask="url(#mask6_156_93)">
<path d="M545.508 -61.63C561.838 -57.794 574.644 -57.3977 587.066 -58.6433C591.922 -15.6198 607.32 22.7043 604.007 68.3677C602.989 82.664 601.963 96.9037 600.999 111.151C578.153 114.088 555.275 115.928 530.988 114.859C514.932 114.137 498.758 109.084 483.861 108.879C473.625 108.808 465.479 109.954 455.297 108.808C453.59 108.631 451.82 108.383 450.003 108.036V109.728C449.893 106.069 449.862 102.459 449.948 98.85C450.496 73.5483 455.47 48.6996 455.634 23.228C455.744 2.98666 458.172 -17.0141 457.506 -37.2554C457.013 -53.2149 454.608 -59.2378 470.805 -66.7611C491.341 -76.2731 524.784 -66.4851 545.508 -61.63Z" fill="#D6B5E2"/>
</g>
</g>
<defs>
<clipPath id="clip0_156_93">
<rect width="597" height="1526" fill="white"/>
</clipPath>
</defs>
</svg>
