<svg width="252" height="252" viewBox="0 0 252 252" fill="none" xmlns="http://www.w3.org/2000/svg">
<mask id="mask0_156_7289" style="mask-type:luminance" maskUnits="userSpaceOnUse" x="0" y="0" width="252" height="252">
<path d="M0 0H251.992V252H0V0Z" fill="white"/>
</mask>
<g mask="url(#mask0_156_7289)">
<mask id="mask1_156_7289" style="mask-type:luminance" maskUnits="userSpaceOnUse" x="-2" y="-2" width="255" height="257">
<path d="M252.64 -1.82288H-1.15125V254.015H252.64V-1.82288Z" fill="white"/>
</mask>
<g mask="url(#mask1_156_7289)">
<mask id="mask2_156_7289" style="mask-type:luminance" maskUnits="userSpaceOnUse" x="0" y="0" width="252" height="252">
<path d="M0 0.503662H251.992V252H0V0.503662Z" fill="white"/>
</mask>
<g mask="url(#mask2_156_7289)">
<mask id="mask3_156_7289" style="mask-type:luminance" maskUnits="userSpaceOnUse" x="-414" y="-1732" width="877" height="2483">
<path d="M462.399 -1731.89H-413.288V750.432H462.399V-1731.89Z" fill="black" fill-opacity="0.109"/>
</mask>
<g mask="url(#mask3_156_7289)">
<mask id="mask4_156_7289" style="mask-type:luminance" maskUnits="userSpaceOnUse" x="-2" y="0" width="255" height="255">
<path d="M252.64 0.223877H-1.15125V254.015H252.64V0.223877Z" fill="white"/>
</mask>
<g mask="url(#mask4_156_7289)">
<mask id="mask5_156_7289" style="mask-type:luminance" maskUnits="userSpaceOnUse" x="0" y="0" width="252" height="252">
<path d="M0 0.503662H251.992V252H0V0.503662Z" fill="white"/>
</mask>
<g mask="url(#mask5_156_7289)">
<path d="M-10.7131 250.417C-11.3367 249.514 -11.5446 248.594 -11.3367 247.659C-11.0649 246.3 -10.7531 244.949 -10.4093 243.605C-9.88964 241.847 -9.10614 239.936 -8.29066 238.297C-6.53177 234.795 -4.46908 231.429 -2.0786 228.311C2.27064 222.611 7.15554 217.382 12.5841 212.689C17.8767 208.116 23.6331 203.983 29.9331 200.889C34.754 198.53 39.9187 196.947 45.0515 195.388C47.9456 194.509 51.1996 193.773 54.1497 193.101C59.2744 191.942 64.4552 190.975 69.6039 189.911C78.3823 188.089 87.3846 186.122 95.2916 181.733C98.1697 180.134 100.896 178.247 103.374 176.072C104.566 175.025 105.701 173.906 106.764 172.714C107.796 171.555 108.747 170.332 109.61 169.037C109.523 169.189 109.427 169.341 109.339 169.492C109.826 168.693 110.314 167.893 110.81 167.094C110.722 167.246 110.634 167.398 110.554 167.55C110.978 166.726 111.401 165.911 111.833 165.087C111.753 165.239 111.673 165.391 111.601 165.551C111.889 164.855 112.177 164.168 112.465 163.48C112.872 162.441 113.176 161.37 113.384 160.274C113.576 159.555 113.704 158.827 113.76 158.084C114.04 156.229 114.064 154.35 113.808 152.463C113.92 153.231 114.024 153.99 114.136 154.758C113.584 151.536 112.808 148.362 111.809 145.252C111.441 144.029 111.106 142.789 110.818 141.542C110.178 138.784 109.754 135.986 109.826 133.148C109.962 128.343 111.497 123.65 114.296 119.732C122.898 107.668 138.64 104.949 152.295 102.815C159.139 101.743 166.063 100.736 172.475 97.9539C180.11 94.636 186.825 89.4713 192.51 83.4271C198.098 77.4869 202.703 70.6592 206.165 63.2719C207.996 59.3464 209.507 55.269 210.642 51.0797C211.218 48.993 211.69 46.8823 212.065 44.7557C212.449 42.621 212.721 40.4784 212.905 38.3198C212.897 38.4797 212.889 38.6396 212.881 38.7995C212.913 35.3377 212.873 31.8759 213.289 28.438C213.68 25.2241 214.464 22.0901 215.767 19.116C217.086 16.1019 218.885 13.4396 221.076 11.0091C221.731 10.2816 222.531 9.56202 223.274 8.93042C225.161 7.33943 227.272 6.02826 229.47 4.91697C237.401 0.887529 246.715 -0.375671 255.494 0.967477C259.627 1.59908 263.641 2.86227 267.422 4.62915C269.805 5.74844 272.035 7.19552 274.106 8.8025C274.977 9.41811 275.793 10.1057 276.544 10.8652C277.776 11.9365 278.895 13.1118 279.918 14.391C279.814 14.6708 279.591 14.8227 279.279 14.8547C278.407 15.0785 277.536 15.2704 276.648 15.4063C275.769 15.5742 274.882 15.6941 273.986 15.7741C273.674 15.854 273.418 15.7741 273.227 15.5502C272.259 14.5509 271.204 13.6394 270.077 12.816C269.005 11.9525 267.878 11.177 266.671 10.5054C264.696 9.38613 262.649 8.45073 260.507 7.71519C258.372 6.97966 256.165 6.39603 253.927 6.08423C253.015 5.9723 252.112 5.87636 251.209 5.77243C249.378 5.62052 247.547 5.60453 245.708 5.71646C245.796 5.70047 245.884 5.70047 245.972 5.69248C244.965 5.78042 243.965 5.87636 242.958 5.9723C243.046 5.95631 243.126 5.94831 243.214 5.93232C242.222 6.10022 241.223 6.26012 240.224 6.42801C240.311 6.41202 240.399 6.38804 240.479 6.37205C239.496 6.6039 238.521 6.84375 237.537 7.08359C237.617 7.05162 237.705 7.02763 237.785 7.00364C236.834 7.31545 235.874 7.61925 234.915 7.93106C234.995 7.89908 235.075 7.8671 235.163 7.83512C234.235 8.21088 233.316 8.58664 232.389 8.9624C232.468 8.93042 232.548 8.89045 232.62 8.85847C231.741 9.29819 230.861 9.7459 229.982 10.1936C230.062 10.1456 230.134 10.1057 230.206 10.0577C229.382 10.5694 228.559 11.0811 227.735 11.5927C227.807 11.5448 227.879 11.4968 227.951 11.4488C227.2 12.0165 226.44 12.5841 225.689 13.1517C225.753 13.0958 225.825 13.0398 225.889 12.9838C225.225 13.5995 224.553 14.2151 223.89 14.8307C223.946 14.7747 224.01 14.7108 224.074 14.6548C222.907 15.862 221.843 17.1652 220.9 18.5643C220.452 19.2998 220.012 20.0354 219.565 20.7789C218.373 22.8736 217.494 25.272 216.862 27.5906C216.247 29.8371 215.839 32.1797 215.575 34.4982C215.319 36.7687 215.199 39.0633 214.984 41.3418C214.44 47.1302 213.017 52.8226 211.05 58.2911C208.748 64.703 205.63 70.7632 201.792 76.3916C194.445 87.1847 184.459 96.4908 172.602 102.119C171.012 102.911 169.381 103.582 167.702 104.142C165.919 104.838 164.08 105.357 162.193 105.701C159.947 106.237 157.692 106.716 155.413 107.14C150.273 108.083 145.132 108.931 140.031 110.066C140.119 110.05 140.199 110.034 140.287 110.01C139.328 110.258 138.368 110.506 137.409 110.754C137.497 110.73 137.577 110.706 137.665 110.682C136.705 110.97 135.754 111.249 134.794 111.537C134.874 111.513 134.962 111.489 135.042 111.457C134.099 111.793 133.156 112.121 132.212 112.457C132.292 112.425 132.372 112.393 132.452 112.369C131.533 112.753 130.613 113.136 129.694 113.52C129.766 113.48 129.846 113.448 129.926 113.416C129.038 113.856 128.151 114.296 127.255 114.735C127.335 114.695 127.407 114.655 127.487 114.615C126.64 115.111 125.8 115.607 124.953 116.11C125.025 116.062 125.097 116.014 125.169 115.966C124.377 116.526 123.594 117.078 122.802 117.637C122.866 117.581 122.938 117.533 123.01 117.478C122.282 118.093 121.555 118.701 120.835 119.316C120.899 119.26 120.963 119.196 121.019 119.14C120.364 119.804 119.708 120.476 119.052 121.139C119.116 121.075 119.172 121.011 119.228 120.955C118.645 121.675 118.053 122.386 117.469 123.106C117.517 123.042 117.573 122.978 117.629 122.914C116.662 124.217 115.847 125.608 115.167 127.079C114.887 127.775 114.615 128.471 114.335 129.174C113.616 131.141 113.224 133.331 113.056 135.418C112.729 139.296 113.2 143.229 113.928 147.043C114.304 149.009 114.775 150.968 115.039 152.959C115.263 154.686 115.359 156.389 115.255 158.132C115.039 161.546 114.192 164.783 112.776 167.885C108.787 176.672 100.824 183.196 92.3494 187.433C86.2173 190.503 79.5656 192.414 72.9138 193.997C69.38 194.844 65.8223 195.612 62.2725 196.379C57.1078 197.499 51.9831 198.706 46.8663 200.057C46.9543 200.033 47.0422 200.009 47.1302 199.985C45.6191 200.441 44.1001 200.897 42.589 201.344C42.677 201.32 42.7569 201.288 42.8449 201.264C41.3338 201.768 39.8148 202.28 38.3038 202.783C38.3837 202.751 38.4637 202.719 38.5516 202.695C36.2491 203.359 34.0185 204.19 31.8599 205.214C30.8125 205.701 29.7812 206.229 28.7818 206.805C26.6072 208.004 24.5205 209.331 22.4898 210.754C17.6289 214.16 13.1118 218.062 8.98637 222.315C4.98891 226.424 1.34323 230.893 -1.74281 235.738C-3.21388 238.049 -4.49307 240.495 -5.56439 243.022C-6.20398 244.533 -6.69167 246.092 -7.04345 247.707C-7.25132 248.874 -7.40322 250.049 -7.49116 251.233C-7.55512 251.105 -7.62708 250.969 -7.69104 250.833C-7.17137 251.88 -6.6517 252.927 -6.13203 253.975C-6.06807 254.215 -6.15601 254.319 -6.40385 254.279C-6.87556 254.095 -7.29129 253.823 -7.64307 253.455C-8.37061 252.848 -9.07416 252.216 -9.76172 251.56C-10.1615 251.249 -10.4813 250.865 -10.7131 250.417Z" fill="#9A7FCD"/>
</g>
</g>
</g>
</g>
<mask id="mask6_156_7289" style="mask-type:luminance" maskUnits="userSpaceOnUse" x="0" y="0" width="252" height="250">
<path d="M0 0.503662H251.992V249.921H0V0.503662Z" fill="white"/>
</mask>
<g mask="url(#mask6_156_7289)">
<mask id="mask7_156_7289" style="mask-type:luminance" maskUnits="userSpaceOnUse" x="-414" y="-1732" width="877" height="2483">
<path d="M462.399 -1731.89H-413.288V750.432H462.399V-1731.89Z" fill="black" fill-opacity="0.109"/>
</mask>
<g mask="url(#mask7_156_7289)">
<mask id="mask8_156_7289" style="mask-type:luminance" maskUnits="userSpaceOnUse" x="-2" y="0" width="255" height="250">
<path d="M252.64 0.223877H-1.15125V249.921H252.64V0.223877Z" fill="white"/>
</mask>
<g mask="url(#mask8_156_7289)">
<mask id="mask9_156_7289" style="mask-type:luminance" maskUnits="userSpaceOnUse" x="0" y="0" width="252" height="250">
<path d="M0 0.503662H251.992V249.17H0V0.503662Z" fill="white"/>
</mask>
<g mask="url(#mask9_156_7289)">
<path d="M-12.3522 245.804C-12.672 244.885 -12.8879 243.949 -13.0078 242.998C-12.5361 242.022 -12.1444 241.007 -11.8326 239.96C-11.4088 238.673 -10.9611 237.393 -10.4894 236.122C-9.93776 234.771 -9.29817 233.468 -8.57862 232.205C-5.38065 226.36 -1.23928 221.084 3.30183 216.231C7.4432 211.81 11.9603 207.716 16.7973 204.071C21.5622 200.473 26.671 197.259 32.1875 194.956C34.0903 194.165 36.049 193.525 37.9838 192.83C43.2045 190.959 48.5531 189.536 53.9657 188.353C62.8081 186.418 71.7863 185.011 80.5328 182.652C84.0426 181.709 87.6003 180.645 90.9422 179.182C93.2447 178.175 95.4593 176.976 97.586 175.641C99.6567 174.345 101.583 172.842 103.406 171.227C104.582 170.172 105.685 169.053 106.716 167.854C107.724 166.694 108.643 165.463 109.474 164.168C109.394 164.288 109.323 164.408 109.243 164.528C109.698 163.76 110.154 162.993 110.61 162.217C110.546 162.345 110.466 162.465 110.402 162.585C110.73 161.921 111.057 161.25 111.377 160.578C111.841 159.571 112.209 158.523 112.481 157.452C112.72 156.749 112.888 156.029 112.992 155.301C113.488 152.975 113.544 150.616 113.16 148.218C113.28 148.914 113.4 149.617 113.528 150.321C113.248 149.009 112.968 147.69 112.68 146.379C112.848 147.051 113.008 147.722 113.168 148.394C112.496 145.859 111.729 143.357 110.866 140.879C110.394 139.44 109.978 137.984 109.602 136.521C109.115 134.499 108.803 132.404 108.723 130.325C108.515 124.769 110.138 119.42 113.44 114.935C116.47 110.802 120.723 107.532 125.28 105.277C131.317 102.279 137.824 100.584 144.428 99.393C150.105 98.3616 155.845 97.7141 161.497 96.5788C165.327 95.8193 169.109 94.7879 172.674 93.157C175.736 91.7658 178.662 90.1349 181.437 88.2321C187.689 83.9308 193.109 78.4303 197.594 72.3302C199.513 69.7318 201.272 66.9896 202.847 64.1674C204.958 60.3858 206.637 56.4523 208.172 52.3988C208.124 52.5267 208.084 52.6627 208.036 52.7906C208.42 51.6393 208.795 50.488 209.179 49.3288C209.139 49.4647 209.099 49.5926 209.059 49.7205C209.387 48.5533 209.723 47.386 210.051 46.2188C210.019 46.3547 209.979 46.4826 209.947 46.6105C210.226 45.4353 210.506 44.252 210.786 43.0767C210.754 43.2047 210.722 43.3326 210.69 43.4685C211.202 40.7982 211.658 38.1599 211.913 35.4576C212.089 34.2104 212.129 32.9552 212.041 31.7C212.033 30.9724 212.025 30.2449 212.017 29.5174C212.041 26.3754 212.209 23.1454 212.945 20.0834C213.328 18.4844 213.808 16.9094 214.4 15.3743C215.207 13.2797 216.359 11.3209 217.662 9.49807C218.573 8.22688 219.485 6.98767 220.652 5.90835C221.307 5.32472 221.955 4.74109 222.611 4.15746C223.042 3.7817 223.514 3.43792 224.002 3.12612C227.839 0.351878 232.197 -1.51094 236.746 -2.77414C239.344 -3.48569 242.046 -3.87744 244.733 -4.0933C247.435 -4.30916 250.145 -4.31716 252.855 -4.06931C255.55 -3.81348 258.212 -3.3018 260.818 -2.57427C263.417 -1.84673 266.031 -0.935305 268.422 0.319898C270.348 1.32726 272.179 2.47053 273.93 3.74172C275.281 4.7171 276.528 5.80441 277.672 6.99566C278.919 8.13894 280.046 9.38614 281.061 10.7373C281.429 11.169 280.094 11.8886 279.942 11.9845C279.63 12.1924 278.751 12.9279 278.343 12.4962C277.624 11.7287 276.896 10.9611 276.169 10.2016C275.065 9.10632 273.866 8.10695 272.595 7.21952C270.956 6.01228 269.253 4.95695 267.43 4.05353C262.793 1.75099 257.692 0.495785 252.544 0.0960398C248.002 -0.263731 243.405 0.0400753 238.968 1.07942C237.041 1.52713 235.139 2.13475 233.284 2.8303C231.925 3.34198 230.606 3.95759 229.334 4.66914C228.063 5.30074 226.856 6.02827 225.705 6.86774C225.769 6.81977 225.833 6.7718 225.889 6.72383C225.113 7.33145 224.329 7.93107 223.546 8.53868C223.61 8.49071 223.666 8.44274 223.73 8.38678C223.09 8.9864 222.459 9.59401 221.827 10.1936C220.86 11.193 220.004 12.2803 219.261 13.4396C218.045 15.1985 216.99 17.0853 216.231 19.092C215.663 20.603 215.199 22.154 214.816 23.721C214.272 25.9996 214.056 28.3501 213.856 30.6766C213.864 30.5567 213.872 30.4288 213.88 30.3089C213.792 32.2116 213.752 34.1224 213.672 36.0252C213.6 37.6562 213.408 39.2952 213.137 40.9101C212.665 43.6844 212.097 46.4106 211.354 49.1289C210.035 53.9578 208.244 58.6509 206.005 63.128C203.535 68.0609 200.537 72.8179 197.059 77.1111C193.925 80.9807 190.479 84.5704 186.649 87.7684C182.78 91.0063 178.583 93.7806 174.081 96.0511C169.572 98.3137 164.695 99.7927 159.762 100.784C155.541 101.632 151.28 102.295 147.035 103.039C147.115 103.023 147.194 103.015 147.274 102.999C142.134 103.974 137.025 105.053 132.1 106.852C129.861 107.676 127.623 108.595 125.536 109.77C124.721 110.258 123.913 110.738 123.098 111.225C121.531 112.233 120.06 113.368 118.693 114.631C118.749 114.575 118.804 114.519 118.868 114.471C118.181 115.167 117.485 115.871 116.806 116.574C116.854 116.51 116.91 116.454 116.958 116.398C115.886 117.733 114.815 119.053 113.96 120.54C113 122.211 112.289 123.985 111.785 125.84C111.401 127.255 111.145 128.678 111.017 130.141C110.858 131.884 110.914 133.579 111.009 135.338C111.001 135.226 110.993 135.114 110.985 135.002C111.385 138.32 112.049 141.574 113.056 144.772C113.448 146.035 113.832 147.291 114.087 148.594C115.079 153.639 114.175 158.987 112.009 163.608C109.402 169.181 105.133 173.786 100.184 177.407C97.1303 179.646 93.7964 181.509 90.3266 183.028C85.2898 185.242 79.9012 186.714 74.5526 187.985C68.7563 189.36 62.904 190.503 57.0837 191.798C50.312 193.317 43.6122 195.084 37.1124 197.515C35.2575 198.21 33.4027 198.89 31.6039 199.705C29.6931 200.569 27.8303 201.528 26.0314 202.599C22.9534 204.438 19.9952 206.477 17.165 208.684C10.4173 213.936 4.22125 220.076 -0.975451 226.88C-3.23801 229.838 -5.35667 232.996 -7.00362 236.346C-7.37139 237.162 -7.73916 237.977 -8.09893 238.792C-8.44271 240.048 -8.85045 241.279 -9.33814 242.486C-9.96175 244.149 -9.64994 243.621 -11.0251 245.068C-11.0011 244.917 -10.9771 244.765 -10.9531 244.613C-10.4974 245.772 -10.0417 246.939 -9.58599 248.107C-9.53002 248.242 -9.4101 248.522 -9.562 248.658C-9.81784 248.874 -10.1936 248.482 -10.3535 248.338C-10.7852 247.939 -11.169 247.499 -11.5527 247.051C-11.8725 246.667 -12.2243 246.292 -12.3522 245.804Z" fill="#9A7FCD"/>
</g>
</g>
</g>
</g>
<mask id="mask10_156_7289" style="mask-type:luminance" maskUnits="userSpaceOnUse" x="0" y="2" width="252" height="250">
<path d="M0 2.27063H251.992V252H0V2.27063Z" fill="white"/>
</mask>
<g mask="url(#mask10_156_7289)">
<mask id="mask11_156_7289" style="mask-type:luminance" maskUnits="userSpaceOnUse" x="-414" y="-1732" width="877" height="2483">
<path d="M462.399 -1731.89H-413.288V750.432H462.399V-1731.89Z" fill="black" fill-opacity="0.109"/>
</mask>
<g mask="url(#mask11_156_7289)">
<mask id="mask12_156_7289" style="mask-type:luminance" maskUnits="userSpaceOnUse" x="-2" y="2" width="255" height="253">
<path d="M252.64 2.27063H-1.15125V254.015H252.64V2.27063Z" fill="white"/>
</mask>
<g mask="url(#mask12_156_7289)">
<mask id="mask13_156_7289" style="mask-type:luminance" maskUnits="userSpaceOnUse" x="0" y="3" width="252" height="250">
<path d="M0 3.80566H251.992V252H0V3.80566Z" fill="white"/>
</mask>
<g mask="url(#mask13_156_7289)">
<path d="M-9.92969 252.464C-9.66586 250.417 -9.52994 248.338 -8.93832 246.356C-8.32271 244.269 -7.48324 242.278 -6.51586 240.336C-4.16535 235.595 -1.11129 231.173 2.27856 227.112C8.6665 219.453 16.1418 212.545 24.6244 207.261C26.4312 206.133 28.286 205.054 30.2048 204.143C32.3635 203.119 34.586 202.28 36.8166 201.44C44.7236 198.45 52.9744 196.595 61.2171 194.828C68.3406 193.293 75.4801 191.814 82.4596 189.68C85.4178 188.776 88.3679 187.689 91.1501 186.322C93.4367 185.203 95.6033 183.931 97.7539 182.572C97.634 182.652 97.5141 182.74 97.3942 182.828C98.1937 182.26 98.9932 181.701 99.7926 181.141C99.6727 181.229 99.5528 181.317 99.4329 181.405C100.2 180.805 100.968 180.214 101.727 179.622C101.607 179.71 101.496 179.806 101.384 179.894C103.214 178.311 104.965 176.72 106.548 174.873C108.027 173.138 109.435 171.187 110.482 169.165C111.513 167.174 112.401 165.079 112.904 162.881C113.04 162.145 113.184 161.41 113.328 160.682C113.552 159.179 113.64 157.668 113.584 156.149C113.616 156.541 113.648 156.924 113.68 157.316C113.56 156.325 113.448 155.326 113.328 154.334C113.392 154.718 113.448 155.11 113.504 155.493C113.176 153.551 112.832 151.632 112.433 149.705C112.097 148.114 111.777 146.515 111.505 144.916C110.914 141.374 110.642 137.785 111.01 134.211C111.409 130.309 112.872 126.592 114.999 123.322C115.735 122.187 116.59 121.139 117.549 120.18C118.469 119.14 119.476 118.197 120.579 117.35C122.442 115.895 124.425 114.639 126.52 113.544C134.786 109.219 144.077 107.652 153.151 105.973C157.3 105.205 161.418 104.39 165.455 103.159C168.277 102.295 171.019 101.232 173.666 99.9127C176.696 98.4016 179.51 96.5628 182.292 94.652C182.172 94.74 182.052 94.8279 181.94 94.9158C182.94 94.1563 183.939 93.3888 184.939 92.6293C184.827 92.7252 184.707 92.8132 184.595 92.9091C185.554 92.1016 186.522 91.3021 187.481 90.4947C187.369 90.5906 187.257 90.6865 187.145 90.7825C188.065 89.935 188.992 89.0955 189.911 88.2481C189.807 88.352 189.696 88.448 189.584 88.5519C191.934 86.2094 194.189 83.8189 196.291 81.2605C198.386 78.7021 200.273 75.9759 202.032 73.1856C205.557 67.6132 208.268 61.529 210.282 55.253C211.29 52.119 212.017 48.8971 212.601 45.6591C212.969 43.8682 213.161 42.0614 213.177 40.2386C213.217 39.503 213.257 38.7675 213.297 38.032C213.608 32.7313 214.296 27.4787 216.423 22.5618C217.494 20.0674 218.869 17.8128 220.596 15.7101C221.419 14.6228 222.355 13.6474 223.41 12.776C224.441 11.8566 225.545 11.0411 226.72 10.3295C231.613 7.13956 237.225 5.30073 242.998 4.58918C248.89 3.86964 254.838 4.34134 260.499 6.11621C263.345 7.00365 266.023 8.19489 268.573 9.72992C269.877 10.4655 271.108 11.3129 272.267 12.2643C273.866 13.5355 275.337 14.9506 276.68 16.4936C276.273 16.8934 275.769 17.1252 275.169 17.1812C273.187 17.6929 271.196 18.1566 269.197 18.5883C267.206 19.036 265.208 19.4438 263.193 19.8115C262.625 20.0114 262.074 20.0114 261.53 19.8195C260.387 19.1559 259.291 18.5083 258.044 18.0127C257.133 17.6529 256.205 17.3491 255.262 17.0932C253.015 16.4856 250.737 16.2058 248.418 16.1818C246.092 16.1498 243.733 16.4936 241.479 17.0773C238.64 17.8048 235.802 18.9641 233.38 20.635C231.557 21.8902 229.91 23.3293 228.503 25.0482C227.072 26.7991 225.849 28.8218 224.881 30.8605C222.347 36.2011 221.196 42.0294 219.916 47.7618C219.301 50.536 218.669 53.3182 217.87 56.0605C216.686 60.1219 215.151 64.0714 213.353 67.893C209.507 76.1118 204.374 83.611 198.282 90.3188C192.614 96.5708 185.946 101.911 178.79 106.349C176.752 107.612 174.617 108.779 172.475 109.858C170.324 110.938 168.101 111.977 165.863 112.848C164.136 113.512 162.401 114.12 160.626 114.647C158.068 115.407 155.461 115.958 152.895 116.662C147.906 118.045 142.853 119.34 138.048 121.299C133.427 123.186 128.998 125.736 125.76 129.598C124.385 131.229 123.242 133.052 122.362 134.994C121.435 137.049 120.851 139.232 120.468 141.454C119.572 146.643 119.66 151.944 119.3 157.188C119.1 160.138 118.757 163.161 117.997 166.023C117.389 168.309 116.582 170.54 115.615 172.698C114.903 174.289 114 175.864 113.048 177.328C112.105 178.783 111.042 180.23 109.914 181.541C107.604 184.219 105.037 186.65 102.239 188.816C97.2183 192.702 91.5739 195.756 85.7296 198.194C82.6036 199.489 79.4136 200.665 76.1916 201.696C70.859 203.407 65.4464 204.854 60.0499 206.325C54.0697 207.964 48.0815 209.635 42.2612 211.77C40.3024 212.489 38.3597 213.241 36.4329 214.016C35.0817 214.536 33.7466 215.096 32.4354 215.703C31.1402 216.143 29.949 216.782 28.8697 217.622C24.0088 221.004 19.5796 225.001 15.6221 229.406C11.2888 234.235 7.48326 239.592 4.67704 245.452C3.30991 248.322 2.20661 251.44 1.82285 254.606C1.71892 255.494 1.66295 256.381 1.70292 257.277C1.76688 258.036 1.88681 258.78 2.0627 259.515C2.25457 260.179 2.31054 260.866 2.25457 261.57C1.69493 261.53 1.19125 261.306 0.76752 260.89C-0.879436 259.755 -2.5104 258.58 -4.10938 257.365C-5.71636 256.181 -7.30735 254.95 -8.86636 253.695C-9.37804 253.399 -9.72981 252.984 -9.92969 252.464Z" fill="#9A7FCD"/>
</g>
</g>
</g>
</g>
<mask id="mask14_156_7289" style="mask-type:luminance" maskUnits="userSpaceOnUse" x="0" y="0" width="252" height="252">
<path d="M0 0.503662H251.992V252H0V0.503662Z" fill="white"/>
</mask>
<g mask="url(#mask14_156_7289)">
<mask id="mask15_156_7289" style="mask-type:luminance" maskUnits="userSpaceOnUse" x="-414" y="-1732" width="877" height="2483">
<path d="M462.399 -1731.89H-413.288V750.432H462.399V-1731.89Z" fill="black" fill-opacity="0.109"/>
</mask>
<g mask="url(#mask15_156_7289)">
<mask id="mask16_156_7289" style="mask-type:luminance" maskUnits="userSpaceOnUse" x="-2" y="0" width="255" height="255">
<path d="M252.64 0.223877H-1.15125V254.015H252.64V0.223877Z" fill="white"/>
</mask>
<g mask="url(#mask16_156_7289)">
<mask id="mask17_156_7289" style="mask-type:luminance" maskUnits="userSpaceOnUse" x="0" y="1" width="252" height="252">
<path d="M0 1.35925H251.992V252H0V1.35925Z" fill="white"/>
</mask>
<g mask="url(#mask17_156_7289)">
<path d="M-11.3609 250.177C-11.4329 249.186 -11.3689 248.202 -11.185 247.227C-11.0571 246.092 -10.8252 244.98 -10.4974 243.885C-9.84986 241.751 -8.97841 239.704 -7.96305 237.713C-5.5246 232.876 -2.35062 228.375 1.15915 224.25C7.72299 216.535 15.3901 209.595 24.0646 204.326C25.9034 203.207 27.7982 202.128 29.749 201.232C31.9556 200.217 34.2182 199.401 36.4967 198.578C44.4916 195.644 52.8144 193.837 61.1371 192.11C68.3005 190.623 75.472 189.176 82.4675 187.041C85.4256 186.138 88.3758 185.051 91.15 183.667C93.4206 182.54 95.5792 181.245 97.7058 179.87C97.6019 179.942 97.49 180.022 97.3861 180.094C98.1616 179.534 98.9371 178.974 99.7206 178.415C99.6086 178.495 99.5047 178.567 99.4008 178.647C101.304 177.128 103.142 175.593 104.813 173.802C106.38 172.115 107.883 170.22 109.043 168.237C110.186 166.286 111.185 164.24 111.809 162.065C111.985 161.346 112.177 160.626 112.353 159.907C112.656 158.435 112.816 156.956 112.84 155.453C112.848 155.805 112.856 156.149 112.864 156.501C112.832 155.389 112.8 154.286 112.768 153.183C112.8 153.527 112.832 153.87 112.864 154.222C112.72 153.271 112.576 152.327 112.433 151.384C112.48 151.728 112.536 152.071 112.592 152.415C112.401 151.464 112.209 150.512 112.017 149.569C112.089 149.913 112.169 150.249 112.241 150.592C111.409 147.139 110.41 143.685 109.89 140.167C109.466 137.329 109.298 134.395 109.626 131.541C109.834 129.678 110.274 127.855 110.905 126.088C111.601 124.153 112.512 122.242 113.712 120.555C116.47 116.686 120.18 113.52 124.369 111.273C132.46 106.932 141.51 105.229 150.472 103.702C154.534 103.015 158.603 102.359 162.593 101.344C165.303 100.656 167.973 99.8167 170.54 98.7214C171.579 98.2337 172.626 97.746 173.666 97.2583C175.672 96.2269 177.615 95.0917 179.494 93.8445C179.382 93.9164 179.278 93.9964 179.166 94.0683C180.189 93.3568 181.205 92.6372 182.22 91.9257C182.116 92.0056 182.012 92.0856 181.908 92.1575C182.884 91.398 183.859 90.6385 184.835 89.879C184.739 89.9589 184.635 90.0469 184.531 90.1268C185.466 89.3193 186.402 88.5198 187.345 87.7203C187.241 87.8003 187.145 87.8882 187.041 87.9762C188.68 86.5051 190.247 84.9621 191.742 83.3551C192.877 82.1559 193.957 80.9167 194.98 79.6295C197.067 77.0791 198.978 74.4168 200.728 71.6186C204.502 65.5984 207.492 59.0905 209.499 52.2709C210.418 49.1448 211.138 45.9309 211.626 42.7009C211.921 41.2778 212.073 39.8387 212.073 38.3917C212.097 37.3044 212.129 36.225 212.169 35.1377C212.369 30.7165 212.857 26.3113 214.296 22.098C216.191 16.5415 219.684 11.5047 224.585 8.17885C229.534 4.82099 235.243 2.7423 241.151 1.90284C247.171 1.04738 253.295 1.51109 259.147 3.14205C262.05 3.94154 264.816 5.18076 267.446 6.63583C269.213 7.65119 270.876 8.79446 272.443 10.0896C274.042 11.4088 275.505 12.8639 276.832 14.4549C276.584 14.8226 276.217 15.0465 275.737 15.1184C274.266 15.6061 272.779 16.0459 271.284 16.4456C269.789 16.8693 268.294 17.2531 266.775 17.5969C266.327 17.7808 265.903 17.7808 265.495 17.5889C264.224 16.7174 262.977 15.87 261.602 15.1744C260.275 14.5028 258.82 13.9112 257.396 13.4875C254.838 12.728 252.24 12.2802 249.569 12.1763C243.837 11.9445 238.145 13.2476 233.1 15.9819C231.837 16.6695 230.589 17.5249 229.47 18.4283C228.391 19.2918 227.328 20.2832 226.448 21.3385C224.833 23.2893 223.482 25.4559 222.379 27.7344C219.804 33.0671 218.805 38.9433 217.758 44.7316C217.126 48.2094 216.494 51.6792 215.471 55.0611C214.28 58.9946 212.833 62.8322 211.09 66.5578C207.108 75.0644 201.72 82.8594 195.22 89.6471C189.52 95.5953 183.012 100.72 175.84 104.782C172.211 106.836 168.429 108.619 164.495 110.034C163.304 110.402 162.113 110.77 160.922 111.137C159.611 111.433 158.299 111.729 156.996 112.025C155.173 112.473 153.351 112.952 151.52 113.4C140.783 116.006 128.382 118.645 121.659 128.295C120.26 130.301 119.204 132.444 118.445 134.762C117.621 137.289 117.245 140.055 117.094 142.701C116.79 147.794 117.213 152.903 116.982 157.996C116.758 162.969 115.598 167.949 113.224 172.355C111.353 175.832 109.003 178.95 106.22 181.757C101.599 186.402 96.0109 190.135 90.0947 192.942C87.2725 194.285 84.3783 195.436 81.4442 196.523C79.0617 197.411 76.6232 198.138 74.1848 198.85C70.7789 199.841 67.3571 200.737 63.9273 201.608C58.4188 203.015 52.8943 204.374 47.4578 206.037C44.7395 206.869 42.0372 207.78 39.3749 208.755C37.9998 209.275 36.6246 209.787 35.2495 210.307C33.7944 210.89 32.3394 211.482 30.8923 212.065C29.717 212.657 28.5578 213.457 27.4545 214.192C25.9114 215.215 24.4164 216.327 22.9533 217.47C20.3949 219.493 17.9565 221.667 15.646 223.97C10.4732 229.119 5.76423 234.947 2.27844 241.399C0.767403 244.197 -0.50379 247.131 -1.2793 250.209C-1.5911 251.44 -1.80696 252.871 -1.79897 254.167C-1.79097 255.742 -1.40722 257.301 -1.1194 258.836C-1.62308 258.804 -2.0548 258.588 -2.42257 258.196C-3.81369 257.109 -5.18882 255.997 -6.52397 254.846C-7.8831 253.711 -9.21026 252.552 -10.5134 251.352C-10.9612 251.057 -11.241 250.665 -11.3609 250.177Z" fill="#9A7FCD"/>
</g>
</g>
</g>
<mask id="mask18_156_7289" style="mask-type:luminance" maskUnits="userSpaceOnUse" x="-414" y="-1732" width="877" height="2483">
<path d="M462.399 -1731.89H-413.288V750.432H462.399V-1731.89Z" fill="black" fill-opacity="0.109"/>
</mask>
<g mask="url(#mask18_156_7289)">
<mask id="mask19_156_7289" style="mask-type:luminance" maskUnits="userSpaceOnUse" x="-2" y="0" width="255" height="255">
<path d="M252.64 0.223877H-1.15125V254.015H252.64V0.223877Z" fill="white"/>
</mask>
<g mask="url(#mask19_156_7289)">
<mask id="mask20_156_7289" style="mask-type:luminance" maskUnits="userSpaceOnUse" x="0" y="0" width="252" height="252">
<path d="M0 0.503662H251.992V252H0V0.503662Z" fill="white"/>
</mask>
<g mask="url(#mask20_156_7289)">
<path d="M-11.3048 251.113C-11.6726 250.225 -12.0003 249.322 -12.2962 248.41C-12.528 247.779 -12.3441 247.147 -11.7525 246.524C-11.041 244.317 -10.3454 242.134 -9.38601 240.016C-7.09146 234.947 -3.86951 230.294 -0.359736 225.993C3.22199 221.603 7.20346 217.55 11.4648 213.816C15.4622 210.315 19.7235 207.029 24.2886 204.286C26.2074 203.135 28.1662 202.056 30.1969 201.088C32.1236 200.169 34.0824 199.425 36.0891 198.714C38.2957 197.85 40.5343 197.099 42.8129 196.435C45.0594 195.708 47.33 195.076 49.6325 194.533C54.1736 193.437 58.7547 192.518 63.3358 191.614C70.5632 190.191 77.7906 188.808 84.8502 186.674C87.7843 185.794 90.7424 184.707 93.4927 183.316C95.7313 182.18 97.8419 180.869 99.9206 179.462C99.8247 179.534 99.7287 179.606 99.6328 179.678C100.376 179.118 101.128 178.551 101.879 177.991C101.783 178.063 101.687 178.135 101.592 178.207C104.03 176.168 106.381 174.042 108.291 171.467C109.65 169.628 110.874 167.694 111.801 165.591C114.295 159.995 114.359 153.998 111.985 147.586C111.729 146.819 111.481 146.051 111.225 145.284C110.442 142.845 109.762 140.359 109.475 137.801C109.307 136.346 109.211 134.906 109.259 133.443C109.339 131.221 109.746 129.046 110.394 126.92C111.721 122.546 114.551 118.541 117.989 115.535C125.009 109.395 134.027 106.524 143.045 104.782C149.209 103.582 155.469 102.935 161.641 101.735C164.352 101.208 167.078 100.56 169.692 99.6488C171.859 98.8733 173.97 97.9459 176.016 96.8746C177.991 95.8432 179.902 94.692 181.741 93.4208C181.645 93.4927 181.549 93.5567 181.445 93.6286C182.436 92.9091 183.42 92.1896 184.403 91.47C184.315 91.55 184.219 91.6219 184.123 91.6939C185.067 90.9343 186.01 90.1668 186.953 89.3993C186.857 89.4793 186.769 89.5512 186.682 89.6232C188.336 88.2161 189.927 86.721 191.447 85.154C192.958 83.595 194.405 81.972 195.772 80.2851C197.818 77.7507 199.681 75.0884 201.416 72.3382C205.454 65.9262 208.412 58.8667 210.386 51.5593C210.938 49.4727 211.394 47.37 211.754 45.2354C212.113 43.1167 212.369 40.9741 212.529 38.8234C212.609 36.6648 212.481 34.4982 212.561 32.3396C212.673 29.1416 213.113 25.9276 214.048 22.8656C214.952 19.8835 216.319 17.1332 218.11 14.5908C220.084 11.7926 222.515 9.24222 225.449 7.42737C226.864 6.55592 228.127 5.81239 229.59 5.10084C233.396 3.23803 237.425 2.03879 241.615 1.3992C248.978 0.263915 256.517 0.903509 263.545 3.41392C267.039 4.66112 270.34 6.31607 273.363 8.4827C275.121 9.7459 276.76 11.145 278.271 12.688C279.007 13.5115 279.734 14.335 280.47 15.1585C280.998 15.7421 279.567 15.846 279.343 15.886C278.583 15.9819 277.832 16.0539 277.072 16.0939C276.656 16.1658 276.257 16.1258 275.865 15.9819C274.594 14.5508 273.211 13.2317 271.708 12.0404C270.236 10.8732 268.677 9.83384 267.031 8.91442C263.761 7.09158 260.211 5.8044 256.557 5.0209C250.017 3.62178 243.094 3.83765 236.666 5.69247C230.318 7.5313 224.354 11.0091 220.38 16.3737C218.317 19.1639 216.806 22.3139 215.815 25.6318C214.92 28.6459 214.536 31.7159 214.256 34.834C214.264 34.73 214.272 34.6341 214.28 34.5302C214.176 36.7527 214.176 39.0073 213.992 41.2299C213.832 42.8928 213.592 44.5318 213.281 46.1708C213.017 47.8177 212.681 49.4487 212.265 51.0637C210.754 57.0279 208.588 62.7602 205.749 68.2208C202.903 73.6893 199.457 78.7661 195.476 83.4671C192.574 86.8969 189.312 89.9989 185.85 92.8531C181.813 96.195 177.311 99.0012 172.547 101.176C170.956 101.935 169.325 102.599 167.646 103.151C166.398 103.494 165.151 103.838 163.896 104.174C161.681 104.75 159.427 105.173 157.172 105.581C152.143 106.476 147.067 107.1 142.07 108.155C139.36 108.731 136.657 109.347 134.035 110.218C133.14 110.53 132.244 110.85 131.357 111.162C129.494 111.865 127.695 112.697 125.944 113.64C126.008 113.608 126.072 113.576 126.144 113.544C125.257 114.072 124.369 114.599 123.482 115.135C123.546 115.095 123.61 115.055 123.674 115.015C122.834 115.623 122.003 116.222 121.171 116.822C121.227 116.774 121.291 116.734 121.347 116.686C120.579 117.358 119.812 118.021 119.044 118.693C119.1 118.645 119.156 118.597 119.212 118.549C118.573 119.228 117.933 119.908 117.294 120.588C116.406 121.595 115.639 122.69 114.991 123.857C113.952 125.584 113.064 127.431 112.513 129.374C112.113 130.789 111.825 132.22 111.633 133.683C111.369 135.73 111.465 137.785 111.593 139.839C111.577 139.743 111.569 139.647 111.561 139.551C111.921 142.486 112.513 145.356 113.272 148.218C113.776 150.129 114.343 152.016 114.679 153.966C114.839 154.878 114.847 155.829 114.855 156.757C114.871 157.732 114.815 158.739 114.703 159.707C114.295 163.256 113.072 166.662 111.313 169.756C108.619 174.497 104.734 178.463 100.36 181.685C97.2423 183.979 93.8605 185.898 90.3107 187.433C85.2419 189.632 79.8773 191.119 74.4967 192.366C68.7324 193.693 62.9201 194.78 57.1318 196.02C53.4301 196.811 49.7445 197.675 46.0908 198.69C43.1646 199.505 40.2785 200.449 37.4243 201.488C35.5934 202.152 33.7706 202.799 31.9957 203.591C30.1089 204.43 28.2621 205.366 26.4792 206.421C23.3932 208.244 20.4351 210.267 17.6129 212.473C10.7692 217.806 4.48519 224.098 -0.631565 231.125C-2.89413 234.235 -5.01278 237.545 -6.58778 241.047C-7.51519 243.094 -8.15479 245.252 -8.85834 247.387C-9.33004 248.81 -9.29806 248.722 -9.99362 250.025C-9.99362 249.865 -10.0016 249.714 -10.0016 249.554C-9.37002 250.681 -8.73842 251.808 -8.11481 252.943C-8.03486 253.079 -7.85898 253.319 -7.9869 253.487C-8.20276 253.751 -8.65047 253.415 -8.83436 253.303C-9.33804 252.975 -9.80974 252.6 -10.2734 252.224C-10.6332 251.92 -11.1289 251.584 -11.3048 251.113Z" fill="#9A7FCD"/>
</g>
</g>
</g>
</g>
<mask id="mask21_156_7289" style="mask-type:luminance" maskUnits="userSpaceOnUse" x="0" y="2" width="252" height="250">
<path d="M0 2.27063H251.992V252H0V2.27063Z" fill="white"/>
</mask>
<g mask="url(#mask21_156_7289)">
<mask id="mask22_156_7289" style="mask-type:luminance" maskUnits="userSpaceOnUse" x="-414" y="-1732" width="877" height="2483">
<path d="M462.399 -1731.89H-413.288V750.432H462.399V-1731.89Z" fill="black" fill-opacity="0.109"/>
</mask>
<g mask="url(#mask22_156_7289)">
<mask id="mask23_156_7289" style="mask-type:luminance" maskUnits="userSpaceOnUse" x="-2" y="2" width="255" height="253">
<path d="M252.64 2.27063H-1.15125V254.015H252.64V2.27063Z" fill="white"/>
</mask>
<g mask="url(#mask23_156_7289)">
<mask id="mask24_156_7289" style="mask-type:luminance" maskUnits="userSpaceOnUse" x="0" y="4" width="252" height="248">
<path d="M0 4.31726H251.992V252H0V4.31726Z" fill="white"/>
</mask>
<g mask="url(#mask24_156_7289)">
<path d="M-10.2575 253.231C-10.3054 252.256 -10.2415 251.289 -10.0736 250.321C-10.0016 249.602 -9.8657 248.89 -9.67382 248.186C-9.19413 246.14 -8.45859 244.173 -7.57915 242.262C-5.58842 237.929 -2.90212 233.836 0.0400105 230.086C5.71641 222.827 12.3842 216.303 19.8594 210.906C23.0494 208.596 26.3913 206.517 29.917 204.774C32.0677 203.711 34.3142 202.911 36.5528 202.072C40.1905 200.713 43.9002 199.577 47.6498 198.578C54.9492 196.627 62.3844 195.268 69.7477 193.597C72.578 192.958 75.4002 192.286 78.1984 191.534C81.7481 190.583 85.2179 189.432 88.6238 188.065C88.5118 188.113 88.3999 188.161 88.28 188.209C89.847 187.505 91.398 186.793 92.917 186.002C94.7719 185.035 96.5547 183.907 98.2736 182.708C101.232 180.637 104.07 178.247 106.388 175.449C108.347 173.09 110.066 170.516 111.281 167.694C112.025 165.967 112.553 164.168 112.904 162.329C113.072 161.593 113.184 160.858 113.216 160.106C113.36 158.971 113.4 157.836 113.336 156.693C113.36 156.996 113.392 157.3 113.416 157.604C113.304 156.693 113.184 155.781 113.072 154.87C113.12 155.174 113.168 155.477 113.216 155.781C112.888 153.926 112.529 152.08 112.121 150.241C111.769 148.658 111.409 147.067 111.145 145.468C110.73 143.005 110.45 140.527 110.458 138.024C110.458 134.731 111.01 131.429 112.257 128.367C113.056 126.416 114.136 124.617 115.399 122.938C116.782 121.115 118.381 119.428 120.18 118.021C127.015 112.673 135.346 110.13 143.717 108.347C148.01 107.428 152.343 106.772 156.653 105.925C158.212 105.613 159.771 105.293 161.314 104.925C162.649 104.622 163.968 104.254 165.271 103.838C167.006 103.358 168.701 102.767 170.356 102.047C170.244 102.095 170.124 102.143 170.02 102.191C172.123 101.304 174.169 100.288 176.16 99.1451C178.103 98.0338 179.982 96.8186 181.797 95.5154C184.483 93.5807 187.041 91.43 189.432 89.1355C194.988 83.8109 199.737 77.6148 203.503 70.907C207.268 64.2153 210.075 56.9559 211.682 49.4407C212.145 47.29 212.505 45.1314 212.769 42.9488C212.809 41.8615 212.857 40.7822 212.913 39.6949C213.049 36.9206 213.241 34.1384 213.696 31.3961C214.688 25.4799 217.014 19.7235 221.14 15.2784C222.97 13.3036 225.209 11.5927 227.52 10.2256C230.853 8.23484 234.531 6.83573 238.305 5.95629C244.996 4.38928 252.264 4.38928 258.892 6.28408C261.754 7.09956 264.536 8.15489 267.15 9.59398C268.917 10.5534 270.588 11.6647 272.163 12.9199C273.778 14.1991 275.265 15.6221 276.624 17.1732C276.297 17.5169 275.881 17.7008 275.369 17.7088C273.738 18.0206 272.107 18.2845 270.468 18.5163C268.829 18.7642 267.19 18.972 265.543 19.1319C265.048 19.2678 264.6 19.2199 264.184 18.98C262.977 18.1645 261.81 17.405 260.515 16.7414C259.251 16.1018 257.884 15.6142 256.533 15.1904C253.799 14.335 250.841 13.9832 247.987 14.0152C241.87 14.0871 235.714 16.0139 230.853 19.7555C228.703 21.4105 226.936 23.3532 225.473 25.6318C223.802 28.2221 222.531 30.9244 221.563 33.8506C219.437 40.2705 218.757 47.0262 217.014 53.5421C210.434 78.2064 192.278 99.4729 168.941 109.826C166.71 110.818 164.464 111.689 162.129 112.401C161.537 112.577 160.938 112.76 160.346 112.944C158.707 113.296 157.076 113.688 155.453 114.128C152.535 114.903 149.593 115.623 146.667 116.398C144.053 117.094 141.446 117.845 138.888 118.749C135.41 119.964 131.9 121.523 128.91 123.714C126.744 125.297 124.713 127.135 123.162 129.334C121.619 131.517 120.332 133.915 119.588 136.489C118.053 141.782 118.069 147.315 117.989 152.783C117.925 156.956 117.789 161.122 116.886 165.215C115.343 172.211 111.361 178.439 106.301 183.42C97.8979 191.686 86.8089 196.707 75.656 200.073C69.5879 201.896 63.4238 203.423 57.2997 205.054C51.1835 206.669 45.1554 208.484 39.2151 210.658C37.864 211.178 36.5129 211.69 35.1617 212.209C33.7626 212.801 32.3555 213.393 30.9564 213.976C29.4933 214.784 28.1022 215.759 26.7431 216.718C23.9288 218.717 21.2825 220.924 18.7561 223.274C15.6861 226.128 12.8159 229.263 10.2495 232.572C7.91501 235.586 5.77237 238.736 3.95752 242.102C3.3739 243.182 2.82224 244.277 2.31057 245.396C1.39915 247.395 0.551685 249.65 0.119961 251.824C-0.119888 253.055 -0.367731 254.375 -0.31976 255.638C-0.263795 257.133 0.0400114 258.612 0.207904 260.107C-0.263795 260.147 -0.695522 260.003 -1.07928 259.675C-2.50237 258.828 -3.89349 257.948 -5.26862 257.037C-6.65973 256.141 -8.01887 255.214 -9.35402 254.247C-9.80974 254.015 -10.1135 253.679 -10.2575 253.231Z" fill="#9A7FCD"/>
</g>
</g>
</g>
</g>
<mask id="mask25_156_7289" style="mask-type:luminance" maskUnits="userSpaceOnUse" x="0" y="0" width="252" height="252">
<path d="M0 0.503662H251.992V252H0V0.503662Z" fill="white"/>
</mask>
<g mask="url(#mask25_156_7289)">
<mask id="mask26_156_7289" style="mask-type:luminance" maskUnits="userSpaceOnUse" x="-414" y="-1732" width="877" height="2483">
<path d="M462.399 -1731.89H-413.288V750.432H462.399V-1731.89Z" fill="black" fill-opacity="0.109"/>
</mask>
<g mask="url(#mask26_156_7289)">
<mask id="mask27_156_7289" style="mask-type:luminance" maskUnits="userSpaceOnUse" x="-2" y="0" width="255" height="255">
<path d="M252.64 0.223877H-1.15125V254.015H252.64V0.223877Z" fill="white"/>
</mask>
<g mask="url(#mask27_156_7289)">
<mask id="mask28_156_7289" style="mask-type:luminance" maskUnits="userSpaceOnUse" x="0" y="0" width="252" height="252">
<path d="M0 0.503662H251.992V252H0V0.503662Z" fill="white"/>
</mask>
<g mask="url(#mask28_156_7289)">
<path d="M-11.0489 248.482C-11.1208 247.483 -11.0649 246.492 -10.881 245.508C-10.7531 244.357 -10.5212 243.222 -10.1854 242.102C-9.45788 239.52 -8.29062 236.93 -7.01143 234.579C-4.59696 230.182 -1.67082 226.112 1.54314 222.259C5.36471 217.654 9.70596 213.377 14.335 209.579C18.2765 206.341 22.4259 203.367 26.903 200.896C28.7659 199.873 30.6606 198.946 32.6274 198.138C34.1225 197.587 35.6255 197.035 37.1285 196.491C39.3271 195.652 41.5657 194.916 43.8363 194.293C51.9351 191.99 60.2099 190.455 68.4447 188.72C72.0104 187.961 75.5761 187.153 79.1019 186.218C82.6197 185.282 86.1774 184.187 89.5193 182.732C91.8458 181.717 94.1563 180.549 96.291 179.19C98.3936 177.863 100.352 176.384 102.287 174.801C102.175 174.905 102.063 175.001 101.959 175.105C102.663 174.457 103.366 173.81 104.07 173.162C103.966 173.266 103.854 173.37 103.75 173.474C104.414 172.802 105.069 172.123 105.733 171.443C105.629 171.547 105.525 171.659 105.421 171.763C106.485 170.612 107.46 169.396 108.363 168.117C109.235 166.862 110.002 165.551 110.674 164.184C111.337 162.841 111.873 161.458 112.289 160.018C112.705 158.595 112.984 157.148 113.128 155.669C113.104 156.061 113.088 156.461 113.064 156.86C113.12 155.717 113.184 154.582 113.24 153.447C113.24 153.838 113.24 154.238 113.24 154.63C113.208 153.487 113.184 152.335 113.152 151.192C113.296 152.383 113.448 153.575 113.592 154.758C113.376 153.055 113.096 151.36 112.745 149.681C112.489 148.394 112.201 147.107 111.881 145.835C111.969 146.211 112.057 146.587 112.145 146.963C111.178 143.125 110.138 139.312 109.866 135.338C109.643 131.988 109.802 128.542 110.834 125.32C111.465 123.354 112.297 121.499 113.376 119.732C114.599 117.741 116.062 115.982 117.717 114.351C118.773 113.328 119.9 112.417 121.115 111.601C122.29 110.706 123.546 109.914 124.857 109.219C127.063 108.043 129.342 107.052 131.701 106.213C136.274 104.566 141.023 103.502 145.804 102.631C150.513 101.775 155.262 101.136 159.947 100.144C162.057 99.6967 164.136 99.1771 166.199 98.5375C169.021 97.674 171.723 96.5627 174.361 95.2356C175.88 94.4761 177.344 93.6286 178.751 92.7012C180.182 91.8297 181.565 90.8863 182.892 89.871C185.53 87.8643 187.969 85.6656 190.359 83.3711C190.263 83.475 190.159 83.587 190.055 83.6909C190.911 82.7875 191.774 81.892 192.63 80.9886C192.534 81.1005 192.43 81.2125 192.334 81.3244C193.157 80.389 193.973 79.4536 194.796 78.5182C194.701 78.6301 194.605 78.75 194.509 78.862C195.292 77.8946 196.076 76.9272 196.851 75.9598C196.763 76.0797 196.667 76.1917 196.579 76.3116C197.315 75.3122 198.058 74.3129 198.794 73.3135C198.706 73.4334 198.618 73.5533 198.53 73.6733C199.234 72.6499 199.929 71.6266 200.625 70.5952C200.545 70.7151 200.457 70.8431 200.377 70.963C202.112 68.1728 203.767 65.3825 205.214 62.4244C206.629 59.5063 207.908 56.4522 208.931 53.3661C209.779 50.7918 210.506 48.1854 211.09 45.5231C211.666 42.8928 212.177 40.1985 212.393 37.5042C212.417 36.0731 212.449 34.642 212.505 33.2109C212.545 32.4674 212.585 31.7319 212.625 30.9884C212.721 29.4533 212.921 27.5186 213.177 26.0075C213.521 24.0168 213.984 22.074 214.632 20.1632C215.495 17.6448 216.647 15.3263 218.134 13.1277C218.909 11.9125 219.797 10.7772 220.804 9.73785C221.467 9.10625 222.131 8.48264 222.795 7.85904C223.882 6.90764 225.041 6.07617 226.272 5.34863C227.504 4.52515 228.791 3.81361 230.15 3.21399C235.291 0.91145 240.775 -0.319769 246.404 -0.471673C251.976 -0.623575 257.589 0.247871 262.785 2.28658C264.208 2.81424 265.576 3.46183 266.895 4.21335C268.254 4.89292 269.549 5.68442 270.78 6.57985C271.588 7.20345 272.395 7.83505 273.203 8.45866C274.794 9.8098 276.249 11.2889 277.56 12.9038C277.304 13.3116 276.92 13.5834 276.409 13.6953C274.842 14.3509 273.251 14.9585 271.644 15.5342C270.053 16.1338 268.438 16.6854 266.815 17.1971C266.359 17.437 265.895 17.4769 265.424 17.333C264.152 16.4776 262.937 15.6381 261.538 14.9665C260.515 14.4788 259.483 14.0551 258.412 13.6793C255.918 12.8079 253.351 12.2962 250.721 12.0724C249.234 11.9444 247.675 11.9524 246.18 12.0484C244.677 12.1523 243.126 12.3442 241.663 12.664C238.729 13.3116 235.866 14.295 233.236 15.75C231.045 16.9573 229.039 18.4683 227.312 20.2752C225.593 22.074 224.234 24.1527 223.035 26.3273C221.531 29.0216 220.524 32.0997 219.781 35.0738C219.013 38.1598 218.461 41.2858 217.902 44.4118C217.382 47.33 216.838 50.2401 216.071 53.1023C214.992 57.0918 213.608 60.9613 211.97 64.7429C210.115 69.0282 207.804 73.2335 205.214 77.1191C202.599 81.0286 199.721 84.7622 196.531 88.224C190.935 94.3002 184.483 99.5049 177.415 103.774C175.409 104.989 173.282 106.109 171.155 107.124C169.013 108.147 166.766 109.147 164.52 109.898C162.689 110.506 160.85 111.018 158.971 111.433C156.861 111.905 154.766 112.457 152.663 112.976C147.331 114.287 141.966 115.511 136.801 117.39C131.317 119.388 126 122.402 122.378 127.071C120.899 128.974 119.724 131.093 118.901 133.355C118.093 135.578 117.645 137.88 117.366 140.223C116.726 145.652 117.326 151.128 117.19 156.565C117.07 161.138 116.246 165.607 114.447 169.828C112.401 174.633 109.163 178.918 105.389 182.508C100.912 186.761 95.6514 190.095 90.1189 192.798C88.5119 193.589 86.849 194.293 85.178 194.964C83.5551 195.612 81.9001 196.267 80.2452 196.835C74.9126 198.674 69.42 200.065 63.9515 201.472C58.459 202.879 52.9505 204.262 47.514 205.901C44.8037 206.717 42.1174 207.644 39.4551 208.612C38.0799 209.123 36.7128 209.643 35.3377 210.155C33.4829 210.642 31.756 211.386 30.157 212.393C24.5525 215.711 19.4358 219.94 14.8947 224.601C10.0817 229.534 5.75646 234.963 2.37461 240.983C0.671691 244.013 -0.77539 247.323 -1.44696 250.745C-1.63884 251.72 -1.77476 252.696 -1.79874 253.695C-1.84671 255.286 -1.41498 256.941 -1.12717 258.5C-1.63884 258.404 -2.07057 258.132 -2.41435 257.692C-3.77349 256.429 -5.10065 255.134 -6.40382 253.807C-7.71498 252.496 -9.00217 251.153 -10.2574 249.785C-10.6971 249.434 -10.9609 249.01 -11.0489 248.482Z" fill="#9A7FCD"/>
</g>
</g>
</g>
</g>
<mask id="mask29_156_7289" style="mask-type:luminance" maskUnits="userSpaceOnUse" x="0" y="2" width="252" height="250">
<path d="M0 2.27063H251.992V252H0V2.27063Z" fill="white"/>
</mask>
<g mask="url(#mask29_156_7289)">
<mask id="mask30_156_7289" style="mask-type:luminance" maskUnits="userSpaceOnUse" x="-414" y="-1732" width="877" height="2483">
<path d="M462.399 -1731.89H-413.288V750.432H462.399V-1731.89Z" fill="black" fill-opacity="0.109"/>
</mask>
<g mask="url(#mask30_156_7289)">
<mask id="mask31_156_7289" style="mask-type:luminance" maskUnits="userSpaceOnUse" x="-2" y="2" width="255" height="253">
<path d="M252.64 2.27063H-1.15125V254.015H252.64V2.27063Z" fill="white"/>
</mask>
<g mask="url(#mask31_156_7289)">
<mask id="mask32_156_7289" style="mask-type:luminance" maskUnits="userSpaceOnUse" x="0" y="2" width="252" height="251">
<path d="M0 2.33472H251.992V252H0V2.33472Z" fill="white"/>
</mask>
<g mask="url(#mask32_156_7289)">
<path d="M-11.9044 253.279C-13.2715 250.145 -13.3035 251.305 -12.5919 248.49C-12.2961 247.299 -11.9763 246.148 -11.5846 244.989C-10.5132 241.799 -8.97022 238.769 -7.22733 235.898C-4.26121 230.981 -0.639508 226.464 3.278 222.283C7.11557 218.198 11.2649 214.36 15.7341 210.986C19.4837 208.148 23.4012 205.566 27.5826 203.391C29.8931 202.2 32.2596 201.272 34.7061 200.401C36.2011 199.865 37.6962 199.338 39.1912 198.802C42.1893 197.803 45.2274 196.939 48.2974 196.188C55.7807 194.373 63.3758 193.054 70.9151 191.479C75.1364 190.591 79.4217 189.624 83.5311 188.313C84.8502 187.873 86.1694 187.425 87.4885 186.985C89.0795 186.378 90.6385 185.698 92.1656 184.947C92.0776 184.995 91.9897 185.035 91.9017 185.083C92.7332 184.643 93.5567 184.203 94.3961 183.763C94.3082 183.811 94.2203 183.859 94.1323 183.907C96.9705 182.22 99.6808 180.43 102.143 178.223C103.91 176.656 105.509 174.929 106.956 173.066C108.787 170.716 110.266 168.029 111.225 165.207C111.937 163.129 112.313 160.986 112.457 158.795C112.768 154.022 110.786 150.049 109.563 145.692C109.011 143.741 108.587 141.766 108.323 139.759C107.588 134.123 108.811 128.423 111.745 123.562C116.67 115.415 125.384 110.842 134.267 108.251C140.759 106.365 147.458 105.453 154.134 104.43C156.988 103.99 159.835 103.534 162.649 102.895C164.592 102.471 166.494 101.927 168.373 101.28C170.54 100.504 172.642 99.5769 174.681 98.5056C174.601 98.5536 174.513 98.5935 174.425 98.6415C175.489 98.0499 176.544 97.4503 177.615 96.8506C177.527 96.8986 177.439 96.9546 177.359 96.9946C178.783 96.1551 180.166 95.2357 181.485 94.2363C182.388 93.6127 183.26 92.9491 184.091 92.2376C186.202 90.5267 188.217 88.6958 190.111 86.7451C193.853 82.8915 197.235 78.5822 200.049 73.9932C202.575 69.8678 204.758 65.5505 206.509 61.0414C207.476 58.547 208.324 56.0126 209.019 53.4222C209.875 50.2243 210.434 46.9863 210.93 43.7164C210.914 43.8203 210.906 43.9163 210.89 44.0122C211.01 42.8529 211.13 41.6937 211.258 40.5344C211.242 40.6303 211.234 40.7343 211.226 40.8382C211.242 37.4883 211.186 34.1385 211.594 30.8206C211.977 27.6066 212.777 24.4806 214.072 21.5145C215.759 17.6369 218.277 14.0712 221.483 11.305C222.291 10.6894 223.09 10.0657 223.89 9.45014C224.777 8.89049 225.657 8.33884 226.544 7.78719C227.512 7.26752 228.479 6.73986 229.478 6.29214C237.321 2.82235 246.148 1.71905 254.614 3.09417C258.772 3.77374 262.801 5.0929 266.599 6.92374C268.965 8.06702 271.188 9.54608 273.251 11.177C274.122 11.8086 274.93 12.5122 275.681 13.2877C276.912 14.383 278.032 15.5902 279.039 16.9014C279.543 17.469 278.199 17.517 278.04 17.533C277.392 17.565 276.744 17.573 276.105 17.541C275.737 17.573 275.401 17.509 275.097 17.3331C273.778 15.894 272.499 14.4949 270.996 13.2477C269.597 12.0885 268.014 10.9772 266.423 10.0977C263.553 8.48275 260.531 7.25953 257.341 6.43605C249.69 4.44532 241.495 4.75712 234.051 7.42742C230.718 8.62666 227.624 10.2816 224.793 12.4163C223.306 13.5355 221.987 14.8867 220.772 16.3018C219.597 17.6609 218.533 19.3079 217.654 20.8989C216.079 23.777 214.936 26.951 214.272 30.165C213.664 33.1231 213.361 36.1052 213.177 39.1113C213.097 40.4065 213.033 41.7097 212.921 43.0128C212.817 44.1001 212.625 45.0995 212.457 46.2348C212.209 47.8977 211.842 49.5447 211.458 51.1756C209.955 57.5156 207.644 63.6317 204.622 69.4121C200.793 76.7434 195.844 83.5231 189.935 89.3194C187.145 92.0617 184.131 94.5721 180.925 96.8027C178.495 98.4976 176.008 99.9527 173.386 101.32C172.858 101.56 172.331 101.807 171.811 102.047C170.236 102.815 168.613 103.478 166.942 104.038C165.039 104.654 163.073 105.189 161.114 105.621C158.388 106.213 155.637 106.684 152.879 107.132C145.644 108.315 138.336 109.379 131.453 111.985C128.143 113.24 125.025 114.847 122.147 116.894C121.363 117.518 120.588 118.149 119.804 118.781C119.092 119.476 118.381 120.172 117.669 120.875C117.366 121.251 117.054 121.627 116.75 122.011C115.823 123.05 115.023 124.185 114.343 125.409C113.008 127.823 112.033 130.381 111.481 133.084C110.866 136.09 110.714 139.208 111.01 142.262C111.209 144.364 111.561 146.443 112.033 148.506C112.585 150.904 113.296 153.279 113.576 155.725C114.28 161.761 112.345 167.83 109.011 172.826C105.613 177.927 100.832 182.085 95.5874 185.219C90.1109 188.488 84.1307 190.631 77.9746 192.238C65.6624 195.436 52.9744 197.043 40.8541 200.993C36.321 202.472 31.7479 204.055 27.5586 206.357C24.4006 208.092 21.4025 210.075 18.5083 212.225C15.0066 214.824 11.7126 217.758 8.61861 220.836C5.40466 224.034 2.35059 227.472 -0.295726 231.165C-2.60626 234.403 -4.69293 237.793 -6.37986 241.399C-7.14738 243.03 -7.83494 244.813 -8.33862 246.564C-8.92225 248.578 -9.25804 250.649 -9.52187 252.728C-9.58583 252.552 -9.64179 252.376 -9.69776 252.192C-8.93024 253.279 -8.15474 254.367 -7.38722 255.454C-7.29928 255.662 -7.37123 255.782 -7.59509 255.806C-8.03481 255.758 -8.43456 255.606 -8.80232 255.342C-9.52187 254.958 -10.2254 254.551 -10.913 254.111C-11.3127 253.911 -11.6405 253.639 -11.9044 253.279Z" fill="#9A7FCD"/>
</g>
</g>
</g>
</g>
<mask id="mask33_156_7289" style="mask-type:luminance" maskUnits="userSpaceOnUse" x="0" y="0" width="252" height="252">
<path d="M0 0.503662H251.992V252H0V0.503662Z" fill="white"/>
</mask>
<g mask="url(#mask33_156_7289)">
<mask id="mask34_156_7289" style="mask-type:luminance" maskUnits="userSpaceOnUse" x="-414" y="-1732" width="877" height="2483">
<path d="M462.399 -1731.89H-413.288V750.432H462.399V-1731.89Z" fill="black" fill-opacity="0.109"/>
</mask>
<g mask="url(#mask34_156_7289)">
<mask id="mask35_156_7289" style="mask-type:luminance" maskUnits="userSpaceOnUse" x="-2" y="0" width="255" height="255">
<path d="M252.64 0.223877H-1.15125V254.015H252.64V0.223877Z" fill="white"/>
</mask>
<g mask="url(#mask35_156_7289)">
<mask id="mask36_156_7289" style="mask-type:luminance" maskUnits="userSpaceOnUse" x="0" y="1" width="252" height="251">
<path d="M0 1.8468H251.992V252H0V1.8468Z" fill="white"/>
</mask>
<g mask="url(#mask36_156_7289)">
<path d="M-10.0656 250.785C-9.81771 248.69 -9.64982 246.627 -9.08218 244.581C-8.37862 242.054 -7.25933 239.52 -6.01212 237.217C-3.43776 232.444 -0.271769 228.047 3.246 223.938C6.77975 219.804 10.6493 215.991 14.7827 212.473C18.932 208.939 23.4492 205.677 28.2781 203.143C30.4687 202 32.6993 201.016 35.0098 200.145C36.4809 199.593 37.944 199.05 39.415 198.498C41.6136 197.746 43.8362 197.067 46.0828 196.467C54.1257 194.237 62.3285 192.726 70.4673 190.927C74.6726 189.991 78.886 188.968 82.9954 187.673C85.9535 186.737 88.8876 185.682 91.6778 184.299C93.9404 183.18 96.163 181.957 98.2417 180.517C100.272 179.11 102.151 177.559 103.998 175.92C103.878 176.032 103.766 176.144 103.646 176.264C104.326 175.585 105.005 174.897 105.685 174.217C105.573 174.337 105.461 174.457 105.349 174.577C105.981 173.866 106.62 173.154 107.252 172.443C107.14 172.562 107.036 172.69 106.924 172.81C107.924 171.627 108.827 170.372 109.642 169.061C110.442 167.774 111.137 166.438 111.721 165.039C112.297 163.672 112.752 162.257 113.072 160.802C113.4 159.347 113.592 157.876 113.648 156.381C113.648 156.828 113.648 157.268 113.648 157.716C113.64 156.517 113.64 155.317 113.632 154.118C113.664 154.566 113.688 155.006 113.72 155.445C113.592 154.406 113.464 153.367 113.336 152.327C113.392 152.767 113.448 153.207 113.512 153.639C113.328 152.599 113.152 151.56 112.976 150.52C113.056 150.96 113.144 151.392 113.224 151.816C112.305 147.45 111.153 143.069 110.834 138.6C110.546 134.603 110.834 130.677 112.169 126.879C113.024 124.465 114.208 122.298 115.751 120.268C117.174 118.397 118.813 116.774 120.619 115.287C122.81 113.48 125.432 111.985 127.991 110.77C130.605 109.531 133.387 108.507 136.162 107.708C141.07 106.285 146.083 105.325 151.112 104.43C155.517 103.646 159.923 102.887 164.248 101.719C170.916 99.9126 177.232 96.7226 182.764 92.5893C185.41 90.6065 187.969 88.4879 190.319 86.1454C192.67 83.8188 194.82 81.3484 196.915 78.79C196.819 78.9259 196.715 79.0539 196.619 79.1818C197.379 78.1824 198.138 77.175 198.898 76.1677C198.802 76.3036 198.714 76.4315 198.618 76.5674C199.337 75.5361 200.049 74.4967 200.769 73.4574C200.681 73.6013 200.593 73.7372 200.497 73.8731C201.176 72.8098 201.848 71.7465 202.527 70.6832C202.44 70.8191 202.36 70.963 202.272 71.0989C202.903 70.0116 203.535 68.9243 204.166 67.829C204.086 67.9729 204.007 68.1168 203.927 68.2607C204.518 67.1494 205.102 66.0381 205.685 64.9188C205.614 65.0627 205.542 65.2066 205.47 65.3585C206.005 64.2233 206.549 63.08 207.085 61.9447C207.021 62.0966 206.949 62.2405 206.885 62.3924C207.372 61.2332 207.868 60.0819 208.356 58.9226C208.292 59.0745 208.236 59.2184 208.172 59.3703C208.612 58.2031 209.051 57.0198 209.499 55.8446C209.443 55.9965 209.387 56.1564 209.331 56.3083C209.723 55.1171 210.115 53.9178 210.506 52.7266C210.458 52.8865 210.41 53.0384 210.354 53.1903C210.698 51.983 211.034 50.7758 211.378 49.5686C211.33 49.7285 211.29 49.8884 211.242 50.0403C211.746 47.9136 212.225 45.795 212.593 43.6363C212.897 42.2132 213.065 40.7742 213.089 39.3271C213.113 38.6075 213.145 37.88 213.177 37.1604C213.353 33.5707 213.616 29.957 214.416 26.4473C215.279 22.6896 216.742 19.1239 218.893 15.9259C219.381 15.1184 219.94 14.3669 220.58 13.6714C221.132 12.9118 221.763 12.2323 222.475 11.6247C224.146 10.0257 226.001 8.5866 228.023 7.45132C235.395 3.28596 243.989 1.63901 252.392 2.46248C256.821 2.90221 261.21 4.02149 265.248 5.9083C267.51 6.96363 269.629 8.2668 271.62 9.76984C272.451 10.3455 273.227 10.9851 273.946 11.7046C275.105 12.696 276.177 13.7913 277.144 14.9905C276.736 15.4382 276.217 15.7261 275.593 15.846C273.538 16.5735 271.468 17.2531 269.381 17.9007C267.302 18.5643 265.216 19.1879 263.113 19.7795C262.537 20.0353 261.946 20.0993 261.354 19.9634C260.227 19.3078 259.148 18.6522 257.924 18.1565C257.021 17.7967 256.109 17.4929 255.174 17.2291C252.951 16.6135 250.697 16.3177 248.394 16.2777C246.084 16.2377 243.733 16.5575 241.495 17.1172C238.649 17.8207 235.81 18.948 233.38 20.603C231.541 21.8422 229.894 23.2733 228.479 24.9922C227.04 26.7431 225.817 28.7738 224.841 30.8205C222.315 36.1611 221.164 41.9974 219.892 47.7297C219.277 50.512 218.645 53.3022 217.846 56.0445C216.67 60.1059 215.135 64.0474 213.353 67.877C209.507 76.0957 204.39 83.603 198.298 90.3267C192.638 96.5867 185.978 101.943 178.815 106.389C176.776 107.652 174.641 108.827 172.491 109.914C170.348 111.002 168.125 112.041 165.887 112.912C164.152 113.584 162.417 114.192 160.634 114.719C158.076 115.479 155.461 116.03 152.887 116.742C147.906 118.109 142.869 119.388 138.064 121.315C133.443 123.17 128.982 125.672 125.728 129.518C124.345 131.149 123.194 132.972 122.314 134.922C121.379 136.985 120.803 139.168 120.42 141.398C119.524 146.587 119.628 151.896 119.276 157.14C119.076 160.09 118.749 163.112 117.989 165.975C117.39 168.269 116.582 170.5 115.623 172.666C114.911 174.257 114.008 175.84 113.064 177.311C112.121 178.767 111.058 180.222 109.93 181.533C107.628 184.219 105.053 186.666 102.255 188.84C97.2423 192.742 91.5899 195.812 85.7296 198.25C82.6036 199.553 79.4216 200.729 76.1917 201.768C70.8591 203.479 65.4545 204.918 60.0579 206.389C54.0777 208.02 48.0895 209.675 42.2772 211.81C40.3185 212.521 38.3757 213.273 36.4489 214.048C35.0978 214.56 33.7626 215.119 32.4515 215.719C31.1483 216.151 29.957 216.79 28.8777 217.622C24.0168 220.988 19.5716 224.969 15.6061 229.358C11.2569 234.171 7.42734 239.52 4.59714 245.372C3.22201 248.258 2.10272 251.392 1.72696 254.566C1.61503 255.47 1.56706 256.373 1.60704 257.285C1.671 258.068 1.79092 258.844 1.99079 259.603C2.18267 260.299 2.26262 261.002 2.23864 261.73C1.64701 261.61 1.13534 261.314 0.719601 260.842C-0.951338 259.459 -2.5903 258.036 -4.20527 256.589C-5.83624 255.158 -7.43522 253.687 -9.01022 252.192C-9.5219 251.824 -9.88167 251.36 -10.0656 250.785Z" fill="#9A7FCD"/>
</g>
</g>
</g>
</g>
<mask id="mask37_156_7289" style="mask-type:luminance" maskUnits="userSpaceOnUse" x="0" y="2" width="252" height="250">
<path d="M0 2.27063H251.992V252H0V2.27063Z" fill="white"/>
</mask>
<g mask="url(#mask37_156_7289)">
<mask id="mask38_156_7289" style="mask-type:luminance" maskUnits="userSpaceOnUse" x="-414" y="-1732" width="877" height="2483">
<path d="M462.399 -1731.89H-413.288V750.432H462.399V-1731.89Z" fill="black" fill-opacity="0.109"/>
</mask>
<g mask="url(#mask38_156_7289)">
<mask id="mask39_156_7289" style="mask-type:luminance" maskUnits="userSpaceOnUse" x="-2" y="2" width="255" height="253">
<path d="M252.64 2.27063H-1.15125V254.015H252.64V2.27063Z" fill="white"/>
</mask>
<g mask="url(#mask39_156_7289)">
<mask id="mask40_156_7289" style="mask-type:luminance" maskUnits="userSpaceOnUse" x="0" y="2" width="252" height="251">
<path d="M0 2.33472H251.992V252H0V2.33472Z" fill="white"/>
</mask>
<g mask="url(#mask40_156_7289)">
<path d="M-11.7525 251.952C-11.9764 250.617 -11.8884 249.298 -11.4967 248.003C-11.2248 246.372 -10.7691 244.789 -10.1535 243.254C-9.09819 240.615 -7.80301 238.097 -6.33194 235.675C-2.67826 229.646 1.9428 224.122 6.97161 219.197C11.145 215.12 15.6061 211.37 20.4031 208.052C23.2972 206.045 26.3593 204.199 29.5573 202.727C32.4994 201.368 35.5774 200.249 38.6475 199.218C48.1455 196.02 58.0192 194.245 67.797 192.182C75.664 190.519 83.6829 188.752 90.9583 185.235C96.115 182.74 100.976 179.39 104.869 175.169C106.428 173.474 107.868 171.595 109.043 169.604C109.81 168.309 110.466 166.966 111.018 165.559C111.553 164.176 111.969 162.753 112.249 161.298C112.217 161.506 112.177 161.706 112.145 161.913C112.289 160.978 112.425 160.035 112.569 159.099C112.545 159.307 112.529 159.515 112.505 159.723C112.569 158.771 112.617 157.812 112.672 156.861C112.672 157.068 112.664 157.284 112.664 157.492C112.633 156.525 112.609 155.557 112.577 154.59C112.585 154.806 112.601 155.014 112.609 155.23C112.249 153.175 111.793 151.216 111.273 149.193C111.337 149.401 111.393 149.617 111.449 149.825C110.154 145.132 108.763 140.279 109.083 135.354C109.227 133.156 109.467 131.037 110.106 128.91C111.09 125.656 112.768 122.666 114.967 120.076C120.1 114.008 127.591 110.49 135.09 108.315C142.206 106.245 149.585 105.301 156.876 104.03C156.78 104.046 156.685 104.07 156.597 104.086C160.13 103.407 163.672 102.687 167.086 101.528C171.411 100.065 175.505 97.938 179.31 95.4196C186.618 90.5827 192.894 84.2107 197.954 77.0792C202.368 70.8752 205.893 64.0155 208.324 56.7961C209.707 52.6787 210.73 48.4494 211.362 44.1482C211.698 42.3813 211.842 40.5984 211.81 38.8075C211.834 37.3365 211.882 35.8734 211.969 34.4103C212.345 28.646 213.616 22.9056 216.646 17.9168C218.086 15.5423 219.916 13.3357 222.011 11.5129C224.961 8.9545 228.423 7.01973 232.053 5.62062C239.704 2.66249 248.29 2.04689 256.309 3.73381C260.315 4.57328 264.208 6.00437 267.766 8.02709C269.573 9.05843 271.276 10.2257 272.875 11.5449C274.522 12.896 276.025 14.3831 277.392 16.014C277.24 16.3018 276.976 16.4457 276.616 16.4537C275.601 16.6536 274.586 16.8135 273.554 16.9254C272.531 17.0614 271.5 17.1573 270.468 17.2053C270.117 17.2772 269.829 17.1973 269.605 16.9654C268.342 15.7902 266.975 14.7348 265.519 13.8074C264.448 13.1119 263.329 12.5042 262.154 12.0006C259.819 10.9133 257.413 10.1298 254.894 9.61808C249.378 8.50678 243.605 8.72265 238.193 10.2976C233.372 11.6968 228.911 14.1912 225.345 17.7409C223.69 19.3959 222.355 21.3786 221.156 23.3773C219.485 26.1676 218.485 29.2296 217.59 32.3317C217.614 32.2357 217.638 32.1318 217.662 32.0358C216.942 35.0739 216.391 38.104 215.967 41.198C215.655 43.4286 215.383 45.6672 214.992 47.8898C214.2 52.335 212.817 56.7402 211.186 60.9455C209.955 64.1275 208.508 67.2135 206.909 70.2196C203.167 77.2791 198.29 83.699 192.726 89.4074C186.721 95.5875 179.622 100.784 171.867 104.55C170.292 105.349 168.677 106.061 167.022 106.684C164.632 107.588 162.177 108.291 159.675 108.787C157.036 109.427 154.39 110.01 151.736 110.554C145.819 111.761 139.863 112.944 134.211 115.127C128.75 117.23 123.729 120.3 120.084 124.945C118.421 127.064 117.086 129.366 116.174 131.908C115.215 134.563 114.815 137.281 114.551 140.071C114.559 139.967 114.567 139.863 114.575 139.767C114.479 141.798 114.431 143.805 114.535 145.844C114.599 147.179 114.703 148.514 114.807 149.857C115.095 153.471 115.519 157.092 115.127 160.714C114.224 169.197 109.427 176.736 103.047 182.228C99.7847 185.035 96.2109 187.457 92.4054 189.464C88.0561 191.75 83.4431 193.469 78.75 194.916C71.0989 197.283 63.2079 198.842 55.4368 200.753C51.8871 201.624 48.3293 202.528 44.8356 203.631C40.4304 205.022 36.1051 206.613 31.7799 208.252C31.8678 208.212 31.9557 208.164 32.0437 208.124C29.989 209.187 27.9903 210.299 26.0475 211.546C23.9768 212.873 22.0101 214.352 20.0913 215.871C15.5182 219.493 11.3368 223.658 7.58722 228.119C4.03747 232.357 0.855494 236.914 -1.57496 241.887C-2.67826 244.157 -3.60568 246.476 -4.22128 248.938C-4.5171 249.985 -4.70897 251.057 -4.78093 252.152C-4.81291 253.247 -4.77293 254.335 -4.66101 255.422C-4.67699 255.318 -4.70098 255.222 -4.72496 255.118C-4.53309 255.702 -4.34121 256.293 -4.14933 256.885C-4.11735 256.981 -4.09337 257.085 -4.06139 257.189C-4.16532 257.197 -4.26925 257.213 -4.38118 257.221C-4.60504 257.125 -4.83689 257.029 -5.06874 256.925C-5.81227 256.493 -6.53981 256.03 -7.25936 255.534C-8.37065 254.798 -9.47395 254.047 -10.5373 253.247C-10.889 252.984 -11.7285 252.496 -11.7525 251.952Z" fill="#9A7FCD"/>
</g>
</g>
</g>
<mask id="mask41_156_7289" style="mask-type:luminance" maskUnits="userSpaceOnUse" x="-414" y="-1732" width="877" height="2483">
<path d="M462.399 -1731.89H-413.288V750.432H462.399V-1731.89Z" fill="black" fill-opacity="0.109"/>
</mask>
<g mask="url(#mask41_156_7289)">
<mask id="mask42_156_7289" style="mask-type:luminance" maskUnits="userSpaceOnUse" x="-2" y="2" width="255" height="253">
<path d="M252.64 2.27063H-1.15125V254.015H252.64V2.27063Z" fill="white"/>
</mask>
<g mask="url(#mask42_156_7289)">
<mask id="mask43_156_7289" style="mask-type:luminance" maskUnits="userSpaceOnUse" x="0" y="2" width="252" height="251">
<path d="M0 2.33472H251.992V252H0V2.33472Z" fill="white"/>
</mask>
<g mask="url(#mask43_156_7289)">
<path d="M-11.8884 253.175C-12.2801 252.312 -12.6719 251.456 -13.0636 250.593C-13.0956 250.521 -13.1276 250.441 -13.1595 250.369C-13.1515 250.329 -13.1356 250.297 -13.1276 250.265C-12.9757 249.626 -12.7838 248.994 -12.5599 248.37C-12.4 247.875 -12.2161 247.451 -12.0163 246.939C-11.3447 245.188 -10.7691 243.422 -10.0095 241.719C-8.59444 238.577 -6.71564 235.682 -4.78086 232.852C-3.3098 230.71 -1.66284 228.663 0.0160904 226.68C4.95695 220.844 10.5614 215.471 16.7015 210.898C19.3718 208.908 22.1221 207.037 25.0082 205.366C26.5672 204.454 28.1502 203.615 29.7812 202.847C31.732 201.92 33.7067 201.184 35.7374 200.473C38.7435 199.418 41.7016 198.338 44.7717 197.491C47.0582 196.859 49.3688 196.299 51.6793 195.764C56.9639 194.549 62.2966 193.557 67.6212 192.494C70.5313 191.91 73.4575 191.311 76.3516 190.631C79.1179 189.976 81.9561 189.304 84.6424 188.393C86.0415 187.841 87.4326 187.289 88.8317 186.738C91.0783 186.042 93.2129 185.091 95.2276 183.891C96.6507 183.06 98.0419 182.164 99.385 181.213C104.118 177.855 108.283 173.394 110.778 168.133C110.938 167.798 111.098 167.462 111.249 167.126C112.585 164.296 112.8 161.282 111.897 158.068C111.857 155.733 111.817 153.407 111.769 151.072C111.529 150.361 111.281 149.657 111.042 148.946C110.098 146.195 109.259 143.437 108.835 140.551C108.475 138.112 108.411 135.69 108.683 133.244C108.851 131.748 109.227 130.253 109.674 128.822C109.97 128.063 110.258 127.303 110.554 126.552C110.938 125.784 111.329 125.017 111.721 124.257C112.529 122.93 113.248 121.899 114.2 120.739C115.047 119.708 115.295 119.436 116.27 118.477C118.109 116.662 120.148 115.087 122.354 113.736C127.223 110.762 132.732 108.907 138.248 107.58C145.516 105.845 152.959 105.101 160.29 103.742C161.474 103.518 162.649 103.287 163.816 103.023C164.552 102.839 165.279 102.655 166.007 102.471C169.165 101.2 172.323 99.9287 175.473 98.6575C179.35 96.6108 183.036 94.0604 186.33 91.1742C192.806 85.4978 198.354 78.6862 202.504 71.131C206.133 64.5192 208.82 57.5076 210.443 50.1363C210.898 48.0656 211.234 45.923 211.482 43.8043C211.538 43.2767 211.586 42.741 211.634 42.2053C211.81 40.9741 211.85 39.7349 211.77 38.4957C211.73 35.4496 211.786 32.4116 212.257 29.3975C212.841 25.6638 214.048 22.0821 215.935 18.7962C216.639 17.573 217.422 16.3977 218.286 15.2704C219.549 13.6155 220.116 13.1358 221.436 11.9446C224.857 8.86651 229.007 6.63592 233.356 5.14088C235.914 4.26143 238.545 3.65382 241.223 3.24608C243.374 2.92628 245.516 2.75839 247.691 2.7344C250.385 2.71841 253.103 2.87032 255.75 3.35001C260.003 4.11752 264.088 5.4207 267.966 7.33148C269.805 8.24291 271.62 9.41816 273.275 10.6574C274.098 11.3369 274.922 12.0085 275.745 12.6801C277.36 14.1272 278.831 15.7022 280.174 17.4051C280.63 17.9407 279.511 18.0447 279.287 18.0767C278.695 18.1406 278.104 18.1806 277.504 18.1806C277.168 18.2286 276.856 18.1806 276.569 18.0207C275.657 16.9574 274.77 15.918 273.77 14.9347C272.779 13.9593 271.74 13.0479 270.644 12.1844C268.03 10.1297 265.048 8.62666 261.946 7.48339C255.326 5.05293 248.147 4.41334 241.191 5.50864C240.695 5.58859 240.192 5.66854 239.688 5.74849C233.684 8.81854 227.68 11.8886 221.675 14.9586C220.692 16.014 219.813 17.1572 219.005 18.3405C217.278 20.8669 215.951 23.6171 215.048 26.5353C214.352 28.7979 213.904 31.1484 213.632 33.4909C213.377 35.6335 213.345 37.7841 213.289 39.9348C213.233 41.7576 213.081 43.5645 212.825 45.3713C210.738 60.05 204.087 74.0171 194.365 85.1701C186.074 94.676 175.201 102.503 162.761 105.341C157.868 106.461 152.879 107.116 147.938 107.924C144.7 108.459 141.47 109.051 138.28 109.834C136.865 110.178 135.45 110.554 134.051 110.994C133.124 111.305 132.188 111.633 131.253 111.945C125.377 116.606 119.492 121.267 113.608 125.928C111.289 130.253 110.362 135.09 110.626 139.975C110.858 144.301 112.049 148.498 113.272 152.639C113.768 154.334 114.064 155.941 114.104 157.716C114.12 158.603 114.096 159.507 114.032 160.394C113.696 164.967 111.897 169.397 109.339 173.17C106.373 177.551 102.351 181.165 97.9619 184.067C95.8353 185.482 93.6127 186.714 91.3101 187.793C88.1601 189.272 84.8582 190.367 81.5243 191.335C70.8111 194.437 59.7222 195.956 48.921 198.674C46.6745 199.242 44.4519 199.873 42.2453 200.569C39.6389 201.392 37.0726 202.328 34.5062 203.255C31.3162 204.406 28.2941 205.933 25.384 207.668C19.2679 211.314 13.6714 215.823 8.59465 220.796C5.74046 223.594 3.00619 226.56 0.55175 229.718C0.247944 230.11 -0.0558634 230.51 -0.35967 230.91C-2.48632 233.556 -4.10929 236.522 -5.22058 239.808C-6.89153 242.686 -8.37858 245.652 -9.70574 248.698C-10.1215 249.634 -10.5372 250.569 -10.937 251.512C-10.9529 251.361 -10.9689 251.217 -10.9769 251.073C-10.2334 252.184 -9.48188 253.287 -8.73036 254.399C-8.64241 254.535 -8.45853 254.726 -8.56246 254.91C-8.73036 255.19 -9.17807 254.958 -9.37794 254.87C-9.88163 254.646 -10.3533 254.367 -10.817 254.071C-11.1848 253.839 -11.7045 253.583 -11.8884 253.175Z" fill="#9A7FCD"/>
</g>
</g>
</g>
</g>
<mask id="mask44_156_7289" style="mask-type:luminance" maskUnits="userSpaceOnUse" x="0" y="0" width="252" height="252">
<path d="M0 0.503662H251.992V252H0V0.503662Z" fill="white"/>
</mask>
<g mask="url(#mask44_156_7289)">
<mask id="mask45_156_7289" style="mask-type:luminance" maskUnits="userSpaceOnUse" x="-414" y="-1732" width="877" height="2483">
<path d="M462.399 -1731.89H-413.288V750.432H462.399V-1731.89Z" fill="black" fill-opacity="0.109"/>
</mask>
<g mask="url(#mask45_156_7289)">
<mask id="mask46_156_7289" style="mask-type:luminance" maskUnits="userSpaceOnUse" x="-2" y="0" width="255" height="255">
<path d="M252.64 0.223877H-1.15125V254.015H252.64V0.223877Z" fill="white"/>
</mask>
<g mask="url(#mask46_156_7289)">
<mask id="mask47_156_7289" style="mask-type:luminance" maskUnits="userSpaceOnUse" x="0" y="0" width="252" height="252">
<path d="M0 0.863403H251.992V252H0V0.863403Z" fill="white"/>
</mask>
<g mask="url(#mask47_156_7289)">
<path d="M-11.153 249.562C-11.137 248.211 -11.017 246.875 -10.7852 245.54C-10.6013 244.765 -10.4174 243.989 -10.2335 243.206C-9.86577 241.942 -9.41805 240.719 -8.8664 239.528C-8.34674 238.233 -7.74712 236.978 -7.06755 235.762C-4.25333 230.542 -0.599654 225.689 3.37382 221.292C7.01951 217.262 10.945 213.505 15.1823 210.083C19.4196 206.669 23.9288 203.583 28.8057 201.16C30.6445 200.249 32.5313 199.489 34.4581 198.778C37.3602 197.627 40.3184 196.627 43.3325 195.772C44.8195 195.364 46.3146 194.956 47.8016 194.549C56.5401 192.262 65.4864 190.863 74.2648 188.736C80.8606 187.145 87.5204 185.266 93.4686 181.925C95.3074 180.893 97.0743 179.782 98.7772 178.551C99.7846 177.839 100.76 177.08 101.695 176.264C102.919 175.217 104.086 174.098 105.181 172.914C105.077 173.026 104.973 173.146 104.869 173.258C105.485 172.547 106.109 171.827 106.732 171.115C106.628 171.235 106.532 171.355 106.428 171.475C107.372 170.236 108.315 169.005 109.115 167.678C110.09 166.055 110.89 164.344 111.521 162.553C112.017 161.138 112.377 159.715 112.616 158.228C112.768 157.492 112.848 156.749 112.864 156.005C112.968 154.878 112.976 153.742 112.872 152.607C112.912 153.031 112.952 153.455 113 153.886C112.84 152.863 112.688 151.84 112.537 150.816C112.6 151.232 112.672 151.656 112.736 152.08C112.537 151.056 112.329 150.033 112.129 149.001C112.217 149.417 112.313 149.833 112.401 150.249C111.793 147.674 111.129 145.1 110.602 142.51C110.25 140.807 110.01 139.104 109.818 137.369C109.339 132.964 109.818 128.407 111.529 124.297C113.648 119.204 117.549 115.087 122.13 112.105C127.463 108.643 133.619 106.668 139.767 105.253C145.444 103.95 151.216 103.175 156.924 102.071C159.227 101.632 161.521 101.176 163.776 100.528C167.206 99.5529 170.524 98.3137 173.706 96.6907C179.678 93.6366 185.018 89.5113 189.807 84.8342C192.166 82.5317 194.317 80.0133 196.355 77.4229C199.09 73.9611 201.368 70.2275 203.543 66.3979C203.463 66.5339 203.399 66.6778 203.319 66.8137C203.895 65.7024 204.462 64.5831 205.038 63.4718C204.974 63.6157 204.902 63.7516 204.838 63.8955C205.366 62.7602 205.885 61.625 206.413 60.4817C206.349 60.6336 206.285 60.7775 206.229 60.9214C206.701 59.7621 207.18 58.6029 207.66 57.4516C207.604 57.5955 207.548 57.7474 207.492 57.8913C207.916 56.7161 208.348 55.5408 208.779 54.3656C208.723 54.5175 208.675 54.6614 208.628 54.8133C209.003 53.622 209.379 52.4308 209.755 51.2396C209.715 51.3915 209.667 51.5434 209.627 51.6953C209.947 50.488 210.274 49.2808 210.602 48.0736C210.562 48.2255 210.522 48.3774 210.482 48.5293C210.754 47.314 211.026 46.0988 211.298 44.8756C211.266 45.0355 211.234 45.1874 211.202 45.3393C211.578 43.1967 212.009 41.046 212.193 38.8794C212.217 37.8001 212.249 36.7208 212.297 35.6415C212.321 34.826 212.353 34.0105 212.417 33.195C212.601 30.013 212.961 26.863 213.768 23.777C214.76 20.0034 216.399 16.3897 218.757 13.2717C221.347 9.84983 224.777 7.23549 228.575 5.29273C236.138 1.43118 245.02 0.18397 253.391 1.43118C257.333 2.01481 261.162 3.20605 264.768 4.87699C267.022 5.92432 269.141 7.29945 271.108 8.81849C271.931 9.40212 272.707 10.0497 273.418 10.7693C274.578 11.7766 275.633 12.8879 276.592 14.0871C276.289 14.5189 275.865 14.7987 275.321 14.9266C273.586 15.6462 271.843 16.3257 270.084 16.9653C268.326 17.6209 266.567 18.2365 264.784 18.8201C264.28 19.068 263.776 19.1319 263.265 19.004C262.082 18.2445 260.946 17.493 259.651 16.9173C258.708 16.4856 257.74 16.1179 256.749 15.7981C254.414 15.0465 252.024 14.6468 249.585 14.5029C247.131 14.359 244.629 14.6068 242.222 15.0945C239.168 15.7181 236.098 16.7974 233.436 18.4284C231.429 19.6596 229.598 21.0987 228.023 22.8496C226.448 24.6005 225.097 26.6552 224.042 28.7658C221.395 34.0665 220.228 39.8948 219.061 45.6591C218.501 48.4173 217.95 51.1836 217.23 53.9019C216.167 57.9393 214.72 61.8728 213.033 65.6784C209.403 73.8812 204.486 81.3884 198.594 88.1441C193.117 94.4281 186.625 99.8407 179.614 104.342C177.615 105.621 175.521 106.82 173.41 107.916C171.291 109.027 169.101 110.074 166.886 110.962C165.175 111.649 163.456 112.273 161.681 112.816C159.115 113.6 156.493 114.152 153.902 114.847C148.785 116.206 143.621 117.43 138.64 119.244C133.699 121.051 128.878 123.49 125.232 127.375C123.689 129.014 122.378 130.885 121.371 132.908C120.332 134.986 119.668 137.217 119.244 139.496C118.269 144.644 118.429 149.905 118.269 155.118C118.181 158.004 118.005 160.962 117.421 163.8C116.95 166.071 116.278 168.285 115.431 170.444C114.807 172.035 113.992 173.618 113.12 175.089C112.249 176.56 111.265 178.023 110.202 179.342C108.019 182.061 105.565 184.531 102.863 186.738C98.0017 190.703 92.4613 193.837 86.6969 196.307C83.5949 197.635 80.4289 198.818 77.2149 199.849C71.8663 201.568 66.4218 202.999 60.9932 204.43C54.9251 206.029 48.841 207.644 42.9247 209.739C40.926 210.442 38.9432 211.186 36.9765 211.954C35.5934 212.465 34.2262 213.017 32.8751 213.616C31.5399 214.048 30.3087 214.672 29.1734 215.495C24.1127 218.805 19.4996 222.795 15.3502 227.192C10.7851 232.061 6.73969 237.457 3.64565 243.382C2.11063 246.332 0.831437 249.546 0.287783 252.84C0.135879 253.775 0.0319443 254.718 0.0399389 255.67C0.0559301 256.485 0.159864 257.285 0.335752 258.076C0.503646 258.82 0.615574 259.579 0.679533 260.339C0.103899 260.227 -0.391786 259.939 -0.791533 259.467C-2.40651 258.1 -3.98151 256.709 -5.53252 255.278C-7.09953 253.863 -8.63455 252.424 -10.1456 250.953C-10.6493 250.593 -10.9851 250.129 -11.153 249.562Z" fill="#9A7FCD"/>
</g>
</g>
</g>
</g>
<mask id="mask48_156_7289" style="mask-type:luminance" maskUnits="userSpaceOnUse" x="0" y="14" width="252" height="239">
<path d="M0.895508 14.5509H251.992V252H0.895508V14.5509Z" fill="white"/>
</mask>
<g mask="url(#mask48_156_7289)">
<path d="M252.496 252.496V16.6455C251.153 16.4217 249.801 16.3097 248.434 16.2858C246.116 16.2378 243.773 16.5656 241.527 17.1252C239.4 17.6529 237.273 18.4204 235.315 19.4677C235.139 19.5637 234.963 19.6596 234.787 19.7556C234.307 20.0354 233.844 20.3312 233.388 20.643C231.565 21.8982 229.918 23.3373 228.511 25.0562C227.08 26.8071 225.857 28.8218 224.889 30.8685C222.355 36.2011 221.204 42.0374 219.932 47.7618C219.773 48.4573 219.621 49.1449 219.461 49.8325C219.301 50.528 219.141 51.2316 218.973 51.9271C218.733 52.9105 218.485 53.8939 218.222 54.8693C218.11 55.261 217.998 55.6608 217.886 56.0525C217.662 56.82 217.43 57.5795 217.182 58.3311C216.119 61.593 214.84 64.783 213.385 67.885C209.547 76.1118 204.422 83.619 198.338 90.3427C192.67 96.6028 186.01 101.951 178.855 106.405C176.816 107.668 174.681 108.843 172.531 109.922C170.38 111.01 168.157 112.049 165.919 112.92C164.192 113.6 162.457 114.208 160.674 114.735C158.108 115.495 155.501 116.038 152.927 116.75C147.946 118.125 142.909 119.404 138.104 121.331C136.369 122.027 134.659 122.81 133.028 123.73C132.956 123.762 132.892 123.802 132.82 123.841C130.181 125.369 127.751 127.239 125.768 129.606C124.401 131.237 123.25 133.06 122.37 134.994C121.443 137.057 120.867 139.24 120.476 141.462C119.58 146.651 119.668 151.952 119.308 157.188C119.3 157.356 119.284 157.532 119.268 157.708C119.268 157.724 119.268 157.748 119.268 157.764C119.228 158.252 119.196 158.747 119.14 159.235C119.052 160.25 118.933 161.266 118.781 162.273C118.589 163.528 118.349 164.768 118.029 165.983C117.422 168.277 116.622 170.516 115.655 172.682C114.951 174.273 114.048 175.856 113.096 177.32C112.161 178.783 111.098 180.23 109.97 181.549C107.66 184.235 105.093 186.682 102.295 188.856C97.2743 192.758 91.6219 195.82 85.7696 198.266C82.6436 199.569 79.4536 200.745 76.2317 201.784C70.899 203.487 65.4945 204.934 60.0899 206.405C54.1177 208.028 48.1295 209.691 42.3092 211.818C40.3584 212.537 38.4157 213.289 36.4889 214.064C35.1378 214.576 33.8026 215.136 32.4914 215.735C31.1883 216.167 29.997 216.806 28.9177 217.646C24.9602 220.372 21.2905 223.514 17.9247 226.952C17.6129 227.272 17.3011 227.592 16.9973 227.919C16.5336 228.407 16.0779 228.903 15.6221 229.406C11.2889 234.235 7.48331 239.592 4.6771 245.452C3.61377 247.683 2.71035 250.065 2.19067 252.496H252.496Z" fill="#C8B3EE"/>
</g>
</g>
</g>
</svg>
