<svg width="154" height="227" viewBox="0 0 154 227" fill="none" xmlns="http://www.w3.org/2000/svg">
<mask id="mask0_156_13888" style="mask-type:luminance" maskUnits="userSpaceOnUse" x="-10" y="67" width="131" height="147">
<path d="M-9.29932 67.9059H120.692V213.419H-9.29932V67.9059Z" fill="white"/>
</mask>
<g mask="url(#mask0_156_13888)">
<mask id="mask1_156_13888" style="mask-type:luminance" maskUnits="userSpaceOnUse" x="-45" y="-34" width="217" height="277">
<path d="M33.3389 -33.5438L171.675 13.8161L93.3705 242.559L-44.9728 195.192L33.3389 -33.5438Z" fill="white"/>
</mask>
<g mask="url(#mask1_156_13888)">
<mask id="mask2_156_13888" style="mask-type:luminance" maskUnits="userSpaceOnUse" x="-45" y="-34" width="217" height="277">
<path d="M33.3389 -33.5438L171.675 13.8161L93.3705 242.559L-44.9728 195.192L33.3389 -33.5438Z" fill="white"/>
</mask>
<g mask="url(#mask2_156_13888)">
<mask id="mask3_156_13888" style="mask-type:luminance" maskUnits="userSpaceOnUse" x="-45" y="-34" width="217" height="277">
<path d="M33.3389 -33.5438L171.675 13.8161L93.3705 242.559L-44.9728 195.192L33.3389 -33.5438Z" fill="white"/>
</mask>
<g mask="url(#mask3_156_13888)">
<path d="M40.0083 213.032C39.1519 213.154 38.2803 213.161 37.4618 213.335L33.9983 212.153L29.542 210.622L25.078 209.099L20.6141 207.568L16.1578 206.045L11.6939 204.514L7.22999 202.99L8.76849 198.511L4.2591 196.965L-0.197225 195.434L-4.66113 193.911L-3.13022 189.432L-7.58655 187.901L-6.05563 183.422L-4.51714 178.943L-2.98622 174.456L-1.4553 169.977L-5.91163 168.454L-4.38072 163.967L-2.84222 159.488L-1.31131 155.009L0.227187 150.53L1.7581 146.043L3.28902 141.564L4.82751 137.085L6.35843 132.606L1.9021 131.075L3.43302 126.596L6.63885 125.55L4.96393 122.117L6.50243 117.63L8.03334 113.151L9.57184 108.672L11.1028 104.193L12.6412 99.7066L14.1722 95.2275L9.70826 93.7042L11.2468 89.2175L14.8315 87.9443L12.7777 84.7385L14.3162 80.2594L15.8471 75.7727L17.378 71.2937C17.6508 70.3691 18.3102 69.7703 19.2803 69.7476C32.6644 69.5809 46.4502 71.6423 58.0382 78.3723C63.6389 81.616 68.5424 85.8525 74.0219 89.3085C83.5863 95.3942 94.7271 98.9487 106.027 99.6535C107.975 99.7596 109.998 99.7899 111.825 100.563C114.629 101.73 117.024 105.868 120.018 106.482L116.766 108.695L113.947 116.926L107.884 127.362L105.754 128.832L104.564 132.303C104.564 132.303 97.8875 138.139 97.6298 142.754C97.3722 147.362 95.3107 159.329 95.3107 159.329L91.1348 161.731L88.0957 164.21C86.0419 166.066 83.9198 167.946 81.8659 169.795C81.0474 170.538 80.1759 171.311 79.6454 172.251C78.3039 174.706 79.1755 177.654 79.4938 180.428C80.0167 184.536 79.2209 188.81 77.2505 192.479C76.8791 193.115 76.4926 193.805 75.8029 194.176C74.992 194.616 74.037 194.441 73.1352 194.54C70.4674 194.752 68.353 196.791 66.7462 198.943C65.1471 201.103 63.7678 203.491 61.5775 204.991C58.0534 207.409 53.3394 206.924 49.3605 208.576C46.1698 209.728 43.4945 212.494 40.0083 213.032Z" fill="#E4B2FE"/>
</g>
</g>
</g>
</g>
<mask id="mask4_156_13888" style="mask-type:luminance" maskUnits="userSpaceOnUse" x="2" y="56" width="123" height="121">
<path d="M2.34167 56.265H124.572V176.556H2.34167V56.265Z" fill="white"/>
</mask>
<g mask="url(#mask4_156_13888)">
<mask id="mask5_156_13888" style="mask-type:luminance" maskUnits="userSpaceOnUse" x="-45" y="-34" width="217" height="277">
<path d="M33.3389 -33.5438L171.675 13.8161L93.3705 242.559L-44.9728 195.192L33.3389 -33.5438Z" fill="white"/>
</mask>
<g mask="url(#mask5_156_13888)">
<mask id="mask6_156_13888" style="mask-type:luminance" maskUnits="userSpaceOnUse" x="-45" y="-34" width="217" height="277">
<path d="M33.3389 -33.5438L171.675 13.8161L93.3705 242.559L-44.9728 195.192L33.3389 -33.5438Z" fill="white"/>
</mask>
<g mask="url(#mask6_156_13888)">
<mask id="mask7_156_13888" style="mask-type:luminance" maskUnits="userSpaceOnUse" x="-45" y="-34" width="217" height="277">
<path d="M33.3389 -33.5438L171.675 13.8161L93.3705 242.559L-44.9728 195.192L33.3389 -33.5438Z" fill="white"/>
</mask>
<g mask="url(#mask7_156_13888)">
<path d="M20.0381 107.202L24.502 108.725L22.9711 113.204L18.5072 111.681L20.0381 107.202ZM81.0095 133.076L85.4658 134.607L87.0043 130.12L82.5404 128.597L81.0095 133.076ZM11.2619 89.172L15.7182 90.7029L17.2567 86.2163L12.7928 84.693L11.2619 89.172ZM94.53 122.685L98.9939 124.216L100.525 119.737L96.0685 118.206L94.53 122.685ZM49.8758 107.399L54.3397 108.93L55.8706 104.443L51.4067 102.92L49.8758 107.399ZM118.653 95.902L120.192 91.4229L115.728 89.892L117.259 85.413L112.803 83.8896L108.339 82.3587L106.808 86.8378L102.344 85.3144L97.8799 83.7835L93.4235 82.2602L88.9596 80.7293L84.5033 79.2059L82.9648 83.685L78.5009 82.1617L74.0446 80.6307L69.5807 79.0998L65.1243 77.5765L60.6604 76.0456L62.1913 71.5665L57.735 70.0432L53.2711 68.5122L48.7693 66.9738L44.3054 65.4428L39.8415 63.9195L41.38 59.4329L36.9161 57.9095L32.4522 56.3786L30.9212 60.8577L26.4573 59.3343L24.9264 63.8134L20.4625 62.2901L18.9316 66.7691L17.3931 71.2482L21.857 72.7791L20.3261 77.2582L24.7824 78.7815L23.2515 83.2682L27.7154 84.7915L29.2463 80.3124L33.7102 81.8433L32.1717 86.3224L36.6357 87.8457L41.092 89.3767L45.5559 90.9L50.0198 92.4309L54.4761 93.9543L52.9452 98.4409L57.4015 99.9642L61.8654 101.495L66.3294 103.018L70.7857 104.549L75.2496 106.073L76.7805 101.594L81.2444 103.125L85.7083 104.648L90.1647 106.179L94.6286 107.702L99.0925 109.233L100.623 104.746L105.087 106.277L109.544 107.801L114.008 109.332L115.538 104.853L120.002 106.376L121.533 101.897L123.072 97.4178L118.653 95.902ZM6.07796 162.542L4.54704 167.021L9.00337 168.552L10.5419 164.073L6.07796 162.542ZM53.8016 168.871L52.2707 173.35L56.727 174.881L58.2655 170.394L53.8016 168.871ZM45.1769 135.827L43.646 140.314L48.1024 141.837L49.6409 137.358L45.1769 135.827ZM4.97904 122.072L3.44812 126.551L7.91203 128.074L9.44294 123.595L4.97904 122.072Z" fill="#EBCCFF"/>
</g>
</g>
</g>
</g>
<mask id="mask8_156_13888" style="mask-type:luminance" maskUnits="userSpaceOnUse" x="29" y="104" width="92" height="114">
<path d="M29.5042 104.769H120.692V217.299H29.5042V104.769Z" fill="white"/>
</mask>
<g mask="url(#mask8_156_13888)">
<mask id="mask9_156_13888" style="mask-type:luminance" maskUnits="userSpaceOnUse" x="-45" y="-34" width="217" height="277">
<path d="M33.3391 -33.5438L171.675 13.8161L93.3707 242.559L-44.9725 195.192L33.3391 -33.5438Z" fill="white"/>
</mask>
<g mask="url(#mask9_156_13888)">
<mask id="mask10_156_13888" style="mask-type:luminance" maskUnits="userSpaceOnUse" x="-45" y="-34" width="217" height="277">
<path d="M33.3391 -33.5438L171.675 13.8161L93.3707 242.559L-44.9725 195.192L33.3391 -33.5438Z" fill="white"/>
</mask>
<g mask="url(#mask10_156_13888)">
<mask id="mask11_156_13888" style="mask-type:luminance" maskUnits="userSpaceOnUse" x="-45" y="-34" width="217" height="277">
<path d="M33.3391 -33.5438L171.675 13.8161L93.3707 242.559L-44.9725 195.192L33.3391 -33.5438Z" fill="white"/>
</mask>
<g mask="url(#mask11_156_13888)">
<path d="M120.048 106.391L118.517 110.878L116.979 115.357L115.448 119.836L113.909 124.315L112.378 128.802L107.914 127.271L109.453 122.792L110.984 118.313L112.515 113.826L114.053 109.347L115.584 104.868L120.048 106.391ZM101.92 130.226L97.4632 128.695L95.9247 133.175L94.3938 137.661L92.8553 142.14L88.399 140.609L86.8605 145.096L91.3244 146.619L89.7859 151.098L94.2498 152.629L92.7189 157.108L91.1804 161.595L95.6443 163.118L97.1752 158.639L98.7137 154.16L100.245 149.674L101.783 145.194L104.845 136.236L106.383 131.75L107.914 127.271L103.458 125.74L101.92 130.226ZM85.1856 164.543L80.7293 163.02L76.2653 161.489L74.7269 165.968L73.1959 170.455L71.665 174.934L76.1213 176.457L74.5904 180.944L79.0468 182.467L77.5158 186.954L75.9849 191.433L71.521 189.902L69.9901 194.388L61.0623 191.327L59.5314 195.813L58.0005 200.292L56.462 204.771L51.9981 203.248L47.5417 201.717L46.0032 206.196L41.5469 204.673L40.0084 209.152L35.5521 207.629L31.0882 206.098L29.5573 210.577L34.0136 212.108L38.4775 213.631L42.9414 215.162L47.3977 216.685L48.9362 212.206L53.3926 213.737L57.8565 215.26L62.3128 216.791L63.8513 212.312L68.3152 213.836L69.831 209.402L71.3619 204.923L72.9004 200.436L74.4313 195.957L78.8952 197.488L80.4261 193.002L81.9646 188.522L85.0264 179.564L86.5649 175.078L88.0958 170.599L89.6343 166.12L91.1653 161.64L86.7089 160.11L85.1856 164.543Z" fill="#CE9CEF"/>
</g>
</g>
</g>
</g>
<mask id="mask12_156_13888" style="mask-type:luminance" maskUnits="userSpaceOnUse" x="13" y="5" width="137" height="77">
<path d="M13.9827 5.82053H149.795V81.4872H13.9827V5.82053Z" fill="white"/>
</mask>
<g mask="url(#mask12_156_13888)">
<mask id="mask13_156_13888" style="mask-type:luminance" maskUnits="userSpaceOnUse" x="-45" y="-34" width="217" height="277">
<path d="M33.3389 -33.5438L171.675 13.8161L93.3705 242.559L-44.9728 195.192L33.3389 -33.5438Z" fill="white"/>
</mask>
<g mask="url(#mask13_156_13888)">
<mask id="mask14_156_13888" style="mask-type:luminance" maskUnits="userSpaceOnUse" x="-45" y="-34" width="217" height="277">
<path d="M33.3389 -33.5438L171.675 13.8161L93.3705 242.559L-44.9728 195.192L33.3389 -33.5438Z" fill="white"/>
</mask>
<g mask="url(#mask14_156_13888)">
<mask id="mask15_156_13888" style="mask-type:luminance" maskUnits="userSpaceOnUse" x="-45" y="-34" width="217" height="277">
<path d="M33.3389 -33.5438L171.675 13.8161L93.3705 242.559L-44.9728 195.192L33.3389 -33.5438Z" fill="white"/>
</mask>
<g mask="url(#mask15_156_13888)">
<path d="M148.787 66.1174L147.256 70.604L145.717 75.0831L141.261 73.5521L139.722 78.0312L135.266 76.5079L133.728 80.9869L129.271 79.4636L124.807 77.9327L120.343 76.4094L115.887 74.8784L111.423 73.3551L109.892 77.8342L105.428 76.3033L100.964 74.7799L96.5082 73.249L92.0443 71.7257L89.8616 70.9754C88.899 71.1042 87.9972 71.2103 87.209 71.2937L86.0494 74.6814L81.5855 73.1505L78.9026 72.2334C74.8404 72.3699 69.8157 72.3395 69.8157 72.3395L63.745 67.042L61.964 63.9271L50.5883 60.6L43.2747 55.2342C43.2747 55.2342 43.2596 55.1281 43.1989 54.9993L42.9716 54.9235L43.0701 54.6506C42.8276 54.0064 42.4865 53.0743 42.4032 52.7332C42.2819 52.1875 26.6014 47.3295 26.6014 47.3295L22.1981 42.805L18.9089 40.2509L17.4386 34.8927L16.3473 30.7926L15.65 25.5481L19.4167 21.8269L21.9101 20.1823L25.4115 18.8712L28.299 17.7192L31.4063 15.923L36.2719 15.0818L49.027 20.1671L55.2492 19.0758L61.6912 18.6741L74.1128 23.2365L79.0997 22.1831L93.4387 23.8277L101.404 29.8225L105.868 31.3459L107.399 26.8668L108.937 22.3877L113.394 23.9111L114.917 19.4775L116.448 14.9984L117.986 10.5193L122.443 12.0427L123.981 7.5636L130.893 7.42719L130.886 12.9445L127.945 18.2724L124.732 19.9246L118.267 38.811L123.117 42.3124L126.626 43.5098L126.247 44.6087L133.174 49.6335C134.629 50.4444 135.774 51.2402 136.729 52.0284L138.457 52.6195L142.921 54.1504L141.382 58.6295L145.846 60.1604L144.308 64.6395L148.771 66.1628L148.787 66.1174Z" fill="#BE8CDB"/>
</g>
</g>
</g>
</g>
<mask id="mask16_156_13888" style="mask-type:luminance" maskUnits="userSpaceOnUse" x="-19" y="7" width="173" height="220">
<path d="M-19 7.76071H153.675V227H-19V7.76071Z" fill="white"/>
</mask>
<g mask="url(#mask16_156_13888)">
<mask id="mask17_156_13888" style="mask-type:luminance" maskUnits="userSpaceOnUse" x="-45" y="-34" width="217" height="277">
<path d="M33.3391 -33.5437L171.675 13.8162L93.3707 242.559L-44.9725 195.192L33.3391 -33.5437Z" fill="white"/>
</mask>
<g mask="url(#mask17_156_13888)">
<mask id="mask18_156_13888" style="mask-type:luminance" maskUnits="userSpaceOnUse" x="-45" y="-34" width="217" height="277">
<path d="M33.3391 -33.5437L171.675 13.8162L93.3707 242.559L-44.9725 195.192L33.3391 -33.5437Z" fill="white"/>
</mask>
<g mask="url(#mask18_156_13888)">
<mask id="mask19_156_13888" style="mask-type:luminance" maskUnits="userSpaceOnUse" x="-45" y="-34" width="217" height="277">
<path d="M33.3391 -33.5437L171.675 13.8162L93.3707 242.559L-44.9725 195.192L33.3391 -33.5437Z" fill="white"/>
</mask>
<g mask="url(#mask19_156_13888)">
<path d="M66.7616 218.36L71.2255 219.891L69.687 224.37L65.2307 222.847L60.7668 221.316L62.2977 216.837L66.7616 218.36ZM36.9239 218.163L32.4676 216.632L28.0037 215.109L23.5474 213.578L19.0835 212.055L14.6195 210.524L10.1632 209L5.69931 207.469L4.16839 211.949L8.62472 213.479L13.0886 215.003L17.5525 216.534L22.0089 218.057L26.4728 219.588L30.9291 221.111L35.393 222.642L39.8569 224.166L44.3133 225.696L45.8517 221.217L41.3878 219.686L36.9239 218.163ZM127.574 98.9563L126.043 103.443L124.512 107.922L122.974 112.401L121.443 116.88L119.904 121.367L118.373 125.846L116.835 130.325L121.299 131.856L122.837 127.369L125.899 118.411L127.437 113.932L128.968 109.445L130.507 104.966L133.569 96.0082L129.112 94.4773L127.574 98.9563ZM77.3568 201.967L74.295 210.925L72.7565 215.412L71.2255 219.891L75.6819 221.414L77.2204 216.935L78.7513 212.456L80.2898 207.977L81.8207 203.491L83.3516 199.012L78.8953 197.488L77.3568 201.967ZM110.84 133.281L107.778 142.239L106.24 146.725L104.709 151.205L103.17 155.684L101.639 160.163L100.101 164.649L104.565 166.173L106.103 161.694L107.634 157.214L109.165 152.728L110.703 148.249L112.234 143.77L113.773 139.291L115.304 134.804L116.835 130.325L112.378 128.802L110.84 133.281ZM94.1059 167.597L92.575 172.084L91.0441 176.563L89.5056 181.042L87.9747 185.521L86.4362 190.008L84.9053 194.487L83.3668 198.966L87.8307 200.497L89.3692 196.01L90.8849 191.577L92.4158 187.098L93.9543 182.619L95.4853 178.132L97.0238 173.653L100.086 164.695L95.6292 163.164L94.1059 167.597ZM51.8466 218.262L47.3827 216.738L45.8517 221.217L50.3081 222.741L54.772 224.272L59.2359 225.795L60.7668 221.316L56.3029 219.793L51.8466 218.262ZM11.6487 204.499L16.1126 206.029L20.5689 207.553L25.0328 209.084L29.4967 210.607L32.5585 201.649L28.1022 200.118L29.6331 195.639L25.1768 194.116L20.7129 192.585L19.182 197.064L17.6435 201.55L13.1872 200.02L14.7181 195.54L10.2542 194.01L8.72325 198.489L7.18475 202.975L2.72842 201.444L-1.73549 199.921L-6.19181 198.39L-7.73031 202.869L-3.2664 204.4L1.18993 205.923L5.65384 207.454L7.18475 202.975L11.6487 204.499ZM8.33673 83.1621L11.3986 74.204L12.9371 69.7249L14.468 65.2383L16.0065 60.7592L17.5374 56.2801L13.0735 54.7492L11.5426 59.2359L10.0116 63.7149L8.47315 68.194L6.94223 72.6731L5.40374 77.1597L2.34191 86.1179L0.803411 90.5969L5.26732 92.1278L6.79823 87.6488L8.33673 83.1621ZM17.833 26.2909L21.0388 24.2219L23.8278 23.3427L29.8302 20.387L34.4987 18.6136L51.3009 24.3659L53.6503 23.5852L63.8514 23.5019L75.4545 28.087L77.4932 26.7456L87.7246 27.746L98.8806 31.5581L101.374 29.9135L102.912 25.4345L98.4486 23.9035L93.9846 22.3802L89.5283 20.8493L85.0644 19.326L80.6005 17.795L79.0696 22.2741L74.6057 20.7508L70.1494 19.2199L65.64 17.6814L61.1836 16.1504L56.7197 14.6271L55.1812 19.1062L50.7249 17.5753L46.261 16.0519L41.8047 14.521L37.3408 12.9977L32.8769 11.4668L31.3611 15.9079L26.8972 14.377L25.3663 18.8561L20.9024 17.3327L19.3714 21.8118L14.9075 20.2885L13.3766 24.7675L11.8381 29.2466L16.302 30.7775L17.833 26.2909ZM16.1429 45.7911L17.6814 41.312L22.1377 42.8354L23.6762 38.3563L19.2123 36.8254L20.7508 32.3463L16.2869 30.823L14.756 35.302L13.2175 39.7811L11.6866 44.2602L10.1481 48.7468L8.61715 53.2259L13.0735 54.7492L14.612 50.2702L16.1429 45.7911ZM0.522995 120.541L2.05391 116.062L3.59241 111.575L5.12332 107.096L6.66182 102.617L8.19273 98.1378L9.72365 93.6512L5.26732 92.1278L3.72882 96.6069L2.19791 101.086L0.659414 105.573L-2.40242 114.531L-3.94091 119.01L-5.47183 123.496L-7.01032 127.976L-2.54642 129.506L-1.0155 125.02L0.522995 120.541ZM-9.12481 192.38L-13.5811 190.857L-15.1196 195.336L-10.6557 196.867L-6.19181 198.39L-4.6609 193.911L-9.12481 192.38ZM-10.5117 181.891L-7.44989 172.933L-5.9114 168.454L-10.3753 166.923L-11.9062 171.402L-13.4447 175.889L-16.5065 184.847L-18.045 189.326L-13.5811 190.857L-12.0502 186.378L-10.5117 181.891ZM-7.3059 157.965L-5.77498 153.478L-4.23649 148.999L-2.70557 144.52L-1.16707 140.041L0.36384 135.554L1.90234 131.075L-2.56157 129.552L-4.09249 134.031L-5.63098 138.51L-7.1619 142.989L-8.70039 147.476L-10.2313 151.955L-11.7698 156.434L-13.3007 160.913L-14.8316 165.4L-10.3753 166.923L-8.83681 162.444L-7.3059 157.965ZM3.00884 171.508L-1.45507 169.977L-2.98598 174.456L-4.5169 178.943L-6.0554 183.422L-7.58631 187.901L-3.12998 189.432L1.33393 190.955L2.86484 186.476L7.32875 188L8.86724 183.52L10.3982 179.041L5.93425 177.51L7.47275 173.031L3.00884 171.508ZM65.261 62.6084L60.8047 61.0775L56.3408 59.5542L51.8314 58.0081L47.3751 56.4848L42.9112 54.9539L41.3803 59.4329L45.8366 60.9638L50.3005 62.4872L54.7644 64.0181L59.2207 65.5414L63.6846 67.0723L65.2156 62.5933L65.261 62.6084ZM39.9858 48.9439L35.5219 47.4205L31.0655 45.8896L26.6016 44.3663L22.1377 42.8354L20.6068 47.3144L25.0707 48.8454L29.527 50.3687L33.9909 51.8996L38.4473 53.4229L42.9112 54.9539L44.4497 50.4748L39.9858 48.9439ZM24.2219 138.669L19.758 137.138L21.2965 132.659L22.8274 128.18L24.3583 123.693L19.902 122.17L18.3635 126.649L13.9071 125.126L12.3686 129.605L10.8377 134.084L15.3016 135.615L13.7631 140.094L18.2271 141.617L22.6834 143.148L24.2219 138.669ZM17.9239 171.607L19.4624 167.128L14.9985 165.597L13.4676 170.076L11.9291 174.562L16.393 176.086L17.9239 171.607ZM4.84291 137.04L3.30441 141.519L1.7735 145.998L0.24258 150.485L-1.29591 154.964L3.16799 156.487L7.62432 158.018L9.16282 153.539L13.6191 155.062L15.1576 150.583L16.6886 146.104L12.2322 144.573L13.7631 140.094L9.29924 138.563L4.84291 137.04ZM42.1078 144.793L40.5769 149.272L36.113 147.749L34.5821 152.228L33.0436 156.707L37.5075 158.238L35.9766 162.717L40.4329 164.24L44.8968 165.771L49.3607 167.294L50.8916 162.815L55.3556 164.346L56.8865 159.859L58.4174 155.38L53.9611 153.857L55.492 149.37L51.0356 147.847L46.5717 146.316L42.1078 144.793ZM42.3503 114.834L40.8119 119.313L39.2809 123.8L37.7424 128.279L36.2115 132.758L40.6754 134.289L42.2063 129.802L46.6703 131.333L48.2012 126.854L49.7321 122.367L45.2758 120.844L46.8067 116.365L42.3503 114.834ZM146.286 15.2031L139.927 9.54932L140.291 18.1512L144.747 19.6822L146.286 15.2031ZM153.251 67.6483L151.712 72.1274L150.181 76.6065L145.717 75.0831L144.187 79.5622L142.648 84.0413L141.117 88.5279L139.586 93.007L138.048 97.486L133.591 95.9627L135.122 91.4761L136.653 86.997L138.192 82.5179L133.728 80.987L132.197 85.4661L127.733 83.9427L123.269 82.4118L118.813 80.8885L114.349 79.3576L109.893 77.8342L108.354 82.3133L103.898 80.79L99.4338 79.259L94.9699 77.7357L90.5136 76.2048L86.0497 74.6814L84.5187 79.1605L80.0548 77.6296L75.5909 76.1063L71.1346 74.5753L66.6707 73.052L62.2068 71.5211L63.7453 67.042L68.2092 68.5654L72.6655 70.0963L74.204 65.6172L78.6603 67.1406L83.1242 68.6715L84.6552 64.1848L93.583 67.2467L95.1139 62.76L99.5778 64.2909L104.034 65.8143L105.573 61.3352L110.029 62.8661L114.493 64.3895L116.024 59.9104L120.488 61.4337L122.019 56.9547L123.557 52.4756L119.093 50.9447L117.562 55.4313L113.098 53.9004L111.567 58.3795L107.104 56.8561L102.64 55.3252L98.1833 53.8019L99.7142 49.3228L95.2579 47.7919L96.7888 43.3128L98.3197 38.8262L99.8582 34.3471L104.315 35.878L105.853 31.3914L110.309 32.9223L111.848 28.4432L113.379 23.9642L117.843 25.4875L119.374 21.0084L120.912 16.5294L122.443 12.0427L126.907 13.5737L130.901 9.93583L135.441 10.6179L137.237 10.5725L139.215 12.8309L140.276 18.1967L138.737 22.6834L137.222 27.117L135.683 31.596L131.227 30.0727L129.688 34.5518L126.627 43.5099L126.589 48.5043L135.547 46.5641L140.003 48.0951L144.467 49.6184L142.936 54.105L147.392 55.6284L145.861 60.1074L150.325 61.6384L148.787 66.1174L153.251 67.6483ZM68.8761 153.956L73.34 155.479L71.8015 159.966L76.2654 161.489L80.7293 163.02L85.1857 164.543L86.7242 160.064L91.1805 161.595L92.719 157.108L94.2499 152.629L89.786 151.098L91.3245 146.619L86.8606 145.096L82.4043 143.565L77.9404 142.042L76.4094 146.521L71.9455 144.99L70.407 149.477L68.8761 153.956ZM37.3483 173.251L32.892 171.72L34.4229 167.241L29.9666 165.718L25.5027 164.187L23.9642 168.666L22.4333 173.153L20.9024 177.632L19.3639 182.111L23.8278 183.642L28.2841 185.165L29.8226 180.686L34.2789 182.209L35.8174 177.73L37.3483 173.251ZM67.6256 128.498L63.1617 126.968L58.7054 125.444L57.1669 129.923L52.7106 128.392L51.1721 132.879L49.6411 137.358L54.0975 138.881L52.5666 143.368L57.0305 144.891L61.4868 146.422L65.9507 147.946L67.4816 143.467L71.9455 144.99L73.4764 140.511L75.0149 136.032L70.551 134.501L72.0895 130.022L67.6256 128.498ZM56.5909 189.849L61.0472 191.38L65.5111 192.903L69.975 194.434L71.506 189.947L75.9699 191.478L77.5008 186.999L79.0317 182.512L74.5754 180.989L76.1063 176.51L71.65 174.979L67.186 173.448L62.7221 171.925L61.1912 176.404L56.7273 174.881L55.1964 179.36L53.6579 183.839L58.1218 185.37L56.5909 189.849ZM38.5988 198.708L43.0628 200.239L47.5267 201.763L49.0576 197.284L53.5215 198.807L55.0524 194.328L56.5909 189.849L52.127 188.318L53.6579 183.839L49.2016 182.315L44.7377 180.785L40.2813 179.261L38.7428 183.74L34.2789 182.209L32.748 186.696L31.2171 191.175L35.6734 192.698L34.1425 197.185L38.5988 198.708Z" fill="#9C69BC"/>
</g>
</g>
</g>
</g>
<mask id="mask20_156_13888" style="mask-type:luminance" maskUnits="userSpaceOnUse" x="15" y="15" width="89" height="20">
<path d="M15.9231 15.5214H103.231V34.9231H15.9231V15.5214Z" fill="white"/>
</mask>
<g mask="url(#mask20_156_13888)">
<mask id="mask21_156_13888" style="mask-type:luminance" maskUnits="userSpaceOnUse" x="-45" y="-34" width="217" height="277">
<path d="M33.3391 -33.5438L171.675 13.8161L93.3707 242.559L-44.9725 195.192L33.3391 -33.5438Z" fill="white"/>
</mask>
<g mask="url(#mask21_156_13888)">
<mask id="mask22_156_13888" style="mask-type:luminance" maskUnits="userSpaceOnUse" x="-45" y="-34" width="217" height="277">
<path d="M33.3391 -33.5438L171.675 13.8161L93.3707 242.559L-44.9725 195.192L33.3391 -33.5438Z" fill="white"/>
</mask>
<g mask="url(#mask22_156_13888)">
<mask id="mask23_156_13888" style="mask-type:luminance" maskUnits="userSpaceOnUse" x="-45" y="-34" width="217" height="277">
<path d="M33.3391 -33.5438L171.675 13.8161L93.3707 242.559L-44.9725 195.192L33.3391 -33.5438Z" fill="white"/>
</mask>
<g mask="url(#mask23_156_13888)">
<path d="M101.389 29.868L99.858 34.3471L95.3941 32.8237L90.9378 31.2928L86.4739 29.7695L82.01 28.2386L77.5537 26.7152L79.0846 22.2286L83.5485 23.7595L88.0048 25.2828L92.4687 26.8137L96.9326 28.3371L101.389 29.868ZM68.5804 23.6458L64.124 22.1149L59.6601 20.584L55.2038 19.0606L53.6653 23.5397L58.1292 25.0706L62.5856 26.594L67.0495 28.1249L71.5134 29.6482L75.9697 31.1791L77.5082 26.7001L73.0443 25.1692L68.5804 23.6458ZM44.7451 20.4855L40.2812 18.9621L35.8248 17.4312L31.3609 15.9079L29.83 20.3869L34.2863 21.9103L38.7502 23.4412L43.2066 24.9645L47.6705 26.4954L52.1344 28.0188L53.6653 23.5397L49.2014 22.0164L44.7451 20.4855ZM23.8276 23.3427L28.2915 24.866L29.83 20.3869L25.3661 18.856L23.8276 23.3427ZM17.8176 26.3363L22.2815 27.8672L23.8125 23.3881L19.3561 21.8572L17.8176 26.3363Z" fill="#C99EE8"/>
</g>
</g>
</g>
</g>
<mask id="mask24_156_13888" style="mask-type:luminance" maskUnits="userSpaceOnUse" x="-16" y="40" width="157" height="184">
<path d="M-15.1199 40.7436H140.094V223.12H-15.1199V40.7436Z" fill="white"/>
</mask>
<g mask="url(#mask24_156_13888)">
<mask id="mask25_156_13888" style="mask-type:luminance" maskUnits="userSpaceOnUse" x="-45" y="-34" width="217" height="277">
<path d="M33.3389 -33.5438L171.675 13.8161L93.3705 242.559L-44.9728 195.192L33.3389 -33.5438Z" fill="white"/>
</mask>
<g mask="url(#mask25_156_13888)">
<mask id="mask26_156_13888" style="mask-type:luminance" maskUnits="userSpaceOnUse" x="-45" y="-34" width="217" height="277">
<path d="M33.3389 -33.5438L171.675 13.8161L93.3705 242.559L-44.9728 195.192L33.3389 -33.5438Z" fill="white"/>
</mask>
<g mask="url(#mask26_156_13888)">
<mask id="mask27_156_13888" style="mask-type:luminance" maskUnits="userSpaceOnUse" x="-45" y="-34" width="217" height="277">
<path d="M33.3389 -33.5438L171.675 13.8161L93.3705 242.559L-44.9728 195.192L33.3389 -33.5438Z" fill="white"/>
</mask>
<g mask="url(#mask27_156_13888)">
<path d="M138.176 82.5634L136.638 87.0424L135.107 91.5215L133.568 96.0082L129.112 94.4772L127.574 98.9563L126.043 103.443L124.512 107.922L122.973 112.401L121.442 116.88L119.904 121.367L118.373 125.846L116.834 130.325L112.378 128.802L113.909 124.315L115.448 119.836L116.978 115.357L118.517 110.878L120.048 106.391L121.579 101.912L123.117 97.433L118.653 95.9021L120.192 91.423L115.728 89.8921L117.259 85.413L112.803 83.8897L108.339 82.3587L109.877 77.8797L114.333 79.403L118.797 80.9339L123.254 82.4573L132.181 85.5191L133.712 81.0325L138.176 82.5634ZM106.383 131.75L104.845 136.236L101.783 145.195L100.244 149.674L98.7135 154.16L97.175 158.639L95.6441 163.118L100.1 164.649L101.639 160.163L103.17 155.684L104.708 151.204L106.239 146.725L107.778 142.239L110.84 133.281L112.378 128.802L107.914 127.271L106.383 131.75ZM89.6493 166.074L88.1108 170.553L86.5799 175.032L85.049 179.519L83.5105 183.998L81.9796 188.477L80.4411 192.956L78.9102 197.443L83.3665 198.966L84.905 194.487L86.4207 190.053L87.9592 185.567L89.4902 181.088L91.0286 176.609L92.5596 172.13L94.0905 167.643L95.629 163.164L91.1651 161.64L89.6493 166.074ZM72.9002 200.436L71.3617 204.923L69.8308 209.402L68.2923 213.881L63.8359 212.358L62.2974 216.837L66.7614 218.36L71.2253 219.891L72.7562 215.412L74.2947 210.925L77.3565 201.967L78.895 197.488L74.4311 195.957L72.9002 200.436ZM53.3772 213.783L48.9209 212.252L47.3824 216.738L51.8463 218.262L56.3026 219.793L60.7665 221.316L62.2974 216.837L57.8411 215.306L53.3772 213.783ZM93.4235 82.2602L97.8799 83.7836L102.344 85.3145L106.808 86.8378L108.339 82.3587L103.875 80.8354L99.4184 79.3045L94.9545 77.7812L90.4981 76.2502L86.0342 74.7269L84.5033 79.206L88.9596 80.7293L93.4235 82.2602ZM38.4621 213.676L33.9982 212.153L29.5419 210.622L25.078 209.099L20.6141 207.568L16.1578 206.045L11.6939 204.514L7.22994 202.99L5.69903 207.469L10.1629 209L14.6193 210.524L19.0832 212.055L23.5471 213.578L28.0034 215.109L32.4673 216.632L36.9236 218.163L41.3876 219.686L45.8515 221.217L47.3824 216.738L42.9185 215.207L38.4621 213.676ZM65.1243 77.5765L69.5807 79.0999L74.0446 80.6308L78.5009 82.1617L82.9648 83.685L84.5033 79.206L80.0394 77.6751L75.5755 76.1517L71.1192 74.6208L66.6553 73.0975L62.1913 71.5665L60.6604 76.0456L65.1243 77.5765ZM4.25906 196.965L-0.197274 195.434L-4.66118 193.911L-6.1921 198.39L-1.73577 199.921L2.72814 201.444L7.18447 202.975L8.72296 198.489L4.25906 196.965ZM-7.5866 187.901L-6.05568 183.422L-4.51719 178.943L-2.98627 174.456L-1.45535 169.977L-5.91168 168.454L-7.45018 172.933L-10.512 181.891L-12.0505 186.378L-13.5814 190.857L-9.12509 192.38L-4.66118 193.911L-3.13027 189.432L-7.5866 187.901ZM-2.84227 159.488L-1.31136 155.009L0.227139 150.53L1.75805 146.043L3.28897 141.564L4.82747 137.085L6.35838 132.606L1.90205 131.075L0.363557 135.554L-1.16736 140.041L-2.70585 144.52L-4.23677 148.999L-5.77527 153.478L-7.30618 157.965L-8.8371 162.444L-10.3756 166.923L-5.91168 168.454L-4.38077 163.967L-2.84227 159.488ZM4.97904 122.072L6.51754 117.585L8.04845 113.106L9.58695 108.627L11.1179 104.148L12.6564 99.6611L14.1873 95.1821L9.72336 93.6511L8.19245 98.1378L6.66153 102.617L5.12304 107.096L3.59212 111.575L2.05363 116.062L0.522711 120.541L-1.01578 125.02L-2.5467 129.506L1.91721 131.03L4.97904 122.072ZM12.7928 84.693L14.3313 80.214L15.8622 75.7273L17.3931 71.2482L18.9316 66.7692L20.4625 62.2901L24.9264 63.8134L26.4573 59.3344L30.9212 60.8577L32.4522 56.3786L36.9161 57.9096L35.3852 62.3886L39.8415 63.9195L38.3106 68.3986L36.7721 72.8777L35.2412 77.3567L33.7102 81.8434L32.1717 86.3225L30.6408 90.8015L29.1023 95.2806L27.5714 99.7672L32.0353 101.291L30.4968 105.77L28.9659 110.256L27.4274 114.735L25.8965 119.214L24.358 123.693L22.8271 128.18L21.2962 132.659L19.7577 137.138L24.2216 138.669L22.6831 143.148L19.6213 152.106L18.0828 156.593L16.5519 161.072L15.0134 165.551L19.4773 167.082L17.9388 171.561L14.8769 180.519L13.3384 185.006L11.8075 189.485L16.2639 191.008L17.8024 186.529L19.3333 182.05L20.8718 177.571L22.4027 173.084L23.9184 168.651L25.4569 164.172L26.9879 159.693L28.5263 155.206L30.0573 150.727L31.5958 146.248L33.1267 141.769L34.6576 137.282L36.1961 132.803L37.727 128.324L39.2655 123.845L40.7964 119.358L42.3273 114.879L43.8658 110.4L45.3967 105.921L40.9404 104.39L42.4713 99.9112L44.0098 95.4322L45.5407 90.9455L47.0717 86.4665L48.6101 81.9874L50.1411 77.5083L51.6796 73.0217L56.1359 74.5526L57.6744 70.0735L62.1307 71.5969L63.6692 67.1178L59.2053 65.5869L54.7414 64.0635L50.2851 62.5326L45.8212 61.0093L41.3648 59.4784L42.8957 54.9993L38.4318 53.476L33.9755 51.9451L29.5116 50.4141L25.0553 48.8908L20.5914 47.3599L22.1223 42.8808L17.6659 41.3575L16.1274 45.8365L14.5965 50.3156L13.058 54.7947L17.5219 56.3256L15.991 60.8047L14.4525 65.2837L12.9216 69.7704L11.3831 74.2494L8.32129 83.2076L6.78279 87.6942L5.25188 92.1733L9.70821 93.7042L11.2467 89.2176L12.7928 84.693ZM13.1869 200.02L17.6432 201.55L19.1817 197.064L20.7126 192.585L16.2487 191.061L13.1869 200.02Z" fill="#F8EEFF"/>
</g>
</g>
</g>
</g>
<mask id="mask28_156_13888" style="mask-type:luminance" maskUnits="userSpaceOnUse" x="101" y="0" width="47" height="61">
<path d="M101.29 0H147.855V60.1453H101.29V0Z" fill="white"/>
</mask>
<g mask="url(#mask28_156_13888)">
<mask id="mask29_156_13888" style="mask-type:luminance" maskUnits="userSpaceOnUse" x="-45" y="-34" width="217" height="277">
<path d="M33.3389 -33.5438L171.675 13.8161L93.3705 242.559L-44.9728 195.192L33.3389 -33.5438Z" fill="white"/>
</mask>
<g mask="url(#mask29_156_13888)">
<mask id="mask30_156_13888" style="mask-type:luminance" maskUnits="userSpaceOnUse" x="-45" y="-34" width="217" height="277">
<path d="M33.3389 -33.5438L171.675 13.8161L93.3705 242.559L-44.9728 195.192L33.3389 -33.5438Z" fill="white"/>
</mask>
<g mask="url(#mask30_156_13888)">
<mask id="mask31_156_13888" style="mask-type:luminance" maskUnits="userSpaceOnUse" x="-45" y="-34" width="217" height="277">
<path d="M33.3389 -33.5438L171.675 13.8161L93.3705 242.559L-44.9728 195.192L33.3389 -33.5438Z" fill="white"/>
</mask>
<g mask="url(#mask31_156_13888)">
<path d="M147.817 10.7164L146.286 15.203L141.822 13.6721L140.291 18.1512L135.827 16.6278L131.363 15.0969L126.907 13.5736L128.438 9.09453L123.981 7.56361L125.512 3.08454L129.976 4.60788L131.507 0.128815L135.971 1.65973L140.427 3.18307L144.891 4.71398L143.36 9.19305L147.817 10.7164ZM104.178 50.8461L102.639 55.3252L107.103 56.8561L111.567 58.3794L113.098 53.9003L108.634 52.377L104.178 50.8461ZM126.626 43.5098L122.162 41.9865L120.631 46.4655L119.093 50.9446L114.629 49.4213L113.098 53.9003L117.562 55.4313L122.018 56.9546L123.557 52.4755L128.013 53.9989L129.552 49.5198L134.008 51.0507L135.547 46.5641L131.083 45.0407L126.626 43.5098Z" fill="#8155A0"/>
</g>
</g>
</g>
</g>
</svg>
