<svg width="201" height="201" viewBox="0 0 201 201" fill="none" xmlns="http://www.w3.org/2000/svg">
<path d="M176.892 77.3329C176.447 77.208 175.926 76.9527 175.943 76.5261C175.955 76.2054 176.276 75.9788 176.569 75.804C176.952 75.5748 177.339 75.3513 177.731 75.1338C178.441 74.7385 179.166 74.3627 179.901 74.007C175.813 66.7185 167.728 61.7068 158.708 60.2605L158.704 60.2599C155.394 59.7297 151.959 59.6791 148.548 60.1724C137.643 61.75 128.402 68.3801 120.948 76.229C124.302 67.3511 125.868 57.7594 123.264 48.5377C122.715 46.5952 121.985 44.7194 121.097 42.9328C116.333 33.3381 107.043 26.3225 97.0815 25.4252C97.1642 26.658 97.0495 27.9041 96.7346 29.099C96.6218 29.5273 96.3767 30.0334 95.9336 30.0336C95.6007 30.0337 95.3537 29.7365 95.1614 29.4648C94.9095 29.1085 94.6634 28.7482 94.423 28.384C93.9545 27.6734 93.509 26.9476 93.0867 26.2086C92.6471 26.5126 92.234 26.8721 91.8352 27.2362C86.5197 32.0885 82.5005 38.558 80.17 45.6873C78.6752 50.2601 77.875 55.1043 77.8733 59.9675C77.8712 66.1051 79.1363 72.2182 81.4544 77.8164C72.0725 70.9103 60.9051 65.5059 49.0096 66.0872H49.0091C48.9509 66.0901 48.8927 66.093 48.8345 66.0962C35.6433 66.8056 23.6393 75.2025 20.0935 86.3645C21.6045 86.6998 23.0484 87.3402 24.3044 88.245C24.6638 88.5039 25.0484 88.9141 24.8898 89.3277C24.7705 89.6386 24.4047 89.7626 24.0821 89.8447C23.6591 89.9523 23.2346 90.0529 22.8084 90.1467C21.9243 90.3411 21.0334 90.505 20.1381 90.639C20.3363 91.0547 20.5737 91.4607 20.8169 91.8572C24.9415 98.5843 31.3197 104.24 38.8106 108.069C42.6101 110.011 46.6958 111.482 50.9189 112.386C59.3755 114.194 68.2778 113.708 76.2512 111.186C68.2231 115.12 61.1905 121.478 56.5095 129.307C53.9713 133.552 52.145 138.202 51.0685 142.988L51.067 142.995C49.3522 150.624 49.5433 158.6 51.7966 165.834C51.9106 166.2 52.0319 166.568 52.1721 166.926C53.5941 165.959 55.2054 165.269 56.8898 164.92C57.3873 164.817 58.0326 164.81 58.2593 165.265C58.4297 165.607 58.2506 166.012 58.0698 166.349C57.8327 166.79 57.5884 167.227 57.3371 167.66C56.8111 168.566 56.2536 169.454 55.6667 170.322C66.455 175.514 80.6217 173.248 90.3061 165.056L90.3088 165.054C90.7059 164.718 91.0956 164.372 91.477 164.017C100.351 155.74 103.851 143.573 104.892 131.665C107.329 141.798 111.86 151.613 120.166 158.11C121.289 158.989 122.467 159.788 123.685 160.506C133.216 166.124 145.277 166.774 154.27 161.823C153.281 160.598 152.513 159.194 152.027 157.696C151.872 157.22 151.796 156.589 152.217 156.318C152.533 156.114 152.95 156.246 153.299 156.387C153.756 156.571 154.211 156.763 154.661 156.963C155.73 157.435 156.78 157.949 157.809 158.503C158.016 157.948 158.152 157.353 158.269 156.763C159.728 149.45 159.047 141.557 156.504 134.194L156.503 134.194C154.999 129.841 152.844 125.673 150.095 121.919C146.217 116.624 141.197 112.2 135.594 108.972C142.32 109.059 149.206 107.73 155.515 104.996C159.477 103.278 163.186 101.014 166.508 98.3365C172.814 93.2544 177.726 86.683 180.335 79.5302C180.542 78.9636 180.736 78.3829 180.842 77.8025C179.51 77.8476 178.168 77.6911 176.892 77.3329Z" fill="#F7BFCA"/>
<path d="M163.793 80.2335C159.676 72.4461 149.607 67.9495 139.811 69.3665C128.552 70.9953 119.633 79.7239 113.287 88.2198C114.963 89.4964 116.257 91.2831 116.988 93.2671C122.187 91.0726 127.964 89.9789 133.564 88.9641L117.435 94.8261C117.588 95.5617 117.663 96.3123 117.652 97.0634C117.652 97.064 117.652 97.0645 117.652 97.065C117.651 97.1163 117.65 97.1675 117.649 97.2188C117.648 97.2322 117.648 97.2456 117.647 97.259C117.646 97.2985 117.645 97.338 117.643 97.3775C117.64 97.4313 117.637 97.485 117.634 97.5389L117.633 97.5533C117.63 97.6051 117.626 97.657 117.622 97.7087L117.621 97.7189L117.621 97.7273L143.266 96.03C134.794 98.0622 125.952 100.092 117.409 99.1306L117.385 99.2562C117.341 99.4774 117.297 99.6985 117.257 99.92C117.252 99.9516 117.246 99.9831 117.241 100.015C117.16 100.489 117.106 100.965 117.13 101.446C117.141 101.657 117.167 101.866 117.202 102.075C117.213 102.144 117.226 102.213 117.24 102.282L117.266 102.409C117.294 102.542 117.325 102.674 117.357 102.806L117.37 102.858C117.385 102.92 117.4 102.981 117.416 103.043C117.434 103.113 117.451 103.184 117.469 103.254L117.496 103.36C117.511 103.421 117.526 103.483 117.541 103.545C117.552 103.589 117.562 103.633 117.573 103.677L117.597 103.782L117.621 103.892C117.742 103.944 117.863 103.996 117.985 104.045C118.484 104.247 118.99 104.436 119.502 104.611C118.901 104.479 118.298 104.364 117.693 104.268C117.726 104.461 117.75 104.655 117.761 104.851C117.785 105.285 117.748 105.708 117.657 106.118C117.641 106.193 117.623 106.267 117.603 106.341C117.503 106.709 117.362 107.067 117.186 107.412C117.151 107.481 117.114 107.549 117.077 107.617C117.039 107.685 116.999 107.752 116.959 107.819C116.918 107.886 116.877 107.952 116.834 108.018C116.791 108.083 116.747 108.148 116.701 108.213C116.656 108.278 116.609 108.342 116.562 108.405C116.514 108.468 116.466 108.531 116.416 108.593C116.366 108.656 116.316 108.717 116.264 108.778C116.238 108.809 116.212 108.839 116.186 108.869C116.133 108.93 116.079 108.989 116.025 109.049C115.998 109.078 115.97 109.108 115.943 109.137C115.86 109.225 115.775 109.311 115.688 109.395C115.649 109.433 115.61 109.471 115.571 109.508C115.556 109.522 115.542 109.535 115.528 109.549C115.501 109.573 115.475 109.598 115.448 109.622C115.434 109.635 115.419 109.648 115.405 109.662C115.377 109.686 115.35 109.711 115.322 109.735C115.308 109.748 115.294 109.76 115.28 109.772C115.251 109.798 115.221 109.824 115.192 109.849C115.18 109.859 115.168 109.869 115.156 109.879C115.122 109.908 115.088 109.937 115.053 109.965C115.045 109.972 115.037 109.979 115.029 109.985C114.897 110.095 114.761 110.201 114.624 110.303C114.624 110.304 114.623 110.304 114.622 110.305C118.94 114.534 122.25 119.926 125.403 125.16L113.326 111.151C113.317 111.156 113.307 111.161 113.298 111.167C113.269 111.184 113.239 111.201 113.21 111.218C113.194 111.226 113.179 111.235 113.164 111.244C113.131 111.262 113.099 111.281 113.066 111.299C113.056 111.305 113.045 111.311 113.035 111.317C112.999 111.337 112.964 111.357 112.928 111.377C112.916 111.383 112.905 111.389 112.894 111.395C112.859 111.414 112.824 111.433 112.79 111.452C112.779 111.458 112.768 111.464 112.758 111.47C112.723 111.489 112.688 111.508 112.652 111.527C112.64 111.534 112.627 111.541 112.615 111.547C112.581 111.566 112.546 111.584 112.511 111.603L112.479 111.62C112.443 111.639 112.406 111.659 112.37 111.678C112.36 111.683 112.349 111.689 112.338 111.694C112.306 111.712 112.273 111.729 112.24 111.746C112.224 111.755 112.207 111.763 112.191 111.771C112.159 111.788 112.128 111.805 112.096 111.821C112.082 111.828 112.069 111.835 112.056 111.842C112.023 111.859 111.989 111.876 111.956 111.893C111.94 111.901 111.925 111.909 111.909 111.917C111.884 111.93 111.859 111.943 111.834 111.956C111.808 111.97 111.782 111.983 111.756 111.996C111.738 112.005 111.72 112.015 111.702 112.024C111.673 112.039 111.643 112.054 111.613 112.069C111.596 112.078 111.579 112.086 111.563 112.095C111.536 112.108 111.51 112.122 111.484 112.135C111.408 112.174 111.331 112.212 111.255 112.251C111.208 112.275 111.161 112.299 111.114 112.323C111.103 112.328 111.093 112.334 111.082 112.339L122.24 136.738C117.186 129.323 111.994 121.539 109.979 112.911C109.979 112.911 109.978 112.911 109.978 112.912C109.934 112.935 109.891 112.959 109.847 112.982C109.84 112.986 109.833 112.99 109.826 112.994C109.788 113.014 109.75 113.035 109.713 113.056C109.701 113.062 109.69 113.068 109.678 113.074C109.644 113.093 109.611 113.112 109.577 113.131C109.562 113.139 109.548 113.147 109.533 113.155C109.486 113.181 109.44 113.208 109.393 113.234C109.252 113.315 109.111 113.397 108.972 113.48C108.833 113.564 108.696 113.65 108.56 113.737C108.469 113.796 108.379 113.855 108.289 113.916C108.192 113.982 108.095 114.049 107.999 114.118C107.936 114.164 107.872 114.21 107.809 114.257L107.715 114.328C107.653 114.376 107.591 114.424 107.529 114.474C107.437 114.547 107.346 114.623 107.256 114.7C107.164 114.779 107.073 114.859 106.983 114.941C106.938 114.982 106.894 115.023 106.849 115.064L106.782 115.127C106.738 115.168 106.694 115.21 106.649 115.252L106.551 115.345C106.497 115.395 106.444 115.445 106.391 115.495C106.231 115.646 106.069 115.795 105.904 115.939L105.813 116.018L105.738 116.082C105.565 116.226 105.386 116.363 105.199 116.489C105.149 116.523 105.098 116.556 105.047 116.588C104.824 116.727 104.591 116.847 104.349 116.948C105.497 127.325 108.747 138.863 117.41 145.641C125.227 151.756 136.428 152.776 144.171 147.931C144.643 147.636 145.11 147.315 145.454 146.874C145.943 146.247 146.148 145.426 146.309 144.62C148.069 135.793 145.721 125.856 140.109 118.193C135.803 112.314 129.642 107.851 122.953 105.577C130.096 107.153 138.068 106.407 145.094 103.361C153.804 99.5853 160.897 92.3304 163.919 84.0476C164.195 83.2912 164.441 82.5013 164.346 81.7385C164.278 81.202 164.044 80.7085 163.793 80.2335Z" fill="#F192AD"/>
<path d="M135.594 108.972C141.197 112.2 146.217 116.624 150.095 121.919C152.844 125.673 154.999 129.841 156.503 134.194C157.151 134.08 157.794 133.941 158.428 133.779C158.346 133.311 158.262 132.844 158.169 132.378C157.72 130.145 157.136 127.94 156.413 125.78C155.733 123.745 154.834 121.797 154.133 119.771C153.113 116.822 152.382 113.267 154.161 110.449C156.24 107.156 160.497 106.421 163.841 105.037C165.734 104.254 167.624 103.194 168.86 101.515C168.916 101.44 168.966 101.361 169.02 101.284C168.339 100.485 167.658 99.6856 166.976 98.8862C166.82 98.703 166.664 98.5198 166.508 98.3365C163.186 101.014 159.477 103.278 155.514 104.996C149.206 107.731 142.32 109.059 135.594 108.972Z" fill="#DC638E"/>
<path d="M175.239 108.581L169.02 101.284C168.966 101.361 168.916 101.44 168.86 101.515C167.624 103.194 165.734 104.254 163.84 105.037C160.497 106.421 156.24 107.156 154.161 110.449C152.382 113.267 153.113 116.822 154.133 119.771C154.834 121.797 155.733 123.745 156.413 125.78C157.136 127.94 157.72 130.145 158.169 132.378C158.262 132.841 158.345 133.305 158.426 133.77C161.403 133.008 164.205 131.737 166.619 130.112C170.892 127.236 174.118 123.385 176.842 119.319C179.599 115.203 178.749 112.7 175.239 108.581Z" fill="#EF82A4"/>
<path d="M50.4203 120.388C49.4673 118.895 47.9748 117.888 46.4536 117.042C44.6612 116.046 42.7204 115.242 41.0498 114.041C39.5487 112.962 38.416 111.461 37.7582 109.744C35.5037 113.334 33.2493 116.923 30.995 120.513C28.1164 125.096 27.6375 127.695 30.9606 131.369C34.2429 134.999 37.9919 138.343 42.6351 140.572C44.3029 141.373 46.0431 141.99 47.9196 142.433C47.7542 139.928 48.1235 137.418 48.8613 135.024C49.7358 132.186 51.052 129.469 51.499 126.511C51.8066 124.476 51.5453 122.15 50.4203 120.388Z" fill="#EF82A4"/>
<path d="M41.0499 114.041C42.7204 115.243 44.6613 116.046 46.4537 117.042C47.9748 117.888 49.4674 118.896 50.4204 120.388C51.5454 122.15 51.8067 124.476 51.499 126.511C51.0521 129.469 49.7359 132.186 48.8613 135.024C48.1235 137.418 47.7542 139.928 47.9197 142.433C48.95 142.679 50.0028 142.866 51.0685 142.988C52.145 138.202 53.9714 133.552 56.5096 129.307C61.1905 121.478 68.2232 115.12 76.2512 111.186C68.2778 113.708 59.3755 114.194 50.9189 112.386C46.6958 111.483 42.6101 110.011 38.8106 108.069C38.4598 108.627 38.1091 109.186 37.7583 109.744C38.416 111.461 39.5486 112.962 41.0499 114.041Z" fill="#DC638E"/>
<path d="M103.049 117.294C102.988 117.302 102.926 117.309 102.865 117.314C102.803 117.319 102.741 117.324 102.68 117.327C102.556 117.333 102.432 117.335 102.308 117.332L102.216 117.329C102.093 117.324 101.972 117.315 101.851 117.301C101.779 117.293 101.707 117.283 101.635 117.272C101.563 117.261 101.491 117.249 101.42 117.235L101.349 117.221C101.23 117.197 101.112 117.169 100.995 117.138L100.925 117.12C100.878 117.107 100.831 117.093 100.785 117.079C100.715 117.059 100.646 117.037 100.576 117.014C100.484 116.984 100.392 116.951 100.3 116.918C100.254 116.901 100.209 116.883 100.163 116.866C99.3652 116.557 98.5978 116.133 97.85 115.715C97.5687 115.557 97.2875 115.4 97.0063 115.243C94.6779 121.485 90.3912 127.036 86.2161 132.34L95.8516 114.597C95.2288 114.249 94.6059 113.901 93.9831 113.553L74.2684 133.481C79.6081 125.851 85.2669 117.944 93.0517 113.032C92.3294 112.628 91.6069 112.224 90.8845 111.82C90.6932 111.713 90.5002 111.604 90.3074 111.493C90.1146 111.382 89.9219 111.268 89.7313 111.15C89.595 111.066 89.4598 110.98 89.3262 110.893C89.1391 110.77 88.9552 110.643 88.7762 110.512C88.6995 110.455 88.6237 110.398 88.5489 110.34C88.4946 110.298 88.4409 110.255 88.3877 110.212C88.2702 110.116 88.1555 110.018 88.0443 109.917L87.9757 109.853C87.8621 109.747 87.7523 109.638 87.6471 109.526L87.5846 109.458C87.38 109.233 87.1939 108.994 87.0311 108.74C78.6727 111.113 71.0707 116.936 66.4674 124.635C61.4728 132.988 60.1116 143.407 62.8931 152.338C63.1471 153.153 63.4479 153.981 64.0235 154.585C64.4283 155.01 64.9473 155.3 65.4692 155.564C74.0267 159.897 85.5382 157.906 92.987 150.959C102.049 142.507 103.723 128.705 103.401 117.236C103.34 117.248 103.28 117.259 103.219 117.269C103.163 117.279 103.106 117.287 103.049 117.294Z" fill="#F192AD"/>
<path d="M86.2539 104.928C86.251 104.252 86.2426 103.576 86.1172 102.918C86.0403 102.515 85.9199 102.122 85.7838 101.734C85.741 101.612 85.6967 101.491 85.6516 101.369C85.6113 101.26 85.5703 101.152 85.5293 101.043C85.5166 101.009 85.5038 100.975 85.4911 100.941C85.2996 100.432 85.1133 99.9208 84.9952 99.391C78.6173 98.6777 72.3793 96.1174 66.3896 93.5962L84.9132 97.9153L84.9168 97.8814L84.9252 97.8094L84.9309 97.763L84.9446 97.6671L84.9529 97.6147L84.9668 97.5316L84.9763 97.4813L84.9892 97.4137L85.0004 97.3603L85.0143 97.2959L85.0266 97.2423L85.0424 97.177L85.0554 97.1247L85.0733 97.0573L85.0867 97.0072L85.1078 96.9337L85.1205 96.89L85.156 96.7755L85.1646 96.7496L85.1951 96.6582L85.2111 96.6125L85.2362 96.5417L85.2551 96.4908L85.2801 96.4244L85.3 96.3736L85.3268 96.3065L85.3474 96.2563L85.376 96.1887L85.397 96.1397L85.4294 96.0669L85.4486 96.0238L85.5014 95.9105L85.5148 95.8831L85.5579 95.7949L85.5803 95.7505L85.6163 95.6799L85.642 95.6308L85.6605 95.5954L62.1209 82.3789C70.665 85.4227 79.5441 88.6884 86.2839 94.5881L86.3047 94.5589L86.3459 94.5016L86.3858 94.4465L86.4271 94.3906L86.4669 94.337L86.5293 94.2548L86.5823 94.1861L86.6313 94.1232L86.6715 94.0728L86.7181 94.0146L86.7638 93.9585L86.8039 93.9097L86.8529 93.8506L86.8951 93.8004L86.9431 93.7439L86.9863 93.6937L87.0351 93.6373L87.0798 93.5866L87.1286 93.5314L87.1681 93.4877L87.273 93.3727L87.3137 93.3286L87.3749 93.2635L87.4084 93.2279L87.4683 93.1655L87.5109 93.1213L87.5681 93.0628L87.608 93.0223L87.6702 92.9597L87.708 92.9221L87.7718 92.8591L87.8016 92.83C87.889 92.7449 87.9775 92.6605 88.0674 92.5769L88.0726 92.572L88.1521 92.4988L88.1802 92.4731L88.2536 92.4067L88.2875 92.3762L88.3611 92.3107L88.395 92.2809L88.4692 92.216L88.5025 92.1873L88.5805 92.1201L88.5956 92.1074C88.7261 91.9964 88.8586 91.887 88.993 91.7794L89.015 91.7619L89.0996 91.6948L89.1292 91.6715L89.2171 91.6031L89.2376 91.5873L89.3333 91.514L89.3425 91.507C89.3965 91.4659 89.4508 91.4252 89.5054 91.3847C89.6144 91.3037 89.7245 91.224 89.8354 91.1454C89.8908 91.1062 89.9465 91.0672 90.0023 91.0286L90.015 91.0199L90.1197 90.9482L90.1282 90.9425C90.1754 90.9104 90.2227 90.8786 90.2701 90.8471C90.2824 90.8388 90.2947 90.8307 90.3071 90.8225C90.3469 90.7962 90.3867 90.7701 90.4266 90.7441C90.4348 90.7387 90.4431 90.7332 90.4515 90.7278C90.4996 90.6966 90.5478 90.6656 90.5961 90.6349C90.6051 90.6292 90.614 90.6235 90.6229 90.6179C90.664 90.5918 90.7053 90.5659 90.7466 90.5403C90.7567 90.534 90.7667 90.5277 90.7767 90.5215C90.8754 90.4603 90.9743 90.4003 91.0737 90.3413C91.0832 90.3356 91.0926 90.33 91.1022 90.3243C91.1504 90.2958 91.1986 90.2674 91.247 90.2394C91.2482 90.2388 91.2492 90.2382 91.2504 90.2374C91.3022 90.2074 91.354 90.1778 91.4059 90.1484C91.4121 90.1448 91.4185 90.1413 91.4247 90.1378C91.4725 90.1109 91.5203 90.0841 91.5682 90.0577C91.5719 90.0556 91.5756 90.0536 91.5793 90.0515C91.6847 89.9933 91.7901 89.9366 91.8956 89.8811C91.9002 89.8786 91.9049 89.8762 91.9095 89.8738C93.7863 88.8887 95.7038 88.3116 97.1907 88.3698C97.7335 88.391 98.2834 88.4365 98.8342 88.4799C96.6506 82.6657 96.0031 76.1855 95.4326 69.9276L100.399 88.5755C101.188 88.5987 101.966 88.5657 102.715 88.3984L103.327 60.8872C104.659 69.8746 105.952 79.2632 103.898 87.9978C104.747 87.5974 105.485 86.9778 106.358 86.6319C107.767 86.0733 109.379 86.2936 110.797 86.8303C111.659 87.1565 112.464 87.606 113.198 88.1525C117.659 79.6754 120.815 69.6545 118.132 60.1516C115.451 50.6586 107.046 43.2617 97.9661 42.5973C97.4123 42.5569 96.848 42.5396 96.3113 42.6911C95.5482 42.9065 94.9001 43.4445 94.2958 43.9962C87.6789 50.0367 83.7102 59.3813 83.7069 68.82C83.7049 74.5491 85.1588 80.2499 87.7656 85.2294C79.9675 78.7221 70.1026 72.9818 59.4779 73.5532C49.3476 74.098 40.1404 80.6206 37.5817 89.2454C37.4256 89.7714 37.291 90.3126 37.3321 90.8634C37.3906 91.6467 37.7983 92.3883 38.2289 93.0906C42.9438 100.78 51.5413 106.624 61.0586 108.66C69.6927 110.506 78.9394 109.199 86.2554 105.215C86.2551 105.172 86.2549 105.128 86.2548 105.085C86.2542 105.032 86.2541 104.98 86.2539 104.928Z" fill="#F192AD"/>
<path d="M105.199 116.489C105.386 116.363 105.564 116.226 105.738 116.081L105.813 116.018L105.904 115.939C106.069 115.795 106.23 115.646 106.39 115.495C106.444 115.445 106.497 115.395 106.55 115.344L106.649 115.251C106.693 115.21 106.738 115.168 106.782 115.127L106.849 115.064C106.893 115.023 106.938 114.982 106.983 114.941C107.073 114.859 107.163 114.779 107.256 114.7C107.346 114.623 107.437 114.547 107.529 114.474C107.59 114.424 107.652 114.376 107.715 114.328L107.809 114.257C107.872 114.21 107.935 114.164 107.999 114.118C108.095 114.049 108.191 113.982 108.289 113.916C108.378 113.855 108.468 113.796 108.559 113.737C108.696 113.65 108.833 113.564 108.972 113.48C109.111 113.396 109.251 113.315 109.393 113.234C109.439 113.208 109.486 113.181 109.533 113.155C109.548 113.147 109.562 113.139 109.577 113.131C109.61 113.112 109.644 113.093 109.678 113.074C109.69 113.068 109.701 113.062 109.713 113.055C109.75 113.035 109.788 113.014 109.825 112.994C109.833 112.99 109.84 112.986 109.847 112.982C109.89 112.959 109.934 112.935 109.978 112.911C109.978 112.911 109.979 112.911 109.979 112.911C110.343 112.716 110.712 112.527 111.082 112.339C111.092 112.333 111.103 112.328 111.114 112.322C111.161 112.299 111.208 112.275 111.255 112.251C111.331 112.212 111.407 112.173 111.483 112.135C111.51 112.121 111.536 112.108 111.562 112.095C111.579 112.086 111.596 112.077 111.613 112.069C111.643 112.054 111.672 112.039 111.702 112.024C111.72 112.014 111.738 112.005 111.755 111.996C111.781 111.983 111.807 111.97 111.833 111.956C111.859 111.943 111.884 111.93 111.909 111.917C111.925 111.909 111.94 111.901 111.956 111.893C111.989 111.876 112.022 111.859 112.055 111.842C112.069 111.835 112.082 111.828 112.095 111.821C112.127 111.805 112.159 111.788 112.191 111.771C112.207 111.763 112.223 111.754 112.239 111.746C112.272 111.729 112.305 111.712 112.338 111.694C112.349 111.689 112.359 111.683 112.37 111.677C112.406 111.658 112.442 111.639 112.478 111.62L112.511 111.603C112.546 111.584 112.58 111.566 112.615 111.547C112.627 111.54 112.64 111.534 112.652 111.527C112.687 111.508 112.722 111.489 112.757 111.47C112.768 111.464 112.779 111.458 112.789 111.452C112.824 111.433 112.859 111.414 112.894 111.395C112.905 111.389 112.916 111.383 112.927 111.376C112.963 111.357 112.999 111.337 113.035 111.316C113.045 111.311 113.055 111.305 113.066 111.299C113.098 111.281 113.131 111.262 113.163 111.244C113.179 111.235 113.194 111.226 113.21 111.217C113.239 111.2 113.269 111.184 113.298 111.166C113.462 111.072 113.624 110.975 113.785 110.875C114.069 110.699 114.35 110.507 114.624 110.303C114.761 110.2 114.896 110.095 115.029 109.985C115.037 109.979 115.045 109.972 115.053 109.965C115.088 109.937 115.122 109.908 115.156 109.879C115.168 109.869 115.18 109.859 115.191 109.849C115.221 109.824 115.251 109.798 115.28 109.772C115.294 109.76 115.308 109.747 115.322 109.735C115.35 109.711 115.377 109.686 115.404 109.661C115.419 109.648 115.434 109.635 115.448 109.622C115.475 109.598 115.501 109.573 115.527 109.548C115.542 109.535 115.556 109.522 115.57 109.508C115.61 109.471 115.649 109.433 115.688 109.395C115.774 109.311 115.859 109.224 115.942 109.137C115.97 109.107 115.998 109.078 116.025 109.048C116.079 108.989 116.133 108.93 116.185 108.869C116.212 108.839 116.238 108.809 116.264 108.778C116.315 108.717 116.366 108.656 116.416 108.593C116.465 108.531 116.514 108.468 116.562 108.405C116.609 108.341 116.656 108.277 116.701 108.213C116.746 108.148 116.791 108.083 116.833 108.017C116.876 107.952 116.918 107.886 116.959 107.819C116.999 107.752 117.039 107.685 117.076 107.617C117.114 107.549 117.151 107.48 117.186 107.411C117.362 107.067 117.503 106.709 117.603 106.341C117.622 106.267 117.641 106.193 117.657 106.118C117.747 105.708 117.785 105.285 117.76 104.851C117.749 104.655 117.725 104.461 117.693 104.268C117.678 104.176 117.661 104.085 117.642 103.994L117.621 103.892L117.597 103.782L117.572 103.676C117.562 103.632 117.552 103.589 117.541 103.545C117.526 103.483 117.511 103.421 117.495 103.359L117.469 103.254C117.451 103.184 117.433 103.113 117.416 103.043C117.4 102.981 117.385 102.919 117.37 102.858L117.357 102.806C117.325 102.674 117.294 102.541 117.266 102.409L117.24 102.282C117.226 102.213 117.213 102.144 117.202 102.074C117.166 101.866 117.141 101.657 117.13 101.446C117.106 100.965 117.16 100.489 117.241 100.015C117.246 99.983 117.252 99.9514 117.257 99.9198C117.296 99.6984 117.341 99.4772 117.384 99.2561L117.409 99.1305C117.457 98.8879 117.503 98.6452 117.541 98.4019C117.576 98.1747 117.602 97.9468 117.621 97.7186L117.622 97.7084C117.626 97.6566 117.63 97.6048 117.633 97.5531L117.634 97.5387C117.637 97.4849 117.64 97.431 117.643 97.3772C117.644 97.3377 117.646 97.2983 117.647 97.2588C117.648 97.2454 117.648 97.232 117.649 97.2185C117.65 97.1673 117.651 97.1159 117.652 97.0648C117.652 97.0643 117.652 97.0637 117.652 97.0632C117.696 93.8422 116.154 90.641 113.689 88.5638C113.96 88.947 114.207 89.3579 114.321 89.7951C114.445 90.2745 114.329 90.7284 114.149 91.1766C113.866 91.8825 113.587 92.5698 113.413 93.3133C113.068 94.7815 113.113 96.217 113.544 97.6601C113.772 98.4252 114.064 99.171 114.355 99.914C114.603 100.548 114.87 101.166 115.018 101.834C115.217 102.727 115.229 103.67 114.821 104.508C114.058 106.076 112.158 106.773 110.705 107.516C109.824 107.967 108.948 108.455 108.193 109.102C107.718 109.509 107.327 109.994 106.885 110.433C106.337 110.977 105.734 111.48 105.065 111.87C103.926 112.534 102.606 112.8 101.322 112.435C99.8593 112.019 98.5999 110.949 97.6551 109.79C97.3259 109.387 97.0187 108.964 96.6105 108.635C96.058 108.188 95.3906 107.902 94.7191 107.688C93.5269 107.309 92.2417 107.089 91.2841 106.22C90.2545 105.285 89.8367 103.935 90.0005 102.577C90.1779 101.108 90.7876 99.7358 91.245 98.341C91.4692 97.657 91.6765 96.953 91.7478 96.234C91.8113 95.5917 91.8226 94.9495 91.9135 94.3087C92.0762 93.1638 92.3939 92.029 92.9583 91.014C93.533 89.9807 94.3415 89.1843 95.2827 88.5772C94.2144 88.8227 93.0542 89.2718 91.9092 89.8728C91.9046 89.8752 91.8999 89.8776 91.8952 89.8801C91.7896 89.9356 91.6842 89.9923 91.579 90.0505C91.5753 90.0525 91.5716 90.0546 91.5679 90.0567C91.52 90.0831 91.4722 90.1099 91.4244 90.1368C91.4181 90.1403 91.4119 90.1438 91.4055 90.1474C91.3536 90.1768 91.3018 90.2065 91.25 90.2364C91.2489 90.2371 91.2478 90.2378 91.2467 90.2384C91.1984 90.2665 91.1501 90.2948 91.1018 90.3233C91.0923 90.3289 91.0828 90.3346 91.0733 90.3403C90.974 90.3993 90.875 90.4593 90.7764 90.5205C90.7663 90.5267 90.7563 90.533 90.7463 90.5393C90.705 90.5649 90.6637 90.5908 90.6226 90.6169C90.6137 90.6225 90.6047 90.6282 90.5958 90.6339C90.5474 90.6646 90.4992 90.6957 90.4511 90.7268C90.4428 90.7322 90.4344 90.7377 90.4262 90.7431C90.3863 90.7691 90.3465 90.7952 90.3068 90.8215C90.2943 90.8297 90.282 90.8378 90.2697 90.8461C90.2224 90.8776 90.175 90.9094 90.1278 90.9415L90.1193 90.9472L90.0146 91.0189L90.0019 91.0277C89.9461 91.0663 89.8905 91.1052 89.835 91.1444C89.7242 91.223 89.6141 91.3027 89.505 91.3837C89.4505 91.4242 89.3962 91.465 89.3421 91.506L89.3329 91.513L89.2372 91.5863L89.2168 91.6021L89.1288 91.6705L89.0992 91.6938L89.0147 91.7609L88.9927 91.7784C88.8583 91.886 88.7257 91.9954 88.5952 92.1064L88.5802 92.1191L88.5021 92.1863L88.4689 92.215L88.3946 92.2799L88.3608 92.3097L88.2872 92.3752L88.2533 92.4057L88.1799 92.4721L88.1517 92.4978L88.0723 92.5711L88.0671 92.5759C87.9772 92.6594 87.8886 92.7438 87.8013 92.829L87.7714 92.8581L87.7077 92.9212L87.6698 92.9588L87.6077 93.0213L87.5678 93.0618L87.5106 93.1203L87.4679 93.1645L87.4081 93.2269L87.3745 93.2625L87.3134 93.3276L87.2726 93.3717L87.1678 93.4867L87.1283 93.5304L87.0795 93.5856L87.0348 93.6363L86.9859 93.6928L86.9427 93.743L86.8948 93.7994L86.8525 93.8496L86.8036 93.9087L86.7634 93.9575L86.7177 94.0136L86.6711 94.0718L86.631 94.1222L86.5819 94.1851L86.529 94.2538L86.4665 94.336L86.4268 94.3896L86.3855 94.4455L86.3456 94.5006L86.3044 94.5579C86.0626 94.8976 85.8464 95.2436 85.6601 95.5941L85.6415 95.6295L85.6158 95.6786L85.5798 95.7493L85.5574 95.7936L85.5143 95.8818L85.5009 95.9092L85.4482 96.0225L85.429 96.0656L85.3966 96.1384L85.3755 96.1874L85.3469 96.255L85.3264 96.3052L85.2996 96.3723L85.2797 96.4231L85.2547 96.4895L85.2357 96.5405L85.2106 96.6112L85.1946 96.6569L85.1641 96.7483L85.1556 96.7742L85.1201 96.8888L85.1074 96.9324L85.0862 97.0059L85.0728 97.056L85.055 97.1234L85.0419 97.1758L85.0262 97.241L85.0139 97.2947L85 97.3591L84.9888 97.4124L84.9758 97.48L84.9663 97.5303L84.9524 97.6134L84.9442 97.6658L84.9304 97.7617L84.9247 97.8081L84.9163 97.8801C84.8614 98.3854 84.8834 98.8904 84.9947 99.3895C85.1129 99.9194 85.2992 100.431 85.4906 100.94C85.5033 100.974 85.5161 101.008 85.5289 101.042C85.5698 101.15 85.6108 101.259 85.6512 101.368C85.6963 101.489 85.7405 101.611 85.7833 101.733C85.9194 102.121 86.0398 102.513 86.1167 102.917C86.2421 103.575 86.2506 104.251 86.2534 104.927C86.2537 104.979 86.2539 105.031 86.2541 105.083C86.2542 105.126 86.2544 105.17 86.2546 105.214L86.2547 105.238L86.2552 105.316L86.256 105.394C86.2564 105.446 86.257 105.498 86.2578 105.55C86.2593 105.653 86.2615 105.757 86.2648 105.86L86.2675 105.94C86.2695 105.991 86.2717 106.041 86.2742 106.091L86.2783 106.168C86.2813 106.22 86.2846 106.271 86.2883 106.322L86.2942 106.399C86.2984 106.45 86.3029 106.501 86.3081 106.552L86.3105 106.575C86.3176 106.643 86.3256 106.712 86.3347 106.78C86.3414 106.83 86.3488 106.881 86.3567 106.931C86.3725 107.032 86.3909 107.132 86.4122 107.231C86.4283 107.306 86.4458 107.38 86.4652 107.454C86.4716 107.479 86.4784 107.504 86.4852 107.528L86.517 107.636C86.5361 107.698 86.5563 107.76 86.5782 107.821C86.6308 107.969 86.6906 108.112 86.7574 108.25C86.8388 108.419 86.9303 108.582 87.0307 108.739C87.1935 108.993 87.3795 109.232 87.5842 109.457L87.6467 109.525C87.7519 109.637 87.8617 109.746 87.9753 109.852L88.0439 109.916C88.155 110.017 88.2697 110.115 88.3873 110.211C88.4404 110.254 88.4942 110.297 88.5485 110.339C88.6233 110.397 88.6991 110.454 88.7758 110.511C88.9548 110.642 89.1387 110.769 89.3258 110.892C89.4594 110.979 89.5946 111.065 89.7308 111.149C89.9216 111.266 90.1143 111.38 90.307 111.492C90.4998 111.603 90.6928 111.712 90.8842 111.819L97.8495 115.714C98.5973 116.132 99.3646 116.556 100.163 116.865C100.208 116.882 100.254 116.9 100.3 116.916C100.391 116.95 100.483 116.982 100.576 117.013C100.645 117.036 100.715 117.058 100.784 117.078C100.831 117.092 100.878 117.106 100.924 117.118L100.995 117.137C101.112 117.168 101.23 117.196 101.348 117.22L101.419 117.234C101.491 117.248 101.562 117.26 101.634 117.271C101.706 117.282 101.778 117.292 101.851 117.3C101.971 117.313 102.093 117.323 102.215 117.328L102.308 117.331C102.432 117.334 102.555 117.332 102.679 117.326C102.741 117.323 102.803 117.318 102.864 117.313C102.926 117.307 102.988 117.301 103.049 117.293C103.106 117.286 103.162 117.278 103.218 117.268C103.279 117.259 103.34 117.248 103.401 117.236L103.523 117.209C103.572 117.198 103.62 117.187 103.669 117.174C103.9 117.115 104.128 117.039 104.348 116.947C104.59 116.846 104.824 116.726 105.046 116.587C105.098 116.556 105.149 116.523 105.199 116.489Z" fill="#4C0D33"/>
<path d="M86.4658 107.456C86.4464 107.382 86.4288 107.307 86.4128 107.233C86.3916 107.133 86.3731 107.033 86.3573 106.932C86.3494 106.882 86.342 106.831 86.3353 106.781C86.3262 106.713 86.3183 106.645 86.3112 106.576C85.1014 107.334 83.8434 108.033 82.5449 108.67C83.8344 108.267 85.139 107.926 86.4539 107.65L86.5178 107.637L86.4859 107.529C86.479 107.505 86.4723 107.48 86.4658 107.456Z" fill="#DC638E"/>
<path d="M157.888 49.9142C156.475 44.9613 153.812 40.7012 150.789 36.8529C147.729 32.9567 145.086 32.9898 140.083 35.0527C135.857 36.7951 131.63 38.5376 127.404 40.28C127.94 40.9947 128.364 41.7982 128.697 42.6244C129.915 45.6388 130.188 48.9225 130.868 52.0756C131.24 53.7976 131.828 55.5918 133.27 56.718C134.536 57.7069 136.172 57.9175 137.733 57.8119C139.697 57.6789 141.602 57.117 143.513 56.6811C145.951 56.1249 148.393 55.5673 150.872 55.2223C153.249 54.8912 155.678 54.7646 158.064 55.0839C158.313 55.1172 158.569 55.1605 158.815 55.2042C158.682 53.3844 158.368 51.6001 157.888 49.9142Z" fill="#EF82A4"/>
<path d="M120.948 76.2291C128.402 68.3801 137.643 61.7501 148.549 60.1725C151.959 59.6792 155.394 59.7297 158.704 60.26C158.906 58.5701 158.938 56.8706 158.815 55.2041C158.566 55.16 158.316 55.1175 158.064 55.0838C155.679 54.7645 153.249 54.8911 150.872 55.2222C148.394 55.5673 145.951 56.1248 143.513 56.681C141.602 57.1169 139.697 57.6788 137.733 57.8118C136.172 57.9174 134.536 57.7069 133.27 56.718C131.828 55.5917 131.24 53.7975 130.868 52.0755C130.188 48.9224 129.915 45.6388 128.697 42.6244C128.364 41.7981 127.94 40.9947 127.404 40.2799C126.064 40.8322 124.725 41.3846 123.385 41.9369C122.634 42.2466 121.864 42.5753 121.098 42.9329C121.985 44.7194 122.715 46.5953 123.264 48.5378C125.868 57.7594 124.302 67.3512 120.948 76.2291Z" fill="#DC638E"/>
<path d="M66.9959 40.6611C61.9392 38.7318 59.2966 38.7691 56.3409 42.7451C53.4213 46.6724 50.8724 51.0017 49.5921 55.9904C49.4864 56.4021 49.3887 56.8328 49.3027 57.2544C49.3095 57.2607 49.3268 57.2594 49.3268 57.2594C50.5961 57.4893 51.8418 57.8503 53.055 58.286C56.4774 59.5147 59.6652 61.3048 63.0802 62.5528C64.722 63.1529 66.4783 63.7138 68.2356 63.8035C69.5461 63.8704 70.8621 63.584 71.8791 62.7188C72.8635 61.8814 73.4256 60.6487 73.8021 59.4389C74.352 57.672 74.577 55.8123 74.7214 53.9739C74.982 50.6552 74.9352 47.2448 75.9045 44.06C72.935 42.927 69.9656 41.794 66.9959 40.6611Z" fill="#EF82A4"/>
<path d="M73.802 59.4389C73.4255 60.6487 72.8634 61.8815 71.8791 62.7188C70.862 63.5839 69.546 63.8704 68.2355 63.8035C66.4782 63.7138 64.722 63.1529 63.0802 62.5528C59.6652 61.3047 56.4773 59.5147 53.0549 58.286C51.834 57.8476 50.5804 57.4842 49.3028 57.2545C48.7288 60.077 48.6028 63.1005 49.0098 66.0874C60.9054 65.5062 72.0727 70.9105 81.4546 77.8165C79.1365 72.2182 77.8715 66.1053 77.8736 59.9677C77.8753 55.1045 78.6754 50.2603 80.1702 45.6875L75.9046 44.0601C74.9352 47.2449 74.9821 50.6553 74.7214 53.9739C74.577 55.8123 74.352 57.672 73.802 59.4389Z" fill="#DC638E"/>
<path d="M121.775 164.263L121.69 164.249C120.142 163.957 118.683 163.346 117.361 162.493C115.964 161.593 114.738 160.451 113.62 159.227C113.024 158.573 112.458 157.892 111.91 157.197C111.308 156.432 110.751 155.644 110.013 154.999C108.863 153.992 107.372 153.328 105.827 153.662C104.165 154.022 102.946 155.395 102.12 156.801C100.412 159.709 98.9381 162.778 96.9255 165.497C96.0776 166.643 95.1034 167.713 94.0103 168.63C94.6079 169.106 95.2228 169.557 95.848 169.97C100.146 172.808 104.941 174.305 109.742 175.256C114.602 176.218 116.585 174.472 119.038 169.647" fill="#EF82A4"/>
<path d="M104.892 131.665C103.851 143.573 100.351 155.74 91.4769 164.017C91.0955 164.372 90.7058 164.718 90.3087 165.054C91.438 166.378 92.6866 167.578 94.0104 168.63C95.1069 167.711 96.0758 166.646 96.9257 165.497C98.9383 162.778 100.412 159.709 102.121 156.801C102.947 155.395 104.165 154.022 105.827 153.662C107.373 153.328 108.863 153.992 110.014 154.999C110.751 155.645 111.308 156.432 111.91 157.197C112.458 157.892 113.024 158.573 113.621 159.227C114.738 160.451 115.964 161.593 117.361 162.493C118.683 163.346 120.142 163.957 121.69 164.249L121.775 164.263C122.412 163.01 123.049 161.758 123.685 160.506C122.467 159.788 121.29 158.989 120.166 158.11C111.86 151.612 107.329 141.797 104.892 131.665Z" fill="#DC638E"/>
<path d="M84.9167 97.8813L84.9131 97.9152L66.3895 93.5961C72.3791 96.1173 78.6172 98.6776 84.9951 99.3909V99.3907C84.8838 98.8916 84.8617 98.3865 84.9167 97.8813Z" fill="#61043B"/>
<path d="M62.1208 82.3789L85.6604 95.595C85.8467 95.2445 86.063 94.8985 86.3047 94.5588L86.2839 94.588C79.5441 88.6883 70.665 85.4227 62.1208 82.3789Z" fill="#61043B"/>
<path d="M86.4127 107.233C86.4288 107.307 86.4463 107.382 86.4658 107.456C86.4463 107.382 86.4287 107.307 86.4127 107.233Z" fill="#61043B"/>
<path d="M93.0519 113.032C85.2671 117.944 79.6083 125.852 74.2686 133.481L93.9833 113.553L93.0519 113.032Z" fill="#61043B"/>
<path d="M95.8517 114.598L86.2162 132.34C90.3913 127.036 94.678 121.485 97.0063 115.243L95.8517 114.598Z" fill="#61043B"/>
<path d="M117.467 95.0043C117.456 94.9449 117.447 94.8853 117.435 94.8262L133.564 88.9642C127.964 89.979 122.187 91.0727 116.988 93.2672C116.965 93.2064 116.939 93.147 116.914 93.0872C116.913 93.0879 116.912 93.0886 116.91 93.0892C117.153 93.7104 117.338 94.3521 117.463 95.0047C117.465 95.0046 117.466 95.0043 117.467 95.0043Z" fill="#61043B"/>
<path d="M115.018 101.834C114.87 101.167 114.603 100.548 114.355 99.9145C114.064 99.1715 113.772 98.4256 113.544 97.6606C113.113 96.2175 113.068 94.782 113.413 93.3138C113.587 92.5703 113.867 91.883 114.149 91.177C114.329 90.7289 114.445 90.2749 114.321 89.7956C114.208 89.3583 113.96 88.9474 113.69 88.5643C113.491 88.3826 113.501 88.383 113.287 88.2199L113.197 88.1522C112.463 87.6055 111.658 87.1562 110.796 86.83C109.379 86.2934 107.766 86.0729 106.357 86.6315C105.484 86.9775 104.746 87.5972 103.898 87.9975C105.952 79.263 104.658 69.8743 103.326 60.8868L102.715 88.3981C101.966 88.5654 101.188 88.5983 100.398 88.5752L95.4321 69.9273C96.0026 76.1853 96.6502 82.6654 98.8337 88.4795C98.2829 88.4362 97.733 88.3908 97.1902 88.3695C96.6095 88.3467 95.9621 88.4237 95.278 88.5812C94.3389 89.1879 93.5318 89.983 92.9582 91.0146C92.3938 92.0295 92.076 93.1644 91.9134 94.3093C91.8225 94.9501 91.8112 95.5923 91.7476 96.2346C91.6764 96.9536 91.4691 97.6575 91.2448 98.3416C90.7875 99.7364 90.1778 101.108 90.0004 102.577C89.8364 103.936 90.2543 105.286 91.284 106.22C92.2416 107.09 93.5268 107.31 94.719 107.689C95.3904 107.902 96.0579 108.189 96.6104 108.635C97.0185 108.965 97.3258 109.387 97.655 109.791C98.5998 110.949 99.8591 112.02 101.322 112.436C102.606 112.801 103.926 112.535 105.065 111.87C105.734 111.48 106.336 110.978 106.885 110.433C107.327 109.994 107.718 109.509 108.193 109.103C108.947 108.456 109.824 107.968 110.705 107.517C112.158 106.774 114.058 106.076 114.821 104.509C115.229 103.671 115.217 102.728 115.018 101.834Z" fill="#61043B"/>
<path d="M117.409 99.1308C125.952 100.092 134.794 98.0623 143.266 96.0302L117.621 97.7275L117.621 97.719C117.603 97.9472 117.576 98.1751 117.541 98.4024C117.503 98.6455 117.457 98.8882 117.409 99.1308Z" fill="#61043B"/>
<path d="M122.24 136.738L111.082 112.339C110.712 112.527 110.343 112.716 109.979 112.911C111.994 121.539 117.186 129.323 122.24 136.738Z" fill="#61043B"/>
<path d="M114.622 110.305L113.786 110.875C113.629 110.973 113.486 111.058 113.326 111.151L125.403 125.16C122.25 119.926 118.94 114.534 114.622 110.305Z" fill="#61043B"/>
<path d="M96.6424 95.3716C96.5255 95.1769 96.6605 94.9338 96.6779 94.7073C96.6976 94.4521 96.5445 94.1925 96.3117 94.0861C95.8676 93.8833 94.7431 94.4175 95.1365 95.0209C95.2122 95.1369 95.3433 95.2157 95.3927 95.345C95.4573 95.5137 95.3608 95.6974 95.3428 95.8772C95.3078 96.2276 95.6097 96.559 95.958 96.6101C96.3064 96.6612 96.6629 96.4674 96.8621 96.177C96.9649 96.0273 97.03 95.8224 96.9352 95.6674C96.8626 95.5484 96.7141 95.4912 96.6424 95.3716Z" fill="#4C0D33"/>
<path d="M103.731 92.3495C103.614 92.1548 103.749 91.9116 103.766 91.6852C103.786 91.4301 103.633 91.1703 103.4 91.064C102.956 90.8612 101.832 91.3954 102.225 91.9988C102.301 92.1148 102.432 92.1936 102.481 92.3229C102.546 92.4917 102.449 92.6753 102.431 92.8551C102.396 93.2055 102.698 93.537 103.047 93.588C103.395 93.6391 103.751 93.4453 103.951 93.1549C104.053 93.0052 104.119 92.8003 104.024 92.6452C103.951 92.5263 103.803 92.4692 103.731 92.3495Z" fill="#4C0D33"/>
<path d="M94.8107 101.125C94.7758 101.236 94.7949 101.363 94.7373 101.465C94.6622 101.597 94.4911 101.633 94.3645 101.718C94.118 101.883 94.0644 102.257 94.218 102.511C94.3716 102.765 94.6887 102.893 94.9843 102.866C95.1368 102.853 95.3049 102.785 95.3549 102.641C95.3932 102.53 95.3508 102.403 95.3901 102.292C95.4539 102.111 95.6845 102.069 95.841 101.959C96.0174 101.834 96.1041 101.596 96.0484 101.387C95.9422 100.99 94.992 100.545 94.8107 101.125Z" fill="#4C0D33"/>
<path d="M102.762 98.702C102.915 98.6886 103.083 98.6211 103.132 98.4762C103.171 98.3651 103.128 98.238 103.168 98.1272C103.232 97.9468 103.462 97.9042 103.619 97.7941C103.795 97.67 103.882 97.4313 103.826 97.223C103.72 96.8255 102.769 96.3809 102.588 96.9602C102.553 97.0716 102.572 97.199 102.515 97.3006C102.44 97.4331 102.269 97.4688 102.142 97.5535C101.896 97.7186 101.842 98.0926 101.996 98.3465C102.149 98.6004 102.466 98.7282 102.762 98.702Z" fill="#4C0D33"/>
<path d="M110.339 93.1253C110.233 92.7278 109.283 92.2833 109.102 92.8625C109.067 92.9739 109.086 93.1013 109.028 93.2029C108.953 93.3355 108.782 93.3712 108.655 93.4559C108.409 93.621 108.355 93.995 108.509 94.2489C108.662 94.5028 108.98 94.6305 109.275 94.6044C109.428 94.591 109.596 94.5234 109.646 94.3786C109.684 94.2675 109.642 94.1404 109.681 94.0296C109.745 93.8491 109.975 93.8066 110.132 93.6965C110.308 93.5724 110.395 93.3337 110.339 93.1253Z" fill="#4C0D33"/>
<path d="M100.572 102.577C100.537 102.688 100.556 102.815 100.499 102.917C100.424 103.049 100.252 103.085 100.126 103.17C99.8793 103.335 99.8258 103.709 99.9793 103.963C100.133 104.217 100.45 104.345 100.746 104.318C100.898 104.305 101.066 104.237 101.116 104.093C101.155 103.982 101.112 103.854 101.151 103.744C101.215 103.563 101.446 103.521 101.602 103.411C101.779 103.287 101.865 103.048 101.81 102.839C101.704 102.442 100.753 101.997 100.572 102.577Z" fill="#4C0D33"/>
<path d="M110.558 98.4138C110.524 98.5252 110.543 98.6526 110.485 98.7543C110.41 98.8867 110.239 98.9225 110.112 99.0072C109.866 99.1723 109.812 99.5462 109.966 99.8001C110.119 100.054 110.437 100.182 110.732 100.156C110.885 100.142 111.053 100.075 111.103 99.93C111.141 99.8188 111.098 99.6917 111.138 99.5809C111.202 99.4006 111.432 99.3579 111.589 99.2479C111.765 99.1238 111.852 98.885 111.796 98.6767C111.69 98.279 110.74 97.8345 110.558 98.4138Z" fill="#4C0D33"/>
<path d="M107.54 103.98C107.505 104.091 107.524 104.219 107.467 104.32C107.391 104.453 107.22 104.488 107.094 104.573C106.847 104.738 106.794 105.112 106.947 105.366C107.101 105.62 107.418 105.748 107.714 105.722C107.866 105.708 108.034 105.641 108.084 105.496C108.122 105.385 108.08 105.258 108.119 105.147C108.183 104.966 108.414 104.924 108.57 104.814C108.747 104.69 108.833 104.451 108.778 104.243C108.671 103.845 107.721 103.4 107.54 103.98Z" fill="#4C0D33"/>
<path d="M102.656 108.243C102.622 108.354 102.641 108.482 102.583 108.583C102.508 108.716 102.337 108.752 102.21 108.836C101.964 109.001 101.91 109.375 102.064 109.629C102.217 109.883 102.534 110.011 102.83 109.985C102.983 109.971 103.151 109.904 103.201 109.759C103.239 109.648 103.197 109.521 103.236 109.41C103.3 109.23 103.53 109.187 103.687 109.077C103.863 108.953 103.95 108.714 103.894 108.506C103.788 108.108 102.838 107.664 102.656 108.243Z" fill="#4C0D33"/>
</svg>
